<?xml version="1.0" encoding="utf-8"?>
<!-- Generator: Adobe Illustrator 22.1.0, SVG Export Plug-In . SVG Version: 6.00 Build 0)  -->
<svg version="1.1" id="Layer_1" xmlns="http://www.w3.org/2000/svg" xmlns:xlink="http://www.w3.org/1999/xlink" x="0px" y="0px"
	 viewBox="0 0 403.1 91.9" style="enable-background:new 0 0 403.1 91.9;" xml:space="preserve">
<style type="text/css">
	.st0{opacity:0.44;fill:#8A1FDD;enable-background:new    ;}
	.st1{fill:#583F99;}
	.st2{fill:#A421DB;}
	.st3{font-family:'SFUIDisplay-Bold';}
	.st4{font-size:9px;}
	.st5{font-family:'SFUIDisplay-Regular';}
	.st6{font-size:5px;}
	.st7{fill:#FFFFFF;}
</style>
<path class="st0" d="M0,0v92h110.3c-3-7.9-10.4-15.1-19.8-18.1c-1.1-0.4-2.2-0.6-3.3-0.9c-5.4-2.2-10.4-4.8-14.9-7.6
	c-1.5-0.9-2.9-1.9-4.2-2.8C45.9,46.9,36,25.2,31.6,10.9c0-0.3,0-0.6-0.1-0.9c-0.3-3.3-0.9-6.7-1.9-10H0z"/>
<path class="st1" d="M0,18.9v73h33.1c6.7-12,18-20.6,29.4-26.6c1.9-1,3.9-2,5.8-2.8c4.4-2,8.6-3.6,12.5-4.9
	c5.8-0.8,11.3-2.3,16.3-4.4l0,0l0,0c17.9-7.4,30-21.9,30-38.6c0-5.1-1.1-10-3.2-14.6H17c-0.3,0.7-0.6,1.5-0.9,2.2l0,0
	c-0.7,1.2-1.4,2.3-2.1,3.4C9.6,11.8,4.8,16.1,0,18.9z"/>
<path class="st0" d="M221,91.9h136.4c0.9-0.5,1.8-1,2.6-1.6c6.2-4.8,6.7-12.2,1.7-17.4c-0.5-0.5-1-1-1.6-1.5
	c-6.7-5.2-17.7-5.2-24.4,0.1c-0.6,0.4-1.1,0.9-1.5,1.3c-20.1,12.9-43.4,9-56.4,5.1c-3.2-1.7-6.7-3-10.3-3.8l0,0
	c-12.9-3-27.4-0.5-37.6,7.4C225.8,84.6,222.8,88.1,221,91.9z"/>
<path class="st1" d="M192.6,0c4.2,5.3,10.8,8.8,18.1,8.8c7.4,0,13.9-3.4,18.2-8.8H192.6z"/>
<circle class="st2" cx="65.9" cy="63.3" r="14.7"/>
<path class="st2" d="M26.9,0h-6.3c0.7,2.1,1.8,4,3.2,5.6c2,2.2,4.7,3.8,7.7,4.4c1,0.2,2,0.3,3,0.3c6.6,0,12.1-4.3,14-10.3h-19H26.9z
	"/>
<path class="st1" d="M313.5,91.9h89.6V40.8c-0.7,0-1.5,0-2.3,0c-8.8,0.2-16.9,2.8-23.3,7S366.2,58,364,64.8
	c-1.1,2.2-2.4,4.1-3.6,5.8c-9,11.9-20.7,11.5-24.1,11.2c-0.3,0-0.5-0.1-0.8-0.1h-0.1c-1.1-0.1-2.2-0.2-3.3-0.1
	C323.7,81.7,316.7,86,313.5,91.9z"/>
<path class="st1" d="M403.1,17.3c-3.1,2.2-7.1,3.8-11.6,4.4c-8.9,1.3-17.5-1.5-22.8-6.5c-1.5-1.4-2.7-3.1-3.6-4.8
	C362.2,7,357.4,2.7,350.6,0h52.5V17.3z"/>
<circle class="st2" cx="336.2" cy="10.8" r="3.9"/>
<path class="st1" d="M145.9,91.9h21.9c-0.5-5.6-5.2-10-10.9-10C151.1,82,146.4,86.3,145.9,91.9z"/>
<circle class="st2" cx="376.9" cy="47.1" r="14.7"/>
<text transform="matrix(1 0 0 1 166.5115 32.4015)" class="st3 st4">Ask us anything </text>
<text transform="matrix(0.9 0 0 1 156.7007 47.09)" class="st5 st6"> If you still have questions, please contact us. </text>
<rect y="-1" class="st7" width="403.1" height="96.8"/>
</svg>
