<?xml version="1.0" encoding="utf-8"?>
<!-- Generator: Adobe Illustrator 22.1.0, SVG Export Plug-In . SVG Version: 6.00 Build 0)  -->
<svg version="1.1" id="Layer_1" xmlns="http://www.w3.org/2000/svg" xmlns:xlink="http://www.w3.org/1999/xlink" x="0px" y="0px"
	 viewBox="0 0 403.1 91.9" style="enable-background:new 0 0 403.1 91.9;" xml:space="preserve">
<style type="text/css">
	.st0{opacity:0.44;fill:#1BD8E2;enable-background:new    ;}
	.st1{fill:#1BC2D6;}
	.st2{fill:#00AEBD;}
	.st3{fill:#1BD8E2;}
	.st4{enable-background:new    ;}
	.st5{fill:none;}
</style>
<path class="st0" d="M403.1,0v92H292.8c3-7.9,10.4-15.1,19.8-18.1c1.1-0.4,2.2-0.6,3.3-0.9c5.4-2.2,10.4-4.8,14.9-7.6
	c1.5-0.9,2.9-1.9,4.2-2.8c22.2-15.7,32.1-37.4,36.5-51.7c0-0.3,0-0.6,0.1-0.9c0.3-3.3,0.9-6.7,1.9-10C373.5,0,403.1,0,403.1,0z"/>
<path class="st1" d="M403.1,18.9v73H370c-6.7-12-18-20.6-29.4-26.6c-1.9-1-3.9-2-5.8-2.8c-4.4-2-8.6-3.6-12.5-4.9
	c-5.8-0.8-11.3-2.3-16.3-4.4l0,0l0,0c-17.9-7.4-30-21.9-30-38.6c0-5.1,1.1-10,3.2-14.6h106.9c0.3,0.7,0.6,1.5,0.9,2.2l0,0
	c0.7,1.2,1.4,2.3,2.1,3.4C393.5,11.8,398.3,16.1,403.1,18.9z"/>
<path class="st0" d="M182.1,91.9H45.7c-0.9-0.5-1.8-1-2.6-1.6c-6.2-4.8-6.7-12.2-1.7-17.4c0.5-0.5,1-1,1.6-1.5
	c6.7-5.2,17.7-5.2,24.4,0.1c0.6,0.4,1.1,0.9,1.5,1.3c20.1,12.9,43.4,9,56.4,5.1c3.2-1.7,6.7-3,10.3-3.8l0,0
	c12.9-3,27.4-0.5,37.6,7.4C177.3,84.6,180.3,88.1,182.1,91.9z"/>
<path class="st2" d="M210.5,0c-4.2,5.3-10.8,8.8-18.1,8.8c-7.4,0-13.9-3.4-18.2-8.8H210.5z"/>
<circle class="st3" cx="337.2" cy="63.3" r="14.7"/>
<path class="st3" d="M376.2,0h6.3c-0.7,2.1-1.8,4-3.2,5.6c-2,2.2-4.7,3.8-7.7,4.4c-1,0.2-2,0.3-3,0.3c-6.6,0-12.1-4.3-14-10.3h19
	H376.2z"/>
<path class="st1" d="M86.8,91.9H0V46.2c0.7,0,1.5,0,2.2,0c8.5,0.2,16.4,2.5,22.6,6.3s10.9,9.1,13.1,15.2c1.1,2,2.3,3.7,3.5,5.2
	c8.7,10.6,20.1,10.3,23.3,10c0.3,0,0.5-0.1,0.8-0.1h0.1c1.1-0.1,2.1-0.2,3.2-0.1C76.9,82.8,83.7,86.6,86.8,91.9z"/>
<path class="st1" d="M0,17.3c3.1,2.2,7.1,3.8,11.6,4.4c8.9,1.3,17.5-1.5,22.8-6.5c1.5-1.4,2.7-3.1,3.6-4.8C40.9,7,45.7,2.7,52.5,0H0
	V17.3z"/>
<circle class="st2" cx="66.9" cy="10.8" r="3.9"/>
<path class="st2" d="M257.2,91.9h-21.9c0.5-5.6,5.2-10,10.9-10C252,82,256.7,86.3,257.2,91.9z"/>
<circle class="st3" cx="21.5" cy="51.4" r="14.7"/>
<g class="st4">
	<path d="M147.5,32.4h-1.3l-1.7-6.3h1.4l1,4.6h0l1.2-4.6h1.1l1.2,4.6h0l1-4.6h1.4l-1.7,6.3h-1.3l-1.2-4.3h0L147.5,32.4z"/>
	<path d="M153.5,25.8h1.3v2.7h0c0.3-0.6,0.8-0.9,1.6-0.9c0.5,0,1,0.2,1.3,0.5s0.5,0.8,0.5,1.3v3.1h-1.3v-2.8c0-0.3-0.1-0.6-0.3-0.7
		c-0.2-0.2-0.4-0.3-0.7-0.3c-0.3,0-0.6,0.1-0.8,0.3c-0.2,0.2-0.3,0.5-0.3,0.8v2.7h-1.3V25.8z"/>
	<path d="M159,34.2v-1c0,0,0.1,0,0.3,0c0.5,0,0.8-0.2,0.9-0.6l0-0.2l-1.7-4.9h1.4l1,3.8h0l1-3.8h1.4l-1.7,4.9
		c-0.2,0.6-0.5,1-0.8,1.3c-0.3,0.2-0.8,0.4-1.4,0.4C159.3,34.2,159.1,34.2,159,34.2z"/>
	<path d="M167.2,31.6L167.2,31.6l0,0.8h-1.3v-6.6h1.3v2.6h0c0.3-0.6,0.8-0.9,1.5-0.9c0.6,0,1.1,0.2,1.4,0.7c0.4,0.4,0.5,1,0.5,1.8
		c0,0.8-0.2,1.4-0.5,1.8c-0.4,0.4-0.8,0.7-1.4,0.7C168,32.5,167.4,32.2,167.2,31.6z M167.5,28.9c-0.2,0.3-0.3,0.6-0.3,1
		c0,0.4,0.1,0.8,0.3,1c0.2,0.3,0.5,0.4,0.8,0.4c0.3,0,0.6-0.1,0.8-0.4c0.2-0.3,0.3-0.6,0.3-1.1c0-0.4-0.1-0.8-0.3-1
		c-0.2-0.3-0.5-0.4-0.8-0.4C167.9,28.5,167.7,28.7,167.5,28.9z"/>
	<path d="M171.8,31.8c-0.4-0.4-0.6-1.1-0.6-1.8c0-0.8,0.2-1.4,0.6-1.8c0.4-0.4,1-0.7,1.7-0.7c0.7,0,1.3,0.2,1.7,0.7
		c0.4,0.4,0.6,1.1,0.6,1.8c0,0.8-0.2,1.4-0.6,1.8c-0.4,0.4-1,0.7-1.7,0.7C172.8,32.5,172.2,32.3,171.8,31.8z M174.3,31.1
		c0.2-0.3,0.3-0.6,0.3-1.1c0-0.5-0.1-0.8-0.3-1.1c-0.2-0.3-0.5-0.4-0.8-0.4c-0.3,0-0.6,0.1-0.8,0.4c-0.2,0.3-0.3,0.6-0.3,1.1
		c0,0.5,0.1,0.9,0.3,1.1c0.2,0.3,0.5,0.4,0.8,0.4S174.2,31.4,174.3,31.1z"/>
	<path d="M177.1,31.8c-0.4-0.4-0.6-1.1-0.6-1.8c0-0.8,0.2-1.4,0.6-1.8c0.4-0.4,1-0.7,1.7-0.7c0.7,0,1.3,0.2,1.7,0.7
		c0.4,0.4,0.6,1.1,0.6,1.8c0,0.8-0.2,1.4-0.6,1.8c-0.4,0.4-1,0.7-1.7,0.7C178.1,32.5,177.5,32.3,177.1,31.8z M179.6,31.1
		c0.2-0.3,0.3-0.6,0.3-1.1c0-0.5-0.1-0.8-0.3-1.1c-0.2-0.3-0.5-0.4-0.8-0.4c-0.3,0-0.6,0.1-0.8,0.4c-0.2,0.3-0.3,0.6-0.3,1.1
		c0,0.5,0.1,0.9,0.3,1.1c0.2,0.3,0.5,0.4,0.8,0.4S179.4,31.4,179.6,31.1z"/>
	<path d="M184.9,27.6h1.5l-1.9,2.1l2,2.8H185l-1.4-2l-0.3,0.4v1.6h-1.3v-6.6h1.3v3.8h0L184.9,27.6z"/>
	<path d="M194.2,32.4h-1.4L192,29h0l-0.9,3.4h-1.3l-1.3-4.8h1.3l0.7,3.6h0l0.9-3.6h1.2l0.9,3.6h0l0.8-3.6h1.3L194.2,32.4z"/>
	<path d="M196.2,26.8c-0.1-0.1-0.2-0.3-0.2-0.5s0.1-0.3,0.2-0.5c0.1-0.1,0.3-0.2,0.5-0.2c0.2,0,0.4,0.1,0.5,0.2
		c0.1,0.1,0.2,0.3,0.2,0.5s-0.1,0.4-0.2,0.5s-0.3,0.2-0.5,0.2C196.5,27,196.4,27,196.2,26.8z M196.1,27.6h1.3v4.8h-1.3V27.6z"/>
	<path d="M199.9,26.5v1.1h0.9v1h-0.9v2.4c0,0.4,0.2,0.6,0.6,0.6c0.1,0,0.2,0,0.3,0v0.9c-0.2,0-0.4,0.1-0.6,0.1c-0.6,0-1-0.1-1.2-0.3
		c-0.2-0.2-0.4-0.5-0.4-1v-2.6h-0.7v-1h0.7v-1.1H199.9z"/>
	<path d="M201.5,25.8h1.3v2.7h0c0.3-0.6,0.8-0.9,1.6-0.9c0.5,0,1,0.2,1.3,0.5s0.5,0.8,0.5,1.3v3.1h-1.3v-2.8c0-0.3-0.1-0.6-0.3-0.7
		c-0.2-0.2-0.4-0.3-0.7-0.3c-0.3,0-0.6,0.1-0.8,0.3c-0.2,0.2-0.3,0.5-0.3,0.8v2.7h-1.3V25.8z"/>
	<path d="M213.1,32.4H209v-6.3h1.3v5.2h2.8V32.4z"/>
	<path d="M214,26.8c-0.1-0.1-0.2-0.3-0.2-0.5s0.1-0.3,0.2-0.5c0.1-0.1,0.3-0.2,0.5-0.2c0.2,0,0.4,0.1,0.5,0.2
		c0.1,0.1,0.2,0.3,0.2,0.5s-0.1,0.4-0.2,0.5s-0.3,0.2-0.5,0.2C214.3,27,214.1,27,214,26.8z M213.8,27.6h1.3v4.8h-1.3V27.6z"/>
	<path d="M216,27.6h1.2v0.9h0c0.3-0.6,0.8-0.9,1.6-0.9c0.5,0,1,0.2,1.3,0.5c0.3,0.3,0.5,0.8,0.5,1.3v3.1h-1.3v-2.8
		c0-0.3-0.1-0.6-0.2-0.7c-0.2-0.2-0.4-0.3-0.7-0.3c-0.3,0-0.6,0.1-0.7,0.3c-0.2,0.2-0.3,0.5-0.3,0.8v2.8H216V27.6z"/>
	<path d="M222,33.8c-0.4-0.3-0.6-0.6-0.7-1h1.3c0,0.2,0.2,0.3,0.3,0.4c0.2,0.1,0.4,0.1,0.7,0.1c0.3,0,0.6-0.1,0.8-0.2
		c0.2-0.2,0.3-0.4,0.3-0.6v-0.9h0c-0.1,0.3-0.3,0.5-0.6,0.6c-0.3,0.2-0.6,0.2-0.9,0.2c-0.6,0-1.1-0.2-1.4-0.6
		c-0.4-0.4-0.5-1-0.5-1.8c0-0.8,0.2-1.4,0.5-1.8c0.4-0.4,0.8-0.7,1.5-0.7c0.3,0,0.6,0.1,0.9,0.2c0.3,0.2,0.5,0.4,0.6,0.6h0v-0.8h1.3
		v4.7c0,0.6-0.2,1-0.7,1.4c-0.4,0.3-1,0.5-1.7,0.5C223,34.2,222.4,34,222,33.8z M224.4,31c0.2-0.3,0.3-0.6,0.3-1
		c0-0.4-0.1-0.8-0.3-1c-0.2-0.3-0.5-0.4-0.8-0.4c-0.3,0-0.6,0.1-0.8,0.4s-0.3,0.6-0.3,1s0.1,0.8,0.3,1c0.2,0.2,0.5,0.4,0.8,0.4
		S224.2,31.3,224.4,31z"/>
	<path d="M231.4,32.4h-1.2v-0.9h0c-0.3,0.6-0.8,0.9-1.5,0.9c-0.5,0-1-0.2-1.3-0.5c-0.3-0.3-0.5-0.8-0.5-1.3v-3.1h1.3v2.8
		c0,0.3,0.1,0.6,0.3,0.7c0.2,0.2,0.4,0.3,0.7,0.3s0.5-0.1,0.7-0.3c0.2-0.2,0.3-0.5,0.3-0.8v-2.8h1.3V32.4z"/>
	<path d="M232.5,32.1c-0.3-0.3-0.5-0.6-0.5-1c0-0.4,0.2-0.8,0.5-1c0.3-0.2,0.8-0.4,1.4-0.4l1.2-0.1v-0.3c0-0.2-0.1-0.4-0.2-0.5
		c-0.1-0.1-0.4-0.2-0.6-0.2c-0.2,0-0.4,0.1-0.6,0.2c-0.2,0.1-0.2,0.3-0.3,0.4h-1.2c0-0.5,0.2-0.8,0.6-1.1c0.4-0.3,0.9-0.4,1.5-0.4
		c0.6,0,1.1,0.1,1.5,0.4s0.6,0.7,0.6,1.2v3.3h-1.2v-0.7h0c-0.1,0.2-0.3,0.4-0.6,0.6c-0.3,0.1-0.6,0.2-0.9,0.2
		C233.2,32.5,232.8,32.3,232.5,32.1z M234.9,31.3c0.2-0.2,0.3-0.4,0.3-0.6v-0.4l-1,0.1c-0.5,0-0.8,0.2-0.8,0.6
		c0,0.2,0.1,0.3,0.2,0.4c0.1,0.1,0.3,0.2,0.6,0.2C234.4,31.5,234.7,31.4,234.9,31.3z"/>
	<path d="M241.5,32.4h-4.1v-6.3h1.3v5.2h2.8V32.4z"/>
	<path d="M242.4,32.1c-0.3-0.3-0.5-0.6-0.5-1c0-0.4,0.2-0.8,0.5-1c0.3-0.2,0.8-0.4,1.4-0.4l1.2-0.1v-0.3c0-0.2-0.1-0.4-0.2-0.5
		c-0.1-0.1-0.4-0.2-0.6-0.2c-0.2,0-0.4,0.1-0.6,0.2c-0.2,0.1-0.2,0.3-0.3,0.4h-1.2c0-0.5,0.2-0.8,0.6-1.1c0.4-0.3,0.9-0.4,1.5-0.4
		c0.6,0,1.1,0.1,1.5,0.4s0.6,0.7,0.6,1.2v3.3h-1.2v-0.7h0c-0.1,0.2-0.3,0.4-0.6,0.6c-0.3,0.1-0.6,0.2-0.9,0.2
		C243.1,32.5,242.7,32.3,242.4,32.1z M244.8,31.3c0.2-0.2,0.3-0.4,0.3-0.6v-0.4l-1,0.1c-0.5,0-0.8,0.2-0.8,0.6
		c0,0.2,0.1,0.3,0.2,0.4c0.1,0.1,0.3,0.2,0.6,0.2C244.3,31.5,244.6,31.4,244.8,31.3z"/>
	<path d="M247.2,27.6h1.2v0.9h0c0.3-0.6,0.8-0.9,1.6-0.9c0.5,0,1,0.2,1.3,0.5c0.3,0.3,0.5,0.8,0.5,1.3v3.1h-1.3v-2.8
		c0-0.3-0.1-0.6-0.2-0.7c-0.2-0.2-0.4-0.3-0.7-0.3c-0.3,0-0.6,0.1-0.7,0.3c-0.2,0.2-0.3,0.5-0.3,0.8v2.8h-1.3V27.6z"/>
	<path d="M253,31.8c-0.4-0.4-0.5-1.1-0.5-1.8c0-0.8,0.2-1.4,0.5-1.8s0.8-0.7,1.4-0.7c0.3,0,0.7,0.1,0.9,0.2c0.3,0.2,0.4,0.4,0.6,0.6
		h0v-2.6h1.3v6.6h-1.3v-0.8h0c-0.1,0.3-0.3,0.5-0.6,0.6c-0.3,0.2-0.6,0.2-0.9,0.2C253.8,32.5,253.3,32.2,253,31.8z M254,28.9
		c-0.2,0.3-0.3,0.6-0.3,1c0,0.4,0.1,0.8,0.3,1.1c0.2,0.3,0.5,0.4,0.8,0.4c0.3,0,0.6-0.1,0.8-0.4s0.3-0.6,0.3-1s-0.1-0.8-0.3-1
		c-0.2-0.3-0.5-0.4-0.8-0.4C254.5,28.5,254.2,28.7,254,28.9z"/>
</g>
<rect x="105.4" y="43.4" class="st5" width="192.9" height="49.2"/>
<rect x="89.7" y="42.6" class="st5" width="222.5" height="29"/>
<g class="st4">
	<path d="M95.4,47.1H95l-0.9-3.5h0.4l0.6,2.9h0l0.7-2.9h0.4l0.7,2.9h0l0.6-2.9h0.4l-0.9,3.5h-0.4l-0.7-2.8h0L95.4,47.1z"/>
	<path d="M100.2,46.3c0,0.2-0.1,0.4-0.3,0.6c-0.2,0.1-0.4,0.2-0.7,0.2c-0.3,0-0.6-0.1-0.8-0.4c-0.2-0.2-0.3-0.6-0.3-1s0.1-0.7,0.3-1
		s0.5-0.4,0.8-0.4c0.3,0,0.6,0.1,0.8,0.3c0.2,0.2,0.3,0.5,0.3,0.9v0.2h-1.7v0c0,0.3,0.1,0.5,0.2,0.6c0.1,0.1,0.3,0.2,0.5,0.2
		c0.1,0,0.3,0,0.4-0.1c0.1-0.1,0.2-0.2,0.2-0.3H100.2z M98.8,45c-0.1,0.1-0.2,0.3-0.2,0.5h1.3c0-0.2-0.1-0.4-0.2-0.5
		c-0.1-0.1-0.3-0.2-0.5-0.2C99,44.8,98.9,44.9,98.8,45z"/>
	<path d="M101.9,46.7c-0.2-0.2-0.3-0.6-0.3-1c0-0.4,0.1-0.7,0.3-1c0.2-0.2,0.4-0.4,0.7-0.4c0.4,0,0.6,0.2,0.8,0.5h0v-1.5h0.4v3.7
		h-0.4v-0.4h0c-0.2,0.3-0.4,0.5-0.8,0.5C102.3,47.1,102.1,47,101.9,46.7z M102.2,45.1c-0.1,0.2-0.2,0.4-0.2,0.7
		c0,0.3,0.1,0.5,0.2,0.7c0.1,0.2,0.3,0.3,0.5,0.3c0.2,0,0.4-0.1,0.5-0.3s0.2-0.4,0.2-0.7s-0.1-0.5-0.2-0.7s-0.3-0.3-0.5-0.3
		C102.5,44.8,102.3,44.9,102.2,45.1z"/>
	<path d="M104.5,46.8c-0.2-0.2-0.3-0.6-0.3-1s0.1-0.7,0.3-1c0.2-0.2,0.5-0.4,0.8-0.4s0.6,0.1,0.8,0.4c0.2,0.2,0.3,0.6,0.3,1
		s-0.1,0.7-0.3,1c-0.2,0.2-0.5,0.4-0.8,0.4S104.7,47,104.5,46.8z M105.8,46.5c0.1-0.2,0.2-0.4,0.2-0.7c0-0.3-0.1-0.5-0.2-0.7
		c-0.1-0.2-0.3-0.3-0.5-0.3s-0.4,0.1-0.5,0.3c-0.1,0.2-0.2,0.4-0.2,0.7s0.1,0.5,0.2,0.7c0.1,0.2,0.3,0.3,0.5,0.3
		C105.5,46.7,105.7,46.7,105.8,46.5z"/>
	<path d="M107.8,44.5h0.4v0.4h0c0.2-0.3,0.4-0.5,0.8-0.5c0.3,0,0.5,0.1,0.6,0.3c0.2,0.2,0.2,0.4,0.2,0.7v1.7h-0.4v-1.6
		c0-0.2,0-0.4-0.1-0.5c-0.1-0.1-0.2-0.2-0.4-0.2c-0.2,0-0.4,0.1-0.5,0.2c-0.1,0.1-0.2,0.3-0.2,0.5v1.5h-0.4V44.5z"/>
	<path d="M110.5,46.8c-0.2-0.2-0.3-0.6-0.3-1s0.1-0.7,0.3-1c0.2-0.2,0.5-0.4,0.8-0.4s0.6,0.1,0.8,0.4c0.2,0.2,0.3,0.6,0.3,1
		s-0.1,0.7-0.3,1c-0.2,0.2-0.5,0.4-0.8,0.4S110.7,47,110.5,46.8z M111.8,46.5c0.1-0.2,0.2-0.4,0.2-0.7c0-0.3-0.1-0.5-0.2-0.7
		c-0.1-0.2-0.3-0.3-0.5-0.3s-0.4,0.1-0.5,0.3c-0.1,0.2-0.2,0.4-0.2,0.7s0.1,0.5,0.2,0.7c0.1,0.2,0.3,0.3,0.5,0.3
		C111.5,46.7,111.7,46.7,111.8,46.5z"/>
	<path d="M113.3,43.9v0.6h0.5v0.4h-0.5v1.6c0,0.2,0.1,0.4,0.3,0.4c0.1,0,0.1,0,0.2,0v0.4c-0.1,0-0.1,0-0.2,0c-0.2,0-0.4-0.1-0.5-0.2
		c-0.1-0.1-0.1-0.3-0.1-0.5v-1.6h-0.3v-0.4h0.3v-0.6H113.3z"/>
	<path d="M116.9,45.3c0-0.1-0.1-0.3-0.2-0.4c-0.1-0.1-0.3-0.1-0.4-0.1c-0.2,0-0.4,0.1-0.5,0.3c-0.1,0.2-0.2,0.4-0.2,0.7
		c0,0.3,0.1,0.5,0.2,0.7c0.1,0.2,0.3,0.3,0.5,0.3c0.3,0,0.5-0.2,0.6-0.5h0.4c0,0.3-0.1,0.5-0.3,0.6c-0.2,0.2-0.4,0.2-0.7,0.2
		c-0.3,0-0.6-0.1-0.8-0.4c-0.2-0.2-0.3-0.6-0.3-1c0-0.4,0.1-0.7,0.3-1c0.2-0.2,0.5-0.4,0.8-0.4c0.3,0,0.5,0.1,0.7,0.3
		c0.2,0.2,0.3,0.4,0.3,0.6H116.9z"/>
	<path d="M117.6,43.4h0.4v1.5h0c0.1-0.3,0.4-0.5,0.8-0.5c0.3,0,0.5,0.1,0.6,0.3c0.2,0.2,0.2,0.4,0.2,0.7v1.7h-0.4v-1.6
		c0-0.2-0.1-0.4-0.2-0.5c-0.1-0.1-0.3-0.2-0.4-0.2c-0.2,0-0.4,0.1-0.5,0.2c-0.1,0.1-0.2,0.3-0.2,0.6v1.5h-0.4V43.4z"/>
	<path d="M120.3,46.9c-0.1-0.1-0.2-0.3-0.2-0.6c0-0.2,0.1-0.4,0.2-0.5c0.2-0.1,0.4-0.2,0.7-0.2l0.7,0v-0.2c0-0.2,0-0.3-0.1-0.4
		s-0.2-0.1-0.4-0.1c-0.1,0-0.3,0-0.3,0.1c-0.1,0.1-0.2,0.2-0.2,0.3h-0.4c0-0.2,0.1-0.4,0.3-0.6c0.2-0.1,0.4-0.2,0.6-0.2
		c0.3,0,0.5,0.1,0.7,0.2c0.2,0.2,0.3,0.4,0.3,0.6v1.8h-0.4v-0.5h0c-0.1,0.1-0.2,0.3-0.3,0.3c-0.1,0.1-0.3,0.1-0.5,0.1
		C120.6,47.1,120.4,47,120.3,46.9z M121.4,46.6c0.1-0.1,0.2-0.3,0.2-0.5v-0.2l-0.6,0c-0.4,0-0.5,0.2-0.5,0.4c0,0.1,0,0.2,0.1,0.3
		c0.1,0.1,0.2,0.1,0.4,0.1C121.1,46.7,121.3,46.7,121.4,46.6z"/>
	<path d="M122.5,44.5h0.4v0.4h0c0-0.1,0.1-0.2,0.2-0.3s0.2-0.1,0.4-0.1c0.1,0,0.1,0,0.1,0v0.4c0,0-0.1,0-0.2,0
		c-0.2,0-0.3,0.1-0.4,0.2c-0.1,0.1-0.1,0.3-0.1,0.4v1.6h-0.4V44.5z"/>
	<path d="M124.1,47.8c-0.2-0.1-0.3-0.3-0.3-0.5h0.4c0,0.1,0.1,0.2,0.2,0.3c0.1,0.1,0.2,0.1,0.4,0.1c0.2,0,0.4-0.1,0.5-0.2
		c0.1-0.1,0.2-0.3,0.2-0.4v-0.4h0c-0.2,0.3-0.4,0.5-0.8,0.5c-0.3,0-0.5-0.1-0.7-0.4c-0.2-0.2-0.3-0.6-0.3-1c0-0.4,0.1-0.7,0.3-1
		s0.4-0.4,0.7-0.4c0.3,0,0.6,0.2,0.8,0.5h0v-0.4h0.4V47c0,0.3-0.1,0.6-0.3,0.7c-0.2,0.2-0.5,0.3-0.8,0.3
		C124.5,48,124.3,48,124.1,47.8z M125.3,46.5c0.1-0.2,0.2-0.4,0.2-0.7c0-0.3-0.1-0.5-0.2-0.7c-0.1-0.2-0.3-0.3-0.5-0.3
		c-0.2,0-0.4,0.1-0.5,0.3c-0.1,0.2-0.2,0.4-0.2,0.7c0,0.3,0.1,0.5,0.2,0.7c0.1,0.2,0.3,0.3,0.5,0.3C125,46.7,125.2,46.6,125.3,46.5z
		"/>
	<path d="M128.3,46.3c0,0.2-0.1,0.4-0.3,0.6c-0.2,0.1-0.4,0.2-0.7,0.2c-0.3,0-0.6-0.1-0.8-0.4c-0.2-0.2-0.3-0.6-0.3-1s0.1-0.7,0.3-1
		s0.5-0.4,0.8-0.4c0.3,0,0.6,0.1,0.8,0.3c0.2,0.2,0.3,0.5,0.3,0.9v0.2h-1.7v0c0,0.3,0.1,0.5,0.2,0.6c0.1,0.1,0.3,0.2,0.5,0.2
		c0.1,0,0.3,0,0.4-0.1c0.1-0.1,0.2-0.2,0.2-0.3H128.3z M126.9,45c-0.1,0.1-0.2,0.3-0.2,0.5h1.3c0-0.2-0.1-0.4-0.2-0.5
		c-0.1-0.1-0.3-0.2-0.5-0.2C127.1,44.8,127,44.9,126.9,45z"/>
	<path d="M131.4,45.3c0-0.1-0.1-0.3-0.2-0.4c-0.1-0.1-0.3-0.1-0.4-0.1c-0.2,0-0.4,0.1-0.5,0.3c-0.1,0.2-0.2,0.4-0.2,0.7
		c0,0.3,0.1,0.5,0.2,0.7c0.1,0.2,0.3,0.3,0.5,0.3c0.3,0,0.5-0.2,0.6-0.5h0.4c0,0.3-0.1,0.5-0.3,0.6c-0.2,0.2-0.4,0.2-0.7,0.2
		c-0.3,0-0.6-0.1-0.8-0.4c-0.2-0.2-0.3-0.6-0.3-1c0-0.4,0.1-0.7,0.3-1c0.2-0.2,0.5-0.4,0.8-0.4c0.3,0,0.5,0.1,0.7,0.3
		c0.2,0.2,0.3,0.4,0.3,0.6H131.4z"/>
	<path d="M132.3,46.8c-0.2-0.2-0.3-0.6-0.3-1s0.1-0.7,0.3-1c0.2-0.2,0.5-0.4,0.8-0.4s0.6,0.1,0.8,0.4c0.2,0.2,0.3,0.6,0.3,1
		s-0.1,0.7-0.3,1c-0.2,0.2-0.5,0.4-0.8,0.4S132.5,47,132.3,46.8z M133.7,46.5c0.1-0.2,0.2-0.4,0.2-0.7c0-0.3-0.1-0.5-0.2-0.7
		c-0.1-0.2-0.3-0.3-0.5-0.3s-0.4,0.1-0.5,0.3c-0.1,0.2-0.2,0.4-0.2,0.7s0.1,0.5,0.2,0.7c0.1,0.2,0.3,0.3,0.5,0.3
		C133.4,46.7,133.5,46.7,133.7,46.5z"/>
	<path d="M134.6,44.5h0.4v0.4h0c0.1-0.1,0.1-0.3,0.3-0.3c0.1-0.1,0.3-0.1,0.4-0.1c0.3,0,0.6,0.2,0.7,0.5h0c0.1-0.2,0.2-0.3,0.3-0.4
		s0.3-0.1,0.4-0.1c0.2,0,0.4,0.1,0.6,0.2c0.1,0.2,0.2,0.4,0.2,0.6v1.8h-0.4v-1.7c0-0.2,0-0.3-0.1-0.4c-0.1-0.1-0.2-0.2-0.4-0.2
		s-0.3,0.1-0.4,0.2c-0.1,0.1-0.2,0.3-0.2,0.4v1.7h-0.4v-1.8c0-0.2,0-0.3-0.1-0.4c-0.1-0.1-0.2-0.1-0.4-0.1c-0.2,0-0.3,0.1-0.4,0.2
		c-0.1,0.1-0.2,0.3-0.2,0.5v1.6h-0.4V44.5z"/>
	<path d="M138.4,44.5h0.4v0.4h0c0.1-0.1,0.1-0.3,0.3-0.3c0.1-0.1,0.3-0.1,0.4-0.1c0.3,0,0.6,0.2,0.7,0.5h0c0.1-0.2,0.2-0.3,0.3-0.4
		s0.3-0.1,0.4-0.1c0.2,0,0.4,0.1,0.6,0.2c0.1,0.2,0.2,0.4,0.2,0.6v1.8h-0.4v-1.7c0-0.2,0-0.3-0.1-0.4c-0.1-0.1-0.2-0.2-0.4-0.2
		s-0.3,0.1-0.4,0.2c-0.1,0.1-0.2,0.3-0.2,0.4v1.7h-0.4v-1.8c0-0.2,0-0.3-0.1-0.4c-0.1-0.1-0.2-0.1-0.4-0.1c-0.2,0-0.3,0.1-0.4,0.2
		c-0.1,0.1-0.2,0.3-0.2,0.5v1.6h-0.4V44.5z"/>
	<path d="M142.2,44c0-0.1-0.1-0.1-0.1-0.2c0-0.1,0-0.1,0.1-0.2c0-0.1,0.1-0.1,0.2-0.1c0.1,0,0.1,0,0.2,0.1s0.1,0.1,0.1,0.2
		c0,0.1,0,0.1-0.1,0.2c0,0.1-0.1,0.1-0.2,0.1C142.3,44,142.2,44,142.2,44z M142.1,44.5h0.4v2.6h-0.4V44.5z"/>
	<path d="M143.3,44.6c0.2-0.1,0.4-0.2,0.6-0.2c0.2,0,0.4,0.1,0.6,0.2c0.2,0.1,0.2,0.3,0.3,0.5h-0.4c0-0.1-0.1-0.2-0.2-0.3
		s-0.2-0.1-0.4-0.1c-0.1,0-0.3,0-0.4,0.1c-0.1,0.1-0.1,0.2-0.1,0.3c0,0.2,0.1,0.3,0.4,0.4l0.4,0.1c0.2,0.1,0.4,0.2,0.5,0.3
		c0.1,0.1,0.1,0.3,0.1,0.4c0,0.2-0.1,0.4-0.3,0.6c-0.2,0.1-0.4,0.2-0.7,0.2c-0.3,0-0.5-0.1-0.6-0.2c-0.2-0.1-0.3-0.3-0.3-0.6h0.4
		c0,0.3,0.2,0.4,0.6,0.4c0.2,0,0.3,0,0.4-0.1c0.1-0.1,0.1-0.2,0.1-0.3c0-0.1,0-0.2-0.1-0.2c-0.1-0.1-0.2-0.1-0.3-0.1l-0.4-0.1
		c-0.4-0.1-0.6-0.4-0.6-0.7C143,45,143.1,44.8,143.3,44.6z"/>
	<path d="M145.4,44.6c0.2-0.1,0.4-0.2,0.6-0.2c0.2,0,0.4,0.1,0.6,0.2c0.2,0.1,0.2,0.3,0.3,0.5h-0.4c0-0.1-0.1-0.2-0.2-0.3
		s-0.2-0.1-0.4-0.1c-0.1,0-0.3,0-0.4,0.1c-0.1,0.1-0.1,0.2-0.1,0.3c0,0.2,0.1,0.3,0.4,0.4l0.4,0.1c0.2,0.1,0.4,0.2,0.5,0.3
		c0.1,0.1,0.1,0.3,0.1,0.4c0,0.2-0.1,0.4-0.3,0.6c-0.2,0.1-0.4,0.2-0.7,0.2c-0.3,0-0.5-0.1-0.6-0.2c-0.2-0.1-0.3-0.3-0.3-0.6h0.4
		c0,0.3,0.2,0.4,0.6,0.4c0.2,0,0.3,0,0.4-0.1c0.1-0.1,0.1-0.2,0.1-0.3c0-0.1,0-0.2-0.1-0.2c-0.1-0.1-0.2-0.1-0.3-0.1l-0.4-0.1
		c-0.4-0.1-0.6-0.4-0.6-0.7C145.2,45,145.3,44.8,145.4,44.6z"/>
	<path d="M147.4,44c0-0.1-0.1-0.1-0.1-0.2c0-0.1,0-0.1,0.1-0.2c0-0.1,0.1-0.1,0.2-0.1c0.1,0,0.1,0,0.2,0.1s0.1,0.1,0.1,0.2
		c0,0.1,0,0.1-0.1,0.2c0,0.1-0.1,0.1-0.2,0.1C147.5,44,147.5,44,147.4,44z M147.4,44.5h0.4v2.6h-0.4V44.5z"/>
	<path d="M148.5,46.8c-0.2-0.2-0.3-0.6-0.3-1s0.1-0.7,0.3-1c0.2-0.2,0.5-0.4,0.8-0.4s0.6,0.1,0.8,0.4c0.2,0.2,0.3,0.6,0.3,1
		s-0.1,0.7-0.3,1c-0.2,0.2-0.5,0.4-0.8,0.4S148.7,47,148.5,46.8z M149.8,46.5c0.1-0.2,0.2-0.4,0.2-0.7c0-0.3-0.1-0.5-0.2-0.7
		c-0.1-0.2-0.3-0.3-0.5-0.3s-0.4,0.1-0.5,0.3c-0.1,0.2-0.2,0.4-0.2,0.7s0.1,0.5,0.2,0.7c0.1,0.2,0.3,0.3,0.5,0.3
		C149.5,46.7,149.7,46.7,149.8,46.5z"/>
	<path d="M150.8,44.5h0.4v0.4h0c0.2-0.3,0.4-0.5,0.8-0.5c0.3,0,0.5,0.1,0.6,0.3c0.2,0.2,0.2,0.4,0.2,0.7v1.7h-0.4v-1.6
		c0-0.2,0-0.4-0.1-0.5c-0.1-0.1-0.2-0.2-0.4-0.2c-0.2,0-0.4,0.1-0.5,0.2c-0.1,0.1-0.2,0.3-0.2,0.5v1.5h-0.4V44.5z"/>
	<path d="M153.5,44.6c0.2-0.1,0.4-0.2,0.6-0.2c0.2,0,0.4,0.1,0.6,0.2c0.2,0.1,0.2,0.3,0.3,0.5h-0.4c0-0.1-0.1-0.2-0.2-0.3
		s-0.2-0.1-0.4-0.1c-0.1,0-0.3,0-0.4,0.1c-0.1,0.1-0.1,0.2-0.1,0.3c0,0.2,0.1,0.3,0.4,0.4l0.4,0.1c0.2,0.1,0.4,0.2,0.5,0.3
		c0.1,0.1,0.1,0.3,0.1,0.4c0,0.2-0.1,0.4-0.3,0.6c-0.2,0.1-0.4,0.2-0.7,0.2c-0.3,0-0.5-0.1-0.6-0.2c-0.2-0.1-0.3-0.3-0.3-0.6h0.4
		c0,0.3,0.2,0.4,0.6,0.4c0.2,0,0.3,0,0.4-0.1c0.1-0.1,0.1-0.2,0.1-0.3c0-0.1,0-0.2-0.1-0.2c-0.1-0.1-0.2-0.1-0.3-0.1l-0.4-0.1
		c-0.4-0.1-0.6-0.4-0.6-0.7C153.2,45,153.3,44.8,153.5,44.6z"/>
	<path d="M156.7,46.8c-0.2-0.2-0.3-0.6-0.3-1s0.1-0.7,0.3-1c0.2-0.2,0.5-0.4,0.8-0.4s0.6,0.1,0.8,0.4c0.2,0.2,0.3,0.6,0.3,1
		s-0.1,0.7-0.3,1c-0.2,0.2-0.5,0.4-0.8,0.4S156.9,47,156.7,46.8z M158,46.5c0.1-0.2,0.2-0.4,0.2-0.7c0-0.3-0.1-0.5-0.2-0.7
		c-0.1-0.2-0.3-0.3-0.5-0.3s-0.4,0.1-0.5,0.3c-0.1,0.2-0.2,0.4-0.2,0.7s0.1,0.5,0.2,0.7c0.1,0.2,0.3,0.3,0.5,0.3
		C157.7,46.7,157.9,46.7,158,46.5z"/>
	<path d="M159,44.5h0.4v0.4h0c0-0.1,0.1-0.2,0.2-0.3s0.2-0.1,0.4-0.1c0.1,0,0.1,0,0.1,0v0.4c0,0-0.1,0-0.2,0c-0.2,0-0.3,0.1-0.4,0.2
		c-0.1,0.1-0.1,0.3-0.1,0.4v1.6H159V44.5z"/>
	<path d="M161.6,46.9c-0.1-0.1-0.2-0.3-0.2-0.6c0-0.2,0.1-0.4,0.2-0.5c0.2-0.1,0.4-0.2,0.7-0.2l0.7,0v-0.2c0-0.2,0-0.3-0.1-0.4
		s-0.2-0.1-0.4-0.1c-0.1,0-0.3,0-0.3,0.1c-0.1,0.1-0.2,0.2-0.2,0.3h-0.4c0-0.2,0.1-0.4,0.3-0.6c0.2-0.1,0.4-0.2,0.6-0.2
		c0.3,0,0.5,0.1,0.7,0.2c0.2,0.2,0.3,0.4,0.3,0.6v1.8H163v-0.5h0c-0.1,0.1-0.2,0.3-0.3,0.3c-0.1,0.1-0.3,0.1-0.5,0.1
		C162,47.1,161.8,47,161.6,46.9z M162.8,46.6c0.1-0.1,0.2-0.3,0.2-0.5v-0.2l-0.6,0c-0.4,0-0.5,0.2-0.5,0.4c0,0.1,0,0.2,0.1,0.3
		c0.1,0.1,0.2,0.1,0.4,0.1C162.5,46.7,162.6,46.7,162.8,46.6z"/>
	<path d="M164,46.7c-0.2-0.2-0.3-0.6-0.3-1c0-0.4,0.1-0.7,0.3-1c0.2-0.2,0.4-0.4,0.7-0.4c0.4,0,0.6,0.2,0.8,0.5h0v-1.5h0.4v3.7h-0.4
		v-0.4h0c-0.2,0.3-0.4,0.5-0.8,0.5C164.4,47.1,164.2,47,164,46.7z M164.3,45.1c-0.1,0.2-0.2,0.4-0.2,0.7c0,0.3,0.1,0.5,0.2,0.7
		c0.1,0.2,0.3,0.3,0.5,0.3c0.2,0,0.4-0.1,0.5-0.3s0.2-0.4,0.2-0.7s-0.1-0.5-0.2-0.7s-0.3-0.3-0.5-0.3
		C164.6,44.8,164.4,44.9,164.3,45.1z"/>
	<path d="M166.6,46.7c-0.2-0.2-0.3-0.6-0.3-1c0-0.4,0.1-0.7,0.3-1c0.2-0.2,0.4-0.4,0.7-0.4c0.4,0,0.6,0.2,0.8,0.5h0v-1.5h0.4v3.7
		h-0.4v-0.4h0c-0.2,0.3-0.4,0.5-0.8,0.5C167,47.1,166.8,47,166.6,46.7z M166.9,45.1c-0.1,0.2-0.2,0.4-0.2,0.7c0,0.3,0.1,0.5,0.2,0.7
		c0.1,0.2,0.3,0.3,0.5,0.3c0.2,0,0.4-0.1,0.5-0.3s0.2-0.4,0.2-0.7s-0.1-0.5-0.2-0.7s-0.3-0.3-0.5-0.3
		C167.2,44.8,167,44.9,166.9,45.1z"/>
	<path d="M169,44c0-0.1-0.1-0.1-0.1-0.2c0-0.1,0-0.1,0.1-0.2c0-0.1,0.1-0.1,0.2-0.1c0.1,0,0.1,0,0.2,0.1s0.1,0.1,0.1,0.2
		c0,0.1,0,0.1-0.1,0.2c0,0.1-0.1,0.1-0.2,0.1C169.1,44,169.1,44,169,44z M169,44.5h0.4v2.6H169V44.5z"/>
	<path d="M170.4,43.9v0.6h0.5v0.4h-0.5v1.6c0,0.2,0.1,0.4,0.3,0.4c0.1,0,0.1,0,0.2,0v0.4c-0.1,0-0.1,0-0.2,0c-0.2,0-0.4-0.1-0.5-0.2
		c-0.1-0.1-0.1-0.3-0.1-0.5v-1.6h-0.3v-0.4h0.3v-0.6H170.4z"/>
	<path d="M171.4,44c0-0.1-0.1-0.1-0.1-0.2c0-0.1,0-0.1,0.1-0.2c0-0.1,0.1-0.1,0.2-0.1c0.1,0,0.1,0,0.2,0.1s0.1,0.1,0.1,0.2
		c0,0.1,0,0.1-0.1,0.2c0,0.1-0.1,0.1-0.2,0.1C171.5,44,171.4,44,171.4,44z M171.3,44.5h0.4v2.6h-0.4V44.5z"/>
	<path d="M172.5,46.8c-0.2-0.2-0.3-0.6-0.3-1s0.1-0.7,0.3-1c0.2-0.2,0.5-0.4,0.8-0.4s0.6,0.1,0.8,0.4c0.2,0.2,0.3,0.6,0.3,1
		s-0.1,0.7-0.3,1c-0.2,0.2-0.5,0.4-0.8,0.4S172.6,47,172.5,46.8z M173.8,46.5c0.1-0.2,0.2-0.4,0.2-0.7c0-0.3-0.1-0.5-0.2-0.7
		c-0.1-0.2-0.3-0.3-0.5-0.3s-0.4,0.1-0.5,0.3c-0.1,0.2-0.2,0.4-0.2,0.7s0.1,0.5,0.2,0.7c0.1,0.2,0.3,0.3,0.5,0.3
		C173.5,46.7,173.6,46.7,173.8,46.5z"/>
	<path d="M174.7,44.5h0.4v0.4h0c0.2-0.3,0.4-0.5,0.8-0.5c0.3,0,0.5,0.1,0.6,0.3c0.2,0.2,0.2,0.4,0.2,0.7v1.7h-0.4v-1.6
		c0-0.2,0-0.4-0.1-0.5c-0.1-0.1-0.2-0.2-0.4-0.2c-0.2,0-0.4,0.1-0.5,0.2c-0.1,0.1-0.2,0.3-0.2,0.5v1.5h-0.4V44.5z"/>
	<path d="M177.3,46.9c-0.1-0.1-0.2-0.3-0.2-0.6c0-0.2,0.1-0.4,0.2-0.5c0.2-0.1,0.4-0.2,0.7-0.2l0.7,0v-0.2c0-0.2,0-0.3-0.1-0.4
		s-0.2-0.1-0.4-0.1c-0.1,0-0.3,0-0.3,0.1c-0.1,0.1-0.2,0.2-0.2,0.3h-0.4c0-0.2,0.1-0.4,0.3-0.6c0.2-0.1,0.4-0.2,0.6-0.2
		c0.3,0,0.5,0.1,0.7,0.2c0.2,0.2,0.3,0.4,0.3,0.6v1.8h-0.4v-0.5h0c-0.1,0.1-0.2,0.3-0.3,0.3c-0.1,0.1-0.3,0.1-0.5,0.1
		C177.7,47.1,177.5,47,177.3,46.9z M178.5,46.6c0.1-0.1,0.2-0.3,0.2-0.5v-0.2l-0.6,0c-0.4,0-0.5,0.2-0.5,0.4c0,0.1,0,0.2,0.1,0.3
		c0.1,0.1,0.2,0.1,0.4,0.1C178.2,46.7,178.4,46.7,178.5,46.6z"/>
	<path d="M179.6,43.4h0.4v3.7h-0.4V43.4z"/>
	<path d="M181.7,44.8h-0.3v-0.4h0.3v-0.2c0-0.2,0.1-0.4,0.2-0.5c0.1-0.1,0.3-0.2,0.5-0.2c0.1,0,0.1,0,0.2,0v0.4c-0.1,0-0.1,0-0.2,0
		c-0.1,0-0.2,0-0.2,0.1c0,0.1-0.1,0.1-0.1,0.3v0.2h0.5v0.4h-0.5v2.3h-0.4V44.8z"/>
	<path d="M184.8,46.3c0,0.2-0.1,0.4-0.3,0.6c-0.2,0.1-0.4,0.2-0.7,0.2c-0.3,0-0.6-0.1-0.8-0.4c-0.2-0.2-0.3-0.6-0.3-1s0.1-0.7,0.3-1
		s0.5-0.4,0.8-0.4c0.3,0,0.6,0.1,0.8,0.3c0.2,0.2,0.3,0.5,0.3,0.9v0.2h-1.7v0c0,0.3,0.1,0.5,0.2,0.6c0.1,0.1,0.3,0.2,0.5,0.2
		c0.1,0,0.3,0,0.4-0.1c0.1-0.1,0.2-0.2,0.2-0.3H184.8z M183.3,45c-0.1,0.1-0.2,0.3-0.2,0.5h1.3c0-0.2-0.1-0.4-0.2-0.5
		c-0.1-0.1-0.3-0.2-0.5-0.2C183.6,44.8,183.5,44.9,183.3,45z"/>
	<path d="M187.2,46.3c0,0.2-0.1,0.4-0.3,0.6c-0.2,0.1-0.4,0.2-0.7,0.2c-0.3,0-0.6-0.1-0.8-0.4c-0.2-0.2-0.3-0.6-0.3-1s0.1-0.7,0.3-1
		s0.5-0.4,0.8-0.4c0.3,0,0.6,0.1,0.8,0.3c0.2,0.2,0.3,0.5,0.3,0.9v0.2h-1.7v0c0,0.3,0.1,0.5,0.2,0.6c0.1,0.1,0.3,0.2,0.5,0.2
		c0.1,0,0.3,0,0.4-0.1c0.1-0.1,0.2-0.2,0.2-0.3H187.2z M185.7,45c-0.1,0.1-0.2,0.3-0.2,0.5h1.3c0-0.2-0.1-0.4-0.2-0.5
		c-0.1-0.1-0.3-0.2-0.5-0.2C186,44.8,185.8,44.9,185.7,45z"/>
	<path d="M187.8,44.6c0.2-0.1,0.4-0.2,0.6-0.2c0.2,0,0.4,0.1,0.6,0.2c0.2,0.1,0.2,0.3,0.3,0.5H189c0-0.1-0.1-0.2-0.2-0.3
		s-0.2-0.1-0.4-0.1c-0.1,0-0.3,0-0.4,0.1c-0.1,0.1-0.1,0.2-0.1,0.3c0,0.2,0.1,0.3,0.4,0.4l0.4,0.1c0.2,0.1,0.4,0.2,0.5,0.3
		c0.1,0.1,0.1,0.3,0.1,0.4c0,0.2-0.1,0.4-0.3,0.6c-0.2,0.1-0.4,0.2-0.7,0.2c-0.3,0-0.5-0.1-0.6-0.2c-0.2-0.1-0.3-0.3-0.3-0.6h0.4
		c0,0.3,0.2,0.4,0.6,0.4c0.2,0,0.3,0,0.4-0.1c0.1-0.1,0.1-0.2,0.1-0.3c0-0.1,0-0.2-0.1-0.2c-0.1-0.1-0.2-0.1-0.3-0.1l-0.4-0.1
		c-0.4-0.1-0.6-0.4-0.6-0.7C187.6,45,187.7,44.8,187.8,44.6z"/>
	<path d="M189.7,47.7l0.2-1.1h0.4l-0.3,1.1H189.7z"/>
	<path d="M192.2,46.9c-0.1-0.1-0.2-0.3-0.2-0.6c0-0.2,0.1-0.4,0.2-0.5c0.2-0.1,0.4-0.2,0.7-0.2l0.7,0v-0.2c0-0.2,0-0.3-0.1-0.4
		s-0.2-0.1-0.4-0.1c-0.1,0-0.3,0-0.3,0.1c-0.1,0.1-0.2,0.2-0.2,0.3h-0.4c0-0.2,0.1-0.4,0.3-0.6c0.2-0.1,0.4-0.2,0.6-0.2
		c0.3,0,0.5,0.1,0.7,0.2c0.2,0.2,0.3,0.4,0.3,0.6v1.8h-0.4v-0.5h0c-0.1,0.1-0.2,0.3-0.3,0.3c-0.1,0.1-0.3,0.1-0.5,0.1
		C192.5,47.1,192.3,47,192.2,46.9z M193.3,46.6c0.1-0.1,0.2-0.3,0.2-0.5v-0.2l-0.6,0c-0.4,0-0.5,0.2-0.5,0.4c0,0.1,0,0.2,0.1,0.3
		c0.1,0.1,0.2,0.1,0.4,0.1C193,46.7,193.2,46.7,193.3,46.6z"/>
	<path d="M194.4,44.5h0.4v0.4h0c0.2-0.3,0.4-0.5,0.8-0.5c0.3,0,0.5,0.1,0.6,0.3c0.2,0.2,0.2,0.4,0.2,0.7v1.7H196v-1.6
		c0-0.2,0-0.4-0.1-0.5c-0.1-0.1-0.2-0.2-0.4-0.2c-0.2,0-0.4,0.1-0.5,0.2c-0.1,0.1-0.2,0.3-0.2,0.5v1.5h-0.4V44.5z"/>
	<path d="M197,46.7c-0.2-0.2-0.3-0.6-0.3-1c0-0.4,0.1-0.7,0.3-1c0.2-0.2,0.4-0.4,0.7-0.4c0.4,0,0.6,0.2,0.8,0.5h0v-1.5h0.4v3.7h-0.4
		v-0.4h0c-0.2,0.3-0.4,0.5-0.8,0.5C197.5,47.1,197.2,47,197,46.7z M197.3,45.1c-0.1,0.2-0.2,0.4-0.2,0.7c0,0.3,0.1,0.5,0.2,0.7
		c0.1,0.2,0.3,0.3,0.5,0.3c0.2,0,0.4-0.1,0.5-0.3s0.2-0.4,0.2-0.7s-0.1-0.5-0.2-0.7s-0.3-0.3-0.5-0.3
		C197.6,44.8,197.5,44.9,197.3,45.1z"/>
	<path d="M200.7,44.6c0.2-0.1,0.4-0.2,0.6-0.2c0.2,0,0.4,0.1,0.6,0.2c0.2,0.1,0.2,0.3,0.3,0.5h-0.4c0-0.1-0.1-0.2-0.2-0.3
		s-0.2-0.1-0.4-0.1c-0.1,0-0.3,0-0.4,0.1c-0.1,0.1-0.1,0.2-0.1,0.3c0,0.2,0.1,0.3,0.4,0.4l0.4,0.1c0.2,0.1,0.4,0.2,0.5,0.3
		c0.1,0.1,0.1,0.3,0.1,0.4c0,0.2-0.1,0.4-0.3,0.6c-0.2,0.1-0.4,0.2-0.7,0.2c-0.3,0-0.5-0.1-0.6-0.2c-0.2-0.1-0.3-0.3-0.3-0.6h0.4
		c0,0.3,0.2,0.4,0.6,0.4c0.2,0,0.3,0,0.4-0.1c0.1-0.1,0.1-0.2,0.1-0.3c0-0.1,0-0.2-0.1-0.2c-0.1-0.1-0.2-0.1-0.3-0.1l-0.4-0.1
		c-0.4-0.1-0.6-0.4-0.6-0.7C200.5,45,200.6,44.8,200.7,44.6z"/>
	<path d="M204.3,45.3c0-0.1-0.1-0.3-0.2-0.4c-0.1-0.1-0.3-0.1-0.4-0.1c-0.2,0-0.4,0.1-0.5,0.3c-0.1,0.2-0.2,0.4-0.2,0.7
		c0,0.3,0.1,0.5,0.2,0.7c0.1,0.2,0.3,0.3,0.5,0.3c0.3,0,0.5-0.2,0.6-0.5h0.4c0,0.3-0.1,0.5-0.3,0.6c-0.2,0.2-0.4,0.2-0.7,0.2
		c-0.3,0-0.6-0.1-0.8-0.4c-0.2-0.2-0.3-0.6-0.3-1c0-0.4,0.1-0.7,0.3-1c0.2-0.2,0.5-0.4,0.8-0.4c0.3,0,0.5,0.1,0.7,0.3
		c0.2,0.2,0.3,0.4,0.3,0.6H204.3z"/>
	<path d="M205,43.4h0.4v1.5h0c0.1-0.3,0.4-0.5,0.8-0.5c0.3,0,0.5,0.1,0.6,0.3c0.2,0.2,0.2,0.4,0.2,0.7v1.7h-0.4v-1.6
		c0-0.2-0.1-0.4-0.2-0.5c-0.1-0.1-0.3-0.2-0.4-0.2c-0.2,0-0.4,0.1-0.5,0.2c-0.1,0.1-0.2,0.3-0.2,0.6v1.5H205V43.4z"/>
	<path d="M207.8,46.8c-0.2-0.2-0.3-0.6-0.3-1s0.1-0.7,0.3-1c0.2-0.2,0.5-0.4,0.8-0.4c0.3,0,0.6,0.1,0.8,0.4s0.3,0.6,0.3,1
		s-0.1,0.7-0.3,1s-0.5,0.4-0.8,0.4C208.2,47.1,208,47,207.8,46.8z M209.1,46.5c0.1-0.2,0.2-0.4,0.2-0.7c0-0.3-0.1-0.5-0.2-0.7
		c-0.1-0.2-0.3-0.3-0.5-0.3c-0.2,0-0.4,0.1-0.5,0.3c-0.1,0.2-0.2,0.4-0.2,0.7s0.1,0.5,0.2,0.7c0.1,0.2,0.3,0.3,0.5,0.3
		S208.9,46.7,209.1,46.5z"/>
	<path d="M210.2,46.8c-0.2-0.2-0.3-0.6-0.3-1s0.1-0.7,0.3-1s0.5-0.4,0.8-0.4c0.3,0,0.6,0.1,0.8,0.4c0.2,0.2,0.3,0.6,0.3,1
		s-0.1,0.7-0.3,1c-0.2,0.2-0.5,0.4-0.8,0.4C210.7,47.1,210.4,47,210.2,46.8z M211.5,46.5c0.1-0.2,0.2-0.4,0.2-0.7
		c0-0.3-0.1-0.5-0.2-0.7c-0.1-0.2-0.3-0.3-0.5-0.3c-0.2,0-0.4,0.1-0.5,0.3c-0.1,0.2-0.2,0.4-0.2,0.7s0.1,0.5,0.2,0.7
		c0.1,0.2,0.3,0.3,0.5,0.3C211.2,46.7,211.4,46.7,211.5,46.5z"/>
	<path d="M212.5,43.4h0.4v3.7h-0.4V43.4z"/>
	<path d="M213.7,44.6c0.2-0.1,0.4-0.2,0.6-0.2c0.2,0,0.4,0.1,0.6,0.2c0.2,0.1,0.2,0.3,0.3,0.5h-0.4c0-0.1-0.1-0.2-0.2-0.3
		s-0.2-0.1-0.4-0.1c-0.1,0-0.3,0-0.4,0.1c-0.1,0.1-0.1,0.2-0.1,0.3c0,0.2,0.1,0.3,0.4,0.4l0.4,0.1c0.2,0.1,0.4,0.2,0.5,0.3
		c0.1,0.1,0.1,0.3,0.1,0.4c0,0.2-0.1,0.4-0.3,0.6c-0.2,0.1-0.4,0.2-0.7,0.2c-0.3,0-0.5-0.1-0.6-0.2c-0.2-0.1-0.3-0.3-0.3-0.6h0.4
		c0,0.3,0.2,0.4,0.6,0.4c0.2,0,0.3,0,0.4-0.1c0.1-0.1,0.1-0.2,0.1-0.3c0-0.1,0-0.2-0.1-0.2c-0.1-0.1-0.2-0.1-0.3-0.1l-0.4-0.1
		c-0.4-0.1-0.6-0.4-0.6-0.7C213.4,45,213.5,44.8,213.7,44.6z"/>
	<path d="M218.6,44.8c0.2,0.2,0.3,0.6,0.3,1s-0.1,0.7-0.3,1c-0.2,0.2-0.4,0.4-0.7,0.4c-0.3,0-0.6-0.2-0.8-0.5h0V48h-0.4v-3.5h0.4
		v0.4h0c0.1-0.1,0.2-0.2,0.3-0.3c0.1-0.1,0.3-0.1,0.5-0.1C218.1,44.4,218.4,44.6,218.6,44.8z M218.3,46.5c0.1-0.2,0.2-0.4,0.2-0.7
		c0-0.3-0.1-0.5-0.2-0.7s-0.3-0.3-0.5-0.3c-0.2,0-0.4,0.1-0.5,0.3s-0.2,0.4-0.2,0.7s0.1,0.5,0.2,0.7c0.1,0.2,0.3,0.3,0.5,0.3
		C218,46.7,218.1,46.6,218.3,46.5z"/>
	<path d="M219.3,44.5h0.4v0.4h0c0-0.1,0.1-0.2,0.2-0.3s0.2-0.1,0.4-0.1c0.1,0,0.1,0,0.1,0v0.4c0,0-0.1,0-0.2,0
		c-0.2,0-0.3,0.1-0.4,0.2c-0.1,0.1-0.1,0.3-0.1,0.4v1.6h-0.4V44.5z"/>
	<path d="M220.8,46.8c-0.2-0.2-0.3-0.6-0.3-1s0.1-0.7,0.3-1c0.2-0.2,0.5-0.4,0.8-0.4s0.6,0.1,0.8,0.4c0.2,0.2,0.3,0.6,0.3,1
		s-0.1,0.7-0.3,1c-0.2,0.2-0.5,0.4-0.8,0.4S221,47,220.8,46.8z M222.1,46.5c0.1-0.2,0.2-0.4,0.2-0.7c0-0.3-0.1-0.5-0.2-0.7
		c-0.1-0.2-0.3-0.3-0.5-0.3s-0.4,0.1-0.5,0.3c-0.1,0.2-0.2,0.4-0.2,0.7s0.1,0.5,0.2,0.7c0.1,0.2,0.3,0.3,0.5,0.3
		C221.8,46.7,221.9,46.7,222.1,46.5z"/>
	<path d="M224,47.1h-0.4l-0.9-2.6h0.4l0.7,2.2h0l0.7-2.2h0.4L224,47.1z"/>
	<path d="M225.3,44c0-0.1-0.1-0.1-0.1-0.2c0-0.1,0-0.1,0.1-0.2c0-0.1,0.1-0.1,0.2-0.1c0.1,0,0.1,0,0.2,0.1s0.1,0.1,0.1,0.2
		c0,0.1,0,0.1-0.1,0.2c0,0.1-0.1,0.1-0.2,0.1C225.4,44,225.3,44,225.3,44z M225.2,44.5h0.4v2.6h-0.4V44.5z"/>
	<path d="M226.3,46.7c-0.2-0.2-0.3-0.6-0.3-1c0-0.4,0.1-0.7,0.3-1c0.2-0.2,0.4-0.4,0.7-0.4c0.4,0,0.6,0.2,0.8,0.5h0v-1.5h0.4v3.7
		h-0.4v-0.4h0c-0.2,0.3-0.4,0.5-0.8,0.5C226.8,47.1,226.5,47,226.3,46.7z M226.6,45.1c-0.1,0.2-0.2,0.4-0.2,0.7
		c0,0.3,0.1,0.5,0.2,0.7c0.1,0.2,0.3,0.3,0.5,0.3c0.2,0,0.4-0.1,0.5-0.3c0.1-0.2,0.2-0.4,0.2-0.7s-0.1-0.5-0.2-0.7
		c-0.1-0.2-0.3-0.3-0.5-0.3C226.9,44.8,226.8,44.9,226.6,45.1z"/>
	<path d="M230.7,46.3c0,0.2-0.1,0.4-0.3,0.6c-0.2,0.1-0.4,0.2-0.7,0.2c-0.3,0-0.6-0.1-0.8-0.4c-0.2-0.2-0.3-0.6-0.3-1s0.1-0.7,0.3-1
		s0.5-0.4,0.8-0.4c0.3,0,0.6,0.1,0.8,0.3c0.2,0.2,0.3,0.5,0.3,0.9v0.2H229v0c0,0.3,0.1,0.5,0.2,0.6c0.1,0.1,0.3,0.2,0.5,0.2
		c0.1,0,0.3,0,0.4-0.1c0.1-0.1,0.2-0.2,0.2-0.3H230.7z M229.2,45c-0.1,0.1-0.2,0.3-0.2,0.5h1.3c0-0.2-0.1-0.4-0.2-0.5
		c-0.1-0.1-0.3-0.2-0.5-0.2S229.4,44.9,229.2,45z"/>
	<path d="M232.4,46.7c-0.2-0.2-0.3-0.6-0.3-1c0-0.4,0.1-0.7,0.3-1c0.2-0.2,0.4-0.4,0.7-0.4c0.4,0,0.6,0.2,0.8,0.5h0v-1.5h0.4v3.7
		h-0.4v-0.4h0c-0.2,0.3-0.4,0.5-0.8,0.5C232.8,47.1,232.6,47,232.4,46.7z M232.7,45.1c-0.1,0.2-0.2,0.4-0.2,0.7
		c0,0.3,0.1,0.5,0.2,0.7c0.1,0.2,0.3,0.3,0.5,0.3c0.2,0,0.4-0.1,0.5-0.3s0.2-0.4,0.2-0.7s-0.1-0.5-0.2-0.7s-0.3-0.3-0.5-0.3
		C233,44.8,232.8,44.9,232.7,45.1z"/>
	<path d="M234.8,44c0-0.1-0.1-0.1-0.1-0.2c0-0.1,0-0.1,0.1-0.2s0.1-0.1,0.2-0.1c0.1,0,0.1,0,0.2,0.1s0.1,0.1,0.1,0.2
		c0,0.1,0,0.1-0.1,0.2c0,0.1-0.1,0.1-0.2,0.1C234.9,44,234.9,44,234.8,44z M234.8,44.5h0.4v2.6h-0.4V44.5z"/>
	<path d="M235.9,44.6c0.2-0.1,0.4-0.2,0.6-0.2c0.2,0,0.4,0.1,0.6,0.2c0.2,0.1,0.2,0.3,0.3,0.5h-0.4c0-0.1-0.1-0.2-0.2-0.3
		s-0.2-0.1-0.4-0.1c-0.1,0-0.3,0-0.4,0.1c-0.1,0.1-0.1,0.2-0.1,0.3c0,0.2,0.1,0.3,0.4,0.4l0.4,0.1c0.2,0.1,0.4,0.2,0.5,0.3
		c0.1,0.1,0.1,0.3,0.1,0.4c0,0.2-0.1,0.4-0.3,0.6c-0.2,0.1-0.4,0.2-0.7,0.2c-0.3,0-0.5-0.1-0.6-0.2c-0.2-0.1-0.3-0.3-0.3-0.6h0.4
		c0,0.3,0.2,0.4,0.6,0.4c0.2,0,0.3,0,0.4-0.1c0.1-0.1,0.1-0.2,0.1-0.3c0-0.1,0-0.2-0.1-0.2c-0.1-0.1-0.2-0.1-0.3-0.1l-0.4-0.1
		c-0.4-0.1-0.6-0.4-0.6-0.7C235.7,45,235.8,44.8,235.9,44.6z"/>
	<path d="M239.5,45.3c0-0.1-0.1-0.3-0.2-0.4c-0.1-0.1-0.3-0.1-0.4-0.1c-0.2,0-0.4,0.1-0.5,0.3c-0.1,0.2-0.2,0.4-0.2,0.7
		c0,0.3,0.1,0.5,0.2,0.7c0.1,0.2,0.3,0.3,0.5,0.3c0.3,0,0.5-0.2,0.6-0.5h0.4c0,0.3-0.1,0.5-0.3,0.6c-0.2,0.2-0.4,0.2-0.7,0.2
		c-0.3,0-0.6-0.1-0.8-0.4c-0.2-0.2-0.3-0.6-0.3-1c0-0.4,0.1-0.7,0.3-1c0.2-0.2,0.5-0.4,0.8-0.4c0.3,0,0.5,0.1,0.7,0.3
		c0.2,0.2,0.3,0.4,0.3,0.6H239.5z"/>
	<path d="M240.4,46.8c-0.2-0.2-0.3-0.6-0.3-1s0.1-0.7,0.3-1c0.2-0.2,0.5-0.4,0.8-0.4s0.6,0.1,0.8,0.4c0.2,0.2,0.3,0.6,0.3,1
		s-0.1,0.7-0.3,1c-0.2,0.2-0.5,0.4-0.8,0.4S240.6,47,240.4,46.8z M241.7,46.5c0.1-0.2,0.2-0.4,0.2-0.7c0-0.3-0.1-0.5-0.2-0.7
		c-0.1-0.2-0.3-0.3-0.5-0.3s-0.4,0.1-0.5,0.3c-0.1,0.2-0.2,0.4-0.2,0.7s0.1,0.5,0.2,0.7c0.1,0.2,0.3,0.3,0.5,0.3
		C241.4,46.7,241.6,46.7,241.7,46.5z"/>
	<path d="M244.7,47.1h-0.4v-0.4h0c-0.1,0.3-0.4,0.5-0.8,0.5c-0.3,0-0.5-0.1-0.6-0.3c-0.2-0.2-0.2-0.4-0.2-0.7v-1.7h0.4v1.6
		c0,0.2,0,0.4,0.1,0.5c0.1,0.1,0.2,0.2,0.4,0.2c0.2,0,0.4-0.1,0.5-0.2c0.1-0.1,0.2-0.3,0.2-0.5v-1.5h0.4V47.1z"/>
	<path d="M245.2,44.5h0.4v0.4h0c0.2-0.3,0.4-0.5,0.8-0.5c0.3,0,0.5,0.1,0.6,0.3c0.2,0.2,0.2,0.4,0.2,0.7v1.7h-0.4v-1.6
		c0-0.2,0-0.4-0.1-0.5c-0.1-0.1-0.2-0.2-0.4-0.2c-0.2,0-0.4,0.1-0.5,0.2c-0.1,0.1-0.2,0.3-0.2,0.5v1.5h-0.4V44.5z"/>
	<path d="M248.2,43.9v0.6h0.5v0.4h-0.5v1.6c0,0.2,0.1,0.4,0.3,0.4c0.1,0,0.1,0,0.2,0v0.4c-0.1,0-0.1,0-0.2,0c-0.2,0-0.4-0.1-0.5-0.2
		c-0.1-0.1-0.1-0.3-0.1-0.5v-1.6h-0.3v-0.4h0.3v-0.6H248.2z"/>
	<path d="M249.3,44.6c0.2-0.1,0.4-0.2,0.6-0.2c0.2,0,0.4,0.1,0.6,0.2c0.2,0.1,0.2,0.3,0.3,0.5h-0.4c0-0.1-0.1-0.2-0.2-0.3
		s-0.2-0.1-0.4-0.1c-0.1,0-0.3,0-0.4,0.1c-0.1,0.1-0.1,0.2-0.1,0.3c0,0.2,0.1,0.3,0.4,0.4l0.4,0.1c0.2,0.1,0.4,0.2,0.5,0.3
		c0.1,0.1,0.1,0.3,0.1,0.4c0,0.2-0.1,0.4-0.3,0.6c-0.2,0.1-0.4,0.2-0.7,0.2c-0.3,0-0.5-0.1-0.6-0.2c-0.2-0.1-0.3-0.3-0.3-0.6h0.4
		c0,0.3,0.2,0.4,0.6,0.4c0.2,0,0.3,0,0.4-0.1c0.1-0.1,0.1-0.2,0.1-0.3c0-0.1,0-0.2-0.1-0.2c-0.1-0.1-0.2-0.1-0.3-0.1l-0.4-0.1
		c-0.4-0.1-0.6-0.4-0.6-0.7C249,45,249.1,44.8,249.3,44.6z"/>
	<path d="M252.5,46.8c-0.2-0.2-0.3-0.6-0.3-1s0.1-0.7,0.3-1s0.5-0.4,0.8-0.4c0.3,0,0.6,0.1,0.8,0.4c0.2,0.2,0.3,0.6,0.3,1
		s-0.1,0.7-0.3,1c-0.2,0.2-0.5,0.4-0.8,0.4C253,47.1,252.7,47,252.5,46.8z M253.8,46.5c0.1-0.2,0.2-0.4,0.2-0.7
		c0-0.3-0.1-0.5-0.2-0.7c-0.1-0.2-0.3-0.3-0.5-0.3c-0.2,0-0.4,0.1-0.5,0.3c-0.1,0.2-0.2,0.4-0.2,0.7s0.1,0.5,0.2,0.7
		c0.1,0.2,0.3,0.3,0.5,0.3C253.5,46.7,253.7,46.7,253.8,46.5z"/>
	<path d="M254.9,44.8h-0.3v-0.4h0.3v-0.2c0-0.2,0-0.4,0.2-0.5c0.1-0.1,0.3-0.2,0.5-0.2c0.1,0,0.1,0,0.2,0v0.4c-0.1,0-0.1,0-0.2,0
		c-0.1,0-0.2,0-0.2,0.1c0,0.1-0.1,0.1-0.1,0.3v0.2h0.5v0.4h-0.5v2.3h-0.4V44.8z"/>
	<path d="M259.2,47.1h-0.4v-0.4h0c-0.1,0.3-0.4,0.5-0.8,0.5c-0.3,0-0.5-0.1-0.6-0.3c-0.2-0.2-0.2-0.4-0.2-0.7v-1.7h0.4v1.6
		c0,0.2,0.1,0.4,0.2,0.5c0.1,0.1,0.2,0.2,0.4,0.2c0.2,0,0.4-0.1,0.5-0.2c0.1-0.1,0.2-0.3,0.2-0.5v-1.5h0.4V47.1z"/>
	<path d="M261.6,44.8c0.2,0.2,0.3,0.6,0.3,1s-0.1,0.7-0.3,1c-0.2,0.2-0.4,0.4-0.7,0.4c-0.3,0-0.6-0.2-0.8-0.5h0V48h-0.4v-3.5h0.4
		v0.4h0c0.1-0.1,0.2-0.2,0.3-0.3c0.1-0.1,0.3-0.1,0.5-0.1C261.2,44.4,261.4,44.6,261.6,44.8z M261.3,46.5c0.1-0.2,0.2-0.4,0.2-0.7
		c0-0.3-0.1-0.5-0.2-0.7c-0.1-0.2-0.3-0.3-0.5-0.3c-0.2,0-0.4,0.1-0.5,0.3c-0.1,0.2-0.2,0.4-0.2,0.7s0.1,0.5,0.2,0.7
		c0.1,0.2,0.3,0.3,0.5,0.3C261,46.7,261.2,46.6,261.3,46.5z"/>
	<path d="M263.9,43.9v0.6h0.5v0.4h-0.5v1.6c0,0.2,0.1,0.4,0.3,0.4c0.1,0,0.1,0,0.2,0v0.4c-0.1,0-0.1,0-0.2,0c-0.2,0-0.4-0.1-0.5-0.2
		c-0.1-0.1-0.1-0.3-0.1-0.5v-1.6h-0.3v-0.4h0.3v-0.6H263.9z"/>
	<path d="M264.9,46.8c-0.2-0.2-0.3-0.6-0.3-1s0.1-0.7,0.3-1c0.2-0.2,0.5-0.4,0.8-0.4s0.6,0.1,0.8,0.4c0.2,0.2,0.3,0.6,0.3,1
		s-0.1,0.7-0.3,1c-0.2,0.2-0.5,0.4-0.8,0.4S265.1,47,264.9,46.8z M266.2,46.5c0.1-0.2,0.2-0.4,0.2-0.7c0-0.3-0.1-0.5-0.2-0.7
		c-0.1-0.2-0.3-0.3-0.5-0.3s-0.4,0.1-0.5,0.3c-0.1,0.2-0.2,0.4-0.2,0.7s0.1,0.5,0.2,0.7c0.1,0.2,0.3,0.3,0.5,0.3
		C265.9,46.7,266.1,46.7,266.2,46.5z"/>
	<path d="M268.9,45.1h0.4c0.2,0,0.3-0.1,0.4-0.2c0.1-0.1,0.2-0.3,0.2-0.4s-0.1-0.3-0.2-0.4c-0.1-0.1-0.3-0.2-0.5-0.2
		c-0.2,0-0.3,0.1-0.4,0.2s-0.2,0.3-0.2,0.4h-0.4c0-0.3,0.1-0.5,0.3-0.7c0.2-0.2,0.4-0.3,0.7-0.3c0.3,0,0.5,0.1,0.7,0.3
		c0.2,0.2,0.3,0.4,0.3,0.7c0,0.2-0.1,0.4-0.2,0.6s-0.3,0.2-0.5,0.3v0c0.2,0,0.4,0.1,0.6,0.3c0.1,0.2,0.2,0.4,0.2,0.6
		c0,0.3-0.1,0.5-0.3,0.7c-0.2,0.2-0.5,0.3-0.8,0.3c-0.3,0-0.6-0.1-0.8-0.3c-0.2-0.2-0.3-0.4-0.3-0.7h0.4c0,0.2,0.1,0.3,0.2,0.4
		c0.1,0.1,0.3,0.2,0.5,0.2s0.4-0.1,0.5-0.2c0.1-0.1,0.2-0.3,0.2-0.5c0-0.2-0.1-0.4-0.2-0.5c-0.1-0.1-0.3-0.2-0.5-0.2h-0.4V45.1z"/>
	<path d="M271.1,46.7c-0.2-0.3-0.3-0.8-0.3-1.3c0-0.6,0.1-1,0.3-1.3c0.2-0.3,0.5-0.5,0.9-0.5c0.4,0,0.7,0.2,0.9,0.5
		c0.2,0.3,0.3,0.8,0.3,1.3c0,0.6-0.1,1-0.3,1.3c-0.2,0.3-0.5,0.5-0.9,0.5C271.6,47.1,271.4,47,271.1,46.7z M272.6,46.4
		c0.1-0.3,0.2-0.6,0.2-1c0-0.4-0.1-0.8-0.2-1c-0.1-0.3-0.3-0.4-0.6-0.4c-0.2,0-0.4,0.1-0.6,0.4c-0.1,0.3-0.2,0.6-0.2,1
		c0,0.4,0.1,0.8,0.2,1c0.1,0.3,0.3,0.4,0.6,0.4S272.4,46.6,272.6,46.4z"/>
	<path d="M274.6,45c-0.1,0.2-0.3,0.2-0.5,0.2s-0.4-0.1-0.5-0.2c-0.1-0.2-0.2-0.4-0.2-0.6s0.1-0.5,0.2-0.6s0.3-0.2,0.5-0.2
		s0.4,0.1,0.5,0.2c0.1,0.2,0.2,0.4,0.2,0.6C274.8,44.7,274.7,44.9,274.6,45z M273.7,47.1l2.3-3.5h0.4l-2.3,3.5H273.7z M274.4,44.8
		c0.1-0.1,0.1-0.2,0.1-0.4c0-0.2,0-0.3-0.1-0.4c-0.1-0.1-0.1-0.2-0.2-0.2c-0.1,0-0.2,0.1-0.2,0.2c-0.1,0.1-0.1,0.2-0.1,0.4
		c0,0.2,0,0.3,0.1,0.4c0.1,0.1,0.1,0.2,0.2,0.2S274.3,44.9,274.4,44.8z M276.4,46.9c-0.1,0.2-0.3,0.2-0.5,0.2
		c-0.2,0-0.4-0.1-0.5-0.2c-0.1-0.2-0.2-0.4-0.2-0.6s0.1-0.5,0.2-0.6c0.1-0.2,0.3-0.2,0.5-0.2c0.2,0,0.4,0.1,0.5,0.2
		c0.1,0.2,0.2,0.4,0.2,0.6C276.6,46.5,276.5,46.7,276.4,46.9z M276.1,46.7c0.1-0.1,0.1-0.2,0.1-0.4c0-0.2,0-0.3-0.1-0.4
		c-0.1-0.1-0.1-0.2-0.2-0.2c-0.1,0-0.2,0.1-0.2,0.2c-0.1,0.1-0.1,0.2-0.1,0.4c0,0.2,0,0.3,0.1,0.4c0.1,0.1,0.1,0.2,0.2,0.2
		S276.1,46.8,276.1,46.7z"/>
	<path d="M278.5,43.9v0.6h0.5v0.4h-0.5v1.6c0,0.2,0.1,0.4,0.3,0.4c0.1,0,0.1,0,0.2,0v0.4c-0.1,0-0.1,0-0.2,0c-0.2,0-0.4-0.1-0.5-0.2
		c-0.1-0.1-0.1-0.3-0.1-0.5v-1.6h-0.3v-0.4h0.3v-0.6H278.5z"/>
	<path d="M279.5,46.8c-0.2-0.2-0.3-0.6-0.3-1s0.1-0.7,0.3-1c0.2-0.2,0.5-0.4,0.8-0.4s0.6,0.1,0.8,0.4c0.2,0.2,0.3,0.6,0.3,1
		s-0.1,0.7-0.3,1c-0.2,0.2-0.5,0.4-0.8,0.4S279.7,47,279.5,46.8z M280.8,46.5c0.1-0.2,0.2-0.4,0.2-0.7c0-0.3-0.1-0.5-0.2-0.7
		c-0.1-0.2-0.3-0.3-0.5-0.3s-0.4,0.1-0.5,0.3c-0.1,0.2-0.2,0.4-0.2,0.7s0.1,0.5,0.2,0.7c0.1,0.2,0.3,0.3,0.5,0.3
		C280.5,46.7,280.7,46.7,280.8,46.5z"/>
	<path d="M283.1,46.8c-0.2-0.2-0.3-0.6-0.3-1s0.1-0.7,0.3-1c0.2-0.2,0.5-0.4,0.8-0.4s0.6,0.1,0.8,0.4c0.2,0.2,0.3,0.6,0.3,1
		s-0.1,0.7-0.3,1c-0.2,0.2-0.5,0.4-0.8,0.4S283.3,47,283.1,46.8z M284.4,46.5c0.1-0.2,0.2-0.4,0.2-0.7c0-0.3-0.1-0.5-0.2-0.7
		c-0.1-0.2-0.3-0.3-0.5-0.3s-0.4,0.1-0.5,0.3c-0.1,0.2-0.2,0.4-0.2,0.7s0.1,0.5,0.2,0.7c0.1,0.2,0.3,0.3,0.5,0.3
		C284.1,46.7,284.3,46.7,284.4,46.5z"/>
	<path d="M287.3,47.1H287v-0.4h0c-0.1,0.3-0.4,0.5-0.8,0.5c-0.3,0-0.5-0.1-0.6-0.3c-0.2-0.2-0.2-0.4-0.2-0.7v-1.7h0.4v1.6
		c0,0.2,0.1,0.4,0.2,0.5c0.1,0.1,0.2,0.2,0.4,0.2c0.2,0,0.4-0.1,0.5-0.2c0.1-0.1,0.2-0.3,0.2-0.5v-1.5h0.4V47.1z"/>
	<path d="M287.9,44.5h0.4v0.4h0c0-0.1,0.1-0.2,0.2-0.3s0.2-0.1,0.4-0.1c0.1,0,0.1,0,0.1,0v0.4c0,0-0.1,0-0.2,0
		c-0.2,0-0.3,0.1-0.4,0.2c-0.1,0.1-0.1,0.3-0.1,0.4v1.6h-0.4V44.5z"/>
	<path d="M290.6,44.6c0.2-0.1,0.4-0.2,0.6-0.2c0.2,0,0.4,0.1,0.6,0.2c0.2,0.1,0.2,0.3,0.3,0.5h-0.4c0-0.1-0.1-0.2-0.2-0.3
		s-0.2-0.1-0.4-0.1c-0.1,0-0.3,0-0.4,0.1c-0.1,0.1-0.1,0.2-0.1,0.3c0,0.2,0.1,0.3,0.4,0.4l0.4,0.1c0.2,0.1,0.4,0.2,0.5,0.3
		c0.1,0.1,0.1,0.3,0.1,0.4c0,0.2-0.1,0.4-0.3,0.6c-0.2,0.1-0.4,0.2-0.7,0.2c-0.3,0-0.5-0.1-0.6-0.2c-0.2-0.1-0.3-0.3-0.3-0.6h0.4
		c0,0.3,0.2,0.4,0.6,0.4c0.2,0,0.3,0,0.4-0.1c0.1-0.1,0.1-0.2,0.1-0.3c0-0.1,0-0.2-0.1-0.2c-0.1-0.1-0.2-0.1-0.3-0.1l-0.4-0.1
		c-0.4-0.1-0.6-0.4-0.6-0.7C290.3,45,290.4,44.8,290.6,44.6z"/>
	<path d="M293,43.9v0.6h0.5v0.4H293v1.6c0,0.2,0.1,0.4,0.3,0.4c0.1,0,0.1,0,0.2,0v0.4c-0.1,0-0.1,0-0.2,0c-0.2,0-0.4-0.1-0.5-0.2
		c-0.1-0.1-0.1-0.3-0.1-0.5v-1.6h-0.3v-0.4h0.3v-0.6H293z"/>
	<path d="M295.9,47.1h-0.4v-0.4h0c-0.1,0.3-0.4,0.5-0.8,0.5c-0.3,0-0.5-0.1-0.6-0.3c-0.2-0.2-0.2-0.4-0.2-0.7v-1.7h0.4v1.6
		c0,0.2,0,0.4,0.1,0.5c0.1,0.1,0.2,0.2,0.4,0.2c0.2,0,0.4-0.1,0.5-0.2c0.1-0.1,0.2-0.3,0.2-0.5v-1.5h0.4V47.1z"/>
	<path d="M296.6,46.7c-0.2-0.2-0.3-0.6-0.3-1c0-0.4,0.1-0.7,0.3-1c0.2-0.2,0.4-0.4,0.7-0.4c0.4,0,0.6,0.2,0.8,0.5h0v-1.5h0.4v3.7
		h-0.4v-0.4h0c-0.2,0.3-0.4,0.5-0.8,0.5C297,47.1,296.8,47,296.6,46.7z M296.9,45.1c-0.1,0.2-0.2,0.4-0.2,0.7c0,0.3,0.1,0.5,0.2,0.7
		c0.1,0.2,0.3,0.3,0.5,0.3c0.2,0,0.4-0.1,0.5-0.3s0.2-0.4,0.2-0.7s-0.1-0.5-0.2-0.7s-0.3-0.3-0.5-0.3
		C297.2,44.8,297,44.9,296.9,45.1z"/>
	<path d="M300.9,46.3c0,0.2-0.1,0.4-0.3,0.6c-0.2,0.1-0.4,0.2-0.7,0.2c-0.3,0-0.6-0.1-0.8-0.4c-0.2-0.2-0.3-0.6-0.3-1s0.1-0.7,0.3-1
		s0.5-0.4,0.8-0.4c0.3,0,0.6,0.1,0.8,0.3c0.2,0.2,0.3,0.5,0.3,0.9v0.2h-1.7v0c0,0.3,0.1,0.5,0.2,0.6c0.1,0.1,0.3,0.2,0.5,0.2
		c0.1,0,0.3,0,0.4-0.1c0.1-0.1,0.2-0.2,0.2-0.3H300.9z M299.5,45c-0.1,0.1-0.2,0.3-0.2,0.5h1.3c0-0.2-0.1-0.4-0.2-0.5
		c-0.1-0.1-0.3-0.2-0.5-0.2C299.7,44.8,299.6,44.9,299.5,45z"/>
	<path d="M301.4,44.5h0.4v0.4h0c0.2-0.3,0.4-0.5,0.8-0.5c0.3,0,0.5,0.1,0.6,0.3c0.2,0.2,0.2,0.4,0.2,0.7v1.7H303v-1.6
		c0-0.2,0-0.4-0.1-0.5c-0.1-0.1-0.2-0.2-0.4-0.2c-0.2,0-0.4,0.1-0.5,0.2c-0.1,0.1-0.2,0.3-0.2,0.5v1.5h-0.4V44.5z"/>
	<path d="M304.4,43.9v0.6h0.5v0.4h-0.5v1.6c0,0.2,0.1,0.4,0.3,0.4c0.1,0,0.1,0,0.2,0v0.4c-0.1,0-0.1,0-0.2,0c-0.2,0-0.4-0.1-0.5-0.2
		c-0.1-0.1-0.1-0.3-0.1-0.5v-1.6h-0.3v-0.4h0.3v-0.6H304.4z"/>
	<path d="M305.5,44.6c0.2-0.1,0.4-0.2,0.6-0.2c0.2,0,0.4,0.1,0.6,0.2c0.2,0.1,0.2,0.3,0.3,0.5h-0.4c0-0.1-0.1-0.2-0.2-0.3
		c-0.1-0.1-0.2-0.1-0.4-0.1c-0.1,0-0.3,0-0.4,0.1c-0.1,0.1-0.1,0.2-0.1,0.3c0,0.2,0.1,0.3,0.4,0.4l0.4,0.1c0.2,0.1,0.4,0.2,0.5,0.3
		c0.1,0.1,0.1,0.3,0.1,0.4c0,0.2-0.1,0.4-0.3,0.6c-0.2,0.1-0.4,0.2-0.7,0.2c-0.3,0-0.5-0.1-0.6-0.2c-0.2-0.1-0.3-0.3-0.3-0.6h0.4
		c0,0.3,0.2,0.4,0.6,0.4c0.2,0,0.3,0,0.4-0.1c0.1-0.1,0.1-0.2,0.1-0.3c0-0.1,0-0.2-0.1-0.2c-0.1-0.1-0.2-0.1-0.3-0.1l-0.4-0.1
		c-0.4-0.1-0.6-0.4-0.6-0.7C305.2,45,305.3,44.8,305.5,44.6z"/>
	<path d="M307.5,47c0-0.1-0.1-0.1-0.1-0.2c0-0.1,0-0.1,0.1-0.2c0-0.1,0.1-0.1,0.2-0.1s0.1,0,0.2,0.1c0,0.1,0.1,0.1,0.1,0.2
		c0,0.1,0,0.1-0.1,0.2c0,0.1-0.1,0.1-0.2,0.1S307.6,47.1,307.5,47z"/>
</g>
<g class="st4">
	<path d="M121.5,55.1v-1.5l-1.1-2h0.5l0.9,1.6h0l0.9-1.6h0.5l-1.1,2v1.5H121.5z"/>
	<path d="M123.1,54.8c-0.2-0.2-0.3-0.6-0.3-1c0-0.4,0.1-0.7,0.3-1c0.2-0.2,0.5-0.4,0.8-0.4s0.6,0.1,0.8,0.4c0.2,0.2,0.3,0.6,0.3,1
		c0,0.4-0.1,0.7-0.3,1c-0.2,0.2-0.5,0.4-0.8,0.4S123.3,55,123.1,54.8z M124.4,54.5c0.1-0.2,0.2-0.4,0.2-0.7c0-0.3-0.1-0.5-0.2-0.7
		c-0.1-0.2-0.3-0.3-0.5-0.3s-0.4,0.1-0.5,0.3c-0.1,0.2-0.2,0.4-0.2,0.7c0,0.3,0.1,0.5,0.2,0.7c0.1,0.2,0.3,0.3,0.5,0.3
		C124.1,54.7,124.3,54.7,124.4,54.5z"/>
	<path d="M127.4,55.1H127v-0.4h0c-0.1,0.3-0.4,0.5-0.8,0.5c-0.3,0-0.5-0.1-0.6-0.3c-0.2-0.2-0.2-0.4-0.2-0.7v-1.7h0.4v1.6
		c0,0.2,0,0.4,0.1,0.5c0.1,0.1,0.2,0.2,0.4,0.2c0.2,0,0.4-0.1,0.5-0.2c0.1-0.1,0.2-0.3,0.2-0.5v-1.5h0.4V55.1z"/>
	<path d="M129.1,54.7c-0.2-0.2-0.3-0.6-0.3-1c0-0.4,0.1-0.7,0.3-1c0.2-0.2,0.4-0.4,0.7-0.4c0.4,0,0.6,0.2,0.8,0.5h0v-1.5h0.4v3.7
		h-0.4v-0.4h0c-0.2,0.3-0.4,0.5-0.8,0.5C129.6,55.1,129.3,55,129.1,54.7z M129.4,53.1c-0.1,0.2-0.2,0.4-0.2,0.7
		c0,0.3,0.1,0.5,0.2,0.7c0.1,0.2,0.3,0.3,0.5,0.3c0.2,0,0.4-0.1,0.5-0.3s0.2-0.4,0.2-0.7c0-0.3-0.1-0.5-0.2-0.7s-0.3-0.3-0.5-0.3
		C129.7,52.8,129.6,52.9,129.4,53.1z"/>
	<path d="M131.7,54.8c-0.2-0.2-0.3-0.6-0.3-1c0-0.4,0.1-0.7,0.3-1c0.2-0.2,0.5-0.4,0.8-0.4s0.6,0.1,0.8,0.4c0.2,0.2,0.3,0.6,0.3,1
		c0,0.4-0.1,0.7-0.3,1c-0.2,0.2-0.5,0.4-0.8,0.4S131.9,55,131.7,54.8z M133,54.5c0.1-0.2,0.2-0.4,0.2-0.7c0-0.3-0.1-0.5-0.2-0.7
		c-0.1-0.2-0.3-0.3-0.5-0.3s-0.4,0.1-0.5,0.3c-0.1,0.2-0.2,0.4-0.2,0.7c0,0.3,0.1,0.5,0.2,0.7c0.1,0.2,0.3,0.3,0.5,0.3
		C132.7,54.7,132.9,54.7,133,54.5z"/>
	<path d="M135.1,52.5h0.4v0.4h0c0.2-0.3,0.4-0.5,0.8-0.5c0.3,0,0.5,0.1,0.6,0.3c0.2,0.2,0.2,0.4,0.2,0.7v1.7h-0.4v-1.6
		c0-0.2,0-0.4-0.1-0.5c-0.1-0.1-0.2-0.2-0.4-0.2c-0.2,0-0.4,0.1-0.5,0.2c-0.1,0.1-0.2,0.3-0.2,0.5v1.5h-0.4V52.5z"/>
	<path d="M137.8,54.8c-0.2-0.2-0.3-0.6-0.3-1c0-0.4,0.1-0.7,0.3-1c0.2-0.2,0.5-0.4,0.8-0.4s0.6,0.1,0.8,0.4c0.2,0.2,0.3,0.6,0.3,1
		c0,0.4-0.1,0.7-0.3,1c-0.2,0.2-0.5,0.4-0.8,0.4S138,55,137.8,54.8z M139.1,54.5c0.1-0.2,0.2-0.4,0.2-0.7c0-0.3-0.1-0.5-0.2-0.7
		c-0.1-0.2-0.3-0.3-0.5-0.3s-0.4,0.1-0.5,0.3c-0.1,0.2-0.2,0.4-0.2,0.7c0,0.3,0.1,0.5,0.2,0.7c0.1,0.2,0.3,0.3,0.5,0.3
		C138.8,54.7,139,54.7,139.1,54.5z"/>
	<path d="M140.6,51.9v0.6h0.5v0.4h-0.5v1.6c0,0.2,0.1,0.4,0.3,0.4c0.1,0,0.1,0,0.2,0v0.4c-0.1,0-0.1,0-0.2,0c-0.2,0-0.4-0.1-0.5-0.2
		c-0.1-0.1-0.1-0.3-0.1-0.5v-1.6h-0.3v-0.4h0.3v-0.6H140.6z"/>
	<path d="M142.5,52.5h0.4v0.4h0c0.2-0.3,0.4-0.5,0.8-0.5c0.3,0,0.5,0.1,0.6,0.3c0.2,0.2,0.2,0.4,0.2,0.7v1.7h-0.4v-1.6
		c0-0.2,0-0.4-0.1-0.5c-0.1-0.1-0.2-0.2-0.4-0.2c-0.2,0-0.4,0.1-0.5,0.2c-0.1,0.1-0.2,0.3-0.2,0.5v1.5h-0.4V52.5z"/>
	<path d="M147,54.3c0,0.2-0.1,0.4-0.3,0.6c-0.2,0.1-0.4,0.2-0.7,0.2c-0.3,0-0.6-0.1-0.8-0.4c-0.2-0.2-0.3-0.6-0.3-1
		c0-0.4,0.1-0.7,0.3-1c0.2-0.2,0.5-0.4,0.8-0.4c0.3,0,0.6,0.1,0.8,0.3c0.2,0.2,0.3,0.5,0.3,0.9v0.2h-1.7v0c0,0.3,0.1,0.5,0.2,0.6
		c0.1,0.2,0.3,0.2,0.5,0.2c0.1,0,0.3,0,0.4-0.1c0.1-0.1,0.2-0.2,0.2-0.3H147z M145.5,53c-0.1,0.1-0.2,0.3-0.2,0.5h1.3
		c0-0.2-0.1-0.4-0.2-0.5c-0.1-0.1-0.3-0.2-0.5-0.2C145.8,52.8,145.6,52.9,145.5,53z"/>
	<path d="M149.4,54.3c0,0.2-0.1,0.4-0.3,0.6c-0.2,0.1-0.4,0.2-0.7,0.2c-0.3,0-0.6-0.1-0.8-0.4c-0.2-0.2-0.3-0.6-0.3-1
		c0-0.4,0.1-0.7,0.3-1c0.2-0.2,0.5-0.4,0.8-0.4c0.3,0,0.6,0.1,0.8,0.3c0.2,0.2,0.3,0.5,0.3,0.9v0.2h-1.7v0c0,0.3,0.1,0.5,0.2,0.6
		c0.1,0.2,0.3,0.2,0.5,0.2c0.1,0,0.3,0,0.4-0.1c0.1-0.1,0.2-0.2,0.2-0.3H149.4z M147.9,53c-0.1,0.1-0.2,0.3-0.2,0.5h1.3
		c0-0.2-0.1-0.4-0.2-0.5c-0.1-0.1-0.3-0.2-0.5-0.2C148.2,52.8,148,52.9,147.9,53z"/>
	<path d="M150,54.7c-0.2-0.2-0.3-0.6-0.3-1c0-0.4,0.1-0.7,0.3-1c0.2-0.2,0.4-0.4,0.7-0.4c0.4,0,0.6,0.2,0.8,0.5h0v-1.5h0.4v3.7h-0.4
		v-0.4h0c-0.2,0.3-0.4,0.5-0.8,0.5C150.4,55.1,150.1,55,150,54.7z M150.2,53.1c-0.1,0.2-0.2,0.4-0.2,0.7c0,0.3,0.1,0.5,0.2,0.7
		c0.1,0.2,0.3,0.3,0.5,0.3c0.2,0,0.4-0.1,0.5-0.3s0.2-0.4,0.2-0.7c0-0.3-0.1-0.5-0.2-0.7s-0.3-0.3-0.5-0.3
		C150.5,52.8,150.4,52.9,150.2,53.1z"/>
	<path d="M153.9,51.9v0.6h0.5v0.4h-0.5v1.6c0,0.2,0.1,0.4,0.3,0.4c0.1,0,0.1,0,0.2,0v0.4c-0.1,0-0.1,0-0.2,0c-0.2,0-0.4-0.1-0.5-0.2
		c-0.1-0.1-0.1-0.3-0.1-0.5v-1.6h-0.3v-0.4h0.3v-0.6H153.9z"/>
	<path d="M154.9,54.8c-0.2-0.2-0.3-0.6-0.3-1c0-0.4,0.1-0.7,0.3-1c0.2-0.2,0.5-0.4,0.8-0.4s0.6,0.1,0.8,0.4c0.2,0.2,0.3,0.6,0.3,1
		c0,0.4-0.1,0.7-0.3,1c-0.2,0.2-0.5,0.4-0.8,0.4S155.1,55,154.9,54.8z M156.3,54.5c0.1-0.2,0.2-0.4,0.2-0.7c0-0.3-0.1-0.5-0.2-0.7
		c-0.1-0.2-0.3-0.3-0.5-0.3s-0.4,0.1-0.5,0.3c-0.1,0.2-0.2,0.4-0.2,0.7c0,0.3,0.1,0.5,0.2,0.7c0.1,0.2,0.3,0.3,0.5,0.3
		C156,54.7,156.1,54.7,156.3,54.5z"/>
	<path d="M158.6,55.8c-0.2-0.1-0.3-0.3-0.3-0.5h0.4c0,0.1,0.1,0.2,0.2,0.3c0.1,0.1,0.2,0.1,0.4,0.1c0.2,0,0.4-0.1,0.5-0.2
		c0.1-0.1,0.2-0.3,0.2-0.4v-0.4h0c-0.2,0.3-0.4,0.5-0.8,0.5c-0.3,0-0.5-0.1-0.7-0.4c-0.2-0.2-0.3-0.6-0.3-1c0-0.4,0.1-0.7,0.3-1
		c0.2-0.2,0.4-0.4,0.7-0.4c0.3,0,0.6,0.2,0.8,0.5h0v-0.4h0.4V55c0,0.3-0.1,0.6-0.3,0.7c-0.2,0.2-0.5,0.3-0.8,0.3
		C159,56,158.8,56,158.6,55.8z M159.8,54.5c0.1-0.2,0.2-0.4,0.2-0.7c0-0.3-0.1-0.5-0.2-0.7c-0.1-0.2-0.3-0.3-0.5-0.3
		c-0.2,0-0.4,0.1-0.5,0.3c-0.1,0.2-0.2,0.4-0.2,0.7s0.1,0.5,0.2,0.7c0.1,0.2,0.3,0.3,0.5,0.3C159.5,54.7,159.6,54.6,159.8,54.5z"/>
	<path d="M161,54.8c-0.2-0.2-0.3-0.6-0.3-1c0-0.4,0.1-0.7,0.3-1c0.2-0.2,0.5-0.4,0.8-0.4s0.6,0.1,0.8,0.4c0.2,0.2,0.3,0.6,0.3,1
		c0,0.4-0.1,0.7-0.3,1c-0.2,0.2-0.5,0.4-0.8,0.4S161.2,55,161,54.8z M162.4,54.5c0.1-0.2,0.2-0.4,0.2-0.7c0-0.3-0.1-0.5-0.2-0.7
		c-0.1-0.2-0.3-0.3-0.5-0.3s-0.4,0.1-0.5,0.3c-0.1,0.2-0.2,0.4-0.2,0.7c0,0.3,0.1,0.5,0.2,0.7c0.1,0.2,0.3,0.3,0.5,0.3
		C162.1,54.7,162.2,54.7,162.4,54.5z"/>
	<path d="M164.5,54.9c-0.1-0.1-0.2-0.3-0.2-0.6c0-0.2,0.1-0.4,0.2-0.5c0.2-0.1,0.4-0.2,0.7-0.2l0.7,0v-0.2c0-0.2,0-0.3-0.1-0.4
		s-0.2-0.1-0.4-0.1c-0.1,0-0.3,0-0.3,0.1c-0.1,0.1-0.2,0.2-0.2,0.3h-0.4c0-0.2,0.1-0.4,0.3-0.6c0.2-0.2,0.4-0.2,0.6-0.2
		c0.3,0,0.5,0.1,0.7,0.2c0.2,0.2,0.3,0.4,0.3,0.6v1.8h-0.4v-0.5h0c-0.1,0.1-0.2,0.3-0.3,0.3c-0.1,0.1-0.3,0.1-0.5,0.1
		C164.9,55.1,164.7,55,164.5,54.9z M165.7,54.6c0.1-0.1,0.2-0.3,0.2-0.5v-0.2l-0.6,0c-0.4,0-0.5,0.2-0.5,0.4c0,0.1,0,0.2,0.1,0.3
		c0.1,0.1,0.2,0.1,0.4,0.1C165.4,54.7,165.5,54.7,165.7,54.6z"/>
	<path d="M166.7,52.5h0.4v0.4h0c0.2-0.3,0.4-0.5,0.8-0.5c0.3,0,0.5,0.1,0.6,0.3c0.2,0.2,0.2,0.4,0.2,0.7v1.7h-0.4v-1.6
		c0-0.2,0-0.4-0.1-0.5c-0.1-0.1-0.2-0.2-0.4-0.2c-0.2,0-0.4,0.1-0.5,0.2c-0.1,0.1-0.2,0.3-0.2,0.5v1.5h-0.4V52.5z"/>
	<path d="M169.3,56v-0.4c0,0,0.1,0,0.2,0c0.1,0,0.2,0,0.3-0.1c0.1-0.1,0.1-0.2,0.2-0.3l0-0.2l-0.9-2.6h0.4l0.7,2.2h0l0.7-2.2h0.4
		l-0.9,2.8c-0.1,0.3-0.2,0.5-0.3,0.6c-0.1,0.1-0.3,0.2-0.5,0.2C169.4,56,169.3,56,169.3,56z"/>
	<path d="M173.8,55.1h-0.4l-0.5-2h0l-0.5,2H172l-0.7-2.6h0.4l0.5,2.2h0l0.5-2.2h0.4l0.5,2.2h0l0.5-2.2h0.4L173.8,55.1z"/>
	<path d="M174.8,51.4h0.4v1.5h0c0.1-0.3,0.4-0.5,0.8-0.5c0.3,0,0.5,0.1,0.6,0.3c0.2,0.2,0.2,0.4,0.2,0.7v1.7h-0.4v-1.6
		c0-0.2-0.1-0.4-0.2-0.5c-0.1-0.1-0.3-0.2-0.4-0.2c-0.2,0-0.4,0.1-0.5,0.2c-0.1,0.1-0.2,0.3-0.2,0.6v1.5h-0.4V51.4z"/>
	<path d="M179.3,54.3c0,0.2-0.1,0.4-0.3,0.6c-0.2,0.1-0.4,0.2-0.7,0.2c-0.3,0-0.6-0.1-0.8-0.4c-0.2-0.2-0.3-0.6-0.3-1
		c0-0.4,0.1-0.7,0.3-1c0.2-0.2,0.5-0.4,0.8-0.4c0.3,0,0.6,0.1,0.8,0.3c0.2,0.2,0.3,0.5,0.3,0.9v0.2h-1.7v0c0,0.3,0.1,0.5,0.2,0.6
		c0.1,0.2,0.3,0.2,0.5,0.2c0.1,0,0.3,0,0.4-0.1c0.1-0.1,0.2-0.2,0.2-0.3H179.3z M177.9,53c-0.1,0.1-0.2,0.3-0.2,0.5h1.3
		c0-0.2-0.1-0.4-0.2-0.5c-0.1-0.1-0.3-0.2-0.5-0.2C178.1,52.8,178,52.9,177.9,53z"/>
	<path d="M179.8,52.5h0.4v0.4h0c0-0.1,0.1-0.2,0.2-0.3s0.2-0.1,0.4-0.1c0.1,0,0.1,0,0.1,0v0.4c0,0-0.1,0-0.2,0
		c-0.2,0-0.3,0.1-0.4,0.2c-0.1,0.1-0.1,0.3-0.1,0.4v1.6h-0.4V52.5z"/>
	<path d="M183,54.3c0,0.2-0.1,0.4-0.3,0.6c-0.2,0.1-0.4,0.2-0.7,0.2c-0.3,0-0.6-0.1-0.8-0.4c-0.2-0.2-0.3-0.6-0.3-1
		c0-0.4,0.1-0.7,0.3-1c0.2-0.2,0.5-0.4,0.8-0.4c0.3,0,0.6,0.1,0.8,0.3c0.2,0.2,0.3,0.5,0.3,0.9v0.2h-1.7v0c0,0.3,0.1,0.5,0.2,0.6
		c0.1,0.2,0.3,0.2,0.5,0.2c0.1,0,0.3,0,0.4-0.1c0.1-0.1,0.2-0.2,0.2-0.3H183z M181.6,53c-0.1,0.1-0.2,0.3-0.2,0.5h1.3
		c0-0.2-0.1-0.4-0.2-0.5c-0.1-0.1-0.3-0.2-0.5-0.2C181.8,52.8,181.7,52.9,181.6,53z"/>
	<path d="M184.7,54.8c-0.2-0.2-0.3-0.6-0.3-1c0-0.4,0.1-0.7,0.3-1c0.2-0.2,0.5-0.4,0.8-0.4s0.6,0.1,0.8,0.4c0.2,0.2,0.3,0.6,0.3,1
		c0,0.4-0.1,0.7-0.3,1c-0.2,0.2-0.5,0.4-0.8,0.4S184.9,55,184.7,54.8z M186,54.5c0.1-0.2,0.2-0.4,0.2-0.7c0-0.3-0.1-0.5-0.2-0.7
		c-0.1-0.2-0.3-0.3-0.5-0.3s-0.4,0.1-0.5,0.3c-0.1,0.2-0.2,0.4-0.2,0.7c0,0.3,0.1,0.5,0.2,0.7c0.1,0.2,0.3,0.3,0.5,0.3
		C185.7,54.7,185.9,54.7,186,54.5z"/>
	<path d="M187,52.5h0.4v0.4h0c0-0.1,0.1-0.2,0.2-0.3s0.2-0.1,0.4-0.1c0.1,0,0.1,0,0.1,0v0.4c0,0-0.1,0-0.2,0c-0.2,0-0.3,0.1-0.4,0.2
		c-0.1,0.1-0.1,0.3-0.1,0.4v1.6H187V52.5z"/>
	<path d="M191.1,53.3c0-0.1-0.1-0.3-0.2-0.4c-0.1-0.1-0.3-0.1-0.4-0.1c-0.2,0-0.4,0.1-0.5,0.3c-0.1,0.2-0.2,0.4-0.2,0.7
		c0,0.3,0.1,0.5,0.2,0.7c0.1,0.2,0.3,0.3,0.5,0.3c0.3,0,0.5-0.2,0.6-0.5h0.4c0,0.3-0.1,0.5-0.3,0.6c-0.2,0.2-0.4,0.2-0.7,0.2
		c-0.3,0-0.6-0.1-0.8-0.4c-0.2-0.2-0.3-0.6-0.3-1c0-0.4,0.1-0.7,0.3-1c0.2-0.2,0.5-0.4,0.8-0.4c0.3,0,0.5,0.1,0.7,0.3
		c0.2,0.2,0.3,0.4,0.3,0.6H191.1z"/>
	<path d="M191.9,54.9c-0.1-0.1-0.2-0.3-0.2-0.6c0-0.2,0.1-0.4,0.2-0.5c0.2-0.1,0.4-0.2,0.7-0.2l0.7,0v-0.2c0-0.2,0-0.3-0.1-0.4
		s-0.2-0.1-0.4-0.1c-0.1,0-0.3,0-0.3,0.1c-0.1,0.1-0.2,0.2-0.2,0.3h-0.4c0-0.2,0.1-0.4,0.3-0.6c0.2-0.2,0.4-0.2,0.6-0.2
		c0.3,0,0.5,0.1,0.7,0.2c0.2,0.2,0.3,0.4,0.3,0.6v1.8h-0.4v-0.5h0c-0.1,0.1-0.2,0.3-0.3,0.3c-0.1,0.1-0.3,0.1-0.5,0.1
		C192.3,55.1,192.1,55,191.9,54.9z M193.1,54.6c0.1-0.1,0.2-0.3,0.2-0.5v-0.2l-0.6,0c-0.4,0-0.5,0.2-0.5,0.4c0,0.1,0,0.2,0.1,0.3
		c0.1,0.1,0.2,0.1,0.4,0.1C192.8,54.7,193,54.7,193.1,54.6z"/>
	<path d="M194.2,51.4h0.4v3.7h-0.4V51.4z"/>
	<path d="M195.1,51.4h0.4v3.7h-0.4V51.4z"/>
	<path d="M197.6,51.9v0.6h0.5v0.4h-0.5v1.6c0,0.2,0.1,0.4,0.3,0.4c0.1,0,0.1,0,0.2,0v0.4c-0.1,0-0.1,0-0.2,0c-0.2,0-0.4-0.1-0.5-0.2
		c-0.1-0.1-0.1-0.3-0.1-0.5v-1.6h-0.3v-0.4h0.3v-0.6H197.6z"/>
	<path d="M198.6,54.8c-0.2-0.2-0.3-0.6-0.3-1c0-0.4,0.1-0.7,0.3-1c0.2-0.2,0.5-0.4,0.8-0.4s0.6,0.1,0.8,0.4c0.2,0.2,0.3,0.6,0.3,1
		c0,0.4-0.1,0.7-0.3,1c-0.2,0.2-0.5,0.4-0.8,0.4S198.8,55,198.6,54.8z M200,54.5c0.1-0.2,0.2-0.4,0.2-0.7c0-0.3-0.1-0.5-0.2-0.7
		c-0.1-0.2-0.3-0.3-0.5-0.3s-0.4,0.1-0.5,0.3c-0.1,0.2-0.2,0.4-0.2,0.7c0,0.3,0.1,0.5,0.2,0.7c0.1,0.2,0.3,0.3,0.5,0.3
		C199.7,54.7,199.8,54.7,200,54.5z"/>
	<path d="M202.4,54.6L202.4,54.6l0,0.4H202v-3.7h0.4v1.5h0c0.2-0.3,0.4-0.5,0.8-0.5c0.3,0,0.5,0.1,0.7,0.4c0.2,0.2,0.3,0.6,0.3,1
		c0,0.4-0.1,0.7-0.3,1c-0.2,0.2-0.4,0.4-0.7,0.4C202.8,55.1,202.6,55,202.4,54.6z M202.6,53.1c-0.1,0.2-0.2,0.4-0.2,0.7
		c0,0.3,0.1,0.5,0.2,0.7c0.1,0.2,0.3,0.3,0.5,0.3c0.2,0,0.4-0.1,0.5-0.3c0.1-0.2,0.2-0.4,0.2-0.7c0-0.3-0.1-0.5-0.2-0.7
		c-0.1-0.2-0.3-0.3-0.5-0.3C202.9,52.8,202.7,52.9,202.6,53.1z"/>
	<path d="M204.8,54.8c-0.2-0.2-0.3-0.6-0.3-1c0-0.4,0.1-0.7,0.3-1c0.2-0.2,0.5-0.4,0.8-0.4s0.6,0.1,0.8,0.4c0.2,0.2,0.3,0.6,0.3,1
		c0,0.4-0.1,0.7-0.3,1c-0.2,0.2-0.5,0.4-0.8,0.4S205,55,204.8,54.8z M206.1,54.5c0.1-0.2,0.2-0.4,0.2-0.7c0-0.3-0.1-0.5-0.2-0.7
		c-0.1-0.2-0.3-0.3-0.5-0.3s-0.4,0.1-0.5,0.3c-0.1,0.2-0.2,0.4-0.2,0.7c0,0.3,0.1,0.5,0.2,0.7c0.1,0.2,0.3,0.3,0.5,0.3
		C205.8,54.7,206,54.7,206.1,54.5z"/>
	<path d="M207.2,54.8c-0.2-0.2-0.3-0.6-0.3-1c0-0.4,0.1-0.7,0.3-1c0.2-0.2,0.5-0.4,0.8-0.4s0.6,0.1,0.8,0.4c0.2,0.2,0.3,0.6,0.3,1
		c0,0.4-0.1,0.7-0.3,1c-0.2,0.2-0.5,0.4-0.8,0.4S207.4,55,207.2,54.8z M208.5,54.5c0.1-0.2,0.2-0.4,0.2-0.7c0-0.3-0.1-0.5-0.2-0.7
		c-0.1-0.2-0.3-0.3-0.5-0.3s-0.4,0.1-0.5,0.3c-0.1,0.2-0.2,0.4-0.2,0.7c0,0.3,0.1,0.5,0.2,0.7c0.1,0.2,0.3,0.3,0.5,0.3
		C208.3,54.7,208.4,54.7,208.5,54.5z"/>
	<path d="M211,52.5h0.5l-1,1.1l1.1,1.5H211l-0.9-1.2l-0.2,0.2v1h-0.4v-3.7h0.4v2.2L211,52.5z"/>
	<path d="M213,54.9c-0.1-0.1-0.2-0.3-0.2-0.6c0-0.2,0.1-0.4,0.2-0.5c0.2-0.1,0.4-0.2,0.7-0.2l0.7,0v-0.2c0-0.2,0-0.3-0.1-0.4
		s-0.2-0.1-0.4-0.1c-0.1,0-0.3,0-0.3,0.1c-0.1,0.1-0.2,0.2-0.2,0.3h-0.4c0-0.2,0.1-0.4,0.3-0.6c0.2-0.2,0.4-0.2,0.6-0.2
		c0.3,0,0.5,0.1,0.7,0.2c0.2,0.2,0.3,0.4,0.3,0.6v1.8h-0.4v-0.5h0c-0.1,0.1-0.2,0.3-0.3,0.3c-0.1,0.1-0.3,0.1-0.5,0.1
		C213.3,55.1,213.1,55,213,54.9z M214.1,54.6c0.1-0.1,0.2-0.3,0.2-0.5v-0.2l-0.6,0c-0.4,0-0.5,0.2-0.5,0.4c0,0.1,0,0.2,0.1,0.3
		c0.1,0.1,0.2,0.1,0.4,0.1C213.8,54.7,214,54.7,214.1,54.6z"/>
	<path d="M217.9,53.3c0-0.1-0.1-0.3-0.2-0.4c-0.1-0.1-0.3-0.1-0.4-0.1c-0.2,0-0.4,0.1-0.5,0.3c-0.1,0.2-0.2,0.4-0.2,0.7
		c0,0.3,0.1,0.5,0.2,0.7c0.1,0.2,0.3,0.3,0.5,0.3c0.3,0,0.5-0.2,0.6-0.5h0.4c0,0.3-0.1,0.5-0.3,0.6c-0.2,0.2-0.4,0.2-0.7,0.2
		c-0.3,0-0.6-0.1-0.8-0.4c-0.2-0.2-0.3-0.6-0.3-1c0-0.4,0.1-0.7,0.3-1c0.2-0.2,0.5-0.4,0.8-0.4c0.3,0,0.5,0.1,0.7,0.3
		c0.2,0.2,0.3,0.4,0.3,0.6H217.9z"/>
	<path d="M218.8,54.8c-0.2-0.2-0.3-0.6-0.3-1c0-0.4,0.1-0.7,0.3-1c0.2-0.2,0.5-0.4,0.8-0.4s0.6,0.1,0.8,0.4c0.2,0.2,0.3,0.6,0.3,1
		c0,0.4-0.1,0.7-0.3,1c-0.2,0.2-0.5,0.4-0.8,0.4S219,55,218.8,54.8z M220.1,54.5c0.1-0.2,0.2-0.4,0.2-0.7c0-0.3-0.1-0.5-0.2-0.7
		c-0.1-0.2-0.3-0.3-0.5-0.3s-0.4,0.1-0.5,0.3c-0.1,0.2-0.2,0.4-0.2,0.7c0,0.3,0.1,0.5,0.2,0.7c0.1,0.2,0.3,0.3,0.5,0.3
		C219.8,54.7,220,54.7,220.1,54.5z"/>
	<path d="M223,55.1h-0.4v-0.4h0c-0.1,0.3-0.4,0.5-0.8,0.5c-0.3,0-0.5-0.1-0.6-0.3c-0.2-0.2-0.2-0.4-0.2-0.7v-1.7h0.4v1.6
		c0,0.2,0,0.4,0.1,0.5c0.1,0.1,0.2,0.2,0.4,0.2c0.2,0,0.4-0.1,0.5-0.2c0.1-0.1,0.2-0.3,0.2-0.5v-1.5h0.4V55.1z"/>
	<path d="M223.6,52.5h0.4v0.4h0c0-0.1,0.1-0.2,0.2-0.3s0.2-0.1,0.4-0.1c0.1,0,0.1,0,0.1,0v0.4c0,0-0.1,0-0.2,0
		c-0.2,0-0.3,0.1-0.4,0.2c-0.1,0.1-0.1,0.3-0.1,0.4v1.6h-0.4V52.5z"/>
	<path d="M225.2,52.6c0.2-0.1,0.4-0.2,0.6-0.2c0.2,0,0.4,0.1,0.6,0.2c0.2,0.1,0.2,0.3,0.3,0.5h-0.4c0-0.1-0.1-0.2-0.2-0.3
		c-0.1-0.1-0.2-0.1-0.4-0.1c-0.1,0-0.3,0-0.4,0.1c-0.1,0.1-0.1,0.2-0.1,0.3c0,0.2,0.1,0.3,0.4,0.4l0.4,0.1c0.2,0.1,0.4,0.2,0.5,0.3
		c0.1,0.1,0.1,0.3,0.1,0.4c0,0.2-0.1,0.4-0.3,0.6c-0.2,0.1-0.4,0.2-0.7,0.2c-0.3,0-0.5-0.1-0.6-0.2c-0.2-0.1-0.3-0.3-0.3-0.6h0.4
		c0,0.3,0.2,0.4,0.6,0.4c0.2,0,0.3,0,0.4-0.1c0.1-0.1,0.1-0.2,0.1-0.3c0-0.1,0-0.2-0.1-0.2c-0.1-0.1-0.2-0.1-0.3-0.1l-0.4-0.1
		c-0.4-0.1-0.6-0.4-0.6-0.7C224.9,53,225,52.8,225.2,52.6z"/>
	<path d="M229.1,54.3c0,0.2-0.1,0.4-0.3,0.6c-0.2,0.1-0.4,0.2-0.7,0.2c-0.3,0-0.6-0.1-0.8-0.4c-0.2-0.2-0.3-0.6-0.3-1
		c0-0.4,0.1-0.7,0.3-1c0.2-0.2,0.5-0.4,0.8-0.4c0.3,0,0.6,0.1,0.8,0.3c0.2,0.2,0.3,0.5,0.3,0.9v0.2h-1.7v0c0,0.3,0.1,0.5,0.2,0.6
		c0.1,0.2,0.3,0.2,0.5,0.2c0.1,0,0.3,0,0.4-0.1c0.1-0.1,0.2-0.2,0.2-0.3H229.1z M227.6,53c-0.1,0.1-0.2,0.3-0.2,0.5h1.3
		c0-0.2-0.1-0.4-0.2-0.5c-0.1-0.1-0.3-0.2-0.5-0.2S227.8,52.9,227.6,53z"/>
	<path d="M229.7,55c0-0.1-0.1-0.1-0.1-0.2c0-0.1,0-0.1,0.1-0.2c0-0.1,0.1-0.1,0.2-0.1c0.1,0,0.1,0,0.2,0.1c0,0.1,0.1,0.1,0.1,0.2
		c0,0.1,0,0.1-0.1,0.2c0,0.1-0.1,0.1-0.2,0.1C229.8,55.1,229.7,55.1,229.7,55z"/>
	<path d="M232.7,55.1v-1.5l-1.1-2h0.4l0.9,1.6h0l0.9-1.6h0.4l-1.1,2v1.5H232.7z"/>
	<path d="M234.3,54.8c-0.2-0.2-0.3-0.6-0.3-1c0-0.4,0.1-0.7,0.3-1c0.2-0.2,0.5-0.4,0.8-0.4c0.3,0,0.6,0.1,0.8,0.4
		c0.2,0.2,0.3,0.6,0.3,1c0,0.4-0.1,0.7-0.3,1c-0.2,0.2-0.5,0.4-0.8,0.4C234.7,55.1,234.5,55,234.3,54.8z M235.6,54.5
		c0.1-0.2,0.2-0.4,0.2-0.7c0-0.3-0.1-0.5-0.2-0.7c-0.1-0.2-0.3-0.3-0.5-0.3c-0.2,0-0.4,0.1-0.5,0.3c-0.1,0.2-0.2,0.4-0.2,0.7
		c0,0.3,0.1,0.5,0.2,0.7c0.1,0.2,0.3,0.3,0.5,0.3S235.5,54.7,235.6,54.5z"/>
	<path d="M238.5,55.1h-0.4v-0.4h0c-0.1,0.3-0.4,0.5-0.8,0.5c-0.3,0-0.5-0.1-0.6-0.3c-0.2-0.2-0.2-0.4-0.2-0.7v-1.7h0.4v1.6
		c0,0.2,0,0.4,0.1,0.5c0.1,0.1,0.2,0.2,0.4,0.2c0.2,0,0.3-0.1,0.5-0.2c0.1-0.1,0.2-0.3,0.2-0.5v-1.5h0.4V55.1z"/>
	<path d="M241.7,53.3c0-0.1-0.1-0.3-0.2-0.4c-0.1-0.1-0.3-0.1-0.4-0.1c-0.2,0-0.4,0.1-0.5,0.3c-0.1,0.2-0.2,0.4-0.2,0.7
		c0,0.3,0.1,0.5,0.2,0.7c0.1,0.2,0.3,0.3,0.5,0.3c0.3,0,0.5-0.2,0.6-0.5h0.4c0,0.3-0.1,0.5-0.3,0.6c-0.2,0.2-0.4,0.2-0.7,0.2
		c-0.3,0-0.6-0.1-0.8-0.4c-0.2-0.2-0.3-0.6-0.3-1c0-0.4,0.1-0.7,0.3-1c0.2-0.2,0.5-0.4,0.8-0.4c0.3,0,0.5,0.1,0.7,0.3
		c0.2,0.2,0.3,0.4,0.3,0.6H241.7z"/>
	<path d="M242.6,54.9c-0.1-0.1-0.2-0.3-0.2-0.6c0-0.2,0.1-0.4,0.2-0.5c0.2-0.1,0.4-0.2,0.7-0.2l0.7,0v-0.2c0-0.2,0-0.3-0.1-0.4
		s-0.2-0.1-0.4-0.1c-0.1,0-0.3,0-0.3,0.1c-0.1,0.1-0.2,0.2-0.2,0.3h-0.4c0-0.2,0.1-0.4,0.3-0.6c0.2-0.2,0.4-0.2,0.6-0.2
		c0.3,0,0.5,0.1,0.7,0.2c0.2,0.2,0.3,0.4,0.3,0.6v1.8h-0.4v-0.5h0c-0.1,0.1-0.2,0.3-0.3,0.3c-0.1,0.1-0.3,0.1-0.5,0.1
		C242.9,55.1,242.7,55,242.6,54.9z M243.7,54.6c0.1-0.1,0.2-0.3,0.2-0.5v-0.2l-0.6,0c-0.4,0-0.5,0.2-0.5,0.4c0,0.1,0,0.2,0.1,0.3
		c0.1,0.1,0.2,0.1,0.4,0.1C243.4,54.7,243.6,54.7,243.7,54.6z"/>
	<path d="M244.8,52.5h0.4v0.4h0c0.2-0.3,0.4-0.5,0.8-0.5c0.3,0,0.5,0.1,0.6,0.3c0.2,0.2,0.2,0.4,0.2,0.7v1.7h-0.4v-1.6
		c0-0.2,0-0.4-0.1-0.5c-0.1-0.1-0.2-0.2-0.4-0.2c-0.2,0-0.4,0.1-0.5,0.2c-0.1,0.1-0.2,0.3-0.2,0.5v1.5h-0.4V52.5z"/>
	<path d="M248.8,54.6L248.8,54.6l0,0.4h-0.4v-3.7h0.4v1.5h0c0.2-0.3,0.4-0.5,0.8-0.5c0.3,0,0.5,0.1,0.7,0.4c0.2,0.2,0.3,0.6,0.3,1
		c0,0.4-0.1,0.7-0.3,1c-0.2,0.2-0.4,0.4-0.7,0.4C249.2,55.1,248.9,55,248.8,54.6z M249,53.1c-0.1,0.2-0.2,0.4-0.2,0.7
		c0,0.3,0.1,0.5,0.2,0.7c0.1,0.2,0.3,0.3,0.5,0.3s0.4-0.1,0.5-0.3c0.1-0.2,0.2-0.4,0.2-0.7c0-0.3-0.1-0.5-0.2-0.7
		c-0.1-0.2-0.3-0.3-0.5-0.3S249.1,52.9,249,53.1z"/>
	<path d="M251.1,54.8c-0.2-0.2-0.3-0.6-0.3-1c0-0.4,0.1-0.7,0.3-1c0.2-0.2,0.5-0.4,0.8-0.4s0.6,0.1,0.8,0.4c0.2,0.2,0.3,0.6,0.3,1
		c0,0.4-0.1,0.7-0.3,1c-0.2,0.2-0.5,0.4-0.8,0.4S251.3,55,251.1,54.8z M252.4,54.5c0.1-0.2,0.2-0.4,0.2-0.7c0-0.3-0.1-0.5-0.2-0.7
		c-0.1-0.2-0.3-0.3-0.5-0.3s-0.4,0.1-0.5,0.3c-0.1,0.2-0.2,0.4-0.2,0.7c0,0.3,0.1,0.5,0.2,0.7c0.1,0.2,0.3,0.3,0.5,0.3
		C252.1,54.7,252.3,54.7,252.4,54.5z"/>
	<path d="M253.6,54.8c-0.2-0.2-0.3-0.6-0.3-1c0-0.4,0.1-0.7,0.3-1c0.2-0.2,0.5-0.4,0.8-0.4s0.6,0.1,0.8,0.4c0.2,0.2,0.3,0.6,0.3,1
		c0,0.4-0.1,0.7-0.3,1c-0.2,0.2-0.5,0.4-0.8,0.4S253.8,55,253.6,54.8z M254.9,54.5c0.1-0.2,0.2-0.4,0.2-0.7c0-0.3-0.1-0.5-0.2-0.7
		c-0.1-0.2-0.3-0.3-0.5-0.3s-0.4,0.1-0.5,0.3c-0.1,0.2-0.2,0.4-0.2,0.7c0,0.3,0.1,0.5,0.2,0.7c0.1,0.2,0.3,0.3,0.5,0.3
		C254.6,54.7,254.8,54.7,254.9,54.5z"/>
	<path d="M257.3,52.5h0.5l-1,1.1l1.1,1.5h-0.4l-0.9-1.2l-0.2,0.2v1h-0.4v-3.7h0.4v2.2L257.3,52.5z"/>
	<path d="M259.3,52c0-0.1-0.1-0.1-0.1-0.2c0-0.1,0-0.1,0.1-0.2c0-0.1,0.1-0.1,0.2-0.1s0.1,0,0.2,0.1s0.1,0.1,0.1,0.2
		c0,0.1,0,0.1-0.1,0.2s-0.1,0.1-0.2,0.1S259.3,52,259.3,52z M259.2,52.5h0.4v2.6h-0.4V52.5z"/>
	<path d="M260.7,51.9v0.6h0.5v0.4h-0.5v1.6c0,0.2,0.1,0.4,0.3,0.4c0.1,0,0.1,0,0.2,0v0.4c-0.1,0-0.1,0-0.2,0c-0.2,0-0.4-0.1-0.5-0.2
		c-0.1-0.1-0.1-0.3-0.1-0.5v-1.6H260v-0.4h0.3v-0.6H260.7z"/>
	<path d="M262.7,54.9c-0.1-0.1-0.2-0.3-0.2-0.6c0-0.2,0.1-0.4,0.2-0.5c0.2-0.1,0.4-0.2,0.7-0.2l0.7,0v-0.2c0-0.2,0-0.3-0.1-0.4
		s-0.2-0.1-0.4-0.1c-0.1,0-0.3,0-0.3,0.1c-0.1,0.1-0.2,0.2-0.2,0.3h-0.4c0-0.2,0.1-0.4,0.3-0.6c0.2-0.2,0.4-0.2,0.6-0.2
		c0.3,0,0.5,0.1,0.7,0.2c0.2,0.2,0.3,0.4,0.3,0.6v1.8h-0.4v-0.5h0c-0.1,0.1-0.2,0.3-0.3,0.3c-0.1,0.1-0.3,0.1-0.5,0.1
		C263.1,55.1,262.9,55,262.7,54.9z M263.9,54.6c0.1-0.1,0.2-0.3,0.2-0.5v-0.2l-0.6,0c-0.4,0-0.5,0.2-0.5,0.4c0,0.1,0,0.2,0.1,0.3
		c0.1,0.1,0.2,0.1,0.4,0.1C263.6,54.7,263.8,54.7,263.9,54.6z"/>
	<path d="M265,51.4h0.4v3.7H265V51.4z"/>
	<path d="M265.9,51.4h0.4v3.7h-0.4V51.4z"/>
	<path d="M268.1,54.8c-0.2-0.2-0.3-0.6-0.3-1c0-0.4,0.1-0.7,0.3-1c0.2-0.2,0.5-0.4,0.8-0.4s0.6,0.1,0.8,0.4c0.2,0.2,0.3,0.6,0.3,1
		c0,0.4-0.1,0.7-0.3,1c-0.2,0.2-0.5,0.4-0.8,0.4S268.3,55,268.1,54.8z M269.4,54.5c0.1-0.2,0.2-0.4,0.2-0.7c0-0.3-0.1-0.5-0.2-0.7
		c-0.1-0.2-0.3-0.3-0.5-0.3s-0.4,0.1-0.5,0.3c-0.1,0.2-0.2,0.4-0.2,0.7c0,0.3,0.1,0.5,0.2,0.7c0.1,0.2,0.3,0.3,0.5,0.3
		C269.1,54.7,269.3,54.7,269.4,54.5z"/>
	<path d="M270.4,52.5h0.4v0.4h0c0.2-0.3,0.4-0.5,0.8-0.5c0.3,0,0.5,0.1,0.6,0.3c0.2,0.2,0.2,0.4,0.2,0.7v1.7H272v-1.6
		c0-0.2,0-0.4-0.1-0.5c-0.1-0.1-0.2-0.2-0.4-0.2c-0.2,0-0.4,0.1-0.5,0.2c-0.1,0.1-0.2,0.3-0.2,0.5v1.5h-0.4V52.5z"/>
	<path d="M272.9,51.4h0.4v3.7h-0.4V51.4z"/>
	<path d="M273.9,52c0-0.1-0.1-0.1-0.1-0.2c0-0.1,0-0.1,0.1-0.2c0-0.1,0.1-0.1,0.2-0.1c0.1,0,0.1,0,0.2,0.1s0.1,0.1,0.1,0.2
		c0,0.1,0,0.1-0.1,0.2S274.1,52,274,52C274,52,273.9,52,273.9,52z M273.9,52.5h0.4v2.6h-0.4V52.5z"/>
	<path d="M274.8,52.5h0.4v0.4h0c0.2-0.3,0.4-0.5,0.8-0.5c0.3,0,0.5,0.1,0.6,0.3c0.2,0.2,0.2,0.4,0.2,0.7v1.7h-0.4v-1.6
		c0-0.2,0-0.4-0.1-0.5c-0.1-0.1-0.2-0.2-0.4-0.2c-0.2,0-0.4,0.1-0.5,0.2c-0.1,0.1-0.2,0.3-0.2,0.5v1.5h-0.4V52.5z"/>
	<path d="M279.2,54.3c0,0.2-0.1,0.4-0.3,0.6c-0.2,0.1-0.4,0.2-0.7,0.2c-0.3,0-0.6-0.1-0.8-0.4c-0.2-0.2-0.3-0.6-0.3-1
		c0-0.4,0.1-0.7,0.3-1c0.2-0.2,0.5-0.4,0.8-0.4c0.3,0,0.6,0.1,0.8,0.3c0.2,0.2,0.3,0.5,0.3,0.9v0.2h-1.7v0c0,0.3,0.1,0.5,0.2,0.6
		c0.1,0.2,0.3,0.2,0.5,0.2c0.1,0,0.3,0,0.4-0.1c0.1-0.1,0.2-0.2,0.2-0.3H279.2z M277.8,53c-0.1,0.1-0.2,0.3-0.2,0.5h1.3
		c0-0.2-0.1-0.4-0.2-0.5c-0.1-0.1-0.3-0.2-0.5-0.2C278,52.8,277.9,52.9,277.8,53z"/>
	<path d="M279.8,55c0-0.1-0.1-0.1-0.1-0.2c0-0.1,0-0.1,0.1-0.2c0-0.1,0.1-0.1,0.2-0.1c0.1,0,0.1,0,0.2,0.1c0,0.1,0.1,0.1,0.1,0.2
		c0,0.1,0,0.1-0.1,0.2c0,0.1-0.1,0.1-0.2,0.1C279.9,55.1,279.8,55.1,279.8,55z"/>
</g>
</svg>
