<?xml version="1.0" encoding="utf-8"?>
<!-- Generator: Adobe Illustrator 22.1.0, SVG Export Plug-In . SVG Version: 6.00 Build 0)  -->
<svg version="1.1" id="Layer_1" xmlns="http://www.w3.org/2000/svg" xmlns:xlink="http://www.w3.org/1999/xlink" x="0px" y="0px"
	 viewBox="0 0 403.1 91.9" style="enable-background:new 0 0 403.1 91.9;" xml:space="preserve">
<style type="text/css">
	.st0{fill:#F91C5C;}
	.st1{opacity:0.3;fill:#F71E52;enable-background:new    ;}
	.st2{fill:#FF719D;}
	.st3{fill:#F4213F;}
	.st4{fill:#F71E52;}
	.st5{enable-background:new    ;}
	.st6{fill:none;}
</style>
<path class="st0" d="M403.1,29.6v62.3h-70.7c-9.2-4.6-16-11-19.2-18.3c0,0,0-0.1-0.1-0.2c-1.3-2.9-2-6.1-2-9.3
	c0-15.5,15.8-28.7,37.7-33.6c1.5-0.3,3-0.6,4.6-0.9c4.6-0.8,9.3-1.1,14.2-1.1c1.6,0,3.2,0.1,4.8,0.2
	C383.6,28.6,393.8,28.9,403.1,29.6z"/>
<path class="st1" d="M0,0v82.5c3.4-2.3,7.3-3.6,11.6-4.6c13.3-2.7,30.6-1.1,49.3-9.5c37-16.6,15-37.8,50-46.9
	c16-4.1,25.2-13.1,30.3-21.5H0z"/>
<path class="st0" d="M0,0v19.3c5.6-0.8,14.6-0.4,24.9,6.8c1,1,2.2,1.9,3.5,2.8c3.9,2.4,8.8,3.9,14.2,3.9C55,32.9,65,25.3,65,16
	c0,0,0.4-7.3-4.4-16H0z"/>
<path class="st1" d="M403.1,0v40.5c-18.6,7.8-42.4,3.6-54.3-9.8l-0.1-0.1c-3.2-3.6-5.2-7.5-6.1-11.6c-1.5-6.5-0.1-13.1,3.8-18.9
	h56.7V0z"/>
<path class="st1" d="M209.1,91.9H351c0-0.2,0-0.4,0-0.6c0-3.9-2-7.9-6.3-11.5c-12.1-10.1-37.4-13.1-56.6-6.8c-3,1-5.7,2.1-8,3.5
	c-0.1,0-0.1,0.1-0.2,0.1c-1.5,0.9-2.8,1.8-4.1,2.7c0,0-0.1,0.1-0.2,0.2c-0.4,0.3-0.8,0.7-1.1,1c-3.2,2.4-12.7,7.6-33.6,5.4
	c-1.9-0.4-3.8-0.6-5.8-0.8c-5.8-0.4-11.9,0.2-17.3,2C214.1,88.4,211.1,90,209.1,91.9z"/>
<ellipse class="st2" cx="59.9" cy="69.8" rx="6.7" ry="6.1"/>
<path class="st3" d="M217.8,0c0.6,3,3.7,5.3,7.4,5.3S232,3,232.6,0H217.8z"/>
<path class="st4" d="M0,66.9v25c6.9-1.8,11.8-6.7,11.8-12.5c0-0.8-0.1-1.5-0.3-2.2C10.6,72.4,6,68.5,0,66.9z"/>
<ellipse class="st2" cx="380.9" cy="62.9" rx="12.6" ry="12.6"/>
<g class="st5">
	<path d="M177.7,32.3v-2.7h-2.9v2.7h-1.3V26h1.3v2.6h2.9V26h1.3v6.3H177.7z"/>
	<path d="M180.4,31.7c-0.4-0.4-0.6-1.1-0.6-1.8c0-0.8,0.2-1.4,0.6-1.8c0.4-0.4,1-0.7,1.7-0.7s1.3,0.2,1.7,0.7
		c0.4,0.4,0.6,1.1,0.6,1.8c0,0.8-0.2,1.4-0.6,1.8c-0.4,0.4-1,0.7-1.7,0.7S180.9,32.2,180.4,31.7z M183,31c0.2-0.3,0.3-0.6,0.3-1.1
		s-0.1-0.8-0.3-1.1c-0.2-0.3-0.5-0.4-0.8-0.4s-0.6,0.1-0.8,0.4s-0.3,0.6-0.3,1.1s0.1,0.9,0.3,1.1c0.2,0.3,0.5,0.4,0.8,0.4
		S182.8,31.3,183,31z"/>
	<path d="M190.7,32.3h-1.4l-0.9-3.4l0,0l-0.9,3.4h-1.3l-1.3-4.8h1.3l0.7,3.6l0,0l0.9-3.6h1.2l0.9,3.6l0,0l0.8-3.6h1.3L190.7,32.3z"
		/>
	<path d="M199.9,32.3h-1.4l-0.9-3.4l0,0l-0.9,3.4h-1.3l-1.3-4.8h1.3l0.7,3.6l0,0l0.9-3.6h1.2l0.9,3.6l0,0l0.8-3.6h1.3L199.9,32.3z"
		/>
	<path d="M206,30.9c-0.1,0.5-0.3,0.8-0.7,1.1s-0.9,0.4-1.5,0.4c-0.7,0-1.3-0.2-1.7-0.7c-0.4-0.4-0.6-1-0.6-1.8s0.2-1.4,0.6-1.8
		c0.4-0.5,1-0.7,1.7-0.7s1.3,0.2,1.7,0.7c0.4,0.4,0.6,1,0.6,1.8v0.4h-3.3v0.1c0,0.3,0.1,0.6,0.3,0.8c0.2,0.2,0.5,0.3,0.8,0.3
		c0.2,0,0.5-0.1,0.6-0.2c0.2-0.1,0.3-0.3,0.4-0.4H206z M203,28.7c-0.2,0.2-0.3,0.4-0.3,0.8h2.1c0-0.3-0.1-0.6-0.3-0.8
		s-0.4-0.3-0.7-0.3C203.5,28.4,203.2,28.5,203,28.7z"/>
	<path d="M214.1,32.3h-1.4l-0.9-3.4l0,0l-0.9,3.4h-1.3l-1.3-4.8h1.3l0.7,3.6l0,0l0.9-3.6h1.2l0.9,3.6l0,0l0.8-3.6h1.3L214.1,32.3z"
		/>
	<path d="M216.3,31.7c-0.4-0.4-0.6-1.1-0.6-1.8c0-0.8,0.2-1.4,0.6-1.8c0.4-0.4,1-0.7,1.7-0.7s1.3,0.2,1.7,0.7
		c0.4,0.4,0.6,1.1,0.6,1.8c0,0.8-0.2,1.4-0.6,1.8c-0.4,0.4-1,0.7-1.7,0.7S216.7,32.2,216.3,31.7z M218.9,31c0.2-0.3,0.3-0.6,0.3-1.1
		s-0.1-0.8-0.3-1.1c-0.2-0.3-0.5-0.4-0.8-0.4s-0.6,0.1-0.8,0.4s-0.3,0.6-0.3,1.1s0.1,0.9,0.3,1.1c0.2,0.3,0.5,0.4,0.8,0.4
		S218.7,31.3,218.9,31z"/>
	<path d="M221.1,27.5h1.2v0.9l0,0c0.2-0.6,0.6-0.9,1.2-0.9c0.1,0,0.3,0,0.4,0v1.1c-0.1-0.1-0.3-0.1-0.5-0.1c-0.3,0-0.6,0.1-0.8,0.3
		s-0.3,0.5-0.3,0.8v2.7H221v-4.8H221.1z"/>
	<path d="M227.5,27.5h1.5l-1.9,2.1l2,2.8h-1.5l-1.4-2l-0.3,0.4v1.6h-1.3v-6.6h1.3v3.8l0,0L227.5,27.5z"/>
</g>
<rect x="90.1" y="42.5" class="st6" width="201.8" height="29"/>
<path d="M113.9,46c0,0.2,0.1,0.3,0.3,0.5c0.1,0.1,0.3,0.2,0.6,0.2c0.2,0,0.4-0.1,0.5-0.2c0.1-0.1,0.2-0.3,0.2-0.4
	c0-0.1,0-0.3-0.1-0.4c-0.1-0.1-0.3-0.2-0.5-0.2l-0.4-0.1c-0.3-0.1-0.5-0.2-0.6-0.3s-0.2-0.3-0.2-0.6s0.1-0.5,0.3-0.7
	c0.2-0.2,0.5-0.3,0.8-0.3s0.6,0.1,0.8,0.3c0.2,0.2,0.3,0.4,0.3,0.7h-0.4c0-0.2-0.1-0.3-0.2-0.4s-0.3-0.2-0.5-0.2s-0.4,0.1-0.5,0.2
	c-0.1,0.1-0.2,0.2-0.2,0.4c0,0.1,0,0.2,0.1,0.3s0.2,0.2,0.5,0.2l0.3,0.1c0.3,0.1,0.6,0.2,0.7,0.4s0.2,0.4,0.2,0.6
	c0,0.3-0.1,0.6-0.3,0.8c-0.2,0.2-0.5,0.3-0.9,0.3c-0.3,0-0.6-0.1-0.8-0.3s-0.3-0.4-0.3-0.7h0.3V46z"/>
<path d="M116.8,43.8v0.6h0.5v0.4h-0.5v1.6c0,0.2,0.1,0.4,0.3,0.4c0.1,0,0.1,0,0.2,0V47c-0.1,0-0.1,0-0.2,0c-0.2,0-0.4-0.1-0.5-0.2
	c-0.1-0.1-0.1-0.3-0.1-0.5v-1.6H116v-0.4h0.3v-0.6L116.8,43.8L116.8,43.8z"/>
<path d="M119.6,47h-0.4v-0.4l0,0c-0.1,0.3-0.4,0.5-0.8,0.5c-0.3,0-0.5-0.1-0.6-0.3c-0.2-0.2-0.2-0.4-0.2-0.7v-1.7h0.4V46
	c0,0.2,0,0.4,0.1,0.5s0.2,0.2,0.4,0.2c0.2,0,0.4-0.1,0.5-0.2c0.1-0.1,0.2-0.3,0.2-0.5v-1.5h0.4V47z"/>
<path d="M120.3,46.7c-0.2-0.2-0.3-0.6-0.3-1s0.1-0.7,0.3-1c0.2-0.2,0.4-0.4,0.7-0.4c0.4,0,0.6,0.2,0.8,0.5l0,0v-1.5h0.4V47h-0.4
	v-0.4l0,0c-0.2,0.3-0.4,0.5-0.8,0.5C120.7,47,120.5,46.9,120.3,46.7z M120.6,45c-0.1,0.2-0.2,0.4-0.2,0.7s0.1,0.5,0.2,0.7
	s0.3,0.3,0.5,0.3s0.4-0.1,0.5-0.3s0.2-0.4,0.2-0.7s-0.1-0.5-0.2-0.7s-0.3-0.3-0.5-0.3S120.7,44.8,120.6,45z"/>
<path d="M124.7,46.3c0,0.2-0.1,0.4-0.3,0.6c-0.2,0.1-0.4,0.2-0.7,0.2c-0.3,0-0.6-0.1-0.8-0.4c-0.2-0.2-0.3-0.6-0.3-1s0.1-0.7,0.3-1
	s0.5-0.4,0.8-0.4s0.6,0.1,0.8,0.3c0.2,0.2,0.3,0.5,0.3,0.9v0.2H123l0,0c0,0.3,0.1,0.5,0.2,0.6s0.3,0.2,0.5,0.2c0.1,0,0.3,0,0.4-0.1
	s0.2-0.2,0.2-0.3h0.4V46.3z M123.2,44.9c-0.1,0.1-0.2,0.3-0.2,0.5h1.3c0-0.2-0.1-0.4-0.2-0.5s-0.3-0.2-0.5-0.2
	C123.5,44.7,123.3,44.8,123.2,44.9z"/>
<path d="M125.1,44.4h0.4v0.4l0,0c0.2-0.3,0.4-0.5,0.8-0.5c0.3,0,0.5,0.1,0.6,0.3c0.2,0.2,0.2,0.4,0.2,0.7V47h-0.4v-1.6
	c0-0.2,0-0.4-0.1-0.5s-0.2-0.2-0.4-0.2c-0.2,0-0.4,0.1-0.5,0.2c-0.1,0.1-0.2,0.3-0.2,0.5V47h-0.4V44.4z"/>
<path d="M128.1,43.8v0.6h0.5v0.4h-0.5v1.6c0,0.2,0.1,0.4,0.3,0.4c0.1,0,0.1,0,0.2,0V47c-0.1,0-0.1,0-0.2,0c-0.2,0-0.4-0.1-0.5-0.2
	c-0.1-0.1-0.1-0.3-0.1-0.5v-1.6h-0.3v-0.4h0.3v-0.6L128.1,43.8L128.1,43.8z"/>
<path d="M129.2,44.6c0.2-0.1,0.4-0.2,0.6-0.2s0.4,0.1,0.6,0.2c0.2,0.1,0.2,0.3,0.3,0.5h-0.4c0-0.1-0.1-0.2-0.2-0.3
	c-0.1-0.1-0.2-0.1-0.4-0.1c-0.1,0-0.3,0-0.4,0.1c-0.1,0.1-0.1,0.2-0.1,0.3c0,0.2,0.1,0.3,0.4,0.4l0.4,0.1c0.2,0.1,0.4,0.2,0.5,0.3
	c0.1,0.1,0.1,0.3,0.1,0.4c0,0.2-0.1,0.4-0.3,0.6c-0.2,0.1-0.4,0.2-0.7,0.2c-0.3,0-0.5-0.1-0.6-0.2c-0.2-0.1-0.3-0.3-0.3-0.6h0.4
	c0,0.3,0.2,0.4,0.6,0.4c0.2,0,0.3,0,0.4-0.1c0.1-0.1,0.1-0.2,0.1-0.3s0-0.2-0.1-0.2c-0.1-0.1-0.2-0.1-0.3-0.1l-0.4-0.1
	c-0.4-0.1-0.6-0.4-0.6-0.7C128.9,44.9,129,44.7,129.2,44.6z"/>
<path d="M132.3,44.7H132v-0.4h0.3v-0.2c0-0.2,0.1-0.4,0.2-0.5c0.1-0.1,0.3-0.2,0.5-0.2c0.1,0,0.1,0,0.2,0v0.4c-0.1,0-0.1,0-0.2,0
	c-0.1,0-0.2,0-0.2,0.1s-0.1,0.1-0.1,0.3v0.2h0.5v0.4h-0.5V47h-0.4V44.7z"/>
<path d="M133.6,44.4h0.4v0.4l0,0c0-0.1,0.1-0.2,0.2-0.3c0.1-0.1,0.2-0.1,0.4-0.1c0.1,0,0.1,0,0.1,0v0.4c0,0-0.1,0-0.2,0
	c-0.2,0-0.3,0.1-0.4,0.2c-0.1,0.1-0.1,0.3-0.1,0.4V47h-0.4V44.4z"/>
<path d="M135.1,46.7c-0.2-0.2-0.3-0.6-0.3-1s0.1-0.7,0.3-1c0.2-0.2,0.5-0.4,0.8-0.4s0.6,0.1,0.8,0.4c0.2,0.2,0.3,0.6,0.3,1
	s-0.1,0.7-0.3,1c-0.2,0.2-0.5,0.4-0.8,0.4S135.3,46.9,135.1,46.7z M136.4,46.4c0.1-0.2,0.2-0.4,0.2-0.7s-0.1-0.5-0.2-0.7
	c-0.1-0.2-0.3-0.3-0.5-0.3s-0.4,0.1-0.5,0.3c-0.1,0.2-0.2,0.4-0.2,0.7s0.1,0.5,0.2,0.7c0.1,0.2,0.3,0.3,0.5,0.3
	S136.3,46.6,136.4,46.4z"/>
<path d="M137.4,44.4h0.4v0.4l0,0c0.1-0.1,0.1-0.3,0.3-0.3c0.1-0.1,0.3-0.1,0.4-0.1c0.3,0,0.6,0.2,0.7,0.5l0,0
	c0.1-0.2,0.2-0.3,0.3-0.4s0.3-0.1,0.4-0.1c0.2,0,0.4,0.1,0.6,0.2c0.1,0.2,0.2,0.4,0.2,0.6V47h-0.4v-1.7c0-0.2,0-0.3-0.1-0.4
	c-0.1-0.1-0.2-0.2-0.4-0.2s-0.3,0.1-0.4,0.2c-0.1,0.1-0.2,0.3-0.2,0.4V47h-0.4v-1.8c0-0.2,0-0.3-0.1-0.4c-0.1-0.1-0.2-0.1-0.4-0.1
	s-0.3,0.1-0.4,0.2c-0.1,0.1-0.2,0.3-0.2,0.5V47h-0.4L137.4,44.4L137.4,44.4z"/>
<path d="M142.5,46.8c-0.2-0.2-0.3-0.4-0.3-0.7c0-0.2,0.1-0.4,0.2-0.6s0.3-0.3,0.5-0.3l0,0c-0.2-0.1-0.3-0.2-0.4-0.3
	c-0.1-0.1-0.1-0.3-0.1-0.5c0-0.3,0.1-0.5,0.3-0.7s0.4-0.3,0.7-0.3s0.5,0.1,0.7,0.3s0.3,0.4,0.3,0.7c0,0.2,0,0.3-0.1,0.5
	c-0.1,0.1-0.2,0.2-0.4,0.3l0,0c0.2,0.1,0.4,0.2,0.5,0.3c0.1,0.2,0.2,0.4,0.2,0.6c0,0.3-0.1,0.5-0.3,0.7s-0.5,0.3-0.8,0.3
	C143,47.1,142.7,47,142.5,46.8z M143.8,46.5c0.1-0.1,0.2-0.3,0.2-0.5s-0.1-0.4-0.2-0.5c-0.1-0.1-0.3-0.2-0.5-0.2s-0.4,0.1-0.5,0.2
	c-0.1,0.1-0.2,0.3-0.2,0.5s0.1,0.4,0.2,0.5s0.3,0.2,0.5,0.2S143.7,46.6,143.8,46.5z M143.7,44.8c0.1-0.1,0.2-0.2,0.2-0.4
	s-0.1-0.3-0.2-0.4c-0.1-0.1-0.3-0.2-0.5-0.2s-0.3,0.1-0.5,0.2c-0.1,0.1-0.2,0.3-0.2,0.4c0,0.2,0.1,0.3,0.2,0.4s0.3,0.2,0.5,0.2
	C143.5,45,143.6,44.9,143.7,44.8z"/>
<path d="M146.4,46.3h-1.6v-0.4c0.3-0.5,0.7-1.3,1.4-2.4h0.6v2.4h0.4v0.4h-0.4V47h-0.4V46.3z M145.2,45.9h1.2v-2l0,0
	C145.8,44.7,145.4,45.4,145.2,45.9L145.2,45.9z"/>
<path d="M150.3,45.2c0-0.1-0.1-0.3-0.2-0.4c-0.1-0.1-0.3-0.1-0.4-0.1c-0.2,0-0.4,0.1-0.5,0.3s-0.2,0.4-0.2,0.7s0.1,0.5,0.2,0.7
	c0.1,0.2,0.3,0.3,0.5,0.3c0.3,0,0.5-0.2,0.6-0.5h0.4c0,0.3-0.1,0.5-0.3,0.6c-0.2,0.2-0.4,0.2-0.7,0.2s-0.6-0.1-0.8-0.4
	c-0.2-0.2-0.3-0.6-0.3-1s0.1-0.7,0.3-1c0.2-0.2,0.5-0.4,0.8-0.4s0.5,0.1,0.7,0.3s0.3,0.4,0.3,0.6h-0.4V45.2z"/>
<path d="M151.2,46.7c-0.2-0.2-0.3-0.6-0.3-1s0.1-0.7,0.3-1c0.2-0.2,0.5-0.4,0.8-0.4s0.6,0.1,0.8,0.4c0.2,0.2,0.3,0.6,0.3,1
	s-0.1,0.7-0.3,1c-0.2,0.2-0.5,0.4-0.8,0.4S151.4,46.9,151.2,46.7z M152.5,46.4c0.1-0.2,0.2-0.4,0.2-0.7s-0.1-0.5-0.2-0.7
	c-0.1-0.2-0.3-0.3-0.5-0.3s-0.4,0.1-0.5,0.3s-0.2,0.4-0.2,0.7s0.1,0.5,0.2,0.7c0.1,0.2,0.3,0.3,0.5,0.3S152.4,46.6,152.5,46.4z"/>
<path d="M155.5,47h-0.4v-0.4l0,0c-0.1,0.3-0.4,0.5-0.8,0.5c-0.3,0-0.5-0.1-0.6-0.3c-0.2-0.2-0.2-0.4-0.2-0.7v-1.7h0.4V46
	c0,0.2,0,0.4,0.1,0.5s0.2,0.2,0.4,0.2s0.4-0.1,0.5-0.2c0.1-0.1,0.2-0.3,0.2-0.5v-1.5h0.4L155.5,47L155.5,47z"/>
<path d="M156,44.4h0.4v0.4l0,0c0.2-0.3,0.4-0.5,0.8-0.5c0.3,0,0.5,0.1,0.6,0.3c0.2,0.2,0.2,0.4,0.2,0.7V47h-0.4v-1.6
	c0-0.2,0-0.4-0.1-0.5s-0.2-0.2-0.4-0.2s-0.4,0.1-0.5,0.2c-0.1,0.1-0.2,0.3-0.2,0.5V47H156V44.4z"/>
<path d="M159,43.8v0.6h0.5v0.4H159v1.6c0,0.2,0.1,0.4,0.3,0.4c0.1,0,0.1,0,0.2,0V47c-0.1,0-0.1,0-0.2,0c-0.2,0-0.4-0.1-0.5-0.2
	c-0.1-0.1-0.1-0.3-0.1-0.5v-1.6h-0.3v-0.4h0.3v-0.6L159,43.8L159,43.8z"/>
<path d="M159.9,44.4h0.4v0.4l0,0c0-0.1,0.1-0.2,0.2-0.3s0.2-0.1,0.4-0.1c0.1,0,0.1,0,0.1,0v0.4c0,0-0.1,0-0.2,0
	c-0.2,0-0.3,0.1-0.4,0.2c-0.1,0.1-0.1,0.3-0.1,0.4V47h-0.4V44.4z"/>
<path d="M161.3,43.9c0-0.1-0.1-0.1-0.1-0.2c0-0.1,0-0.1,0.1-0.2c0-0.1,0.1-0.1,0.2-0.1c0.1,0,0.1,0,0.2,0.1s0.1,0.1,0.1,0.2
	c0,0.1,0,0.1-0.1,0.2c0,0.1-0.1,0.1-0.2,0.1C161.5,44,161.4,43.9,161.3,43.9z M161.3,44.4h0.4V47h-0.4V44.4z"/>
<path d="M164.2,46.3c0,0.2-0.1,0.4-0.3,0.6c-0.2,0.1-0.4,0.2-0.7,0.2s-0.6-0.1-0.8-0.4c-0.2-0.2-0.3-0.6-0.3-1s0.1-0.7,0.3-1
	s0.5-0.4,0.8-0.4s0.6,0.1,0.8,0.3s0.3,0.5,0.3,0.9v0.2h-1.7l0,0c0,0.3,0.1,0.5,0.2,0.6c0.1,0.1,0.3,0.2,0.5,0.2c0.1,0,0.3,0,0.4-0.1
	c0.1-0.1,0.2-0.2,0.2-0.3h0.3V46.3z M162.7,44.9c-0.1,0.1-0.2,0.3-0.2,0.5h1.3c0-0.2-0.1-0.4-0.2-0.5c-0.1-0.1-0.3-0.2-0.5-0.2
	C163,44.7,162.9,44.8,162.7,44.9z"/>
<path d="M164.8,44.6c0.2-0.1,0.4-0.2,0.6-0.2c0.2,0,0.4,0.1,0.6,0.2c0.2,0.1,0.2,0.3,0.3,0.5H166c0-0.1-0.1-0.2-0.2-0.3
	s-0.2-0.1-0.4-0.1c-0.1,0-0.3,0-0.4,0.1c-0.1,0.1-0.1,0.2-0.1,0.3c0,0.2,0.1,0.3,0.4,0.4l0.4,0.1c0.2,0.1,0.4,0.2,0.5,0.3
	s0.1,0.3,0.1,0.4c0,0.2-0.1,0.4-0.3,0.6c-0.2,0.1-0.4,0.2-0.7,0.2s-0.5-0.1-0.6-0.2c-0.2-0.1-0.3-0.3-0.3-0.6h0.4
	c0,0.3,0.2,0.4,0.6,0.4c0.2,0,0.3,0,0.4-0.1c0.1-0.1,0.1-0.2,0.1-0.3s0-0.2-0.1-0.2c-0.1-0.1-0.2-0.1-0.3-0.1l-0.4-0.1
	c-0.4-0.1-0.6-0.4-0.6-0.7C164.6,44.9,164.7,44.7,164.8,44.6z"/>
<path d="M167.9,43.3h0.4v1.5l0,0c0.1-0.3,0.4-0.5,0.8-0.5c0.3,0,0.5,0.1,0.6,0.3c0.2,0.2,0.2,0.4,0.2,0.7V47h-0.4v-1.6
	c0-0.2-0.1-0.4-0.2-0.5c-0.1-0.1-0.3-0.2-0.4-0.2c-0.2,0-0.4,0.1-0.5,0.2c-0.1,0.1-0.2,0.3-0.2,0.6V47h-0.4L167.9,43.3L167.9,43.3z"
	/>
<path d="M170.5,46.8c-0.1-0.1-0.2-0.3-0.2-0.6c0-0.2,0.1-0.4,0.2-0.5c0.2-0.1,0.4-0.2,0.7-0.2h0.7v-0.2c0-0.2,0-0.3-0.1-0.4
	s-0.2-0.1-0.4-0.1c-0.1,0-0.3,0-0.3,0.1c-0.1,0.1-0.2,0.2-0.2,0.3h-0.4c0-0.2,0.1-0.4,0.3-0.6c0.2-0.1,0.4-0.2,0.6-0.2
	c0.3,0,0.5,0.1,0.7,0.2c0.2,0.2,0.3,0.4,0.3,0.6V47H172v-0.5l0,0c-0.1,0.1-0.2,0.3-0.3,0.3c-0.1,0.1-0.3,0.1-0.5,0.1
	C170.9,47,170.7,47,170.5,46.8z M171.7,46.5c0.1-0.1,0.2-0.3,0.2-0.5v-0.2h-0.6c-0.4,0-0.5,0.2-0.5,0.4c0,0.1,0,0.2,0.1,0.3
	s0.2,0.1,0.4,0.1C171.4,46.7,171.6,46.6,171.7,46.5z"/>
<path d="M173.8,47h-0.4l-0.9-2.6h0.4l0.7,2.2l0,0l0.7-2.2h0.4L173.8,47z"/>
<path d="M176.9,46.3c0,0.2-0.1,0.4-0.3,0.6c-0.2,0.1-0.4,0.2-0.7,0.2s-0.6-0.1-0.8-0.4c-0.2-0.2-0.3-0.6-0.3-1s0.1-0.7,0.3-1
	s0.5-0.4,0.8-0.4s0.6,0.1,0.8,0.3s0.3,0.5,0.3,0.9v0.2h-1.7l0,0c0,0.3,0.1,0.5,0.2,0.6c0.1,0.1,0.3,0.2,0.5,0.2c0.1,0,0.3,0,0.4-0.1
	c0.1-0.1,0.2-0.2,0.2-0.3h0.3V46.3z M175.4,44.9c-0.1,0.1-0.2,0.3-0.2,0.5h1.3c0-0.2-0.1-0.4-0.2-0.5c-0.1-0.1-0.3-0.2-0.5-0.2
	C175.7,44.7,175.5,44.8,175.4,44.9z"/>
<path d="M178.5,46.8c-0.1-0.1-0.2-0.3-0.2-0.6c0-0.2,0.1-0.4,0.2-0.5c0.2-0.1,0.4-0.2,0.7-0.2h0.7v-0.2c0-0.2,0-0.3-0.1-0.4
	s-0.2-0.1-0.4-0.1c-0.1,0-0.3,0-0.3,0.1c-0.1,0.1-0.2,0.2-0.2,0.3h-0.4c0-0.2,0.1-0.4,0.3-0.6c0.2-0.1,0.4-0.2,0.6-0.2
	c0.3,0,0.5,0.1,0.7,0.2c0.2,0.2,0.3,0.4,0.3,0.6V47H180v-0.5l0,0c-0.1,0.1-0.2,0.3-0.3,0.3c-0.1,0.1-0.3,0.1-0.5,0.1
	C178.9,47,178.7,47,178.5,46.8z M179.7,46.5c0.1-0.1,0.2-0.3,0.2-0.5v-0.2h-0.6c-0.4,0-0.5,0.2-0.5,0.4c0,0.1,0,0.2,0.1,0.3
	s0.2,0.1,0.4,0.1C179.4,46.7,179.5,46.6,179.7,46.5z"/>
<path d="M180.8,43.3h0.4V47h-0.4V43.3z"/>
<path d="M181.7,44.4h0.4v0.4l0,0c0-0.1,0.1-0.2,0.2-0.3s0.2-0.1,0.4-0.1c0.1,0,0.1,0,0.1,0v0.4c0,0-0.1,0-0.2,0
	c-0.2,0-0.3,0.1-0.4,0.2c-0.1,0.1-0.1,0.3-0.1,0.4V47h-0.4V44.4z"/>
<path d="M184.9,46.3c0,0.2-0.1,0.4-0.3,0.6c-0.2,0.1-0.4,0.2-0.7,0.2s-0.6-0.1-0.8-0.4c-0.2-0.2-0.3-0.6-0.3-1s0.1-0.7,0.3-1
	s0.5-0.4,0.8-0.4s0.6,0.1,0.8,0.3s0.3,0.5,0.3,0.9v0.2h-1.7l0,0c0,0.3,0.1,0.5,0.2,0.6c0.1,0.1,0.3,0.2,0.5,0.2c0.1,0,0.3,0,0.4-0.1
	c0.1-0.1,0.2-0.2,0.2-0.3h0.3V46.3z M183.5,44.9c-0.1,0.1-0.2,0.3-0.2,0.5h1.3c0-0.2-0.1-0.4-0.2-0.5c-0.1-0.1-0.3-0.2-0.5-0.2
	C183.8,44.7,183.6,44.8,183.5,44.9z"/>
<path d="M185.5,46.8c-0.1-0.1-0.2-0.3-0.2-0.6c0-0.2,0.1-0.4,0.2-0.5c0.2-0.1,0.4-0.2,0.7-0.2h0.7v-0.2c0-0.2,0-0.3-0.1-0.4
	s-0.2-0.1-0.4-0.1c-0.1,0-0.3,0-0.3,0.1c-0.1,0.1-0.2,0.2-0.2,0.3h-0.4c0-0.2,0.1-0.4,0.3-0.6c0.2-0.1,0.4-0.2,0.6-0.2
	c0.3,0,0.5,0.1,0.7,0.2c0.2,0.2,0.3,0.4,0.3,0.6V47H187v-0.5l0,0c-0.1,0.1-0.2,0.3-0.3,0.3c-0.1,0.1-0.3,0.1-0.5,0.1
	C185.8,47,185.6,47,185.5,46.8z M186.6,46.5c0.1-0.1,0.2-0.3,0.2-0.5v-0.2h-0.6c-0.4,0-0.5,0.2-0.5,0.4c0,0.1,0,0.2,0.1,0.3
	s0.2,0.1,0.4,0.1C186.3,46.7,186.5,46.6,186.6,46.5z"/>
<path d="M187.9,46.7c-0.2-0.2-0.3-0.6-0.3-1s0.1-0.7,0.3-1c0.2-0.2,0.4-0.4,0.7-0.4c0.4,0,0.6,0.2,0.8,0.5l0,0v-1.5h0.4V47h-0.4
	v-0.4l0,0c-0.2,0.3-0.4,0.5-0.8,0.5C188.3,47,188.1,46.9,187.9,46.7z M188.2,45c-0.1,0.2-0.2,0.4-0.2,0.7s0.1,0.5,0.2,0.7
	c0.1,0.2,0.3,0.3,0.5,0.3s0.4-0.1,0.5-0.3s0.2-0.4,0.2-0.7s-0.1-0.5-0.2-0.7s-0.3-0.3-0.5-0.3S188.3,44.8,188.2,45z"/>
<path d="M190.3,48v-0.4c0,0,0.1,0,0.2,0c0.1,0,0.2,0,0.3-0.1s0.1-0.2,0.2-0.3V47l-0.9-2.6h0.4l0.7,2.2l0,0l0.7-2.2h0.4l-0.9,2.8
	c-0.1,0.3-0.2,0.5-0.3,0.6s-0.3,0.2-0.5,0.2S190.4,48,190.3,48z"/>
<path d="M194,46.6L194,46.6V47h-0.4v-3.7h0.4v1.5l0,0c0.2-0.3,0.4-0.5,0.8-0.5c0.3,0,0.5,0.1,0.7,0.4c0.2,0.2,0.3,0.6,0.3,1
	s-0.1,0.7-0.3,1c-0.2,0.2-0.4,0.4-0.7,0.4C194.4,47,194.2,46.9,194,46.6z M194.2,45c-0.1,0.2-0.2,0.4-0.2,0.7s0.1,0.5,0.2,0.7
	c0.1,0.2,0.3,0.3,0.5,0.3s0.4-0.1,0.5-0.3s0.2-0.4,0.2-0.7s-0.1-0.5-0.2-0.7c-0.1-0.2-0.3-0.3-0.5-0.3S194.3,44.8,194.2,45z"/>
<path d="M196.4,46.7c-0.2-0.2-0.3-0.6-0.3-1s0.1-0.7,0.3-1c0.2-0.2,0.5-0.4,0.8-0.4s0.6,0.1,0.8,0.4c0.2,0.2,0.3,0.6,0.3,1
	s-0.1,0.7-0.3,1c-0.2,0.2-0.5,0.4-0.8,0.4S196.6,46.9,196.4,46.7z M197.7,46.4c0.1-0.2,0.2-0.4,0.2-0.7s-0.1-0.5-0.2-0.7
	c-0.1-0.2-0.3-0.3-0.5-0.3s-0.4,0.1-0.5,0.3s-0.2,0.4-0.2,0.7s0.1,0.5,0.2,0.7c0.1,0.2,0.3,0.3,0.5,0.3S197.6,46.6,197.7,46.4z"/>
<path d="M198.8,46.7c-0.2-0.2-0.3-0.6-0.3-1s0.1-0.7,0.3-1c0.2-0.2,0.5-0.4,0.8-0.4s0.6,0.1,0.8,0.4c0.2,0.2,0.3,0.6,0.3,1
	s-0.1,0.7-0.3,1c-0.2,0.2-0.5,0.4-0.8,0.4S199,46.9,198.8,46.7z M200.2,46.4c0.1-0.2,0.2-0.4,0.2-0.7s-0.1-0.5-0.2-0.7
	c-0.1-0.2-0.3-0.3-0.5-0.3s-0.4,0.1-0.5,0.3s-0.2,0.4-0.2,0.7s0.1,0.5,0.2,0.7c0.1,0.2,0.3,0.3,0.5,0.3S200,46.6,200.2,46.4z"/>
<path d="M202.6,44.4h0.5l-1,1.1l1.1,1.5h-0.4l-0.9-1.2l-0.2,0.2v1h-0.4v-3.7h0.4v2.2L202.6,44.4z"/>
<path d="M205.2,46.3c0,0.2-0.1,0.4-0.3,0.6c-0.2,0.1-0.4,0.2-0.7,0.2s-0.6-0.1-0.8-0.4c-0.2-0.2-0.3-0.6-0.3-1s0.1-0.7,0.3-1
	s0.5-0.4,0.8-0.4s0.6,0.1,0.8,0.3s0.3,0.5,0.3,0.9v0.2h-1.7l0,0c0,0.3,0.1,0.5,0.2,0.6c0.1,0.1,0.3,0.2,0.5,0.2c0.1,0,0.3,0,0.4-0.1
	c0.1-0.1,0.2-0.2,0.2-0.3h0.3V46.3z M203.8,44.9c-0.1,0.1-0.2,0.3-0.2,0.5h1.3c0-0.2-0.1-0.4-0.2-0.5c-0.1-0.1-0.3-0.2-0.5-0.2
	C204,44.7,203.9,44.8,203.8,44.9z"/>
<path d="M205.8,46.7c-0.2-0.2-0.3-0.6-0.3-1s0.1-0.7,0.3-1c0.2-0.2,0.4-0.4,0.7-0.4c0.4,0,0.6,0.2,0.8,0.5l0,0v-1.5h0.4V47h-0.4
	v-0.4l0,0c-0.2,0.3-0.4,0.5-0.8,0.5C206.3,47,206,46.9,205.8,46.7z M206.1,45c-0.1,0.2-0.2,0.4-0.2,0.7s0.1,0.5,0.2,0.7
	c0.1,0.2,0.3,0.3,0.5,0.3s0.4-0.1,0.5-0.3s0.2-0.4,0.2-0.7s-0.1-0.5-0.2-0.7s-0.3-0.3-0.5-0.3C206.4,44.7,206.3,44.8,206.1,45z"/>
<path d="M209.8,43.8v0.6h0.5v0.4h-0.5v1.6c0,0.2,0.1,0.4,0.3,0.4c0.1,0,0.1,0,0.2,0V47c-0.1,0-0.1,0-0.2,0c-0.2,0-0.4-0.1-0.5-0.2
	c-0.1-0.1-0.1-0.3-0.1-0.5v-1.6h-0.3v-0.4h0.3v-0.6L209.8,43.8L209.8,43.8z"/>
<path d="M210.7,43.3h0.4v1.5l0,0c0.1-0.3,0.4-0.5,0.8-0.5c0.3,0,0.5,0.1,0.6,0.3c0.2,0.2,0.2,0.4,0.2,0.7V47h-0.4v-1.6
	c0-0.2-0.1-0.4-0.2-0.5c-0.1-0.1-0.3-0.2-0.4-0.2c-0.2,0-0.4,0.1-0.5,0.2c-0.1,0.1-0.2,0.3-0.2,0.6V47h-0.4L210.7,43.3L210.7,43.3z"
	/>
<path d="M215.2,46.3c0,0.2-0.1,0.4-0.3,0.6c-0.2,0.1-0.4,0.2-0.7,0.2s-0.6-0.1-0.8-0.4c-0.2-0.2-0.3-0.6-0.3-1s0.1-0.7,0.3-1
	s0.5-0.4,0.8-0.4s0.6,0.1,0.8,0.3s0.3,0.5,0.3,0.9v0.2h-1.7l0,0c0,0.3,0.1,0.5,0.2,0.6c0.1,0.1,0.3,0.2,0.5,0.2c0.1,0,0.3,0,0.4-0.1
	c0.1-0.1,0.2-0.2,0.2-0.3h0.3V46.3z M213.8,44.9c-0.1,0.1-0.2,0.3-0.2,0.5h1.3c0-0.2-0.1-0.4-0.2-0.5c-0.1-0.1-0.3-0.2-0.5-0.2
	C214,44.7,213.9,44.8,213.8,44.9z"/>
<path d="M215.7,43.9c0-0.1-0.1-0.1-0.1-0.2c0-0.1,0-0.1,0.1-0.2c0-0.1,0.1-0.1,0.2-0.1s0.1,0,0.2,0.1s0.1,0.1,0.1,0.2
	c0,0.1,0,0.1-0.1,0.2c0,0.1-0.1,0.1-0.2,0.1S215.7,43.9,215.7,43.9z M215.7,44.4h0.4V47h-0.4V44.4z"/>
<path d="M216.6,44.4h0.4v0.4l0,0c0-0.1,0.1-0.2,0.2-0.3s0.2-0.1,0.4-0.1c0.1,0,0.1,0,0.1,0v0.4c0,0-0.1,0-0.2,0
	c-0.2,0-0.3,0.1-0.4,0.2c-0.1,0.1-0.1,0.3-0.1,0.4V47h-0.4V44.4z"/>
<path d="M219.1,43.3h0.4V47h-0.4V43.3z"/>
<path d="M220.2,46.8c-0.1-0.1-0.2-0.3-0.2-0.6c0-0.2,0.1-0.4,0.2-0.5c0.2-0.1,0.4-0.2,0.7-0.2h0.7v-0.2c0-0.2,0-0.3-0.1-0.4
	s-0.2-0.1-0.4-0.1c-0.1,0-0.3,0-0.3,0.1c-0.1,0.1-0.2,0.2-0.2,0.3h-0.4c0-0.2,0.1-0.4,0.3-0.6c0.2-0.1,0.4-0.2,0.6-0.2
	c0.3,0,0.5,0.1,0.7,0.2c0.2,0.2,0.3,0.4,0.3,0.6V47h-0.4v-0.5l0,0c-0.1,0.1-0.2,0.3-0.3,0.3c-0.1,0.1-0.3,0.1-0.5,0.1
	C220.5,47,220.3,47,220.2,46.8z M221.3,46.5c0.1-0.1,0.2-0.3,0.2-0.5v-0.2h-0.6c-0.4,0-0.5,0.2-0.5,0.4c0,0.1,0,0.2,0.1,0.3
	s0.2,0.1,0.4,0.1C221,46.7,221.2,46.6,221.3,46.5z"/>
<path d="M222.4,44.4h0.4v0.4l0,0c0.2-0.3,0.4-0.5,0.8-0.5c0.3,0,0.5,0.1,0.6,0.3c0.2,0.2,0.2,0.4,0.2,0.7V47H224v-1.6
	c0-0.2,0-0.4-0.1-0.5s-0.2-0.2-0.4-0.2s-0.4,0.1-0.5,0.2c-0.1,0.1-0.2,0.3-0.2,0.5V47h-0.4L222.4,44.4L222.4,44.4z"/>
<path d="M225.2,47.8c-0.2-0.1-0.3-0.3-0.3-0.5h0.4c0,0.1,0.1,0.2,0.2,0.3c0.1,0.1,0.2,0.1,0.4,0.1s0.4-0.1,0.5-0.2
	c0.1-0.1,0.2-0.3,0.2-0.4v-0.4l0,0c-0.2,0.3-0.4,0.5-0.8,0.5c-0.3,0-0.5-0.1-0.7-0.4c-0.2-0.2-0.3-0.6-0.3-1s0.1-0.7,0.3-1
	c0.2-0.2,0.4-0.4,0.7-0.4s0.6,0.2,0.8,0.5l0,0v-0.4h0.4v2.6c0,0.3-0.1,0.6-0.3,0.7c-0.2,0.2-0.5,0.3-0.8,0.3
	C225.6,48,225.3,47.9,225.2,47.8z M226.3,46.4c0.1-0.2,0.2-0.4,0.2-0.7s-0.1-0.5-0.2-0.7c-0.1-0.2-0.3-0.3-0.5-0.3s-0.4,0.1-0.5,0.3
	s-0.2,0.4-0.2,0.7s0.1,0.5,0.2,0.7c0.1,0.2,0.3,0.3,0.5,0.3C226,46.6,226.2,46.6,226.3,46.4z"/>
<path d="M229.4,47H229v-0.4l0,0c-0.1,0.3-0.4,0.5-0.8,0.5c-0.3,0-0.5-0.1-0.6-0.3c-0.2-0.2-0.2-0.4-0.2-0.7v-1.7h0.4V46
	c0,0.2,0,0.4,0.1,0.5s0.2,0.2,0.4,0.2s0.4-0.1,0.5-0.2c0.1-0.1,0.2-0.3,0.2-0.5v-1.5h0.4L229.4,47L229.4,47z"/>
<path d="M230,46.8c-0.1-0.1-0.2-0.3-0.2-0.6c0-0.2,0.1-0.4,0.2-0.5c0.2-0.1,0.4-0.2,0.7-0.2h0.7v-0.2c0-0.2,0-0.3-0.1-0.4
	s-0.2-0.1-0.4-0.1c-0.1,0-0.3,0-0.3,0.1c-0.1,0.1-0.2,0.2-0.2,0.3H230c0-0.2,0.1-0.4,0.3-0.6c0.2-0.1,0.4-0.2,0.6-0.2
	c0.3,0,0.5,0.1,0.7,0.2c0.2,0.2,0.3,0.4,0.3,0.6V47h-0.4v-0.5l0,0c-0.1,0.1-0.2,0.3-0.3,0.3c-0.1,0.1-0.3,0.1-0.5,0.1
	C230.4,47,230.2,47,230,46.8z M231.2,46.5c0.1-0.1,0.2-0.3,0.2-0.5v-0.2h-0.6c-0.4,0-0.5,0.2-0.5,0.4c0,0.1,0,0.2,0.1,0.3
	s0.2,0.1,0.4,0.1C230.9,46.7,231.1,46.6,231.2,46.5z"/>
<path d="M232.6,47.8c-0.2-0.1-0.3-0.3-0.3-0.5h0.4c0,0.1,0.1,0.2,0.2,0.3c0.1,0.1,0.2,0.1,0.4,0.1s0.4-0.1,0.5-0.2
	c0.1-0.1,0.2-0.3,0.2-0.4v-0.4l0,0c-0.2,0.3-0.4,0.5-0.8,0.5c-0.3,0-0.5-0.1-0.7-0.4c-0.2-0.2-0.3-0.6-0.3-1s0.1-0.7,0.3-1
	c0.2-0.2,0.4-0.4,0.7-0.4s0.6,0.2,0.8,0.5l0,0v-0.4h0.4v2.6c0,0.3-0.1,0.6-0.3,0.7c-0.2,0.2-0.5,0.3-0.8,0.3
	C233,48,232.7,47.9,232.6,47.8z M233.7,46.4c0.1-0.2,0.2-0.4,0.2-0.7s-0.1-0.5-0.2-0.7c-0.1-0.2-0.3-0.3-0.5-0.3s-0.4,0.1-0.5,0.3
	s-0.2,0.4-0.2,0.7s0.1,0.5,0.2,0.7c0.1,0.2,0.3,0.3,0.5,0.3C233.4,46.6,233.6,46.6,233.7,46.4z"/>
<path d="M236.8,46.3c0,0.2-0.1,0.4-0.3,0.6c-0.2,0.1-0.4,0.2-0.7,0.2s-0.6-0.1-0.8-0.4c-0.2-0.2-0.3-0.6-0.3-1s0.1-0.7,0.3-1
	s0.5-0.4,0.8-0.4s0.6,0.1,0.8,0.3s0.3,0.5,0.3,0.9v0.2h-1.7l0,0c0,0.3,0.1,0.5,0.2,0.6c0.1,0.1,0.3,0.2,0.5,0.2c0.1,0,0.3,0,0.4-0.1
	c0.1-0.1,0.2-0.2,0.2-0.3h0.3V46.3z M235.3,44.9c-0.1,0.1-0.2,0.3-0.2,0.5h1.3c0-0.2-0.1-0.4-0.2-0.5c-0.1-0.1-0.3-0.2-0.5-0.2
	S235.4,44.8,235.3,44.9z"/>
<path d="M239.9,45.2c0-0.1-0.1-0.3-0.2-0.4c-0.1-0.1-0.3-0.1-0.4-0.1c-0.2,0-0.4,0.1-0.5,0.3s-0.2,0.4-0.2,0.7s0.1,0.5,0.2,0.7
	c0.1,0.2,0.3,0.3,0.5,0.3c0.3,0,0.5-0.2,0.6-0.5h0.4c0,0.3-0.1,0.5-0.3,0.6c-0.2,0.2-0.4,0.2-0.7,0.2s-0.6-0.1-0.8-0.4
	c-0.2-0.2-0.3-0.6-0.3-1s0.1-0.7,0.3-1c0.2-0.2,0.5-0.4,0.8-0.4s0.5,0.1,0.7,0.3s0.3,0.4,0.3,0.6h-0.4V45.2z"/>
<path d="M240.8,46.7c-0.2-0.2-0.3-0.6-0.3-1s0.1-0.7,0.3-1s0.5-0.4,0.8-0.4s0.6,0.1,0.8,0.4c0.2,0.2,0.3,0.6,0.3,1s-0.1,0.7-0.3,1
	c-0.2,0.2-0.5,0.4-0.8,0.4C241.2,47,241,46.9,240.8,46.7z M242.1,46.4c0.1-0.2,0.2-0.4,0.2-0.7s-0.1-0.5-0.2-0.7
	c-0.1-0.2-0.3-0.3-0.5-0.3s-0.4,0.1-0.5,0.3s-0.2,0.4-0.2,0.7s0.1,0.5,0.2,0.7c0.1,0.2,0.3,0.3,0.5,0.3S242,46.6,242.1,46.4z"/>
<path d="M245,47h-0.4v-0.4l0,0c-0.2,0.3-0.4,0.5-0.8,0.5c-0.3,0-0.5-0.1-0.6-0.3c-0.2-0.2-0.2-0.4-0.2-0.7v-1.7h0.4V46
	c0,0.2,0,0.4,0.1,0.5s0.2,0.2,0.4,0.2s0.4-0.1,0.5-0.2c0.1-0.1,0.2-0.3,0.2-0.5v-1.5h0.4L245,47L245,47z"/>
<path d="M245.6,44.4h0.4v0.4l0,0c0-0.1,0.1-0.2,0.2-0.3s0.2-0.1,0.4-0.1c0.1,0,0.1,0,0.1,0v0.4c0,0-0.1,0-0.2,0
	c-0.2,0-0.3,0.1-0.4,0.2c-0.1,0.1-0.1,0.3-0.1,0.4V47h-0.4V44.4z"/>
<path d="M247.2,44.6c0.2-0.1,0.4-0.2,0.6-0.2c0.2,0,0.4,0.1,0.6,0.2c0.2,0.1,0.2,0.3,0.3,0.5h-0.4c0-0.1-0.1-0.2-0.2-0.3
	c-0.1-0.1-0.2-0.1-0.4-0.1c-0.1,0-0.3,0-0.4,0.1s-0.1,0.2-0.1,0.3c0,0.2,0.1,0.3,0.4,0.4l0.4,0.1c0.2,0.1,0.4,0.2,0.5,0.3
	s0.1,0.3,0.1,0.4c0,0.2-0.1,0.4-0.3,0.6c-0.2,0.1-0.4,0.2-0.7,0.2s-0.5-0.1-0.6-0.2c-0.2-0.1-0.3-0.3-0.3-0.6h0.4
	c0,0.3,0.2,0.4,0.6,0.4c0.2,0,0.3,0,0.4-0.1c0.1-0.1,0.1-0.2,0.1-0.3s0-0.2-0.1-0.2c-0.1-0.1-0.2-0.1-0.3-0.1l-0.4-0.1
	c-0.4-0.1-0.6-0.4-0.6-0.7C247,44.9,247,44.7,247.2,44.6z"/>
<path d="M251.1,46.3c0,0.2-0.1,0.4-0.3,0.6c-0.2,0.1-0.4,0.2-0.7,0.2s-0.6-0.1-0.8-0.4c-0.2-0.2-0.3-0.6-0.3-1s0.1-0.7,0.3-1
	c0.2-0.2,0.5-0.4,0.8-0.4s0.6,0.1,0.8,0.3s0.3,0.5,0.3,0.9v0.2h-1.7l0,0c0,0.3,0.1,0.5,0.2,0.6s0.3,0.2,0.5,0.2c0.1,0,0.3,0,0.4-0.1
	c0.1-0.1,0.2-0.2,0.2-0.3h0.3V46.3z M249.6,44.9c-0.1,0.1-0.2,0.3-0.2,0.5h1.3c0-0.2-0.1-0.4-0.2-0.5c-0.1-0.1-0.3-0.2-0.5-0.2
	C249.9,44.7,249.8,44.8,249.6,44.9z"/>
<path d="M251.7,44.6c0.2-0.1,0.4-0.2,0.6-0.2c0.2,0,0.4,0.1,0.6,0.2c0.2,0.1,0.2,0.3,0.3,0.5h-0.4c0-0.1-0.1-0.2-0.2-0.3
	c-0.1-0.1-0.2-0.1-0.4-0.1c-0.1,0-0.3,0-0.4,0.1c-0.1,0.1-0.1,0.2-0.1,0.3c0,0.2,0.1,0.3,0.4,0.4l0.4,0.1c0.2,0.1,0.4,0.2,0.5,0.3
	s0.1,0.3,0.1,0.4c0,0.2-0.1,0.4-0.3,0.6c-0.2,0.1-0.4,0.2-0.7,0.2s-0.5-0.1-0.6-0.2c-0.2-0.1-0.3-0.3-0.3-0.6h0.4
	c0,0.3,0.2,0.4,0.6,0.4c0.2,0,0.3,0,0.4-0.1c0.1-0.1,0.1-0.2,0.1-0.3s0-0.2-0.1-0.2c-0.1-0.1-0.2-0.1-0.3-0.1l-0.4-0.1
	c-0.4-0.1-0.6-0.4-0.6-0.7C251.5,44.9,251.6,44.7,251.7,44.6z"/>
<path d="M254,47c0-0.1-0.1-0.1-0.1-0.2c0-0.1,0-0.1,0.1-0.2c0-0.1,0.1-0.1,0.2-0.1s0.1,0,0.2,0.1c0,0.1,0.1,0.1,0.1,0.2
	c0,0.1,0,0.1-0.1,0.2c0,0.1-0.1,0.1-0.2,0.1C254.1,47,254.1,47,254,47z"/>
<path d="M257.5,47h-0.4l-0.9-3.5h0.4l0.6,2.9l0,0l0.7-2.9h0.4l0.7,2.9l0,0l0.6-2.9h0.4l-0.9,3.5H259l-0.7-2.8l0,0L257.5,47z"/>
<path d="M262.3,46.3c0,0.2-0.1,0.4-0.3,0.6c-0.2,0.1-0.4,0.2-0.7,0.2c-0.3,0-0.6-0.1-0.8-0.4c-0.2-0.2-0.3-0.6-0.3-1s0.1-0.7,0.3-1
	s0.5-0.4,0.8-0.4s0.6,0.1,0.8,0.3c0.2,0.2,0.3,0.5,0.3,0.9v0.2h-1.7l0,0c0,0.3,0.1,0.5,0.2,0.6s0.3,0.2,0.5,0.2c0.1,0,0.3,0,0.4-0.1
	s0.2-0.2,0.2-0.3h0.3V46.3z M260.8,44.9c-0.1,0.1-0.2,0.3-0.2,0.5h1.3c0-0.2-0.1-0.4-0.2-0.5s-0.3-0.2-0.5-0.2
	C261.1,44.7,261,44.8,260.8,44.9z"/>
<path d="M266.2,47h-0.4l-0.5-2l0,0l-0.5,2h-0.4l-0.7-2.6h0.4l0.5,2.2l0,0l0.5-2.2h0.4l0.5,2.2l0,0l0.5-2.2h0.4L266.2,47z"/>
<path d="M267.2,43.9c0-0.1-0.1-0.1-0.1-0.2c0-0.1,0-0.1,0.1-0.2s0.1-0.1,0.2-0.1s0.1,0,0.2,0.1s0.1,0.1,0.1,0.2c0,0.1,0,0.1-0.1,0.2
	c0,0.1-0.1,0.1-0.2,0.1C267.3,44,267.2,43.9,267.2,43.9z M267.2,44.4h0.4V47h-0.4V44.4z"/>
<path d="M268.1,43.3h0.4V47h-0.4V43.3z"/>
<path d="M269.1,43.3h0.4V47h-0.4V43.3z"/>
<path d="M271.2,46.8c-0.1-0.1-0.2-0.3-0.2-0.6c0-0.2,0.1-0.4,0.2-0.5c0.2-0.1,0.4-0.2,0.7-0.2h0.7v-0.2c0-0.2,0-0.3-0.1-0.4
	s-0.2-0.1-0.4-0.1c-0.1,0-0.3,0-0.3,0.1c-0.1,0.1-0.2,0.2-0.2,0.3h-0.4c0-0.2,0.1-0.4,0.3-0.6c0.2-0.1,0.4-0.2,0.6-0.2
	c0.3,0,0.5,0.1,0.7,0.2c0.2,0.2,0.3,0.4,0.3,0.6V47h-0.4v-0.5l0,0c-0.1,0.1-0.2,0.3-0.3,0.3c-0.1,0.1-0.3,0.1-0.5,0.1
	C271.5,47,271.3,47,271.2,46.8z M272.3,46.5c0.1-0.1,0.2-0.3,0.2-0.5v-0.2h-0.6c-0.4,0-0.5,0.2-0.5,0.4c0,0.1,0,0.2,0.1,0.3
	s0.2,0.1,0.4,0.1C272,46.7,272.2,46.6,272.3,46.5z"/>
<path d="M273.6,44.6c0.2-0.1,0.4-0.2,0.6-0.2s0.4,0.1,0.6,0.2c0.2,0.1,0.2,0.3,0.3,0.5h-0.4c0-0.1-0.1-0.2-0.2-0.3s-0.2-0.1-0.4-0.1
	c-0.1,0-0.3,0-0.4,0.1s-0.1,0.2-0.1,0.3c0,0.2,0.1,0.3,0.4,0.4l0.4,0.1c0.2,0.1,0.4,0.2,0.5,0.3s0.1,0.3,0.1,0.4
	c0,0.2-0.1,0.4-0.3,0.6c-0.2,0.1-0.4,0.2-0.7,0.2c-0.3,0-0.5-0.1-0.6-0.2c-0.2-0.1-0.3-0.3-0.3-0.6h0.4c0,0.3,0.2,0.4,0.6,0.4
	c0.2,0,0.3,0,0.4-0.1s0.1-0.2,0.1-0.3s0-0.2-0.1-0.2c-0.1-0.1-0.2-0.1-0.3-0.1l-0.4-0.1c-0.4-0.1-0.6-0.4-0.6-0.7
	C273.3,44.9,273.4,44.7,273.6,44.6z"/>
<path d="M275.8,44.6c0.2-0.1,0.4-0.2,0.6-0.2s0.4,0.1,0.6,0.2c0.2,0.1,0.2,0.3,0.3,0.5h-0.4c0-0.1-0.1-0.2-0.2-0.3s-0.2-0.1-0.4-0.1
	c-0.1,0-0.3,0-0.4,0.1s-0.1,0.2-0.1,0.3c0,0.2,0.1,0.3,0.4,0.4l0.4,0.1c0.2,0.1,0.4,0.2,0.5,0.3s0.1,0.3,0.1,0.4
	c0,0.2-0.1,0.4-0.3,0.6c-0.2,0.1-0.4,0.2-0.7,0.2c-0.3,0-0.5-0.1-0.6-0.2c-0.2-0.1-0.3-0.3-0.3-0.6h0.4c0,0.3,0.2,0.4,0.6,0.4
	c0.2,0,0.3,0,0.4-0.1s0.1-0.2,0.1-0.3s0-0.2-0.1-0.2c-0.1-0.1-0.2-0.1-0.3-0.1l-0.4-0.1c-0.4-0.1-0.6-0.4-0.6-0.7
	C275.5,44.9,275.6,44.7,275.8,44.6z"/>
<path d="M277.8,43.9c0-0.1-0.1-0.1-0.1-0.2c0-0.1,0-0.1,0.1-0.2c0-0.1,0.1-0.1,0.2-0.1s0.1,0,0.2,0.1s0.1,0.1,0.1,0.2
	c0,0.1,0,0.1-0.1,0.2c0,0.1-0.1,0.1-0.2,0.1S277.8,43.9,277.8,43.9z M277.7,44.4h0.4V47h-0.4V44.4z"/>
<path d="M278.9,44.6c0.2-0.1,0.4-0.2,0.6-0.2s0.4,0.1,0.6,0.2c0.2,0.1,0.2,0.3,0.3,0.5H280c0-0.1-0.1-0.2-0.2-0.3s-0.2-0.1-0.4-0.1
	c-0.1,0-0.3,0-0.4,0.1s-0.1,0.2-0.1,0.3c0,0.2,0.1,0.3,0.4,0.4l0.4,0.1c0.2,0.1,0.4,0.2,0.5,0.3s0.1,0.3,0.1,0.4
	c0,0.2-0.1,0.4-0.3,0.6c-0.2,0.1-0.4,0.2-0.7,0.2c-0.3,0-0.5-0.1-0.6-0.2c-0.2-0.1-0.3-0.3-0.3-0.6h0.4c0,0.3,0.2,0.4,0.6,0.4
	c0.2,0,0.3,0,0.4-0.1s0.1-0.2,0.1-0.3s0-0.2-0.1-0.2c-0.1-0.1-0.2-0.1-0.3-0.1l-0.4-0.1c-0.4-0.1-0.6-0.4-0.6-0.7
	C278.6,44.9,278.7,44.7,278.9,44.6z"/>
<path d="M281.3,43.8v0.6h0.5v0.4h-0.5v1.6c0,0.2,0.1,0.4,0.3,0.4c0.1,0,0.1,0,0.2,0V47c-0.1,0-0.1,0-0.2,0c-0.2,0-0.4-0.1-0.5-0.2
	c-0.1-0.1-0.1-0.3-0.1-0.5v-1.6h-0.3v-0.4h0.3v-0.6L281.3,43.8L281.3,43.8z"/>
<g class="st5">
	<path d="M103,56v-0.4c0,0,0.1,0,0.2,0s0.2,0,0.3-0.1c0.1-0.1,0.1-0.2,0.2-0.3V55l-0.9-2.6h0.4l0.7,2.2l0,0l0.7-2.2h0.4l-0.9,2.8
		c-0.1,0.3-0.2,0.5-0.3,0.6c-0.1,0.1-0.3,0.2-0.5,0.2C103.1,56,103,56,103,56z"/>
	<path d="M105.3,54.7c-0.2-0.2-0.3-0.6-0.3-1s0.1-0.7,0.3-1c0.2-0.2,0.5-0.4,0.8-0.4s0.6,0.1,0.8,0.4c0.2,0.2,0.3,0.6,0.3,1
		s-0.1,0.7-0.3,1c-0.2,0.2-0.5,0.4-0.8,0.4S105.5,54.9,105.3,54.7z M106.6,54.4c0.1-0.2,0.2-0.4,0.2-0.7s-0.1-0.5-0.2-0.7
		s-0.3-0.3-0.5-0.3s-0.4,0.1-0.5,0.3s-0.2,0.4-0.2,0.7s0.1,0.5,0.2,0.7s0.3,0.3,0.5,0.3C106.3,54.7,106.5,54.6,106.6,54.4z"/>
	<path d="M109.6,55h-0.4v-0.4l0,0c-0.1,0.3-0.4,0.5-0.8,0.5c-0.3,0-0.5-0.1-0.6-0.3c-0.2-0.2-0.2-0.4-0.2-0.7v-1.7h0.4V54
		c0,0.2,0,0.4,0.1,0.5s0.2,0.2,0.4,0.2c0.2,0,0.4-0.1,0.5-0.2c0.1-0.1,0.2-0.3,0.2-0.5v-1.5h0.4V55z"/>
	<path d="M113.5,55h-0.4l-0.5-2l0,0l-0.5,2h-0.4l-0.7-2.6h0.4l0.5,2.2l0,0l0.5-2.2h0.4l0.5,2.2l0,0l0.5-2.2h0.4L113.5,55z"/>
	<path d="M114.5,51.9c0-0.1-0.1-0.1-0.1-0.2c0-0.1,0-0.1,0.1-0.2c0-0.1,0.1-0.1,0.2-0.1s0.1,0,0.2,0.1s0.1,0.1,0.1,0.2
		c0,0.1,0,0.1-0.1,0.2c0,0.1-0.1,0.1-0.2,0.1S114.6,51.9,114.5,51.9z M114.5,52.4h0.4V55h-0.4V52.4z"/>
	<path d="M116,51.8v0.6h0.5v0.4H116v1.6c0,0.2,0.1,0.4,0.3,0.4c0.1,0,0.1,0,0.2,0V55c-0.1,0-0.1,0-0.2,0c-0.2,0-0.4-0.1-0.5-0.2
		c-0.1-0.1-0.1-0.3-0.1-0.5v-1.6h-0.3v-0.4h0.3v-0.6L116,51.8L116,51.8z"/>
	<path d="M116.9,51.3h0.4v1.5l0,0c0.1-0.3,0.4-0.5,0.8-0.5c0.3,0,0.5,0.1,0.6,0.3c0.2,0.2,0.2,0.4,0.2,0.7V55h-0.4v-1.6
		c0-0.2-0.1-0.4-0.2-0.5s-0.3-0.2-0.4-0.2c-0.2,0-0.4,0.1-0.5,0.2c-0.1,0.1-0.2,0.3-0.2,0.6V55h-0.4L116.9,51.3L116.9,51.3z"/>
	<path d="M121.5,55h-0.4l-0.9-2.6h0.4l0.7,2.2l0,0l0.7-2.2h0.4L121.5,55z"/>
	<path d="M122.8,51.9c0-0.1-0.1-0.1-0.1-0.2c0-0.1,0-0.1,0.1-0.2c0-0.1,0.1-0.1,0.2-0.1s0.1,0,0.2,0.1s0.1,0.1,0.1,0.2
		c0,0.1,0,0.1-0.1,0.2c0,0.1-0.1,0.1-0.2,0.1S122.8,51.9,122.8,51.9z M122.7,52.4h0.4V55h-0.4V52.4z"/>
	<path d="M123.9,52.6c0.2-0.1,0.4-0.2,0.6-0.2s0.4,0.1,0.6,0.2c0.2,0.1,0.2,0.3,0.3,0.5H125c0-0.1-0.1-0.2-0.2-0.3s-0.2-0.1-0.4-0.1
		c-0.1,0-0.3,0-0.4,0.1s-0.1,0.2-0.1,0.3c0,0.2,0.1,0.3,0.4,0.4l0.4,0.1c0.2,0.1,0.4,0.2,0.5,0.3s0.1,0.3,0.1,0.4
		c0,0.2-0.1,0.4-0.3,0.6c-0.2,0.1-0.4,0.2-0.7,0.2c-0.3,0-0.5-0.1-0.6-0.2c-0.2-0.1-0.3-0.3-0.3-0.6h0.4c0,0.3,0.2,0.4,0.6,0.4
		c0.2,0,0.3,0,0.4-0.1s0.1-0.2,0.1-0.3s0-0.2-0.1-0.2c-0.1-0.1-0.2-0.1-0.3-0.1l-0.4-0.1c-0.4-0.1-0.6-0.4-0.6-0.7
		C123.6,52.9,123.7,52.7,123.9,52.6z"/>
	<path d="M125.9,54.8c-0.1-0.1-0.2-0.3-0.2-0.6c0-0.2,0.1-0.4,0.2-0.5c0.2-0.1,0.4-0.2,0.7-0.2h0.7v-0.2c0-0.2,0-0.3-0.1-0.4
		s-0.2-0.1-0.4-0.1c-0.1,0-0.3,0-0.3,0.1c-0.1,0.1-0.2,0.2-0.2,0.3h-0.4c0-0.2,0.1-0.4,0.3-0.6c0.2-0.1,0.4-0.2,0.6-0.2
		c0.3,0,0.5,0.1,0.7,0.2c0.2,0.2,0.3,0.4,0.3,0.6V55h-0.4v-0.5l0,0c-0.1,0.1-0.2,0.3-0.3,0.3c-0.1,0.1-0.3,0.1-0.5,0.1
		C126.3,55,126.1,55,125.9,54.8z M127.1,54.5c0.1-0.1,0.2-0.3,0.2-0.5v-0.2h-0.6c-0.4,0-0.5,0.2-0.5,0.4c0,0.1,0,0.2,0.1,0.3
		s0.2,0.1,0.4,0.1C126.8,54.7,127,54.6,127.1,54.5z"/>
	<path d="M129.3,54.8c-0.1-0.1-0.2-0.3-0.2-0.6c0-0.2,0.1-0.4,0.2-0.5c0.2-0.1,0.4-0.2,0.7-0.2h0.7v-0.2c0-0.2,0-0.3-0.1-0.4
		s-0.2-0.1-0.4-0.1c-0.1,0-0.3,0-0.3,0.1c-0.1,0.1-0.2,0.2-0.2,0.3h-0.4c0-0.2,0.1-0.4,0.3-0.6c0.2-0.1,0.4-0.2,0.6-0.2
		c0.3,0,0.5,0.1,0.7,0.2c0.2,0.2,0.3,0.4,0.3,0.6V55h-0.4v-0.5l0,0c-0.1,0.1-0.2,0.3-0.3,0.3c-0.1,0.1-0.3,0.1-0.5,0.1
		C129.7,55,129.5,55,129.3,54.8z M130.5,54.5c0.1-0.1,0.2-0.3,0.2-0.5v-0.2h-0.6c-0.4,0-0.5,0.2-0.5,0.4c0,0.1,0,0.2,0.1,0.3
		s0.2,0.1,0.4,0.1C130.2,54.7,130.4,54.6,130.5,54.5z"/>
	<path d="M133.4,52.7c0.2,0.2,0.3,0.6,0.3,1s-0.1,0.7-0.3,1c-0.2,0.2-0.4,0.4-0.7,0.4s-0.6-0.2-0.8-0.5l0,0v1.3h-0.4v-3.5h0.4v0.4
		l0,0c0.1-0.1,0.2-0.2,0.3-0.3s0.3-0.1,0.5-0.1C133,52.4,133.3,52.5,133.4,52.7z M133.1,54.4c0.1-0.2,0.2-0.4,0.2-0.7
		s-0.1-0.5-0.2-0.7c-0.1-0.2-0.3-0.3-0.5-0.3s-0.4,0.1-0.5,0.3s-0.2,0.4-0.2,0.7s0.1,0.5,0.2,0.7c0.1,0.2,0.3,0.3,0.5,0.3
		S133,54.6,133.1,54.4z"/>
	<path d="M136,52.7c0.2,0.2,0.3,0.6,0.3,1s-0.1,0.7-0.3,1c-0.2,0.2-0.4,0.4-0.7,0.4s-0.6-0.2-0.8-0.5l0,0v1.3h-0.4v-3.5h0.4v0.4l0,0
		c0.1-0.1,0.2-0.2,0.3-0.3s0.3-0.1,0.5-0.1C135.6,52.4,135.8,52.5,136,52.7z M135.7,54.4c0.1-0.2,0.2-0.4,0.2-0.7s-0.1-0.5-0.2-0.7
		c-0.1-0.2-0.3-0.3-0.5-0.3s-0.4,0.1-0.5,0.3s-0.2,0.4-0.2,0.7s0.1,0.5,0.2,0.7c0.1,0.2,0.3,0.3,0.5,0.3S135.6,54.6,135.7,54.4z"/>
	<path d="M136.7,51.3h0.4V55h-0.4V51.3z"/>
	<path d="M137.7,51.9c0-0.1-0.1-0.1-0.1-0.2c0-0.1,0-0.1,0.1-0.2c0-0.1,0.1-0.1,0.2-0.1c0.1,0,0.1,0,0.2,0.1s0.1,0.1,0.1,0.2
		c0,0.1,0,0.1-0.1,0.2c0,0.1-0.1,0.1-0.2,0.1S137.7,51.9,137.7,51.9z M137.6,52.4h0.4V55h-0.4V52.4z"/>
	<path d="M140.2,53.2c0-0.1-0.1-0.3-0.2-0.4c-0.1-0.1-0.3-0.1-0.4-0.1c-0.2,0-0.4,0.1-0.5,0.3s-0.2,0.4-0.2,0.7s0.1,0.5,0.2,0.7
		c0.1,0.2,0.3,0.3,0.5,0.3c0.3,0,0.5-0.2,0.6-0.5h0.4c0,0.3-0.1,0.5-0.3,0.6c-0.2,0.2-0.4,0.2-0.7,0.2s-0.6-0.1-0.8-0.4
		c-0.2-0.2-0.3-0.6-0.3-1s0.1-0.7,0.3-1c0.2-0.2,0.5-0.4,0.8-0.4s0.5,0.1,0.7,0.3s0.3,0.4,0.3,0.6h-0.4V53.2z"/>
	<path d="M141,54.8c-0.1-0.1-0.2-0.3-0.2-0.6c0-0.2,0.1-0.4,0.2-0.5c0.2-0.1,0.4-0.2,0.7-0.2h0.7v-0.2c0-0.2,0-0.3-0.1-0.4
		s-0.2-0.1-0.4-0.1c-0.1,0-0.3,0-0.3,0.1c-0.1,0.1-0.2,0.2-0.2,0.3H141c0-0.2,0.1-0.4,0.3-0.6c0.2-0.1,0.4-0.2,0.6-0.2
		c0.3,0,0.5,0.1,0.7,0.2c0.2,0.2,0.3,0.4,0.3,0.6V55h-0.4v-0.5l0,0c-0.1,0.1-0.2,0.3-0.3,0.3c-0.1,0.1-0.3,0.1-0.5,0.1
		C141.4,55,141.2,55,141,54.8z M142.2,54.5c0.1-0.1,0.2-0.3,0.2-0.5v-0.2h-0.6c-0.4,0-0.5,0.2-0.5,0.4c0,0.1,0,0.2,0.1,0.3
		s0.2,0.1,0.4,0.1C141.9,54.7,142,54.6,142.2,54.5z"/>
	<path d="M143.7,51.8v0.6h0.5v0.4h-0.5v1.6c0,0.2,0.1,0.4,0.3,0.4c0.1,0,0.1,0,0.2,0V55c-0.1,0-0.1,0-0.2,0c-0.2,0-0.4-0.1-0.5-0.2
		c-0.1-0.1-0.1-0.3-0.1-0.5v-1.6H143v-0.4h0.3v-0.6L143.7,51.8L143.7,51.8z"/>
	<path d="M144.7,51.9c0-0.1-0.1-0.1-0.1-0.2c0-0.1,0-0.1,0.1-0.2c0-0.1,0.1-0.1,0.2-0.1c0.1,0,0.1,0,0.2,0.1s0.1,0.1,0.1,0.2
		c0,0.1,0,0.1-0.1,0.2c0,0.1-0.1,0.1-0.2,0.1S144.7,51.9,144.7,51.9z M144.6,52.4h0.4V55h-0.4V52.4z"/>
	<path d="M145.8,54.7c-0.2-0.2-0.3-0.6-0.3-1s0.1-0.7,0.3-1c0.2-0.2,0.5-0.4,0.8-0.4s0.6,0.1,0.8,0.4c0.2,0.2,0.3,0.6,0.3,1
		s-0.1,0.7-0.3,1c-0.2,0.2-0.5,0.4-0.8,0.4S146,54.9,145.8,54.7z M147.1,54.4c0.1-0.2,0.2-0.4,0.2-0.7s-0.1-0.5-0.2-0.7
		c-0.1-0.2-0.3-0.3-0.5-0.3s-0.4,0.1-0.5,0.3s-0.2,0.4-0.2,0.7s0.1,0.5,0.2,0.7s0.3,0.3,0.5,0.3S146.9,54.6,147.1,54.4z"/>
	<path d="M148,52.4h0.4v0.4l0,0c0.2-0.3,0.4-0.5,0.8-0.5c0.3,0,0.5,0.1,0.6,0.3c0.2,0.2,0.2,0.4,0.2,0.7V55h-0.4v-1.6
		c0-0.2,0-0.4-0.1-0.5s-0.2-0.2-0.4-0.2s-0.4,0.1-0.5,0.2c-0.1,0.1-0.2,0.3-0.2,0.5V55H148V52.4z"/>
	<path d="M151.7,54.8c-0.1-0.1-0.2-0.3-0.2-0.6c0-0.2,0.1-0.4,0.2-0.5c0.2-0.1,0.4-0.2,0.7-0.2h0.7v-0.2c0-0.2,0-0.3-0.1-0.4
		s-0.2-0.1-0.4-0.1c-0.1,0-0.3,0-0.3,0.1c-0.1,0.1-0.2,0.2-0.2,0.3h-0.4c0-0.2,0.1-0.4,0.3-0.6c0.2-0.1,0.4-0.2,0.6-0.2
		c0.3,0,0.5,0.1,0.7,0.2c0.2,0.2,0.3,0.4,0.3,0.6V55h-0.4v-0.5l0,0c-0.1,0.1-0.2,0.3-0.3,0.3c-0.1,0.1-0.3,0.1-0.5,0.1
		C152.1,55,151.9,55,151.7,54.8z M152.9,54.5c0.1-0.1,0.2-0.3,0.2-0.5v-0.2h-0.6c-0.4,0-0.5,0.2-0.5,0.4c0,0.1,0,0.2,0.1,0.3
		s0.2,0.1,0.4,0.1C152.6,54.7,152.7,54.6,152.9,54.5z"/>
	<path d="M153.9,52.4h0.4v0.4l0,0c0.2-0.3,0.4-0.5,0.8-0.5c0.3,0,0.5,0.1,0.6,0.3c0.2,0.2,0.2,0.4,0.2,0.7V55h-0.4v-1.6
		c0-0.2,0-0.4-0.1-0.5s-0.2-0.2-0.4-0.2s-0.4,0.1-0.5,0.2c-0.1,0.1-0.2,0.3-0.2,0.5V55h-0.4L153.9,52.4L153.9,52.4z"/>
	<path d="M156.6,54.7c-0.2-0.2-0.3-0.6-0.3-1s0.1-0.7,0.3-1c0.2-0.2,0.4-0.4,0.7-0.4c0.4,0,0.6,0.2,0.8,0.5l0,0v-1.5h0.4V55h-0.4
		v-0.4l0,0c-0.2,0.3-0.4,0.5-0.8,0.5C157,55,156.8,54.9,156.6,54.7z M156.9,53c-0.1,0.2-0.2,0.4-0.2,0.7s0.1,0.5,0.2,0.7
		c0.1,0.2,0.3,0.3,0.5,0.3s0.4-0.1,0.5-0.3s0.2-0.4,0.2-0.7s-0.1-0.5-0.2-0.7s-0.3-0.3-0.5-0.3S157,52.8,156.9,53z"/>
	<path d="M160.2,54.8c-0.1-0.1-0.2-0.3-0.2-0.6c0-0.2,0.1-0.4,0.2-0.5c0.2-0.1,0.4-0.2,0.7-0.2h0.7v-0.2c0-0.2,0-0.3-0.1-0.4
		s-0.2-0.1-0.4-0.1c-0.1,0-0.3,0-0.3,0.1c-0.1,0.1-0.2,0.2-0.2,0.3h-0.4c0-0.2,0.1-0.4,0.3-0.6c0.2-0.1,0.4-0.2,0.6-0.2
		c0.3,0,0.5,0.1,0.7,0.2c0.2,0.2,0.3,0.4,0.3,0.6V55h-0.4v-0.5l0,0c-0.1,0.1-0.2,0.3-0.3,0.3c-0.1,0.1-0.3,0.1-0.5,0.1
		C160.5,55,160.4,55,160.2,54.8z M161.3,54.5c0.1-0.1,0.2-0.3,0.2-0.5v-0.2h-0.6c-0.4,0-0.5,0.2-0.5,0.4c0,0.1,0,0.2,0.1,0.3
		s0.2,0.1,0.4,0.1C161.1,54.7,161.2,54.6,161.3,54.5z"/>
	<path d="M162.4,51.3h0.4V55h-0.4V51.3z"/>
	<path d="M163.4,51.3h0.4V55h-0.4V51.3z"/>
	<path d="M165.6,54.7c-0.2-0.2-0.3-0.6-0.3-1s0.1-0.7,0.3-1c0.2-0.2,0.5-0.4,0.8-0.4s0.6,0.1,0.8,0.4c0.2,0.2,0.3,0.6,0.3,1
		s-0.1,0.7-0.3,1c-0.2,0.2-0.5,0.4-0.8,0.4S165.8,54.9,165.6,54.7z M166.9,54.4c0.1-0.2,0.2-0.4,0.2-0.7s-0.1-0.5-0.2-0.7
		c-0.1-0.2-0.3-0.3-0.5-0.3s-0.4,0.1-0.5,0.3s-0.2,0.4-0.2,0.7s0.1,0.5,0.2,0.7s0.3,0.3,0.5,0.3C166.6,54.7,166.8,54.6,166.9,54.4z"
		/>
	<path d="M168.4,51.8v0.6h0.5v0.4h-0.5v1.6c0,0.2,0.1,0.4,0.3,0.4c0.1,0,0.1,0,0.2,0V55c-0.1,0-0.1,0-0.2,0c-0.2,0-0.4-0.1-0.5-0.2
		c-0.1-0.1-0.1-0.3-0.1-0.5v-1.6h-0.3v-0.4h0.3v-0.6L168.4,51.8L168.4,51.8z"/>
	<path d="M169.3,51.3h0.4v1.5l0,0c0.1-0.3,0.4-0.5,0.8-0.5c0.3,0,0.5,0.1,0.6,0.3c0.2,0.2,0.2,0.4,0.2,0.7V55h-0.4v-1.6
		c0-0.2-0.1-0.4-0.2-0.5c-0.1-0.1-0.3-0.2-0.4-0.2c-0.2,0-0.4,0.1-0.5,0.2c-0.1,0.1-0.2,0.3-0.2,0.6V55h-0.4L169.3,51.3L169.3,51.3z
		"/>
	<path d="M173.8,54.3c0,0.2-0.1,0.4-0.3,0.6c-0.2,0.1-0.4,0.2-0.7,0.2s-0.6-0.1-0.8-0.4c-0.2-0.2-0.3-0.6-0.3-1s0.1-0.7,0.3-1
		c0.2-0.2,0.5-0.4,0.8-0.4s0.6,0.1,0.8,0.3s0.3,0.5,0.3,0.9v0.2h-1.7l0,0c0,0.3,0.1,0.5,0.2,0.6c0.1,0.1,0.3,0.2,0.5,0.2
		c0.1,0,0.3,0,0.4-0.1c0.1-0.1,0.2-0.2,0.2-0.3h0.3V54.3z M172.3,52.9c-0.1,0.1-0.2,0.3-0.2,0.5h1.3c0-0.2-0.1-0.4-0.2-0.5
		c-0.1-0.1-0.3-0.2-0.5-0.2C172.6,52.7,172.4,52.8,172.3,52.9z"/>
	<path d="M174.2,52.4h0.4v0.4l0,0c0-0.1,0.1-0.2,0.2-0.3s0.2-0.1,0.4-0.1c0.1,0,0.1,0,0.1,0v0.4c0,0-0.1,0-0.2,0
		c-0.2,0-0.3,0.1-0.4,0.2c-0.1,0.1-0.1,0.3-0.1,0.4V55h-0.4V52.4z"/>
	<path d="M176.9,52.6c0.2-0.1,0.4-0.2,0.6-0.2c0.2,0,0.4,0.1,0.6,0.2c0.2,0.1,0.2,0.3,0.3,0.5H178c0-0.1-0.1-0.2-0.2-0.3
		c-0.1-0.1-0.2-0.1-0.4-0.1c-0.1,0-0.3,0-0.4,0.1c-0.1,0.1-0.1,0.2-0.1,0.3c0,0.2,0.1,0.3,0.4,0.4l0.4,0.1c0.2,0.1,0.4,0.2,0.5,0.3
		s0.1,0.3,0.1,0.4c0,0.2-0.1,0.4-0.3,0.6c-0.2,0.1-0.4,0.2-0.7,0.2s-0.5-0.1-0.6-0.2c-0.2-0.1-0.3-0.3-0.3-0.6h0.4
		c0,0.3,0.2,0.4,0.6,0.4c0.2,0,0.3,0,0.4-0.1c0.1-0.1,0.1-0.2,0.1-0.3s0-0.2-0.1-0.2c-0.1-0.1-0.2-0.1-0.3-0.1l-0.4-0.1
		c-0.4-0.1-0.6-0.4-0.6-0.7C176.7,52.9,176.7,52.7,176.9,52.6z"/>
	<path d="M179.4,51.8v0.6h0.5v0.4h-0.5v1.6c0,0.2,0.1,0.4,0.3,0.4c0.1,0,0.1,0,0.2,0V55c-0.1,0-0.1,0-0.2,0c-0.2,0-0.4-0.1-0.5-0.2
		c-0.1-0.1-0.1-0.3-0.1-0.5v-1.6h-0.3v-0.4h0.3v-0.6L179.4,51.8L179.4,51.8z"/>
	<path d="M180.3,54.8c-0.1-0.1-0.2-0.3-0.2-0.6c0-0.2,0.1-0.4,0.2-0.5c0.2-0.1,0.4-0.2,0.7-0.2h0.7v-0.2c0-0.2,0-0.3-0.1-0.4
		s-0.2-0.1-0.4-0.1c-0.1,0-0.3,0-0.3,0.1c-0.1,0.1-0.2,0.2-0.2,0.3h-0.4c0-0.2,0.1-0.4,0.3-0.6c0.2-0.1,0.4-0.2,0.6-0.2
		c0.3,0,0.5,0.1,0.7,0.2c0.2,0.2,0.3,0.4,0.3,0.6V55h-0.4v-0.5l0,0c-0.1,0.1-0.2,0.3-0.3,0.3c-0.1,0.1-0.3,0.1-0.5,0.1
		C180.7,55,180.5,55,180.3,54.8z M181.5,54.5c0.1-0.1,0.2-0.3,0.2-0.5v-0.2h-0.6c-0.4,0-0.5,0.2-0.5,0.4c0,0.1,0,0.2,0.1,0.3
		s0.2,0.1,0.4,0.1C181.2,54.7,181.4,54.6,181.5,54.5z"/>
	<path d="M182.9,55.8c-0.2-0.1-0.3-0.3-0.3-0.5h0.4c0,0.1,0.1,0.2,0.2,0.3c0.1,0.1,0.2,0.1,0.4,0.1s0.4-0.1,0.5-0.2
		c0.1-0.1,0.2-0.3,0.2-0.4v-0.4l0,0c-0.2,0.3-0.4,0.5-0.8,0.5c-0.3,0-0.5-0.1-0.7-0.4c-0.2-0.2-0.3-0.6-0.3-1s0.1-0.7,0.3-1
		c0.2-0.2,0.4-0.4,0.7-0.4s0.6,0.2,0.8,0.5l0,0v-0.4h0.4v2.6c0,0.3-0.1,0.6-0.3,0.7c-0.2,0.2-0.5,0.3-0.8,0.3
		C183.3,56,183,55.9,182.9,55.8z M184,54.4c0.1-0.2,0.2-0.4,0.2-0.7s-0.1-0.5-0.2-0.7c-0.1-0.2-0.3-0.3-0.5-0.3s-0.4,0.1-0.5,0.3
		s-0.2,0.4-0.2,0.7s0.1,0.5,0.2,0.7c0.1,0.2,0.3,0.3,0.5,0.3C183.7,54.6,183.9,54.6,184,54.4z"/>
	<path d="M187.1,54.3c0,0.2-0.1,0.4-0.3,0.6c-0.2,0.1-0.4,0.2-0.7,0.2s-0.6-0.1-0.8-0.4c-0.2-0.2-0.3-0.6-0.3-1s0.1-0.7,0.3-1
		c0.2-0.2,0.5-0.4,0.8-0.4s0.6,0.1,0.8,0.3s0.3,0.5,0.3,0.9v0.2h-1.7l0,0c0,0.3,0.1,0.5,0.2,0.6c0.1,0.1,0.3,0.2,0.5,0.2
		c0.1,0,0.3,0,0.4-0.1c0.1-0.1,0.2-0.2,0.2-0.3h0.3V54.3z M185.6,52.9c-0.1,0.1-0.2,0.3-0.2,0.5h1.3c0-0.2-0.1-0.4-0.2-0.5
		c-0.1-0.1-0.3-0.2-0.5-0.2C185.9,52.7,185.7,52.8,185.6,52.9z"/>
	<path d="M187.7,52.6c0.2-0.1,0.4-0.2,0.6-0.2c0.2,0,0.4,0.1,0.6,0.2c0.2,0.1,0.2,0.3,0.3,0.5h-0.4c0-0.1-0.1-0.2-0.2-0.3
		c-0.1-0.1-0.2-0.1-0.4-0.1c-0.1,0-0.3,0-0.4,0.1c-0.1,0.1-0.1,0.2-0.1,0.3c0,0.2,0.1,0.3,0.4,0.4l0.4,0.1c0.2,0.1,0.4,0.2,0.5,0.3
		s0.1,0.3,0.1,0.4c0,0.2-0.1,0.4-0.3,0.6c-0.2,0.1-0.4,0.2-0.7,0.2s-0.5-0.1-0.6-0.2c-0.2-0.1-0.3-0.3-0.3-0.6h0.4
		c0,0.3,0.2,0.4,0.6,0.4c0.2,0,0.3,0,0.4-0.1c0.1-0.1,0.1-0.2,0.1-0.3s0-0.2-0.1-0.2c-0.1-0.1-0.2-0.1-0.3-0.1l-0.4-0.1
		c-0.4-0.1-0.6-0.4-0.6-0.7C187.5,52.9,187.5,52.7,187.7,52.6z"/>
	<path d="M190.9,54.7c-0.2-0.2-0.3-0.6-0.3-1s0.1-0.7,0.3-1c0.2-0.2,0.5-0.4,0.8-0.4s0.6,0.1,0.8,0.4c0.2,0.2,0.3,0.6,0.3,1
		s-0.1,0.7-0.3,1c-0.2,0.2-0.5,0.4-0.8,0.4S191.1,54.9,190.9,54.7z M192.2,54.4c0.1-0.2,0.2-0.4,0.2-0.7s-0.1-0.5-0.2-0.7
		c-0.1-0.2-0.3-0.3-0.5-0.3s-0.4,0.1-0.5,0.3s-0.2,0.4-0.2,0.7s0.1,0.5,0.2,0.7s0.3,0.3,0.5,0.3S192.1,54.6,192.2,54.4z"/>
	<path d="M193.3,52.7H193v-0.4h0.3v-0.2c0-0.2,0.1-0.4,0.2-0.5c0.1-0.1,0.3-0.2,0.5-0.2c0.1,0,0.1,0,0.2,0v0.4c-0.1,0-0.1,0-0.2,0
		c-0.1,0-0.2,0-0.2,0.1s-0.1,0.1-0.1,0.3v0.2h0.5v0.4h-0.5V55h-0.4V52.7z"/>
	<path d="M195.7,56v-0.4c0,0,0.1,0,0.2,0c0.1,0,0.2,0,0.3-0.1s0.1-0.2,0.2-0.3V55l-0.9-2.6h0.4l0.7,2.2l0,0l0.7-2.2h0.4l-0.9,2.8
		c-0.1,0.3-0.2,0.5-0.3,0.6S196.2,56,196,56C195.8,56,195.8,56,195.7,56z"/>
	<path d="M198,54.7c-0.2-0.2-0.3-0.6-0.3-1s0.1-0.7,0.3-1c0.2-0.2,0.5-0.4,0.8-0.4s0.6,0.1,0.8,0.4c0.2,0.2,0.3,0.6,0.3,1
		s-0.1,0.7-0.3,1c-0.2,0.2-0.5,0.4-0.8,0.4S198.2,54.9,198,54.7z M199.4,54.4c0.1-0.2,0.2-0.4,0.2-0.7s-0.1-0.5-0.2-0.7
		c-0.1-0.2-0.3-0.3-0.5-0.3s-0.4,0.1-0.5,0.3s-0.2,0.4-0.2,0.7s0.1,0.5,0.2,0.7s0.3,0.3,0.5,0.3C199.1,54.7,199.2,54.6,199.4,54.4z"
		/>
	<path d="M202.3,55h-0.4v-0.4l0,0c-0.1,0.3-0.4,0.5-0.8,0.5c-0.3,0-0.5-0.1-0.6-0.3c-0.2-0.2-0.2-0.4-0.2-0.7v-1.7h0.4V54
		c0,0.2,0,0.4,0.1,0.5s0.2,0.2,0.4,0.2s0.4-0.1,0.5-0.2c0.1-0.1,0.2-0.3,0.2-0.5v-1.5h0.4L202.3,55L202.3,55z"/>
	<path d="M202.8,52.4h0.4v0.4l0,0c0-0.1,0.1-0.2,0.2-0.3s0.2-0.1,0.4-0.1c0.1,0,0.1,0,0.1,0v0.4c0,0-0.1,0-0.2,0
		c-0.2,0-0.3,0.1-0.4,0.2c-0.1,0.1-0.1,0.3-0.1,0.4V55h-0.4V52.4z"/>
	<path d="M205.5,52.6c0.2-0.1,0.4-0.2,0.6-0.2c0.2,0,0.4,0.1,0.6,0.2c0.2,0.1,0.2,0.3,0.3,0.5h-0.4c0-0.1-0.1-0.2-0.2-0.3
		c-0.1-0.1-0.2-0.1-0.4-0.1c-0.1,0-0.3,0-0.4,0.1c-0.1,0.1-0.1,0.2-0.1,0.3c0,0.2,0.1,0.3,0.4,0.4l0.4,0.1c0.2,0.1,0.4,0.2,0.5,0.3
		s0.1,0.3,0.1,0.4c0,0.2-0.1,0.4-0.3,0.6c-0.2,0.1-0.4,0.2-0.7,0.2s-0.5-0.1-0.6-0.2c-0.2-0.1-0.3-0.3-0.3-0.6h0.4
		c0,0.3,0.2,0.4,0.6,0.4c0.2,0,0.3,0,0.4-0.1c0.1-0.1,0.1-0.2,0.1-0.3s0-0.2-0.1-0.2s-0.2-0.1-0.3-0.1l-0.4-0.1
		c-0.4-0.1-0.6-0.4-0.6-0.7C205.3,52.9,205.4,52.7,205.5,52.6z"/>
	<path d="M208,51.8v0.6h0.5v0.4H208v1.6c0,0.2,0.1,0.4,0.3,0.4c0.1,0,0.1,0,0.2,0V55c-0.1,0-0.1,0-0.2,0c-0.2,0-0.4-0.1-0.5-0.2
		c-0.1-0.1-0.1-0.3-0.1-0.5v-1.6h-0.3v-0.4h0.3v-0.6L208,51.8L208,51.8z"/>
	<path d="M210.9,55h-0.4v-0.4l0,0c-0.1,0.3-0.4,0.5-0.8,0.5c-0.3,0-0.5-0.1-0.6-0.3c-0.2-0.2-0.2-0.4-0.2-0.7v-1.7h0.4V54
		c0,0.2,0,0.4,0.1,0.5s0.2,0.2,0.4,0.2s0.4-0.1,0.5-0.2c0.1-0.1,0.2-0.3,0.2-0.5v-1.5h0.4L210.9,55L210.9,55z"/>
	<path d="M211.5,54.7c-0.2-0.2-0.3-0.6-0.3-1s0.1-0.7,0.3-1c0.2-0.2,0.4-0.4,0.7-0.4c0.4,0,0.6,0.2,0.8,0.5l0,0v-1.5h0.4V55H213
		v-0.4l0,0c-0.2,0.3-0.4,0.5-0.8,0.5C212,55,211.7,54.9,211.5,54.7z M211.8,53c-0.1,0.2-0.2,0.4-0.2,0.7s0.1,0.5,0.2,0.7
		c0.1,0.2,0.3,0.3,0.5,0.3s0.4-0.1,0.5-0.3s0.2-0.4,0.2-0.7s-0.1-0.5-0.2-0.7s-0.3-0.3-0.5-0.3S212,52.8,211.8,53z"/>
	<path d="M214,56v-0.4c0,0,0.1,0,0.2,0c0.1,0,0.2,0,0.3-0.1s0.1-0.2,0.2-0.3V55l-0.9-2.6h0.4l0.7,2.2l0,0l0.7-2.2h0.4l-0.9,2.8
		c-0.1,0.3-0.2,0.5-0.3,0.6s-0.3,0.2-0.5,0.2C214.1,56,214,56,214,56z"/>
	<path d="M217.4,54.8c-0.1-0.1-0.2-0.3-0.2-0.6c0-0.2,0.1-0.4,0.2-0.5c0.2-0.1,0.4-0.2,0.7-0.2h0.7v-0.2c0-0.2,0-0.3-0.1-0.4
		s-0.2-0.1-0.4-0.1c-0.1,0-0.3,0-0.3,0.1c-0.1,0.1-0.2,0.2-0.2,0.3h-0.4c0-0.2,0.1-0.4,0.3-0.6c0.2-0.1,0.4-0.2,0.6-0.2
		c0.3,0,0.5,0.1,0.7,0.2c0.2,0.2,0.3,0.4,0.3,0.6V55h-0.4v-0.5l0,0c-0.1,0.1-0.2,0.3-0.3,0.3c-0.1,0.1-0.3,0.1-0.5,0.1
		C217.7,55,217.5,55,217.4,54.8z M218.5,54.5c0.1-0.1,0.2-0.3,0.2-0.5v-0.2h-0.6c-0.4,0-0.5,0.2-0.5,0.4c0,0.1,0,0.2,0.1,0.3
		s0.2,0.1,0.4,0.1C218.3,54.7,218.4,54.6,218.5,54.5z"/>
	<path d="M220,54.6L220,54.6V55h-0.4v-3.7h0.4v1.5l0,0c0.2-0.3,0.4-0.5,0.8-0.5c0.3,0,0.5,0.1,0.7,0.4c0.2,0.2,0.3,0.6,0.3,1
		s-0.1,0.7-0.3,1c-0.2,0.2-0.4,0.4-0.7,0.4C220.4,55,220.2,54.9,220,54.6z M220.2,53c-0.1,0.2-0.2,0.4-0.2,0.7s0.1,0.5,0.2,0.7
		c0.1,0.2,0.3,0.3,0.5,0.3s0.4-0.1,0.5-0.3s0.2-0.4,0.2-0.7s-0.1-0.5-0.2-0.7c-0.1-0.2-0.3-0.3-0.5-0.3S220.3,52.8,220.2,53z"/>
	<path d="M222.2,52.4h0.4v0.4l0,0c0-0.1,0.1-0.2,0.2-0.3s0.2-0.1,0.4-0.1c0.1,0,0.1,0,0.1,0v0.4c0,0-0.1,0-0.2,0
		c-0.2,0-0.3,0.1-0.4,0.2c-0.1,0.1-0.1,0.3-0.1,0.4V55h-0.4V52.4z"/>
	<path d="M223.7,54.7c-0.2-0.2-0.3-0.6-0.3-1s0.1-0.7,0.3-1c0.2-0.2,0.5-0.4,0.8-0.4s0.6,0.1,0.8,0.4c0.2,0.2,0.3,0.6,0.3,1
		s-0.1,0.7-0.3,1c-0.2,0.2-0.5,0.4-0.8,0.4S223.9,54.9,223.7,54.7z M225,54.4c0.1-0.2,0.2-0.4,0.2-0.7s-0.1-0.5-0.2-0.7
		c-0.1-0.2-0.3-0.3-0.5-0.3s-0.4,0.1-0.5,0.3s-0.2,0.4-0.2,0.7s0.1,0.5,0.2,0.7c0.1,0.2,0.3,0.3,0.5,0.3S224.9,54.6,225,54.4z"/>
	<path d="M226.1,54.8c-0.1-0.1-0.2-0.3-0.2-0.6c0-0.2,0.1-0.4,0.2-0.5c0.2-0.1,0.4-0.2,0.7-0.2h0.7v-0.2c0-0.2,0-0.3-0.1-0.4
		s-0.2-0.1-0.4-0.1c-0.1,0-0.3,0-0.3,0.1c-0.1,0.1-0.2,0.2-0.2,0.3H226c0-0.2,0.1-0.4,0.3-0.6c0.2-0.1,0.4-0.2,0.6-0.2
		c0.3,0,0.5,0.1,0.7,0.2c0.2,0.2,0.3,0.4,0.3,0.6V55h-0.4v-0.5l0,0c-0.1,0.1-0.2,0.3-0.3,0.3c-0.1,0.1-0.3,0.1-0.5,0.1
		C226.4,55,226.2,55,226.1,54.8z M227.2,54.5c0.1-0.1,0.2-0.3,0.2-0.5v-0.2h-0.6c-0.4,0-0.5,0.2-0.5,0.4c0,0.1,0,0.2,0.1,0.3
		s0.2,0.1,0.4,0.1C227,54.7,227.1,54.6,227.2,54.5z"/>
	<path d="M228.5,54.7c-0.2-0.2-0.3-0.6-0.3-1s0.1-0.7,0.3-1c0.2-0.2,0.4-0.4,0.7-0.4c0.4,0,0.6,0.2,0.8,0.5l0,0v-1.5h0.4V55H230
		v-0.4l0,0c-0.2,0.3-0.4,0.5-0.8,0.5C228.9,55,228.7,54.9,228.5,54.7z M228.8,53c-0.1,0.2-0.2,0.4-0.2,0.7s0.1,0.5,0.2,0.7
		c0.1,0.2,0.3,0.3,0.5,0.3s0.4-0.1,0.5-0.3s0.2-0.4,0.2-0.7s-0.1-0.5-0.2-0.7s-0.3-0.3-0.5-0.3S228.9,52.8,228.8,53z"/>
	<path d="M232.5,51.8v0.6h0.5v0.4h-0.5v1.6c0,0.2,0.1,0.4,0.3,0.4c0.1,0,0.1,0,0.2,0V55c-0.1,0-0.1,0-0.2,0c-0.2,0-0.4-0.1-0.5-0.2
		c-0.1-0.1-0.1-0.3-0.1-0.5v-1.6h-0.3v-0.4h0.3v-0.6L232.5,51.8L232.5,51.8z"/>
	<path d="M233.4,52.4h0.4v0.4l0,0c0-0.1,0.1-0.2,0.2-0.3c0.1-0.1,0.2-0.1,0.4-0.1c0.1,0,0.1,0,0.1,0v0.4c0,0-0.1,0-0.2,0
		c-0.2,0-0.3,0.1-0.4,0.2c-0.1,0.1-0.1,0.3-0.1,0.4V55h-0.4V52.4z"/>
	<path d="M234.8,51.9c0-0.1-0.1-0.1-0.1-0.2c0-0.1,0-0.1,0.1-0.2c0-0.1,0.1-0.1,0.2-0.1s0.1,0,0.2,0.1s0.1,0.1,0.1,0.2
		c0,0.1,0,0.1-0.1,0.2c0,0.1-0.1,0.1-0.2,0.1S234.9,51.9,234.8,51.9z M234.8,52.4h0.4V55h-0.4V52.4z"/>
	<path d="M237.6,52.7c0.2,0.2,0.3,0.6,0.3,1s-0.1,0.7-0.3,1c-0.2,0.2-0.4,0.4-0.7,0.4s-0.6-0.2-0.8-0.5l0,0v1.3h-0.4v-3.5h0.4v0.4
		l0,0c0.1-0.1,0.2-0.2,0.3-0.3s0.3-0.1,0.5-0.1C237.2,52.4,237.4,52.5,237.6,52.7z M237.3,54.4c0.1-0.2,0.2-0.4,0.2-0.7
		s-0.1-0.5-0.2-0.7c-0.1-0.2-0.3-0.3-0.5-0.3s-0.4,0.1-0.5,0.3s-0.2,0.4-0.2,0.7s0.1,0.5,0.2,0.7c0.1,0.2,0.3,0.3,0.5,0.3
		S237.2,54.6,237.3,54.4z"/>
	<path d="M238.3,55c0-0.1-0.1-0.1-0.1-0.2c0-0.1,0-0.1,0.1-0.2c0-0.1,0.1-0.1,0.2-0.1c0.1,0,0.1,0,0.2,0.1c0,0.1,0.1,0.1,0.1,0.2
		c0,0.1,0,0.1-0.1,0.2c0,0.1-0.1,0.1-0.2,0.1C238.4,55,238.3,55,238.3,55z"/>
	<path d="M241.3,55v-1.5l-1.1-2h0.4l0.9,1.6l0,0l0.9-1.6h0.4l-1.1,2V55H241.3z"/>
	<path d="M242.9,54.7c-0.2-0.2-0.3-0.6-0.3-1s0.1-0.7,0.3-1c0.2-0.2,0.5-0.4,0.8-0.4s0.6,0.1,0.8,0.4c0.2,0.2,0.3,0.6,0.3,1
		s-0.1,0.7-0.3,1c-0.2,0.2-0.5,0.4-0.8,0.4C243.4,55,243.1,54.9,242.9,54.7z M244.2,54.4c0.1-0.2,0.2-0.4,0.2-0.7s-0.1-0.5-0.2-0.7
		c-0.1-0.2-0.3-0.3-0.5-0.3s-0.4,0.1-0.5,0.3s-0.2,0.4-0.2,0.7s0.1,0.5,0.2,0.7s0.3,0.3,0.5,0.3S244.1,54.6,244.2,54.4z"/>
	<path d="M247.2,55h-0.4v-0.4l0,0c-0.1,0.3-0.4,0.5-0.8,0.5c-0.3,0-0.5-0.1-0.6-0.3c-0.2-0.2-0.2-0.4-0.2-0.7v-1.7h0.4V54
		c0,0.2,0,0.4,0.1,0.5s0.2,0.2,0.4,0.2s0.3-0.1,0.5-0.2c0.1-0.1,0.2-0.3,0.2-0.5v-1.5h0.4L247.2,55L247.2,55z"/>
	<path d="M247.7,52.4h0.4v0.4l0,0c0-0.1,0.1-0.2,0.2-0.3s0.2-0.1,0.4-0.1c0.1,0,0.1,0,0.1,0v0.4c0,0-0.1,0-0.2,0
		c-0.2,0-0.3,0.1-0.4,0.2c-0.1,0.1-0.1,0.3-0.1,0.4V55h-0.4V52.4z"/>
	<path d="M250.3,54.7c-0.2-0.2-0.3-0.6-0.3-1s0.1-0.7,0.3-1c0.2-0.2,0.4-0.4,0.7-0.4c0.4,0,0.6,0.2,0.8,0.5l0,0v-1.5h0.4V55h-0.4
		v-0.4l0,0c-0.2,0.3-0.4,0.5-0.8,0.5C250.8,55,250.5,54.9,250.3,54.7z M250.6,53c-0.1,0.2-0.2,0.4-0.2,0.7s0.1,0.5,0.2,0.7
		c0.1,0.2,0.3,0.3,0.5,0.3s0.4-0.1,0.5-0.3s0.2-0.4,0.2-0.7s-0.1-0.5-0.2-0.7s-0.3-0.3-0.5-0.3C250.9,52.7,250.8,52.8,250.6,53z"/>
	<path d="M252.9,54.8c-0.1-0.1-0.2-0.3-0.2-0.6c0-0.2,0.1-0.4,0.2-0.5c0.2-0.1,0.4-0.2,0.7-0.2h0.7v-0.2c0-0.2,0-0.3-0.1-0.4
		s-0.2-0.1-0.4-0.1c-0.1,0-0.3,0-0.3,0.1c-0.1,0.1-0.2,0.2-0.2,0.3h-0.4c0-0.2,0.1-0.4,0.3-0.6c0.2-0.1,0.4-0.2,0.6-0.2
		c0.3,0,0.5,0.1,0.7,0.2c0.2,0.2,0.3,0.4,0.3,0.6V55h-0.4v-0.5l0,0c-0.1,0.1-0.2,0.3-0.3,0.3c-0.1,0.1-0.3,0.1-0.5,0.1
		C253.2,55,253,55,252.9,54.8z M254,54.5c0.1-0.1,0.2-0.3,0.2-0.5v-0.2h-0.6c-0.4,0-0.5,0.2-0.5,0.4c0,0.1,0,0.2,0.1,0.3
		s0.2,0.1,0.4,0.1C253.7,54.7,253.9,54.6,254,54.5z"/>
	<path d="M255.6,51.8v0.6h0.5v0.4h-0.5v1.6c0,0.2,0.1,0.4,0.3,0.4c0.1,0,0.1,0,0.2,0V55c-0.1,0-0.1,0-0.2,0c-0.2,0-0.4-0.1-0.5-0.2
		c-0.1-0.1-0.1-0.3-0.1-0.5v-1.6H255v-0.4h0.3v-0.6L255.6,51.8L255.6,51.8z"/>
	<path d="M256.6,54.8c-0.1-0.1-0.2-0.3-0.2-0.6c0-0.2,0.1-0.4,0.2-0.5c0.2-0.1,0.4-0.2,0.7-0.2h0.7v-0.2c0-0.2,0-0.3-0.1-0.4
		s-0.2-0.1-0.4-0.1c-0.1,0-0.3,0-0.3,0.1c-0.1,0.1-0.2,0.2-0.2,0.3h-0.4c0-0.2,0.1-0.4,0.3-0.6c0.2-0.1,0.4-0.2,0.6-0.2
		c0.3,0,0.5,0.1,0.7,0.2c0.2,0.2,0.3,0.4,0.3,0.6V55h-0.4v-0.5l0,0c-0.1,0.1-0.2,0.3-0.3,0.3c-0.1,0.1-0.3,0.1-0.5,0.1
		C256.9,55,256.7,55,256.6,54.8z M257.7,54.5c0.1-0.1,0.2-0.3,0.2-0.5v-0.2h-0.6c-0.4,0-0.5,0.2-0.5,0.4c0,0.1,0,0.2,0.1,0.3
		s0.2,0.1,0.4,0.1C257.4,54.7,257.6,54.6,257.7,54.5z"/>
	<path d="M259.9,51.9c0-0.1-0.1-0.1-0.1-0.2c0-0.1,0-0.1,0.1-0.2c0-0.1,0.1-0.1,0.2-0.1s0.1,0,0.2,0.1s0.1,0.1,0.1,0.2
		c0,0.1,0,0.1-0.1,0.2c0,0.1-0.1,0.1-0.2,0.1S260,51.9,259.9,51.9z M259.9,52.4h0.4V55h-0.4V52.4z"/>
	<path d="M261,52.6c0.2-0.1,0.4-0.2,0.6-0.2s0.4,0.1,0.6,0.2c0.2,0.1,0.2,0.3,0.3,0.5h-0.4c0-0.1-0.1-0.2-0.2-0.3s-0.2-0.1-0.4-0.1
		c-0.1,0-0.3,0-0.4,0.1S261,53,261,53.1c0,0.2,0.1,0.3,0.4,0.4l0.4,0.1c0.2,0.1,0.4,0.2,0.5,0.3s0.1,0.3,0.1,0.4
		c0,0.2-0.1,0.4-0.3,0.6c-0.2,0.1-0.4,0.2-0.7,0.2c-0.3,0-0.5-0.1-0.6-0.2c-0.2-0.1-0.3-0.3-0.3-0.6h0.4c0,0.3,0.2,0.4,0.6,0.4
		c0.2,0,0.3,0,0.4-0.1s0.1-0.2,0.1-0.3s0-0.2-0.1-0.2c-0.1-0.1-0.2-0.1-0.3-0.1l-0.4-0.1c-0.4-0.1-0.6-0.4-0.6-0.7
		C260.8,52.9,260.9,52.7,261,52.6z"/>
	<path d="M264.1,52.4h0.4v0.4l0,0c0.2-0.3,0.4-0.5,0.8-0.5c0.3,0,0.5,0.1,0.6,0.3c0.2,0.2,0.2,0.4,0.2,0.7V55h-0.4v-1.6
		c0-0.2,0-0.4-0.1-0.5s-0.2-0.2-0.4-0.2c-0.2,0-0.4,0.1-0.5,0.2c-0.1,0.1-0.2,0.3-0.2,0.5V55h-0.4V52.4z"/>
	<path d="M268.5,54.3c0,0.2-0.1,0.4-0.3,0.6c-0.2,0.1-0.4,0.2-0.7,0.2c-0.3,0-0.6-0.1-0.8-0.4c-0.2-0.2-0.3-0.6-0.3-1s0.1-0.7,0.3-1
		c0.2-0.2,0.5-0.4,0.8-0.4s0.6,0.1,0.8,0.3c0.2,0.2,0.3,0.5,0.3,0.9v0.2h-1.7l0,0c0,0.3,0.1,0.5,0.2,0.6s0.3,0.2,0.5,0.2
		c0.1,0,0.3,0,0.4-0.1s0.2-0.2,0.2-0.3h0.3V54.3z M267,52.9c-0.1,0.1-0.2,0.3-0.2,0.5h1.3c0-0.2-0.1-0.4-0.2-0.5s-0.3-0.2-0.5-0.2
		C267.3,52.7,267.2,52.8,267,52.9z"/>
	<path d="M270,55h-0.4l-0.9-2.6h0.4l0.7,2.2l0,0l0.7-2.2h0.4L270,55z"/>
	<path d="M273.1,54.3c0,0.2-0.1,0.4-0.3,0.6c-0.2,0.1-0.4,0.2-0.7,0.2c-0.3,0-0.6-0.1-0.8-0.4c-0.2-0.2-0.3-0.6-0.3-1s0.1-0.7,0.3-1
		c0.2-0.2,0.5-0.4,0.8-0.4s0.6,0.1,0.8,0.3c0.2,0.2,0.3,0.5,0.3,0.9v0.2h-1.7l0,0c0,0.3,0.1,0.5,0.2,0.6s0.3,0.2,0.5,0.2
		c0.1,0,0.3,0,0.4-0.1s0.2-0.2,0.2-0.3h0.3V54.3z M271.6,52.9c-0.1,0.1-0.2,0.3-0.2,0.5h1.3c0-0.2-0.1-0.4-0.2-0.5s-0.3-0.2-0.5-0.2
		C271.9,52.7,271.7,52.8,271.6,52.9z"/>
	<path d="M273.5,52.4h0.4v0.4l0,0c0-0.1,0.1-0.2,0.2-0.3s0.2-0.1,0.4-0.1c0.1,0,0.1,0,0.1,0v0.4c0,0-0.1,0-0.2,0
		c-0.2,0-0.3,0.1-0.4,0.2c-0.1,0.1-0.1,0.3-0.1,0.4V55h-0.4V52.4z"/>
	<path d="M276.2,52.6c0.2-0.1,0.4-0.2,0.6-0.2s0.4,0.1,0.6,0.2c0.2,0.1,0.2,0.3,0.3,0.5h-0.4c0-0.1-0.1-0.2-0.2-0.3
		s-0.2-0.1-0.4-0.1c-0.1,0-0.3,0-0.4,0.1s-0.1,0.2-0.1,0.3c0,0.2,0.1,0.3,0.4,0.4l0.4,0.1c0.2,0.1,0.4,0.2,0.5,0.3s0.1,0.3,0.1,0.4
		c0,0.2-0.1,0.4-0.3,0.6c-0.2,0.1-0.4,0.2-0.7,0.2c-0.3,0-0.5-0.1-0.6-0.2c-0.2-0.1-0.3-0.3-0.3-0.6h0.4c0,0.3,0.2,0.4,0.6,0.4
		c0.2,0,0.3,0,0.4-0.1s0.1-0.2,0.1-0.3s0-0.2-0.1-0.2s-0.2-0.1-0.3-0.1l-0.4-0.1c-0.4-0.1-0.6-0.4-0.6-0.7
		C276,52.9,276,52.7,276.2,52.6z"/>
	<path d="M278.2,51.3h0.4v1.5l0,0c0.1-0.3,0.4-0.5,0.8-0.5c0.3,0,0.5,0.1,0.6,0.3c0.2,0.2,0.2,0.4,0.2,0.7V55h-0.4v-1.6
		c0-0.2-0.1-0.4-0.2-0.5s-0.3-0.2-0.4-0.2c-0.2,0-0.4,0.1-0.5,0.2c-0.1,0.1-0.2,0.3-0.2,0.6V55h-0.4v-3.7H278.2z"/>
	<path d="M280.8,54.8c-0.1-0.1-0.2-0.3-0.2-0.6c0-0.2,0.1-0.4,0.2-0.5c0.2-0.1,0.4-0.2,0.7-0.2h0.7v-0.2c0-0.2,0-0.3-0.1-0.4
		s-0.2-0.1-0.4-0.1c-0.1,0-0.3,0-0.3,0.1c-0.1,0.1-0.2,0.2-0.2,0.3h-0.4c0-0.2,0.1-0.4,0.3-0.6c0.2-0.1,0.4-0.2,0.6-0.2
		c0.3,0,0.5,0.1,0.7,0.2c0.2,0.2,0.3,0.4,0.3,0.6V55h-0.4v-0.5l0,0c-0.1,0.1-0.2,0.3-0.3,0.3c-0.1,0.1-0.3,0.1-0.5,0.1
		C281.2,55,281,55,280.8,54.8z M282,54.5c0.1-0.1,0.2-0.3,0.2-0.5v-0.2h-0.6c-0.4,0-0.5,0.2-0.5,0.4c0,0.1,0,0.2,0.1,0.3
		s0.2,0.1,0.4,0.1C281.7,54.7,281.8,54.6,282,54.5z"/>
	<path d="M283.1,52.4h0.4v0.4l0,0c0-0.1,0.1-0.2,0.2-0.3s0.2-0.1,0.4-0.1c0.1,0,0.1,0,0.1,0v0.4c0,0-0.1,0-0.2,0
		c-0.2,0-0.3,0.1-0.4,0.2c-0.1,0.1-0.1,0.3-0.1,0.4V55h-0.4V52.4z"/>
	<path d="M286.3,54.3c0,0.2-0.1,0.4-0.3,0.6c-0.2,0.1-0.4,0.2-0.7,0.2c-0.3,0-0.6-0.1-0.8-0.4c-0.2-0.2-0.3-0.6-0.3-1s0.1-0.7,0.3-1
		c0.2-0.2,0.5-0.4,0.8-0.4s0.6,0.1,0.8,0.3c0.2,0.2,0.3,0.5,0.3,0.9v0.2h-1.7l0,0c0,0.3,0.1,0.5,0.2,0.6s0.3,0.2,0.5,0.2
		c0.1,0,0.3,0,0.4-0.1s0.2-0.2,0.2-0.3h0.3V54.3z M284.9,52.9c-0.1,0.1-0.2,0.3-0.2,0.5h1.3c0-0.2-0.1-0.4-0.2-0.5s-0.3-0.2-0.5-0.2
		C285.1,52.7,285,52.8,284.9,52.9z"/>
	<path d="M286.9,54.7c-0.2-0.2-0.3-0.6-0.3-1s0.1-0.7,0.3-1c0.2-0.2,0.4-0.4,0.7-0.4c0.4,0,0.6,0.2,0.8,0.5l0,0v-1.5h0.4V55h-0.4
		v-0.4l0,0c-0.2,0.3-0.4,0.5-0.8,0.5C287.4,55,287.1,54.9,286.9,54.7z M287.2,53c-0.1,0.2-0.2,0.4-0.2,0.7s0.1,0.5,0.2,0.7
		s0.3,0.3,0.5,0.3s0.4-0.1,0.5-0.3s0.2-0.4,0.2-0.7s-0.1-0.5-0.2-0.7s-0.3-0.3-0.5-0.3S287.3,52.8,287.2,53z"/>
	<path d="M292.7,55h-0.4l-0.5-2l0,0l-0.5,2h-0.4l-0.7-2.6h0.4l0.5,2.2l0,0l0.5-2.2h0.4l0.5,2.2l0,0l0.5-2.2h0.4L292.7,55z"/>
	<path d="M293.8,51.9c0-0.1-0.1-0.1-0.1-0.2c0-0.1,0-0.1,0.1-0.2c0-0.1,0.1-0.1,0.2-0.1s0.1,0,0.2,0.1s0.1,0.1,0.1,0.2
		c0,0.1,0,0.1-0.1,0.2c0,0.1-0.1,0.1-0.2,0.1S293.8,51.9,293.8,51.9z M293.8,52.4h0.4V55h-0.4V52.4z"/>
	<path d="M295.2,51.8v0.6h0.5v0.4h-0.5v1.6c0,0.2,0.1,0.4,0.3,0.4c0.1,0,0.1,0,0.2,0V55c-0.1,0-0.1,0-0.2,0c-0.2,0-0.4-0.1-0.5-0.2
		c-0.1-0.1-0.1-0.3-0.1-0.5v-1.6h-0.3v-0.4h0.3v-0.6L295.2,51.8L295.2,51.8z"/>
	<path d="M296.1,51.3h0.4v1.5l0,0c0.1-0.3,0.4-0.5,0.8-0.5c0.3,0,0.5,0.1,0.6,0.3c0.2,0.2,0.2,0.4,0.2,0.7V55h-0.4v-1.6
		c0-0.2-0.1-0.4-0.2-0.5s-0.3-0.2-0.4-0.2c-0.2,0-0.4,0.1-0.5,0.2c-0.1,0.1-0.2,0.3-0.2,0.6V55H296v-3.7H296.1z"/>
</g>
<g class="st5">
	<path d="M164.7,59.8v0.6h0.5v0.4h-0.5v1.6c0,0.2,0.1,0.4,0.3,0.4c0.1,0,0.1,0,0.2,0V63c-0.1,0-0.1,0-0.2,0c-0.2,0-0.4-0.1-0.5-0.2
		c-0.1-0.1-0.1-0.3-0.1-0.5v-1.6h-0.3v-0.4h0.3v-0.6L164.7,59.8L164.7,59.8z"/>
	<path d="M165.6,59.3h0.4v1.5l0,0c0.1-0.3,0.4-0.5,0.8-0.5c0.3,0,0.5,0.1,0.6,0.3c0.2,0.2,0.2,0.4,0.2,0.7V63h-0.4v-1.6
		c0-0.2-0.1-0.4-0.2-0.5c-0.1-0.1-0.3-0.2-0.4-0.2c-0.2,0-0.4,0.1-0.5,0.2c-0.1,0.1-0.2,0.3-0.2,0.6V63h-0.4L165.6,59.3L165.6,59.3z
		"/>
	<path d="M168.1,59.9c0-0.1-0.1-0.1-0.1-0.2c0-0.1,0-0.1,0.1-0.2c0-0.1,0.1-0.1,0.2-0.1c0.1,0,0.1,0,0.2,0.1s0.1,0.1,0.1,0.2
		c0,0.1,0,0.1-0.1,0.2c0,0.1-0.1,0.1-0.2,0.1C168.3,60,168.2,59.9,168.1,59.9z M168.1,60.4h0.4V63h-0.4V60.4z"/>
	<path d="M169,60.4h0.4v0.4l0,0c0-0.1,0.1-0.2,0.2-0.3s0.2-0.1,0.4-0.1c0.1,0,0.1,0,0.1,0v0.4c0,0-0.1,0-0.2,0
		c-0.2,0-0.3,0.1-0.4,0.2c-0.1,0.1-0.1,0.3-0.1,0.4V63H169V60.4z"/>
	<path d="M170.5,62.7c-0.2-0.2-0.3-0.6-0.3-1s0.1-0.7,0.3-1c0.2-0.2,0.4-0.4,0.7-0.4c0.4,0,0.6,0.2,0.8,0.5l0,0v-1.5h0.4V63H172
		v-0.4l0,0c-0.2,0.3-0.4,0.5-0.8,0.5C171,63,170.7,62.9,170.5,62.7z M170.8,61c-0.1,0.2-0.2,0.4-0.2,0.7s0.1,0.5,0.2,0.7
		c0.1,0.2,0.3,0.3,0.5,0.3s0.4-0.1,0.5-0.3s0.2-0.4,0.2-0.7s-0.1-0.5-0.2-0.7s-0.3-0.3-0.5-0.3S171,60.8,170.8,61z"/>
	<path d="M175.9,60.7c0.2,0.2,0.3,0.6,0.3,1s-0.1,0.7-0.3,1c-0.2,0.2-0.4,0.4-0.7,0.4s-0.6-0.2-0.8-0.5l0,0v1.3H174v-3.5h0.4v0.4
		l0,0c0.1-0.1,0.2-0.2,0.3-0.3s0.3-0.1,0.5-0.1C175.5,60.4,175.7,60.5,175.9,60.7z M175.6,62.4c0.1-0.2,0.2-0.4,0.2-0.7
		s-0.1-0.5-0.2-0.7c-0.1-0.2-0.3-0.3-0.5-0.3s-0.4,0.1-0.5,0.3s-0.2,0.4-0.2,0.7s0.1,0.5,0.2,0.7c0.1,0.2,0.3,0.3,0.5,0.3
		S175.5,62.6,175.6,62.4z"/>
	<path d="M176.7,62.8c-0.1-0.1-0.2-0.3-0.2-0.6c0-0.2,0.1-0.4,0.2-0.5c0.2-0.1,0.4-0.2,0.7-0.2h0.7v-0.2c0-0.2,0-0.3-0.1-0.4
		s-0.2-0.1-0.4-0.1c-0.1,0-0.3,0-0.3,0.1c-0.1,0.1-0.2,0.2-0.2,0.3h-0.4c0-0.2,0.1-0.4,0.3-0.6c0.2-0.1,0.4-0.2,0.6-0.2
		c0.3,0,0.5,0.1,0.7,0.2c0.2,0.2,0.3,0.4,0.3,0.6V63H178v-0.5l0,0c-0.1,0.1-0.2,0.3-0.3,0.3c-0.1,0.1-0.3,0.1-0.5,0.1
		C177,63,176.8,63,176.7,62.8z M177.8,62.5c0.1-0.1,0.2-0.3,0.2-0.5v-0.2h-0.6c-0.4,0-0.5,0.2-0.5,0.4c0,0.1,0,0.2,0.1,0.3
		s0.2,0.1,0.4,0.1C177.5,62.7,177.7,62.6,177.8,62.5z"/>
	<path d="M178.9,60.4h0.4v0.4l0,0c0-0.1,0.1-0.2,0.2-0.3s0.2-0.1,0.4-0.1c0.1,0,0.1,0,0.1,0v0.4c0,0-0.1,0-0.2,0
		c-0.2,0-0.3,0.1-0.4,0.2c-0.1,0.1-0.1,0.3-0.1,0.4V63h-0.4V60.4z"/>
	<path d="M180.8,59.8v0.6h0.5v0.4h-0.5v1.6c0,0.2,0.1,0.4,0.3,0.4c0.1,0,0.1,0,0.2,0V63c-0.1,0-0.1,0-0.2,0c-0.2,0-0.4-0.1-0.5-0.2
		c-0.1-0.1-0.1-0.3-0.1-0.5v-1.6h-0.3v-0.4h0.3v-0.6L180.8,59.8L180.8,59.8z"/>
	<path d="M181.8,59.9c0-0.1-0.1-0.1-0.1-0.2c0-0.1,0-0.1,0.1-0.2c0-0.1,0.1-0.1,0.2-0.1c0.1,0,0.1,0,0.2,0.1s0.1,0.1,0.1,0.2
		c0,0.1,0,0.1-0.1,0.2c0,0.1-0.1,0.1-0.2,0.1C181.9,60,181.8,59.9,181.8,59.9z M181.7,60.4h0.4V63h-0.4V60.4z"/>
	<path d="M184.6,62.3c0,0.2-0.1,0.4-0.3,0.6c-0.2,0.1-0.4,0.2-0.7,0.2s-0.6-0.1-0.8-0.4c-0.2-0.2-0.3-0.6-0.3-1s0.1-0.7,0.3-1
		c0.2-0.2,0.5-0.4,0.8-0.4s0.6,0.1,0.8,0.3s0.3,0.5,0.3,0.9v0.2H183l0,0c0,0.3,0.1,0.5,0.2,0.6c0.1,0.1,0.3,0.2,0.5,0.2
		c0.1,0,0.3,0,0.4-0.1c0.1-0.1,0.2-0.2,0.2-0.3h0.3V62.3z M183.2,60.9c-0.1,0.1-0.2,0.3-0.2,0.5h1.3c0-0.2-0.1-0.4-0.2-0.5
		c-0.1-0.1-0.3-0.2-0.5-0.2C183.4,60.7,183.3,60.8,183.2,60.9z"/>
	<path d="M185.3,60.6c0.2-0.1,0.4-0.2,0.6-0.2c0.2,0,0.4,0.1,0.6,0.2c0.2,0.1,0.2,0.3,0.3,0.5h-0.4c0-0.1-0.1-0.2-0.2-0.3
		c-0.1-0.1-0.2-0.1-0.4-0.1c-0.1,0-0.3,0-0.4,0.1c-0.1,0.1-0.1,0.2-0.1,0.3c0,0.2,0.1,0.3,0.4,0.4l0.4,0.1c0.2,0.1,0.4,0.2,0.5,0.3
		s0.1,0.3,0.1,0.4c0,0.2-0.1,0.4-0.3,0.6c-0.2,0.1-0.4,0.2-0.7,0.2s-0.5-0.1-0.6-0.2c-0.2-0.1-0.3-0.3-0.3-0.6h0.4
		c0,0.3,0.2,0.4,0.6,0.4c0.2,0,0.3,0,0.4-0.1c0.1-0.1,0.1-0.2,0.1-0.3s0-0.2-0.1-0.2c-0.1-0.1-0.2-0.1-0.3-0.1l-0.4-0.1
		c-0.4-0.1-0.6-0.4-0.6-0.7C185,60.9,185.1,60.7,185.3,60.6z"/>
	<path d="M188.4,62.8c-0.1-0.1-0.2-0.3-0.2-0.6c0-0.2,0.1-0.4,0.2-0.5c0.2-0.1,0.4-0.2,0.7-0.2h0.7v-0.2c0-0.2,0-0.3-0.1-0.4
		s-0.2-0.1-0.4-0.1c-0.1,0-0.3,0-0.3,0.1c-0.1,0.1-0.2,0.2-0.2,0.3h-0.4c0-0.2,0.1-0.4,0.3-0.6c0.2-0.1,0.4-0.2,0.6-0.2
		c0.3,0,0.5,0.1,0.7,0.2c0.2,0.2,0.3,0.4,0.3,0.6V63h-0.4v-0.5l0,0c-0.1,0.1-0.2,0.3-0.3,0.3c-0.1,0.1-0.3,0.1-0.5,0.1
		C188.7,63,188.5,63,188.4,62.8z M189.5,62.5c0.1-0.1,0.2-0.3,0.2-0.5v-0.2h-0.6c-0.4,0-0.5,0.2-0.5,0.4c0,0.1,0,0.2,0.1,0.3
		s0.2,0.1,0.4,0.1C189.3,62.7,189.4,62.6,189.5,62.5z"/>
	<path d="M190.6,60.4h0.4v0.4l0,0c0.2-0.3,0.4-0.5,0.8-0.5c0.3,0,0.5,0.1,0.6,0.3c0.2,0.2,0.2,0.4,0.2,0.7V63h-0.4v-1.6
		c0-0.2,0-0.4-0.1-0.5s-0.2-0.2-0.4-0.2s-0.4,0.1-0.5,0.2c-0.1,0.1-0.2,0.3-0.2,0.5V63h-0.4L190.6,60.4L190.6,60.4z"/>
	<path d="M193.3,62.7c-0.2-0.2-0.3-0.6-0.3-1s0.1-0.7,0.3-1c0.2-0.2,0.4-0.4,0.7-0.4c0.4,0,0.6,0.2,0.8,0.5l0,0v-1.5h0.4V63h-0.4
		v-0.4l0,0c-0.2,0.3-0.4,0.5-0.8,0.5C193.7,63,193.5,62.9,193.3,62.7z M193.6,61c-0.1,0.2-0.2,0.4-0.2,0.7s0.1,0.5,0.2,0.7
		c0.1,0.2,0.3,0.3,0.5,0.3s0.4-0.1,0.5-0.3s0.2-0.4,0.2-0.7s-0.1-0.5-0.2-0.7s-0.3-0.3-0.5-0.3C193.9,60.7,193.7,60.8,193.6,61z"/>
	<path d="M196.8,59.9c0-0.1-0.1-0.1-0.1-0.2c0-0.1,0-0.1,0.1-0.2c0-0.1,0.1-0.1,0.2-0.1c0.1,0,0.1,0,0.2,0.1s0.1,0.1,0.1,0.2
		c0,0.1,0,0.1-0.1,0.2c0,0.1-0.1,0.1-0.2,0.1C196.9,60,196.9,59.9,196.8,59.9z M196.8,60.4h0.4V63h-0.4V60.4z"/>
	<path d="M197.9,60.6c0.2-0.1,0.4-0.2,0.6-0.2c0.2,0,0.4,0.1,0.6,0.2c0.2,0.1,0.2,0.3,0.3,0.5H199c0-0.1-0.1-0.2-0.2-0.3
		c-0.1-0.1-0.2-0.1-0.4-0.1c-0.1,0-0.3,0-0.4,0.1c-0.1,0.1-0.1,0.2-0.1,0.3c0,0.2,0.1,0.3,0.4,0.4l0.4,0.1c0.2,0.1,0.4,0.2,0.5,0.3
		s0.1,0.3,0.1,0.4c0,0.2-0.1,0.4-0.3,0.6c-0.2,0.1-0.4,0.2-0.7,0.2s-0.5-0.1-0.6-0.2c-0.2-0.1-0.3-0.3-0.3-0.6h0.4
		c0,0.3,0.2,0.4,0.6,0.4c0.2,0,0.3,0,0.4-0.1c0.1-0.1,0.1-0.2,0.1-0.3s0-0.2-0.1-0.2c-0.1-0.1-0.2-0.1-0.3-0.1l-0.4-0.1
		c-0.4-0.1-0.6-0.4-0.6-0.7C197.7,60.9,197.8,60.7,197.9,60.6z"/>
	<path d="M202.5,61.2c0-0.1-0.1-0.3-0.2-0.4c-0.1-0.1-0.3-0.1-0.4-0.1c-0.2,0-0.4,0.1-0.5,0.3s-0.2,0.4-0.2,0.7s0.1,0.5,0.2,0.7
		c0.1,0.2,0.3,0.3,0.5,0.3c0.3,0,0.5-0.2,0.6-0.5h0.4c0,0.3-0.1,0.5-0.3,0.6c-0.2,0.2-0.4,0.2-0.7,0.2s-0.6-0.1-0.8-0.4
		c-0.2-0.2-0.3-0.6-0.3-1s0.1-0.7,0.3-1c0.2-0.2,0.5-0.4,0.8-0.4s0.5,0.1,0.7,0.3s0.3,0.4,0.3,0.6h-0.4V61.2z"/>
	<path d="M203.4,62.8c-0.1-0.1-0.2-0.3-0.2-0.6c0-0.2,0.1-0.4,0.2-0.5c0.2-0.1,0.4-0.2,0.7-0.2h0.7v-0.2c0-0.2,0-0.3-0.1-0.4
		s-0.2-0.1-0.4-0.1c-0.1,0-0.3,0-0.3,0.1c-0.1,0.1-0.2,0.2-0.2,0.3h-0.4c0-0.2,0.1-0.4,0.3-0.6c0.2-0.1,0.4-0.2,0.6-0.2
		c0.3,0,0.5,0.1,0.7,0.2c0.2,0.2,0.3,0.4,0.3,0.6V63h-0.4v-0.5l0,0c-0.1,0.1-0.2,0.3-0.3,0.3c-0.1,0.1-0.3,0.1-0.5,0.1
		C203.7,63,203.5,63,203.4,62.8z M204.5,62.5c0.1-0.1,0.2-0.3,0.2-0.5v-0.2h-0.6c-0.4,0-0.5,0.2-0.5,0.4c0,0.1,0,0.2,0.1,0.3
		s0.2,0.1,0.4,0.1C204.3,62.7,204.4,62.6,204.5,62.5z"/>
	<path d="M205.6,60.4h0.4v0.4l0,0c0-0.1,0.1-0.2,0.2-0.3c0.1-0.1,0.2-0.1,0.4-0.1c0.1,0,0.1,0,0.1,0v0.4c0,0-0.1,0-0.2,0
		c-0.2,0-0.3,0.1-0.4,0.2c-0.1,0.1-0.1,0.3-0.1,0.4V63h-0.4V60.4z"/>
	<path d="M208.9,62.3c0,0.2-0.1,0.4-0.3,0.6c-0.2,0.1-0.4,0.2-0.7,0.2s-0.6-0.1-0.8-0.4c-0.2-0.2-0.3-0.6-0.3-1s0.1-0.7,0.3-1
		c0.2-0.2,0.5-0.4,0.8-0.4s0.6,0.1,0.8,0.3s0.3,0.5,0.3,0.9v0.2h-1.7l0,0c0,0.3,0.1,0.5,0.2,0.6c0.1,0.1,0.3,0.2,0.5,0.2
		c0.1,0,0.3,0,0.4-0.1c0.1-0.1,0.2-0.2,0.2-0.3h0.3V62.3z M207.4,60.9c-0.1,0.1-0.2,0.3-0.2,0.5h1.3c0-0.2-0.1-0.4-0.2-0.5
		c-0.1-0.1-0.3-0.2-0.5-0.2S207.5,60.8,207.4,60.9z"/>
	<path d="M209.4,60.7h-0.3v-0.4h0.3v-0.2c0-0.2,0.1-0.4,0.2-0.5c0.1-0.1,0.3-0.2,0.5-0.2c0.1,0,0.1,0,0.2,0v0.4c-0.1,0-0.1,0-0.2,0
		c-0.1,0-0.2,0-0.2,0.1s-0.1,0.1-0.1,0.3v0.2h0.5v0.4h-0.5V63h-0.4V60.7z"/>
	<path d="M212.7,63h-0.4v-0.4l0,0c-0.1,0.3-0.4,0.5-0.8,0.5c-0.3,0-0.5-0.1-0.6-0.3c-0.2-0.2-0.2-0.4-0.2-0.7v-1.7h0.4V62
		c0,0.2,0,0.4,0.1,0.5s0.2,0.2,0.4,0.2s0.3-0.1,0.5-0.2c0.1-0.1,0.2-0.3,0.2-0.5v-1.5h0.4L212.7,63L212.7,63z"/>
	<path d="M213.2,59.3h0.4V63h-0.4V59.3z"/>
	<path d="M214.2,59.3h0.4V63h-0.4V59.3z"/>
	<path d="M215.1,64v-0.4c0,0,0.1,0,0.2,0c0.1,0,0.2,0,0.3-0.1s0.1-0.2,0.2-0.3V63l-0.9-2.6h0.4l0.7,2.2l0,0l0.7-2.2h0.4l-0.9,2.8
		c-0.1,0.3-0.2,0.5-0.3,0.6s-0.3,0.2-0.5,0.2S215.2,64,215.1,64z"/>
	<path d="M220.4,62.3c0,0.2-0.1,0.4-0.3,0.6c-0.2,0.1-0.4,0.2-0.7,0.2s-0.6-0.1-0.8-0.4c-0.2-0.2-0.3-0.6-0.3-1s0.1-0.7,0.3-1
		c0.2-0.2,0.5-0.4,0.8-0.4s0.6,0.1,0.8,0.3s0.3,0.5,0.3,0.9v0.2h-1.7l0,0c0,0.3,0.1,0.5,0.2,0.6c0.1,0.1,0.3,0.2,0.5,0.2
		c0.1,0,0.3,0,0.4-0.1c0.1-0.1,0.2-0.2,0.2-0.3h0.3V62.3z M218.9,60.9c-0.1,0.1-0.2,0.3-0.2,0.5h1.3c0-0.2-0.1-0.4-0.2-0.5
		c-0.1-0.1-0.3-0.2-0.5-0.2S219,60.8,218.9,60.9z"/>
	<path d="M220.8,60.4h0.4v0.4l0,0c0.2-0.3,0.4-0.5,0.8-0.5c0.3,0,0.5,0.1,0.6,0.3c0.2,0.2,0.2,0.4,0.2,0.7V63h-0.4v-1.6
		c0-0.2,0-0.4-0.1-0.5s-0.2-0.2-0.4-0.2s-0.4,0.1-0.5,0.2c-0.1,0.1-0.2,0.3-0.2,0.5V63h-0.4L220.8,60.4L220.8,60.4z"/>
	<path d="M224.9,61.2c0-0.1-0.1-0.3-0.2-0.4c-0.1-0.1-0.3-0.1-0.4-0.1c-0.2,0-0.4,0.1-0.5,0.3s-0.2,0.4-0.2,0.7s0.1,0.5,0.2,0.7
		c0.1,0.2,0.3,0.3,0.5,0.3c0.3,0,0.5-0.2,0.6-0.5h0.4c0,0.3-0.1,0.5-0.3,0.6c-0.2,0.2-0.4,0.2-0.7,0.2s-0.6-0.1-0.8-0.4
		c-0.2-0.2-0.3-0.6-0.3-1s0.1-0.7,0.3-1c0.2-0.2,0.5-0.4,0.8-0.4s0.5,0.1,0.7,0.3s0.3,0.4,0.3,0.6h-0.4V61.2z"/>
	<path d="M225.6,60.4h0.4v0.4l0,0c0-0.1,0.1-0.2,0.2-0.3s0.2-0.1,0.4-0.1c0.1,0,0.1,0,0.1,0v0.4c0,0-0.1,0-0.2,0
		c-0.2,0-0.3,0.1-0.4,0.2c-0.1,0.1-0.1,0.3-0.1,0.4V63h-0.4V60.4z"/>
	<path d="M227.1,64v-0.4c0,0,0.1,0,0.2,0c0.1,0,0.2,0,0.3-0.1s0.1-0.2,0.2-0.3V63l-0.9-2.6h0.4l0.7,2.2l0,0l0.7-2.2h0.4l-0.9,2.8
		c-0.1,0.3-0.2,0.5-0.3,0.6s-0.3,0.2-0.5,0.2S227.1,64,227.1,64z"/>
	<path d="M231.2,60.7c0.2,0.2,0.3,0.6,0.3,1s-0.1,0.7-0.3,1c-0.2,0.2-0.4,0.4-0.7,0.4s-0.6-0.2-0.8-0.5l0,0v1.3h-0.4v-3.5h0.4v0.4
		l0,0c0.1-0.1,0.2-0.2,0.3-0.3s0.3-0.1,0.5-0.1C230.7,60.4,231,60.5,231.2,60.7z M230.9,62.4c0.1-0.2,0.2-0.4,0.2-0.7
		s-0.1-0.5-0.2-0.7c-0.1-0.2-0.3-0.3-0.5-0.3s-0.4,0.1-0.5,0.3s-0.2,0.4-0.2,0.7s0.1,0.5,0.2,0.7c0.1,0.2,0.3,0.3,0.5,0.3
		C230.6,62.7,230.7,62.6,230.9,62.4z"/>
	<path d="M232.4,59.8v0.6h0.5v0.4h-0.5v1.6c0,0.2,0.1,0.4,0.3,0.4c0.1,0,0.1,0,0.2,0V63c-0.1,0-0.1,0-0.2,0c-0.2,0-0.4-0.1-0.5-0.2
		c-0.1-0.1-0.1-0.3-0.1-0.5v-1.6h-0.3v-0.4h0.3v-0.6L232.4,59.8L232.4,59.8z"/>
	<path d="M235.1,62.3c0,0.2-0.1,0.4-0.3,0.6c-0.2,0.1-0.4,0.2-0.7,0.2s-0.6-0.1-0.8-0.4c-0.2-0.2-0.3-0.6-0.3-1s0.1-0.7,0.3-1
		c0.2-0.2,0.5-0.4,0.8-0.4s0.6,0.1,0.8,0.3s0.3,0.5,0.3,0.9v0.2h-1.7l0,0c0,0.3,0.1,0.5,0.2,0.6c0.1,0.1,0.3,0.2,0.5,0.2
		c0.1,0,0.3,0,0.4-0.1c0.1-0.1,0.2-0.2,0.2-0.3h0.3V62.3z M233.7,60.9c-0.1,0.1-0.2,0.3-0.2,0.5h1.3c0-0.2-0.1-0.4-0.2-0.5
		c-0.1-0.1-0.3-0.2-0.5-0.2C233.9,60.7,233.8,60.8,233.7,60.9z"/>
	<path d="M235.7,62.7c-0.2-0.2-0.3-0.6-0.3-1s0.1-0.7,0.3-1c0.2-0.2,0.4-0.4,0.7-0.4c0.4,0,0.6,0.2,0.8,0.5l0,0v-1.5h0.4V63h-0.4
		v-0.4l0,0c-0.2,0.3-0.4,0.5-0.8,0.5C236.2,63,235.9,62.9,235.7,62.7z M236,61c-0.1,0.2-0.2,0.4-0.2,0.7s0.1,0.5,0.2,0.7
		c0.1,0.2,0.3,0.3,0.5,0.3s0.4-0.1,0.5-0.3s0.2-0.4,0.2-0.7s-0.1-0.5-0.2-0.7c-0.1-0.2-0.3-0.3-0.5-0.3S236.2,60.8,236,61z"/>
</g>
</svg>
