<?xml version="1.0" encoding="utf-8"?>
<!-- Generator: Adobe Illustrator 22.1.0, SVG Export Plug-In . SVG Version: 6.00 Build 0)  -->
<svg version="1.1" xmlns="http://www.w3.org/2000/svg" xmlns:xlink="http://www.w3.org/1999/xlink" x="0px" y="0px"
	 viewBox="0 0 1440 658.5" style="enable-background:new 0 0 1440 658.5;" xml:space="preserve">
<style type="text/css">
	.st0{fill:#2E1AAF;}
	.st1{display:none;}
	.st2{fill:#18B485;}
	.st3{fill:#FF4D37;}
	.st4{fill:#FEB832;}
	.st5{fill:#FFD0C0;}
	.st6{fill:#2E1515;}
	.st7{fill:#2E53BC;}
	.st8{fill:#301712;}
	.st9{fill:#FFFFFF;}
	.st10{fill:#61BCE0;}
	.st11{fill:#7362D1;}
	.st12{fill:#1C080D;}
	.st13{fill:#FEB934;}
	.st14{fill:#8D3CD3;}
	.st15{fill:#8D3CD3;stroke:#6820B6;stroke-miterlimit:10;}
	.st16{fill:#8D3CD3;stroke:#6820B6;stroke-width:1.9434;stroke-miterlimit:10;}
	.st17{fill:#FEB832;stroke:#E8991A;stroke-width:1.4173;stroke-miterlimit:10;}
	.st18{display:none;fill:#6581F3;stroke:#223387;stroke-miterlimit:10;}
	.st19{fill:#18B485;stroke:#158C51;stroke-miterlimit:10;}
	.st20{fill:#18B485;stroke:#158C51;stroke-width:1.4173;stroke-miterlimit:10;}
	.st21{fill:none;}
</style>
<g id="Layer_1">
	<g id="Layer_3">
		<rect y="0" class="st0" width="1440" height="658.5"/>
	</g>
	<g id="Layer_1_1_" class="st1">
	</g>
	<path class="st2" d="M1278.3,292.3c-25.4,29.4-48.1,70.9-40.4,77.9c3.4,3.1,16.5,2.6,78.9-49.6c0.8-10.2,1.3-21.1,1.5-32.6
		c0.1-11-0.1-21.5-0.6-31.4C1306.9,264.2,1292.6,275.8,1278.3,292.3z"/>
	<path class="st3" d="M1391.6,552.1c15.9,24.1,31.9,48.1,47.8,72.2c0.1-97.4,0.2-194.9,0.2-292.3c-30.9,11.5-61.8,23-92.7,34.5
		C1361.8,428.4,1376.7,490.3,1391.6,552.1z"/>
	<path class="st4" d="M1192.6,531.3c-5.2,20-10.1,41.6-14.3,64.7c-4,22-7,42.9-9.2,62.6c32.3,0,64.6,0,96.8,0
		c4.8-25.8,9.7-51.7,14.5-77.5c37.4,25.8,74.8,51.7,112.1,77.5c15.6,0,31.2,0,46.8,0c0-24.7,0-49.4,0-74.1
		c-35.7-25.9-71.3-51.9-106.9-78c-15.2-11.1-30.4-22.3-45.6-33.4C1255.5,492.5,1224,511.9,1192.6,531.3z"/>
	<path class="st5" d="M1274.3,253.8c-0.1-0.4-0.4-0.9-0.8-1.4c-0.5-0.7-1.1-1.2-1.3-1.3c-1-0.8-1.4-2-2.2-4.3c-1-3.1-1.6-4.7-1-5.9
		c0.7-1.5,2.4-2.1,3.1-2.3c2.4-0.7,4.6,0.1,5.6,0.5c1.7,1.6,4.6,4.8,6.5,9.7c2.3,6,1.7,11.3,1.3,13.7c-1.5-0.2-3.1-0.4-4.8-0.5
		c-1.9-0.1-3.7-0.2-5.4-0.2c0.1-0.9,0.2-2.2,0.1-3.6C1275.2,256.4,1274.7,254.9,1274.3,253.8z"/>
	<path class="st5" d="M967,408.5c-0.4-0.3-1-0.8-1.5-1.5c-0.7-1-1-1.8-1.2-2.1c-0.6-1.5-2-2.5-4.6-4.3c-3.6-2.5-5.4-3.7-7.1-3.4
		c-2.2,0.4-3.5,2.3-4,3.1c-1.8,2.8-1.6,5.9-1.4,7.2c1.4,2.7,4.3,7.6,9.8,11.7c6.7,5.1,13.6,6.3,16.7,6.6c0.3-2,0.7-4.1,1.1-6.2
		c0.5-2.4,1.1-4.7,1.7-6.9c-1.2-0.2-2.8-0.5-4.5-1.2C969.9,410.6,968.2,409.4,967,408.5z"/>
	<path class="st6" d="M1151.4,331.1c3,1.6,5.7,3.5,7.6,6.2c3,3.8,4.1,8.7,3.3,13.6c-0.3,1.4-0.8,2.4-1.6,3.3c-1.4,1.1-3,1.9-4.6,2.2
		c-2.4,0.3-4.9,0-7.3-0.8c-7.6-3-11.7-10.3-14.1-14.7c-1.1-2.2-2.2-4.3-2.7-6.8c-0.5-2.7-0.8-5.7-0.3-8.7c4.3,0.3,8.4,1.1,12.5,2.4
		C1146.5,328.6,1149.2,329.7,1151.4,331.1z"/>
	<path class="st6" d="M1115.5,363.9c0.5,1.9,1.4,3.5,2.2,5.2c1.9,2.7,4.3,4.9,7.6,6.2c1.1,0.5,6.5,2.4,9.2-0.3
		c1.4-1.4,1.4-3.3,1.4-6.5c-0.3-3.8-1.4-7.6-3.5-10.9c-0.5-0.8-1.1-1.6-1.9-2.2c-1.1-0.5-2.2-1.1-3.3-1.4c-1.4-0.3-3-1.1-4.1-2.2
		c-1.1-1.4-0.5-2.2-1.4-2.7c-1.1-0.5-3.5,1.9-4.9,4.1C1115,356.6,1114.4,360.1,1115.5,363.9z"/>
	<path class="st5" d="M1137.5,330.8c3.5,6,7.9,11.7,11.7,17.7c3.3,5.2,8.2,13,15.8,23.9c0.5,1.4,1.1,2.7,1.1,4.1
		c0.3,1.9,0.3,4.1,0,6c-0.8,6-2.2,11.7-3.8,17.4c-1.1,4.3-3,8.2-5.4,11.7c-3.5,4.6-9,7.3-14.9,7.6c-4.1,0-10.3-1.6-10.6-4.9
		c0-0.5,0-2.2,2.2-4.1c-0.5-0.8-1.1-1.6-1.6-2.4c-2.4-5.7-2.4-12.2,0-18.2l-4.3-27.7c-0.8,0.3-1.6,0.5-2.4,0.5c-1.1,0-1.9-0.3-3-0.5
		c-5.2-2.2-8.2-19.3-8.2-19.3c-1.6-9.5-2.4-14.4,0.3-18.7c0.5-0.5,3.5-5.7,8.4-6s9,4.9,12.2,8.7
		C1135.9,327.8,1136.7,329.2,1137.5,330.8z"/>
	<path class="st6" d="M1135.1,316.4c-3.3-2.4-7.1-3.5-11.1-3c-3.5,0-7.1,1.1-10.1,3c-0.5,0.3-6,4.9-4.6,10.3
		c0.5,1.6,1.4,3.3,2.7,4.3c2.4,1.9,5.7,3,9,3c5.4,0.5,10.6-1.4,14.7-5.2c2.2-1.9,3.3-4.6,3.3-7.6
		C1138.3,319.4,1137,317.5,1135.1,316.4z"/>
	<path class="st7" d="M497.5,625.6c-2.5,11-5,22-7.5,32.9c42.1,0,84.2,0,126.3,0c0.2-11.2,0.3-22.4,0.5-33.6
		C577,625.1,537.3,625.4,497.5,625.6z"/>
	<path class="st5" d="M540.8,490.7c2.3-4.8,4.6-10.2,6.8-16.1c2.5-7,4.3-13.5,5.6-19.4c-0.6,0.4-2,1.2-3.6,0.9c0,0-1.5-0.3-2.7-1.6
		c-3.5-3.9,1.1-25.4,14.3-29.6c2.1-0.7,4-0.8,5-0.7c0.8,0,2.2,0.1,3.5,0.8c6.1,3.4,3.3,16.2,4.8,32.5c0.5,4.9,1.5,12.4,4.4,21.5
		l-12.4,18.9l-21.7,2.5C543.5,497.2,542.1,493.9,540.8,490.7z"/>
	<path class="st3" d="M433.7,519.7c-9,3.8-14.6,7.5-22.2,12.9c-4.3,3-8.7,7.5-7.5,12.6c0.7,0.2,1.7,0.4,2.9,0.6
		c20.6,4,36.4,0.3,53.3-2.8c10.5-1.9,25.8-4.5,45.2-6.7c-3.7,25.9-7.3,51.8-11,77.7c-0.5,3.8-1.1,7.8-0.2,11.5
		c2.6,10.9,15.4,15.9,26.6,18.1c27.5,5.5,56.1,5,83.4-1.3c3.7-0.9,7.5-1.9,10.3-4.5c4.7-4.4,4.8-11.6,4.6-18
		c-1.2-35.6-2-70.5-1.1-85.4c0.4-6.8,1.1-12.2,1.5-14.9c7.3,0.6,14.8,1,22.5,1.2c30,1,57.8-0.5,83.1-3.6c-1-11.4,1.8-17.9,5.6-21.7
		c2-2,3.8-2.8,3.8-4.2c-0.2-4.5-19.8-7.2-31-8.6c-39.9-4.9-74.2-6.2-104-8c-9.7-0.6-17.4-1.1-22-1.4c-0.9,1.9-2.3,4.8-4.7,7.7
		c-6,7.3-17.5,15-23,11.5c-5.6-3.5-2.4-16.9-2.2-17.8c-1.9,0.1-4.7,0.2-8,0.6c-13.4,1.5-24.2,5.1-39.8,11.8c-7,3-17.3,8.1-37.8,18.2
		C427.8,522.1,436.5,518.5,433.7,519.7z"/>
	<path class="st5" d="M707.5,491.6c2.3-4.8,4.6-10.2,6.8-16.1c2.5-7,4.3-13.5,5.6-19.4c-0.6,0.4-2,1.2-3.6,0.9c0,0-1.5-0.3-2.7-1.6
		c-3.5-3.9,1.1-25.4,14.3-29.6c2.1-0.7,4-0.8,5-0.7c0.8,0,2.2,0.1,3.5,0.8c6.1,3.4,3.3,16.2,4.8,32.5c0.5,4.9,1.5,12.4,4.4,21.5
		l-12.4,18.9l-21.7,2.5C710.2,498,708.9,494.8,707.5,491.6z"/>
	<path class="st5" d="M23.3,276.5V307l-23.9-20.2v-10.3c5.2-2.3,8.7-4.9,10.9-6.8c5.7-4.9,10.7-11.8,11-12.3c3.6-5,4.3-7.3,6.8-7.8
		c3.1-0.6,6.6,2.3,8.3,5c2.6,4.2,1.3,8.7-1,17.3s-4.5,9.3-5.3,9.5c-1.5,0.3-3.4-0.3-4.8-1.5C23.8,278.7,23.4,277.1,23.3,276.5z"/>
	<path class="st5" d="M92.3,338.8c0-0.4,0-0.9-0.1-1.6c-0.1-1.1-0.3-1.9-0.4-2.4c-0.4-1.7-0.3-3.2-0.3-4.1c0-1.2,0.1-2.5,0.6-3.9
		c0.3-0.9,0.5-1.4,1.1-1.9c1.2-1,2.9-0.8,3.8-0.7c0,0,2,0.3,3.5,1.3c3.3,2.4,3.6,8.7,2.9,13.1c-1.1,7-5.2,12.8-5.2,12.8
		s0.1-0.2,0.3-0.6c0.2-0.7-7.8-3.7-8.5-3.9C90.7,344.7,92.3,341.9,92.3,338.8z"/>
	<path class="st4" d="M39.7,302.3c1,1.4,4.4,11.4,4.4,19.9c0,0-0.6,21.8,2.2,64.5c0.9,13.9,3.1,18.9,6.2,19.7
		c4.2,1,9.6-6.6,13.2-11.6c5.6-7.8,8.2-14.7,10.5-20.8c3.4-8.8,6.6-17.3,11.5-30.2c2.3,0.1,5.2,0.4,8.3,1.2c2.9,0.7,5.4,1.7,7.4,2.6
		c-2.9,19.1-6.9,34.6-10.3,45.9c-4.8,16.1-9.1,26.5-15.4,36.7c-8.6,14.1-15.2,18.7-20.8,21.2c-2.8,1.2-8.7,3.9-16.5,3.1
		C27,453.1,19,442.6,16.5,439.3c-7.8-10.4-8.4-21.6-8.4-25.9c-1.2,3.2-2.8,6.8-5.2,10.7c-1.2,2-2.5,3.8-3.7,5.3
		c0-51.3,0-102.6,0-153.9c1.1,4.2,2.6,7.7,4.1,10.6c1.3,2.5,2.4,4.6,4.4,6.9c1.7,1.9,6.9,7.8,11.1,6.2c3.2-1.2,4.1-6,4.2-7.1
		C26.6,293,34.4,295.2,39.7,302.3z"/>
	<path class="st8" d="M37.6,259.8c1.9,0.1,2.4-0.3,2.7-0.5c0.7-0.7,0.6-1.9,0.6-2.5c-0.2-2.4-1.8-4-3.6-5.9c-2-2.1-3.9-3.3-5.4-4.2
		c-2.6-1.6-4-2-5-2.2c-1.1-0.2-2.3-0.3-3.4,0.1c-0.7,0.2-1.4,0.7-2,1.1c-2,1.5-3.6,3.4-5.2,5.3c-1.6,2-3.2,3.9-4.9,5.9
		c-5,6.1-6.4,7.4-6.8,10.2c-0.2,1-0.4,2.4,0.2,3.9c1.1,2.6,4,4,6.4,4.1c0.6,0,2.4,0.1,4.1-1c3.4-2.1,3.1-6.4,6.9-16.4
		c0.6-1.7,1.7-4.3,3-4.3c0.8,0,1.1,0.8,2.6,2.2c1.4,1.2,2.6,1.8,4,2.5C35,259.5,36.9,259.7,37.6,259.8z"/>
	<path class="st9" d="M75.3,286.8c5.5-6.8-1.7-16.3-3.1-32.9c-1.8-22.9,9.1-41,11.2-44.6c15.5-25.7,42.8-33.2,49.5-35.1
		c5.4-1.5,32.1-8.4,60,4.3c7,3.2,18.3,8.5,27,20.6c8.6,11.9,10.1,23.9,11,31c2.2,16.9-1.7,30.1-3,34.2c-1.5,4.7-7.5,21.6-23.6,35
		c-22.5,18.9-49.8,18.5-65.7,18.2c-22.1-0.3-41.7-6.7-51.6-9.9c-4.1-1.3-2.4-1-19.2-7c-10.9-3.9-16.6-5.8-16.3-7.3
		C52,290.6,68.8,294.8,75.3,286.8z"/>
	<path class="st9" d="M320.7,385.5c-11.1-9.9-32.2-16.7-32.2-16.7c-9.9-3.2-25.2-7.9-45.3-7.2c-14.9,0.5-22.2,3.7-24.3,4.6
		c-5.7,2.6-14.9,6.8-19.6,16.8c-5.7,12.2-0.8,24.2,0.4,27c5,11.2,14.5,16.2,22.6,20.3c17.3,9,33.6,8,43.2,7.4c17-1,25.8-6,29.1-8.2
		c5.1-3.3,7.6-6.4,8.8-8c1.7-2.3,6.1-8.3,5.8-16.1c-0.2-5.7-2.9-8.8-0.8-11.9c1.4-2.1,4-2.6,4.6-2.7c4.3-0.9,12.1,1.4,13.9,1.3
		c0,0,0.1,0,0.2-0.1C327.5,391.6,322.4,387,320.7,385.5z"/>
	<path class="st10" d="M596.8,396c1.5-1.6,2.1-3.3,2.4-4.3c2.4-7.8,1.2-16.8,3.6-25.6c0.5-1.9,2.3-7.6,7-13.2s10-8.3,12.4-9.4
		c5.8-2.9,10.7-3.6,12.2-3.8c1.6-0.2,7.7-0.9,14.9,0.9c3.3,0.9,20.9,6,26.2,22.6c0.8,2.5,3.3,11.5-0.9,21.2
		c-5,11.5-15.8,15.7-19.7,17.2c-13.3,5.1-25.2,1.3-29.6-0.2c-8.5-2.9-14.3-7.6-17.5-10.6c-0.8,1.2-1.5,2.6-2.5,3.7
		c-1.7,2.1-4.2,3.3-6.8,4c-2,0.5-5.7,1.5-7.6,0.6C592.9,398.2,595.1,397.7,596.8,396z"/>
	<polygon class="st10" points="690.5,628.4 689.3,658.5 837,658.5 818.1,590.2 	"/>
	<path class="st9" d="M786.9,438.2c0.6-1.9,0-2.8-0.3-7.2c-0.2-2.8-0.6-7.3,0.2-10.9c1.8-8.1,9.6-12.5,10.2-12.8
		c5-2.5,11-2.9,16.5-1.5c1.7,0.4,7.9,2.6,11.6,8.9c5,8.5,1.3,17.4,0.7,18.9c-0.7,1.8-2.8,6.8-8,9.7c-3.6,2-7.1,2.2-9.6,2.3
		c-2.2,0.1-5.7-0.3-12.7-1.2c-0.9-0.1-2.8-0.3-5.4-0.2c-1.8,0.1-3.3,0.4-4.3,0.6c-5.9,1.5-7.2,1.4-7.4,1.1
		C778.4,445,785.3,443.4,786.9,438.2z"/>
	<path class="st4" d="M1056.8,357.7c-1.8,0-1.6-0.2-7.5-0.7c-4.2-0.4-6.4-0.6-8.2-0.5c-4.4,0.2-7.5,1.5-9.7,2.2
		c-2.7,0.9-17.2,6-28,0.4c-4.3-2.2-6.6-5.5-8.2-7.6c-7.5-10.4-5.6-22.5-5.2-25.2c1.2-7.6,4.4-12.7,6-15.3c5.7-9,13.1-13.5,18.4-16.6
		c6.1-3.5,14.5-8.5,25.7-8c6.4,0.3,11.6,2.2,13.3,2.9c3.1,1.2,6.1,2.4,9.1,5.1c0.8,0.7,7.3,6.8,7.8,16.3c0.4,7.5-3.2,13.3-5.3,16.5
		c-3,4.7-6.2,6.7-9.4,13.6c-1.1,2.3-2,4.7-1.1,7.1c1,2.9,3.7,4.3,4.6,4.8c4.2,2.2,8.1,0.9,8.2,1.6
		C1067.6,355.1,1062.6,357.6,1056.8,357.7z"/>
	<path class="st11" d="M1251.1,168.5c-1.7-0.4-3.6-1.2-4.4-2.8c-1.2-2.4,0.6-5.1,2.1-7.3c3-4.5,5-9.6,5.9-15
		c0.3-1.8,0.4-3.9-0.3-6.5c-1.4-4.7-5.1-7.2-6.9-8.4c-5.8-3.9-11.9-4-14.6-4c-1.7,0-6.1,0.2-14.6,3.7c-15.8,6.5-25.9,16.3-30.6,22.4
		c-2.4,3-3.9,5.7-4.6,7.1c-2,3.9-3.6,7-3.7,10.6c-0.1,8,7.5,13.7,8.2,14.2c7.6,5.5,16.8,3.8,21.9,2.9c5.3-1,9.2-2.8,13.1-4.7
		c5.9-2.8,10.3-5.9,13.4-8.3c1.3,1.1,6,4.7,12.8,4.7c9,0,14.5-6.4,15.3-7.3c0.4-0.9-5.9-0.6-6.3-0.6
		C1255.6,169.3,1253.3,169,1251.1,168.5z"/>
	<g>
		<path class="st5" d="M480.6,402.6c0-1-1-3.1-2.1-4.1c-2.1-4.1-2.1-8.3-2.1-12.4c0-1,0.2-1.4,0.4-1.9c1.1-1.9,3.7-2.1,4.7-2.2
			c3.4-0.3,6.1,1.3,7.2,2.1c2.1,1,4.1,4.1,6.2,14.4c1,10.3-3.1,21.7-2.1,17.5c0-1-11.4-2.1-12.4-2.1
			C480.6,410.8,481.6,406.7,480.6,402.6z"/>
		<path class="st12" d="M396,465.5c1.3,1.4,2.7,2.8,3.1,5.2c0.1,0.4,0.4,2.9-1,4.1c-0.7,0.6-1.5,0.6-3.2,0.6c-2.1,0-3.6-0.4-4.1-0.6
			c-1.8-0.5-3.2-1.4-4.1-2.1c0-1-1-1-1-2.1c0-4.1,0-8.3,0-12.4c0-1,0-2.1,1-3.1s2.1-1,3.1,0s1,1,1,2.1
			C392.5,461.2,394.4,463.8,396,465.5z"/>
		<path class="st5" d="M387.7,462.5c1.7,5.2,3.4,10.3,5.2,15.5c0.9,0.9,2.3,2.5,3.2,4.7c1.7,4.3,0.8,8.1,0.4,9.4
			c-0.8,0.9-1.6,1.9-2.6,2.8c-1.8,1.8-3.5,3.3-5.2,4.6c-14.4-2.1-29.9-3.1-44.4-5.2c5.2-15.5,8.3-27.9,10.3-36.1
			c3.1-16.5,5.2-25.8,12.4-29.9c1,0,7.2-4.1,13.4-2.1c5.2,2.1,7.2,8.3,13.4,20.6c1.3,3.1,2.1,5.8,2.6,7.7c0.7,3,0.7,4.3,0,5.3
			c-0.7,1.1-1.8,1.5-3,1.9C392.5,462.3,390.5,462.9,387.7,462.5z"/>
		<path class="st13" d="M433.1,658.5c-42.3,0-84.6,0-125.9,0c2.1-12.4,5.2-24.8,7.2-37.2h118.7C432.1,632.7,432.1,646.2,433.1,658.5
			z"/>
		<path class="st14" d="M439.3,480c9.3-3.1,17.5-6.2,23.7-14.4c3.1-4.1,4.1-7.2,7.2-16.5c2.1-9.3,5.2-21.7,7.2-38.2
			c2.2-0.8,5.3-1.8,9.3-2.1c4.4-0.3,8,0.4,10.3,1c2.1,7.2,4.1,17.5,5.2,31c2.1,19.6,3.1,28.9-1,40.3c-7.2,20.6-23.7,32-29.9,37.2
			c-15.5,11.4-32,15.5-41.3,17.5c-8.3-16.5-15.5-34.1-23.7-50.6C420.7,485.2,432.1,482.1,439.3,480z"/>
		<path class="st14" d="M411.5,482.1c7.2,4.1,10.3,11.4,15.5,25.8c7.1,19.9,6.8,33.9,9.3,53.7c4.9,39.1,9.2,52.2,0.1,62.4
			c-1,1.1-3.3,3.5-13,7.8c0,0-46.2,20.7-98.6,6.2c-5.9-1.6-10.3-4.8-10.3-4.8c-1.6-1.1-2.9-2.3-4.1-3.5c-1-2.1-2.1-3.1-2.1-5.2
			c-4.1-12.4-5.2-22.7-5.2-23.7c-1-15.5-1-17.5,0-19.6c4.1-5.2,10.3-2.1,16.5-7.2c4.1-3.1,5.2-8.3,8.3-16.5
			c2.1-8.3,3.1-13.4,5.2-25.8c1-9.3,3.1-17.5,3.1-20.6c2.1-9.3,5.2-21.7,12.4-36.1c5.2,6.2,10.3,10.3,14.4,12.4s8.3,5.2,15.5,6.2
			c4.1,1,8.3,1,12.4-2.1c5.2-4.1,3.1-12.4,2.1-13.4C398,477.9,405.3,477.9,411.5,482.1z"/>
		<path class="st15" d="M393.9,477.9c2.4-0.2,6.3-0.1,10.6,1.3c9.9,3.2,15.1,11.1,17.7,15c4.6,7.1,6.2,14.1,6.8,18.8
			c1.3,7.3,2.6,14.7,3.9,22"/>
		<path class="st5" d="M406.3,556.4c0-1,1-3.1,1-4.1c1-4.1,4.1-8.3,7.2-11.4c1-1,1-1,2.1-2.1c2.1-1,4.1,0,4.1,1
			c3.1,2.1,4.1,5.2,4.1,6.2c0,2.1,1,6.2-6.2,16.5c-6.2,10.3-16.5,16.5-13.4,14.4c1-1-7.2-8.3-8.3-9.3
			C401.1,563.6,404.2,560.5,406.3,556.4z"/>
		<path class="st14" d="M349.5,473.8c-11.4,5.2-26.8,13.4-42.3,28.9c-24.8,26.8-44.4,74.3-26.8,103.2c8.3,12.4,20.6,18.6,22.7,19.6
			c14.4,6.2,28.9,4.1,38.2,2.1c18.6-4.1,29.9-12.4,39.2-18.6c13.4-10.3,23.7-21.7,29.9-32c-1-2.1-3.1-5.2-6.2-7.2s-5.2-4.1-7.2-5.2
			c-3.1,2.1-8.3,5.2-14.4,8.3c-19.6,11.4-33,18.6-50.6,18.6c-4.1,0-11.4,0-19.6-3.1c5.2-4.1,12.4-13.4,18.6-25.8
			c6.2-13.4,7.2-25.8,7.2-32"/>
		<path class="st16" d="M335.1,536.8c-12.4,16.5-15.5,35.1-8.3,44.4c11.4,14.4,46.4-1,50.6-3.1c9.3-4.1,15.5-9.3,20.6-13.4
			c2.1,1,5.2,2.1,8.3,5.2c3.1,3.1,5.2,5.2,6.2,7.2c-5.2,8.3-14.4,20.6-29.9,32s-29.9,16.5-39.2,18.6"/>
		<path class="st12" d="M387.7,428.4c-0.7,1.9-2.8,3-4.3,3.7c-2.1,1.1-3.9,1.3-5,1.4c-2.7,0.3-4.8-0.2-6.8-0.6
			c-1.9-0.4-3.5-1-4.5-1.4c-0.1,1-0.3,2.7-0.4,4.6c-0.3,8.7,2.2,11.4,2.8,18.6c0.3,3.6,1.1,12.7-4.5,18.1c-2.3,2.2-4.9,3.1-6.7,3.6
			c-1.6,0.5-10,3.1-14.5-1.5c-0.6-0.6-2.5-2.6-2.4-5.1c0.2-4.4,6.4-5.4,10.7-11.4c2.4-3.4,3.3-7.1,3.6-10.5c0.4-1.4,0.6-2.5,0.8-3.6
			c0.4-2.8,0.3-3.9,0.6-7.8c0.4-5.9,1-8.3,1.3-9.4c0.5-1.8,1-2.8,1.3-3.6c0.4-0.8,1.4-2.9,3.2-4.5c2.7-2.5,6-2.9,7.8-3.1
			c1.6-0.2,6.3-0.8,10.8,2.1C385,420.3,389,424.9,387.7,428.4z"/>
	</g>
	<path class="st5" d="M621.9,489.4c0.2,23.4,0.6,46.6,0.7,70l28.2-6.2c-0.3-1.2-0.8-3.8-1.5-7.2c-4.7-25.7-5.1-60.2-12.2-68.9
		c-1.4-1.6-3-3.2-4.6-4.8c-2-1.9-4.3-3.6-6.7-5.1c-0.5-0.1-5.5-2.2-6.1-1.1s2.3,3.6,2.7,4.1l2.5,3.4c-1,0.3-1.8,0.9-2.5,1.5
		c-1.5,0.9-2.7,2.4-3.6,3.9c-1,1.9-1.1,4.2-0.2,6.2C619.3,487,620.4,488.5,621.9,489.4z"/>
	<path class="st4" d="M614.1,533.3c6.6-1.2,13.6-2.2,21.2-3c6.6-0.7,12.8-1.1,18.7-1.2c0.1,22.7,1.2,48.4,7,49.1
		c1.8,0.2,3.7-1.8,7.5-8.6c5.3-9.5,12.3-24.2,17.7-45l6.6,91.5c-1.6,3.5-8.2,16.9-23.5,22.8c-10.8,4.2-20.8,2.6-24.4,1.6
		C623.9,634.6,611,590.8,614.1,533.3z"/>
	<path class="st4" d="M686.6,500c-3.5,6.4-4.8,12.4-6,35c-1.3,25.7-1.9,38.6-0.1,57.4c3.4,35.1,9.5,41.8,12.4,44.3
		c7.7,6.8,17.4,8.4,24.1,8.7l0,0c56.2,0,75.8-4.8,84-7.6c1.1-0.4,2.3-0.8,2.3-0.8c4.7-1,11.7-3.3,16.1-9.2c2.6-3.4,4.4-8.2,2.4-30.9
		c-1.5-17.2-4.1-31.1-6.2-41.2c-1.6-7.8-3.1-14.3-4.3-19c8.6,3.5,17.7,7.6,27,12.4c3.6,1.9,7.1,3.8,10.5,5.7c-2.4,4-5.7,8.6-10,13.4
		c-5.7,6.2-11.4,10.5-16.1,13.6c3,4.4,6.6,9.1,10.9,14c4,4.6,7.9,8.7,11.7,12.2c8.5-4.5,21.9-13.2,31.1-28.9
		c3.4-5.7,7.6-13.1,8.1-23.4c0.8-14.6-6.2-25.4-9.4-30.2c-1.8-2.7-7.9-11.3-32.2-25.3c-13.6-7.8-26.4-15.2-45.8-20.8
		c-21.2-6.1-40.1-7.2-54-6.7c-3.4,7.4-8.2,14.1-14.2,19.6c-1.7,1.6-3.7,3.2-6.1,3.5c0,0-2.1,0.2-4.1-0.7c-3.9-1.8-5.9-9.2-4.7-18.2
		C706.3,479.9,693.9,486.7,686.6,500z"/>
	<path class="st17" d="M680.2,544.1c-1.3,13.3-1.8,29.7,0.3,48.3c1.5,13.7,4.2,25.8,7,36"/>
	<path class="st18" d="M1469.7-179.7c3.3-0.1,8.4,0.2,13.3,3.3c5.1,3.3,7.8,8.4,11,19.2c2,6.8,4.7,17.6,6.9,39.1
		c0.8,8,1.6,17.5,0.9,29.5c-0.7,12.6-2.4,15.5-3.3,16.9c-4.8,7.2-13.7,8.4-30,10.3c0,0-29.1,3.4-52.7-5.6c-2.6-1-5.8-2.4-8.2-5.5"/>
	<path class="st12" d="M554.4,433.7c-1.8-0.5-3.6-1.4-4.4-3c-0.3-0.7-0.4-1.4-0.5-2.1c-0.1-1.3,0-2.7,0.6-3.9c1-2,3.1-3.3,5.3-3.6
		s4.4,0,6.6,0.5c1.7,0.4,3.5,0.8,5-0.1s1.1-2.2,3.2-3.6c1.6-1.1,2.7-1,3-1s1,0.1,1.7,0.6c0,0,0.8,0.6,1.2,1.6
		c1.7,4.3,1.1,9.1,1,13.7c-0.1,7.9,1.7,15.7,1.6,23.5c0,1.4-0.1,2.9-0.6,4.2c-0.6,1.6-1.9,3-3.5,3.9c-1.8,1.1-4.4,1.4-5.8-0.1
		c-0.7-0.8-1-1.8-1.1-2.8c-1-5.8,0.5-11.7,1.3-17.4c0.4-2.6,1.2-6,0.6-8.6c-0.5-2.4-3.4-1.5-5.1-1.2
		C561.2,434.4,557.7,434.5,554.4,433.7z"/>
	<g id="Layer_1_2_">
		<title>request1</title>
	</g>
	<g id="Layer_2_1_">
	</g>
	<g id="Layer_4">
	</g>
	<path class="st12" d="M722.4,427.3c0.3,1.2,1.1,2,3.1,3.5c3.9,2.7,7.4,5.1,12.3,5.6c2.1,0.2,3.7,0,4.9-0.9c0.8-0.6,1.2-1.4,1.3-1.6
		c0.7-1.4,0.4-2.7,0.3-3.2c-0.4-2.2-2.2-3.6-3.9-4.9c-0.5-0.4-2.1-1.6-4.5-2.5c-0.7-0.3-3.4-1.3-7.1-1.5c-2.2-0.1-3.3-0.1-4.3,0.5
		C722.9,423.3,722,425.5,722.4,427.3z"/>
	<path class="st5" d="M815.7,595.9c-0.6,0.2-1.6,0.4-2.8,0.4c-1.6,0-2.9-0.4-3.3-0.5c-2.2-0.6-4.3,0.1-8.4,1.5
		c-5.6,1.9-8.4,2.8-9.5,5c-1.3,2.7-0.4,5.6,0.1,6.9c1.6,4.3,5.1,6.5,6.7,7.4c4.1,0.7,11.8,1.5,20.9-1.1c11.1-3.2,18-9.7,20.9-12.8
		c-1.9-1.9-3.9-4.1-5.9-6.4c-2.2-2.6-4.3-5.1-6.1-7.5c-1.2,1.2-2.9,2.6-5.1,3.9C820.3,594.5,817.6,595.4,815.7,595.9z"/>
	<path class="st7" d="M1091.9,410c-15.2,11.1-34.1,11.8-57.9,11.5c-20-0.3-40.2-4.2-59.2-10.4c-1.4,1.2-3.5,3.3-5.2,6.4
		c-1.7,3-2.4,5.9-2.7,7.7c18.5,11.2,37.1,22.5,57.5,29.6c8.8,3.1,33,8.2,63.6,4.2c16.3-2.1,29.5-6.4,38.9-10.1
		c14.3,23.8,29.3,47.7,45.1,71.8c5.2,8,12.9,19.2,25.7,21.8c4.9,1,10.2,0.6,25-5.4c27.8-11.2,45.6-24.5,51.2-28.8
		c16.8-12.9,27.8-21.6,26.7-32c-0.2-2.2-1-4.4-5.9-11c-12.4-17.1-23.9-26.5-23.9-26.5c-12.5-10.4-27.7-24.2-47.1-42.3
		c4.8-4,8.5-7.6,11.1-10.2c6.1-6.1,49.7-51.2,53.1-117.8c0.2-4.7,0.2-8.5,0.2-10.4c-4.8,1-9.7,2-14.5,3.1c-0.9,2.7-2.5,6.9-4.8,11.8
		c-3.3,7-9.6,18.4-41.3,50.7c-11.2,11.4-14.5,14.1-17.8,16.5c-8.2,6-12.8,7.6-24.1,14.5c-5.3,3.2-13.2,8.2-22.4,15.2
		c-0.9,2.7-7.5,21.9-13.1,31.3c-1.8,3-4,5.9-7.1,6.2c-1.6,0.1-2.9-0.5-3.4-0.7c-6.5-3.1-7.5-17.2-7.6-18.5c-3.1,1-7.7,2.7-13.2,5.3
		C1104.5,399.9,1095.8,407.1,1091.9,410z"/>
	<path class="st12" d="M1325.7,235.6c-0.8,1.8-1.8,3.6-1.4,6c0.1,0.4,0.5,3,2.3,3.7c0.8,0.3,1.7,0.1,3.3-0.4c2-0.6,3.4-1.6,3.8-1.8
		c1.6-1.1,2.7-2.3,3.4-3.3c-0.3-1,0.7-1.3,0.4-2.4c-1.3-4.1-2.6-8.1-3.9-12.2c-0.3-1-0.7-2-2-2.7s-2.4-0.4-3,1
		c-0.7,1.3-0.7,1.3-0.4,2.4C1327.7,230.1,1326.7,233.4,1325.7,235.6z"/>
	<path class="st5" d="M1332.8,230.9c-0.1,5.6-0.1,11.2-0.2,16.8c-0.6,1.2-1.5,3.2-1.7,5.7c-0.4,4.7,1.8,8.2,2.6,9.4
		c1.1,0.7,2.2,1.3,3.4,2c2.3,1.2,4.5,2.2,6.5,2.9c13.5-6.6,28.4-12.5,41.9-19.2c-10-13.6-17-24.7-21.6-32.2
		c-8.3-15.2-13.3-23.7-21.7-25.5c-1,0.3-8.4-1.8-13.8,2.2c-4.4,3.7-4.5,10.4-6.6,24.5c-0.3,3.4-0.2,6.3-0.1,8.4
		c0.3,3.2,0.7,4.4,1.7,5.2s2.2,0.9,3.5,0.9C1328,232.3,1330.2,232.2,1332.8,230.9z"/>
	<path class="st2" d="M1439.6,320.1v69.8c-43.7,23.6-88,18.8-88,18.8c-10.8-1.2-13.9-2.8-15.2-3.5c-12.2-7.1-12.2-21.4-19.8-61.3
		c-3.8-20.2-8.6-33.9-7.9-55.6c0.5-15.8,1.2-23.9,7-30.2c4.8-6,11.9-8.3,16.9-10c-0.7,1.3-0.1,10.1,6.3,12.5c5,1.7,9.1,0.4,12.8-1.9
		c6.8-3.3,9.8-7.6,13.2-11s7.2-9,10.3-16.8c11.7,11.9,18.6,23.1,23.6,31.5c1,3,5.6,10.5,9.6,19.3c5.9,11.5,8.6,16.2,13.3,23.7
		c5.7,7.1,8.3,11.9,13.3,13.6C1436.7,319.7,1438.2,320,1439.6,320.1z"/>
	<path class="st19" d="M1331.7,248.4c-2.4,0.6-6.2,1.9-10,4.6c-8.8,6.3-11.3,15.7-12.6,20.3c-0.9,3.3-1.6,7.8-0.7,20.7
		c0.5,7.6,1.6,17.9,4.1,30.1"/>
	<path class="st5" d="M1344.4,329.3c-0.3-1-2-2.7-2.3-3.7c-2.3-3.7-6.7-6.8-10.7-8.9c-1.3-0.7-1.3-0.7-2.7-1.4
		c-2.4-0.4-4.1,1.3-3.7,2.3c-2.4,3-2.4,6.4-2.1,7.4c0.7,2,1,6.4,11.3,14.2c9.4,8.2,21.5,11,17.8,9.9c-1.3-0.7,4.5-10.4,5.2-11.7
		C1351.8,334.8,1347.8,332.7,1344.4,329.3z"/>
	<path class="st2" d="M1439.6,247.2v80.1c-5.7-3.5-12.5-8.8-19.3-15.8c-10.3-11.2-15.3-23-17.3-29.1l-29.2-52.1
		c5.8-2.2,15.6-4.9,27.3-3.5c9.3,1.1,20.2,4.9,35.2,17.6C1437.5,245.3,1438.6,246.2,1439.6,247.2z"/>
	<path class="st2" d="M1428.5,340.2c2.7-0.9,6.7-2.2,11.1-4.6v41.8c-3.2,0.6-6.2,1-8.8,1.2c-19.5,1.8-33.3-2.7-44.4-5.8
		c-16.4-5.9-30.2-13.8-39.5-21.9c0.4-2.3,1.4-6,3.8-9s3.8-5.7,5.5-7.4c3.7,1,9.7,2.4,16.8,3.5
		C1395.8,342.9,1411.3,345.8,1428.5,340.2z"/>
	<path class="st20" d="M1408.1,287.5c17.4,12.3,26.3,29.5,22.2,41c-6.6,17.8-45.9,13.7-50.6,13c-10.4-1.1-18.1-4.2-24.5-6.6
		c-1.7,1.7-4.4,3.7-6.5,7.7s-3.4,6.7-3.8,9.1c7.7,6.5,20.7,15.7,39.5,21.9c18.8,6.2,34.6,6.7,44.4,5.8"/>
	<path class="st12" d="M1321.2,197.2c1.3,1.6,3.7,2,5.4,2.3c2.4,0.4,4.3,0,5.4-0.2c2.8-0.6,4.7-1.7,6.5-2.8c1.8-1,3.1-2.1,4-2.8
		c0.5,1,1.2,2.5,1.9,4.4c3,8.4,1.4,11.9,3.1,19.1c0.8,3.6,3,12.8,10.2,16.3c3,1.5,5.8,1.4,7.7,1.4c1.7,0,10.8-0.1,13.8-6.1
		c0.4-0.8,1.6-3.3,0.7-5.7c-1.6-4.3-8-3.2-14.1-7.7c-3.4-2.6-5.5-6-6.9-9.1c-0.8-1.2-1.4-2.3-1.9-3.2c-1.3-2.6-1.6-3.7-3.1-7.5
		c-2.2-5.6-3.6-7.8-4.2-8.8c-1-1.6-1.8-2.5-2.5-3.1c-0.7-0.7-2.3-2.4-4.6-3.4c-3.5-1.6-6.8-0.9-8.6-0.6c-1.7,0.3-6.5,1.2-9.9,5.5
		C1321.4,188.4,1318.9,194.3,1321.2,197.2z"/>
	<line class="st21" x1="1439.6" y1="335.6" x2="1439.6" y2="327.3"/>
	<g>
		<path class="st9" d="M297.6,184.2l-4.4-17.5h2.4l2.1,8.9c0.5,2.2,1,4.4,1.3,6.1h0.1c0.3-1.7,0.8-3.8,1.4-6.1l2.3-8.8h2.4l2.1,8.9
			c0.5,2.1,1,4.2,1.2,6h0.1c0.4-1.9,0.9-3.9,1.4-6.1l2.3-8.8h2.3l-5,17.5h-2.4l-2.2-9.1c-0.5-2.2-0.9-4-1.1-5.7h-0.1
			c-0.3,1.7-0.7,3.5-1.4,5.7l-2.5,9.1L297.6,184.2L297.6,184.2z"/>
		<path class="st9" d="M317.1,178.4c0.1,3.1,2,4.4,4.3,4.4c1.6,0,2.6-0.3,3.5-0.7l0.4,1.6c-0.8,0.4-2.2,0.8-4.2,0.8
			c-3.9,0-6.2-2.5-6.2-6.3s2.2-6.8,5.9-6.8c4.1,0,5.2,3.6,5.2,5.9c0,0.5-0.1,0.8-0.1,1.1H317.1z M323.8,176.7c0-1.5-0.6-3.7-3.2-3.7
			c-2.3,0-3.3,2.1-3.5,3.7H323.8z"/>
		<path class="st9" d="M346.5,165.8V181c0,1.1,0,2.4,0.1,3.3h-2.1l-0.1-2.2h-0.1c-0.7,1.4-2.2,2.5-4.3,2.5c-3,0-5.4-2.6-5.4-6.4
			c0-4.2,2.6-6.8,5.6-6.8c1.9,0,3.2,0.9,3.8,1.9h0.1v-7.5H346.5z M344.2,176.8c0-0.3,0-0.7-0.1-1c-0.3-1.5-1.6-2.7-3.3-2.7
			c-2.4,0-3.8,2.1-3.8,4.9c0,2.5,1.2,4.7,3.7,4.7c1.5,0,2.9-1,3.4-2.7c0.1-0.3,0.1-0.6,0.1-1L344.2,176.8L344.2,176.8z"/>
		<path class="st9" d="M361.7,177.9c0,4.7-3.2,6.7-6.3,6.7c-3.4,0-6-2.5-6-6.5c0-4.2,2.8-6.7,6.2-6.7
			C359.3,171.4,361.7,174,361.7,177.9z M351.7,178c0,2.8,1.6,4.8,3.8,4.8c2.2,0,3.8-2.1,3.8-4.9c0-2.1-1.1-4.8-3.8-4.8
			S351.7,175.6,351.7,178z"/>
		<path class="st9" d="M371.4,175.1c0-1.3,0-2.4-0.1-3.4h2l0.1,2.1h0.1c0.6-1.2,2.1-2.4,4.2-2.4c1.7,0,4.4,1,4.4,5.4v7.5h-2.3V177
			c0-2-0.8-3.7-2.9-3.7c-1.5,0-2.7,1.1-3.1,2.3c-0.1,0.3-0.2,0.7-0.2,1.1v7.6h-2.3L371.4,175.1L371.4,175.1z"/>
		<path class="st9" d="M397.2,177.9c0,4.7-3.2,6.7-6.3,6.7c-3.4,0-6-2.5-6-6.5c0-4.2,2.8-6.7,6.2-6.7
			C394.8,171.4,397.2,174,397.2,177.9z M387.3,178c0,2.8,1.6,4.8,3.8,4.8c2.2,0,3.8-2.1,3.8-4.9c0-2.1-1.1-4.8-3.8-4.8
			S387.3,175.6,387.3,178z"/>
		<path class="st9" d="M402.9,168v3.6h3.3v1.7h-3.3v6.8c0,1.6,0.4,2.4,1.7,2.4c0.6,0,1-0.1,1.3-0.2l0.1,1.7c-0.4,0.2-1.1,0.3-2,0.3
			c-1.1,0-1.9-0.3-2.5-1s-0.9-1.8-0.9-3.3v-6.6h-2v-1.7h2v-3L402.9,168z"/>
		<path class="st9" d="M424.6,183.8c-0.6,0.3-1.9,0.7-3.6,0.7c-3.8,0-6.3-2.6-6.3-6.4c0-3.9,2.7-6.7,6.8-6.7c1.4,0,2.5,0.3,3.2,0.7
			l-0.5,1.8c-0.5-0.3-1.4-0.6-2.7-0.6c-2.9,0-4.4,2.1-4.4,4.8c0,2.9,1.9,4.7,4.4,4.7c1.3,0,2.2-0.3,2.8-0.6L424.6,183.8z"/>
		<path class="st9" d="M427.2,165.8h2.3v7.9h0.1c0.4-0.6,0.9-1.2,1.6-1.6c0.7-0.4,1.5-0.6,2.3-0.6c1.7,0,4.4,1,4.4,5.4v7.5h-2.3
			v-7.2c0-2-0.8-3.7-2.9-3.7c-1.5,0-2.7,1-3.1,2.3c-0.1,0.3-0.2,0.7-0.2,1.1v7.6h-2.3v-18.7H427.2z"/>
		<path class="st9" d="M448.6,184.2l-0.2-1.6h-0.1c-0.7,1-2.1,1.9-3.8,1.9c-2.5,0-3.8-1.8-3.8-3.6c0-3,2.7-4.7,7.6-4.7v-0.3
			c0-1-0.3-2.9-2.9-2.9c-1.2,0-2.4,0.4-3.3,0.9l-0.5-1.5c1-0.7,2.5-1.1,4.1-1.1c3.8,0,4.8,2.6,4.8,5.1v4.7c0,1.1,0.1,2.2,0.2,3h-2.1
			L448.6,184.2L448.6,184.2z M448.3,177.8c-2.5-0.1-5.3,0.4-5.3,2.8c0,1.5,1,2.2,2.2,2.2c1.6,0,2.7-1,3-2.1c0.1-0.2,0.1-0.5,0.1-0.7
			L448.3,177.8L448.3,177.8z"/>
		<path class="st9" d="M454.2,175.6c0-1.5,0-2.8-0.1-3.9h2l0.1,2.5h0.1c0.6-1.7,2-2.8,3.5-2.8c0.3,0,0.4,0,0.6,0.1v2.2
			c-0.2-0.1-0.5-0.1-0.8-0.1c-1.6,0-2.8,1.2-3.1,2.9c-0.1,0.3-0.1,0.7-0.1,1.1v6.7h-2.3L454.2,175.6L454.2,175.6z"/>
		<path class="st9" d="M473.3,171.7c-0.1,0.9-0.1,1.9-0.1,3.5v7.3c0,2.9-0.6,4.7-1.8,5.7c-1.2,1.1-3,1.5-4.6,1.5
			c-1.5,0-3.2-0.4-4.2-1l0.6-1.7c0.8,0.5,2.1,1,3.7,1c2.3,0,4.1-1.2,4.1-4.4v-1.4h-0.1c-0.7,1.2-2.1,2.1-4,2.1
			c-3.1,0-5.4-2.7-5.4-6.1c0-4.3,2.8-6.7,5.7-6.7c2.2,0,3.4,1.1,3.9,2.2h0.1l0.1-1.9h2L473.3,171.7L473.3,171.7z M471,176.6
			c0-0.4,0-0.7-0.1-1c-0.4-1.3-1.5-2.4-3.2-2.4c-2.2,0-3.7,1.8-3.7,4.8c0,2.5,1.2,4.5,3.7,4.5c1.4,0,2.7-0.9,3.2-2.3
			c0.1-0.4,0.2-0.8,0.2-1.2v-2.4L471,176.6L471,176.6z"/>
		<path class="st9" d="M478.3,178.4c0.1,3.1,2,4.4,4.3,4.4c1.6,0,2.6-0.3,3.5-0.7l0.4,1.6c-0.8,0.4-2.2,0.8-4.2,0.8
			c-3.9,0-6.2-2.5-6.2-6.3s2.2-6.8,5.9-6.8c4.1,0,5.2,3.6,5.2,5.9c0,0.5-0.1,0.8-0.1,1.1H478.3z M485,176.7c0-1.5-0.6-3.7-3.2-3.7
			c-2.3,0-3.3,2.1-3.5,3.7H485z"/>
		<path class="st9" d="M505.9,183.8c-0.6,0.3-1.9,0.7-3.6,0.7c-3.8,0-6.3-2.6-6.3-6.4c0-3.9,2.7-6.7,6.8-6.7c1.4,0,2.5,0.3,3.2,0.7
			l-0.5,1.8c-0.5-0.3-1.4-0.6-2.7-0.6c-2.9,0-4.4,2.1-4.4,4.8c0,2.9,1.9,4.7,4.4,4.7c1.3,0,2.2-0.3,2.8-0.6L505.9,183.8z"/>
		<path class="st9" d="M519.8,177.9c0,4.7-3.2,6.7-6.3,6.7c-3.4,0-6-2.5-6-6.5c0-4.2,2.8-6.7,6.2-6.7
			C517.3,171.4,519.8,174,519.8,177.9z M509.8,178c0,2.8,1.6,4.8,3.8,4.8c2.2,0,3.8-2.1,3.8-4.9c0-2.1-1.1-4.8-3.8-4.8
			S509.8,175.6,509.8,178z"/>
		<path class="st9" d="M522.7,175.1c0-1.3,0-2.4-0.1-3.4h2l0.1,2h0.1c0.7-1.2,1.9-2.3,4-2.3c1.7,0,3,1,3.6,2.5h0.1
			c0.4-0.7,0.9-1.2,1.4-1.6c0.8-0.6,1.6-0.9,2.8-0.9c1.7,0,4.1,1.1,4.1,5.5v7.4h-2.2v-7.1c0-2.4-0.9-3.9-2.7-3.9
			c-1.3,0-2.3,1-2.7,2.1c-0.1,0.3-0.2,0.7-0.2,1.1v7.8h-2.2v-7.5c0-2-0.9-3.5-2.6-3.5c-1.4,0-2.5,1.1-2.8,2.3
			c-0.1,0.3-0.2,0.7-0.2,1.1v7.6H523v-9.2L522.7,175.1L522.7,175.1z"/>
		<path class="st9" d="M544.3,175.1c0-1.3,0-2.4-0.1-3.4h2l0.1,2h0.1c0.7-1.2,1.9-2.3,4-2.3c1.7,0,3,1,3.6,2.5h0.1
			c0.4-0.7,0.9-1.2,1.4-1.6c0.8-0.6,1.6-0.9,2.8-0.9c1.7,0,4.1,1.1,4.1,5.5v7.4h-2.2v-7.1c0-2.4-0.9-3.9-2.7-3.9
			c-1.3,0-2.3,1-2.7,2.1c-0.1,0.3-0.2,0.7-0.2,1.1v7.8h-2.2v-7.5c0-2-0.9-3.5-2.6-3.5c-1.4,0-2.5,1.1-2.8,2.3
			c-0.1,0.3-0.2,0.7-0.2,1.1v7.6h-2.2v-9.2L544.3,175.1L544.3,175.1z"/>
		<path class="st9" d="M568.6,168.1c0,0.8-0.5,1.4-1.5,1.4c-0.8,0-1.4-0.6-1.4-1.4c0-0.8,0.6-1.4,1.4-1.4
			C568,166.7,568.6,167.3,568.6,168.1z M566,184.2v-12.6h2.3v12.6H566z"/>
		<path class="st9" d="M571.8,181.9c0.7,0.4,1.9,0.9,3,0.9c1.7,0,2.4-0.8,2.4-1.9c0-1.1-0.6-1.7-2.3-2.3c-2.3-0.8-3.3-2.1-3.3-3.6
			c0-2,1.6-3.7,4.3-3.7c1.3,0,2.4,0.4,3.1,0.8l-0.6,1.7c-0.5-0.3-1.4-0.7-2.6-0.7c-1.4,0-2.1,0.8-2.1,1.7c0,1,0.8,1.5,2.4,2.1
			c2.2,0.8,3.3,1.9,3.3,3.8c0,2.2-1.7,3.8-4.7,3.8c-1.4,0-2.7-0.3-3.5-0.9L571.8,181.9z"/>
		<path class="st9" d="M582.1,181.9c0.7,0.4,1.9,0.9,3,0.9c1.7,0,2.4-0.8,2.4-1.9c0-1.1-0.6-1.7-2.3-2.3c-2.3-0.8-3.3-2.1-3.3-3.6
			c0-2,1.6-3.7,4.3-3.7c1.3,0,2.4,0.4,3.1,0.8l-0.6,1.7c-0.5-0.3-1.4-0.7-2.6-0.7c-1.4,0-2.1,0.8-2.1,1.7c0,1,0.8,1.5,2.4,2.1
			c2.2,0.8,3.3,1.9,3.3,3.8c0,2.2-1.7,3.8-4.7,3.8c-1.4,0-2.7-0.3-3.5-0.9L582.1,181.9z"/>
		<path class="st9" d="M595.2,168.1c0,0.8-0.5,1.4-1.5,1.4c-0.8,0-1.4-0.6-1.4-1.4c0-0.8,0.6-1.4,1.4-1.4
			C594.7,166.7,595.2,167.3,595.2,168.1z M592.7,184.2v-12.6h2.3v12.6H592.7z"/>
		<path class="st9" d="M610.2,177.9c0,4.7-3.2,6.7-6.3,6.7c-3.4,0-6-2.5-6-6.5c0-4.2,2.8-6.7,6.2-6.7
			C607.7,171.4,610.2,174,610.2,177.9z M600.2,178c0,2.8,1.6,4.8,3.8,4.8s3.8-2.1,3.8-4.9c0-2.1-1.1-4.8-3.8-4.8
			S600.2,175.6,600.2,178z"/>
		<path class="st9" d="M613.1,175.1c0-1.3,0-2.4-0.1-3.4h2l0.1,2.1h0.1c0.6-1.2,2.1-2.4,4.2-2.4c1.7,0,4.4,1,4.4,5.4v7.5h-2.3V177
			c0-2-0.8-3.7-2.9-3.7c-1.5,0-2.7,1.1-3.1,2.3c-0.1,0.3-0.2,0.7-0.2,1.1v7.6H613L613.1,175.1L613.1,175.1z"/>
		<path class="st9" d="M627.2,181.9c0.7,0.4,1.9,0.9,3,0.9c1.7,0,2.4-0.8,2.4-1.9c0-1.1-0.7-1.7-2.3-2.3c-2.3-0.8-3.3-2.1-3.3-3.6
			c0-2,1.6-3.7,4.3-3.7c1.3,0,2.4,0.4,3.1,0.8l-0.6,1.7c-0.5-0.3-1.4-0.7-2.6-0.7c-1.4,0-2.1,0.8-2.1,1.7c0,1,0.8,1.5,2.4,2.1
			c2.2,0.8,3.3,1.9,3.3,3.8c0,2.2-1.7,3.8-4.7,3.8c-1.4,0-2.7-0.3-3.5-0.9L627.2,181.9z"/>
		<path class="st9" d="M656,177.9c0,4.7-3.2,6.7-6.3,6.7c-3.4,0-6-2.5-6-6.5c0-4.2,2.8-6.7,6.2-6.7C653.6,171.4,656,174,656,177.9z
			 M646,178c0,2.8,1.6,4.8,3.8,4.8s3.8-2.1,3.8-4.9c0-2.1-1.1-4.8-3.8-4.8S646,175.6,646,178z"/>
		<path class="st9" d="M658.9,175.6c0-1.5,0-2.8-0.1-3.9h2l0.1,2.5h0.1c0.6-1.7,2-2.8,3.5-2.8c0.3,0,0.4,0,0.6,0.1v2.2
			c-0.2-0.1-0.5-0.1-0.8-0.1c-1.6,0-2.8,1.2-3.1,2.9c-0.1,0.3-0.1,0.7-0.1,1.1v6.7h-2.3L658.9,175.6L658.9,175.6z"/>
		<path class="st9" d="M681.2,184.2l-0.2-1.6l0,0c-0.7,1-2.1,1.9-3.8,1.9c-2.5,0-3.8-1.8-3.8-3.6c0-3,2.7-4.7,7.6-4.7v-0.3
			c0-1-0.3-2.9-2.9-2.9c-1.2,0-2.4,0.4-3.3,0.9l-0.5-1.5c1-0.7,2.5-1.1,4.1-1.1c3.8,0,4.8,2.6,4.8,5.1v4.7c0,1.1,0.1,2.2,0.2,3h-2.2
			L681.2,184.2L681.2,184.2z M680.9,177.8c-2.5-0.1-5.3,0.4-5.3,2.8c0,1.5,1,2.2,2.2,2.2c1.6,0,2.7-1,3-2.1c0.1-0.2,0.1-0.5,0.1-0.7
			V177.8z"/>
		<path class="st9" d="M697.6,165.8V181c0,1.1,0,2.4,0.1,3.3h-2.1l-0.1-2.2h-0.1c-0.7,1.4-2.2,2.5-4.3,2.5c-3,0-5.4-2.6-5.4-6.4
			c0-4.2,2.6-6.8,5.6-6.8c1.9,0,3.2,0.9,3.8,1.9h0.1v-7.5H697.6z M695.4,176.8c0-0.3,0-0.7-0.1-1c-0.3-1.5-1.6-2.7-3.3-2.7
			c-2.4,0-3.8,2.1-3.8,4.9c0,2.5,1.2,4.7,3.7,4.7c1.5,0,2.9-1,3.4-2.7c0.1-0.3,0.1-0.6,0.1-1L695.4,176.8L695.4,176.8z"/>
		<path class="st9" d="M712.3,165.8V181c0,1.1,0,2.4,0.1,3.3h-2.1l-0.1-2.2h-0.1c-0.7,1.4-2.2,2.5-4.3,2.5c-3,0-5.4-2.6-5.4-6.4
			c0-4.2,2.6-6.8,5.6-6.8c1.9,0,3.2,0.9,3.8,1.9h0.1v-7.5H712.3z M710,176.8c0-0.3,0-0.7-0.1-1c-0.3-1.5-1.6-2.7-3.3-2.7
			c-2.4,0-3.8,2.1-3.8,4.9c0,2.5,1.2,4.7,3.7,4.7c1.5,0,2.9-1,3.4-2.7c0.1-0.3,0.1-0.6,0.1-1L710,176.8L710,176.8z"/>
		<path class="st9" d="M718.7,168.1c0,0.8-0.5,1.4-1.5,1.4c-0.8,0-1.4-0.6-1.4-1.4c0-0.8,0.6-1.4,1.4-1.4
			C718.1,166.7,718.7,167.3,718.7,168.1z M716.1,184.2v-12.6h2.3v12.6H716.1z"/>
		<path class="st9" d="M724.9,168v3.6h3.3v1.7h-3.3v6.8c0,1.6,0.4,2.4,1.7,2.4c0.6,0,1-0.1,1.3-0.2l0.1,1.7c-0.4,0.2-1.1,0.3-2,0.3
			c-1.1,0-1.9-0.3-2.5-1s-0.9-1.8-0.9-3.3v-6.6h-2v-1.7h2v-3L724.9,168z"/>
		<path class="st9" d="M733.3,168.1c0,0.8-0.5,1.4-1.5,1.4c-0.8,0-1.4-0.6-1.4-1.4c0-0.8,0.6-1.4,1.4-1.4
			C732.8,166.7,733.3,167.3,733.3,168.1z M730.8,184.2v-12.6h2.3v12.6H730.8z"/>
		<path class="st9" d="M748.3,177.9c0,4.7-3.2,6.7-6.3,6.7c-3.4,0-6-2.5-6-6.5c0-4.2,2.8-6.7,6.2-6.7
			C745.8,171.4,748.3,174,748.3,177.9z M738.3,178c0,2.8,1.6,4.8,3.8,4.8s3.8-2.1,3.8-4.9c0-2.1-1.1-4.8-3.8-4.8
			S738.3,175.6,738.3,178z"/>
		<path class="st9" d="M751.2,175.1c0-1.3,0-2.4-0.1-3.4h2l0.1,2.1h0.1c0.6-1.2,2.1-2.4,4.2-2.4c1.7,0,4.4,1,4.4,5.4v7.5h-2.3V177
			c0-2-0.8-3.7-2.9-3.7c-1.5,0-2.7,1.1-3.1,2.3c-0.1,0.3-0.2,0.7-0.2,1.1v7.6h-2.3L751.2,175.1L751.2,175.1z"/>
		<path class="st9" d="M772.6,184.2l-0.2-1.6h-0.1c-0.7,1-2.1,1.9-3.8,1.9c-2.5,0-3.8-1.8-3.8-3.6c0-3,2.7-4.7,7.6-4.7v-0.3
			c0-1-0.3-2.9-2.9-2.9c-1.2,0-2.4,0.4-3.3,0.9l-0.5-1.5c1-0.7,2.5-1.1,4.1-1.1c3.8,0,4.8,2.6,4.8,5.1v4.7c0,1.1,0.1,2.2,0.2,3h-2.1
			V184.2z M772.2,177.8c-2.5-0.1-5.3,0.4-5.3,2.8c0,1.5,1,2.2,2.2,2.2c1.6,0,2.7-1,3-2.1c0.1-0.2,0.1-0.5,0.1-0.7V177.8z"/>
		<path class="st9" d="M778.1,165.8h2.3v18.5h-2.3V165.8z"/>
		<path class="st9" d="M791.3,184.2v-10.8h-1.8v-1.7h1.8v-0.6c0-1.8,0.4-3.4,1.5-4.4c0.9-0.8,2-1.2,3.1-1.2c0.8,0,1.5,0.2,2,0.4
			l-0.3,1.8c-0.3-0.2-0.8-0.3-1.5-0.3c-2,0-2.4,1.7-2.4,3.6v0.7h3v1.7h-3v10.8H791.3z"/>
		<path class="st9" d="M799.6,178.4c0.1,3.1,2,4.4,4.3,4.4c1.6,0,2.6-0.3,3.5-0.7l0.4,1.6c-0.8,0.4-2.2,0.8-4.2,0.8
			c-3.9,0-6.2-2.5-6.2-6.3s2.2-6.8,5.9-6.8c4.1,0,5.2,3.6,5.2,5.9c0,0.5-0.1,0.8-0.1,1.1H799.6z M806.3,176.7c0-1.5-0.6-3.7-3.2-3.7
			c-2.3,0-3.3,2.1-3.5,3.7H806.3z"/>
		<path class="st9" d="M812.6,178.4c0.1,3.1,2,4.4,4.3,4.4c1.6,0,2.6-0.3,3.5-0.7l0.4,1.6c-0.8,0.4-2.2,0.8-4.2,0.8
			c-3.9,0-6.2-2.5-6.2-6.3s2.2-6.8,5.9-6.8c4.1,0,5.2,3.6,5.2,5.9c0,0.5-0.1,0.8-0.1,1.1H812.6z M819.4,176.7c0-1.5-0.6-3.7-3.2-3.7
			c-2.3,0-3.3,2.1-3.5,3.7H819.4z"/>
		<path class="st9" d="M824.1,181.9c0.7,0.4,1.9,0.9,3,0.9c1.7,0,2.4-0.8,2.4-1.9c0-1.1-0.6-1.7-2.3-2.3c-2.3-0.8-3.3-2.1-3.3-3.6
			c0-2,1.6-3.7,4.3-3.7c1.3,0,2.4,0.4,3.1,0.8l-0.6,1.7c-0.5-0.3-1.4-0.7-2.6-0.7c-1.4,0-2.1,0.8-2.1,1.7c0,1,0.8,1.5,2.4,2.1
			c2.2,0.8,3.3,1.9,3.3,3.8c0,2.2-1.7,3.8-4.7,3.8c-1.4,0-2.7-0.3-3.5-0.9L824.1,181.9z"/>
		<path class="st9" d="M832.9,187.4c0.6-1.5,1.3-4.3,1.6-6.2l2.5-0.3c-0.6,2.2-1.7,5.1-2.5,6.3L832.9,187.4z"/>
		<path class="st9" d="M853.6,184.2l-0.2-1.6h-0.1c-0.7,1-2.1,1.9-3.8,1.9c-2.5,0-3.8-1.8-3.8-3.6c0-3,2.7-4.7,7.6-4.7v-0.3
			c0-1-0.3-2.9-2.9-2.9c-1.2,0-2.4,0.4-3.3,0.9l-0.5-1.5c1-0.7,2.5-1.1,4.1-1.1c3.8,0,4.8,2.6,4.8,5.1v4.7c0,1.1,0.1,2.2,0.2,3h-2.1
			V184.2z M853.3,177.8c-2.5-0.1-5.3,0.4-5.3,2.8c0,1.5,1,2.2,2.2,2.2c1.6,0,2.7-1,3-2.1c0.1-0.2,0.1-0.5,0.1-0.7V177.8z"/>
		<path class="st9" d="M859.2,175.1c0-1.3,0-2.4-0.1-3.4h2l0.1,2.1h0.1c0.6-1.2,2.1-2.4,4.2-2.4c1.7,0,4.4,1,4.4,5.4v7.5h-2.3V177
			c0-2-0.8-3.7-2.9-3.7c-1.5,0-2.7,1.1-3.1,2.3c-0.1,0.3-0.2,0.7-0.2,1.1v7.6h-2.3L859.2,175.1L859.2,175.1z"/>
		<path class="st9" d="M884.5,165.8V181c0,1.1,0,2.4,0.1,3.3h-2.1l-0.1-2.2h-0.1c-0.7,1.4-2.2,2.5-4.3,2.5c-3,0-5.4-2.6-5.4-6.4
			c0-4.2,2.6-6.8,5.6-6.8c1.9,0,3.2,0.9,3.8,1.9h0.1v-7.5H884.5z M882.2,176.8c0-0.3,0-0.7-0.1-1c-0.3-1.5-1.6-2.7-3.3-2.7
			c-2.4,0-3.8,2.1-3.8,4.9c0,2.5,1.2,4.7,3.7,4.7c1.5,0,2.9-1,3.4-2.7c0.1-0.3,0.1-0.6,0.1-1L882.2,176.8L882.2,176.8z"/>
		<path class="st9" d="M894.8,181.9c0.7,0.4,1.9,0.9,3,0.9c1.7,0,2.4-0.8,2.4-1.9c0-1.1-0.6-1.7-2.3-2.3c-2.3-0.8-3.3-2.1-3.3-3.6
			c0-2,1.6-3.7,4.3-3.7c1.3,0,2.4,0.4,3.1,0.8l-0.6,1.7c-0.5-0.3-1.4-0.7-2.6-0.7c-1.4,0-2.1,0.8-2.1,1.7c0,1,0.8,1.5,2.4,2.1
			c2.2,0.8,3.3,1.9,3.3,3.8c0,2.2-1.7,3.8-4.7,3.8c-1.4,0-2.7-0.3-3.5-0.9L894.8,181.9z"/>
		<path class="st9" d="M914.4,183.8c-0.6,0.3-1.9,0.7-3.6,0.7c-3.8,0-6.3-2.6-6.3-6.4c0-3.9,2.7-6.7,6.8-6.7c1.4,0,2.5,0.3,3.2,0.7
			l-0.5,1.8c-0.5-0.3-1.4-0.6-2.7-0.6c-2.9,0-4.4,2.1-4.4,4.8c0,2.9,1.9,4.7,4.4,4.7c1.3,0,2.2-0.3,2.8-0.6L914.4,183.8z"/>
		<path class="st9" d="M917.1,165.8h2.3v7.9h0.1c0.4-0.6,0.9-1.2,1.6-1.6c0.7-0.4,1.5-0.6,2.3-0.6c1.7,0,4.4,1,4.4,5.4v7.5h-2.3
			v-7.2c0-2-0.8-3.7-2.9-3.7c-1.5,0-2.7,1-3.1,2.3c-0.1,0.3-0.2,0.7-0.2,1.1v7.6H917L917.1,165.8L917.1,165.8z"/>
		<path class="st9" d="M942.9,177.9c0,4.7-3.2,6.7-6.3,6.7c-3.4,0-6-2.5-6-6.5c0-4.2,2.8-6.7,6.2-6.7
			C940.4,171.4,942.9,174,942.9,177.9z M932.9,178c0,2.8,1.6,4.8,3.8,4.8s3.8-2.1,3.8-4.9c0-2.1-1.1-4.8-3.8-4.8
			S932.9,175.6,932.9,178z"/>
		<path class="st9" d="M957.1,177.9c0,4.7-3.2,6.7-6.3,6.7c-3.4,0-6-2.5-6-6.5c0-4.2,2.8-6.7,6.2-6.7
			C954.7,171.4,957.1,174,957.1,177.9z M947.2,178c0,2.8,1.6,4.8,3.8,4.8s3.8-2.1,3.8-4.9c0-2.1-1.1-4.8-3.8-4.8
			S947.2,175.6,947.2,178z"/>
		<path class="st9" d="M960,165.8h2.3v18.5H960V165.8z"/>
		<path class="st9" d="M965.9,181.9c0.7,0.4,1.9,0.9,3,0.9c1.7,0,2.4-0.8,2.4-1.9c0-1.1-0.7-1.7-2.3-2.3c-2.3-0.8-3.3-2.1-3.3-3.6
			c0-2,1.6-3.7,4.3-3.7c1.3,0,2.4,0.4,3.1,0.8l-0.6,1.7c-0.5-0.3-1.4-0.7-2.6-0.7c-1.4,0-2.1,0.8-2.1,1.7c0,1,0.8,1.5,2.4,2.1
			c2.2,0.8,3.3,1.9,3.3,3.8c0,2.2-1.7,3.8-4.7,3.8c-1.4,0-2.7-0.3-3.5-0.9L965.9,181.9z"/>
		<path class="st9" d="M983.3,175.8c0-1.6-0.1-2.9-0.1-4.1h2.1l0.1,2.2h0.1c0.9-1.5,2.4-2.4,4.5-2.4c3,0,5.3,2.6,5.3,6.4
			c0,4.5-2.8,6.8-5.7,6.8c-1.7,0-3.1-0.7-3.9-2h-0.1v6.8h-2.3L983.3,175.8L983.3,175.8z M985.6,179.1c0,0.3,0.1,0.7,0.1,0.9
			c0.4,1.6,1.8,2.7,3.4,2.7c2.4,0,3.8-2,3.8-4.9c0-2.5-1.3-4.7-3.7-4.7c-1.6,0-3,1.1-3.5,2.8c-0.1,0.3-0.2,0.6-0.2,0.9v2.3H985.6z"
			/>
		<path class="st9" d="M998.1,175.6c0-1.5,0-2.8-0.1-3.9h2l0.1,2.5h0.1c0.6-1.7,2-2.8,3.5-2.8c0.3,0,0.4,0,0.6,0.1v2.2
			c-0.2-0.1-0.5-0.1-0.8-0.1c-1.6,0-2.8,1.2-3.1,2.9c-0.1,0.3-0.1,0.7-0.1,1.1v6.7H998L998.1,175.6L998.1,175.6z"/>
		<path class="st9" d="M1017.7,177.9c0,4.7-3.2,6.7-6.3,6.7c-3.4,0-6-2.5-6-6.5c0-4.2,2.8-6.7,6.2-6.7
			C1015.3,171.4,1017.7,174,1017.7,177.9z M1007.7,178c0,2.8,1.6,4.8,3.8,4.8s3.8-2.1,3.8-4.9c0-2.1-1.1-4.8-3.8-4.8
			S1007.7,175.6,1007.7,178z"/>
		<path class="st9" d="M1021.3,171.7l2.5,7.1c0.4,1.1,0.8,2.2,1,3.2h0.1c0.3-1,0.6-2.1,1.1-3.2l2.4-7.1h2.4l-4.9,12.6h-2.2
			l-4.8-12.6H1021.3z"/>
		<path class="st9" d="M1035.5,168.1c0,0.8-0.5,1.4-1.5,1.4c-0.8,0-1.4-0.6-1.4-1.4c0-0.8,0.6-1.4,1.4-1.4
			C1034.9,166.7,1035.5,167.3,1035.5,168.1z M1032.9,184.2v-12.6h2.3v12.6H1032.9z"/>
		<path class="st9" d="M1049.9,165.8V181c0,1.1,0,2.4,0.1,3.3h-2.1l-0.1-2.2h-0.1c-0.7,1.4-2.2,2.5-4.3,2.5c-3,0-5.4-2.6-5.4-6.4
			c0-4.2,2.6-6.8,5.6-6.8c1.9,0,3.2,0.9,3.8,1.9h0.1v-7.5H1049.9z M1047.6,176.8c0-0.3,0-0.7-0.1-1c-0.3-1.5-1.6-2.7-3.3-2.7
			c-2.4,0-3.8,2.1-3.8,4.9c0,2.5,1.2,4.7,3.7,4.7c1.5,0,2.9-1,3.4-2.7c0.1-0.3,0.1-0.6,0.1-1L1047.6,176.8L1047.6,176.8z"/>
		<path class="st9" d="M1055,178.4c0.1,3.1,2,4.4,4.3,4.4c1.6,0,2.6-0.3,3.5-0.7l0.4,1.6c-0.8,0.4-2.2,0.8-4.2,0.8
			c-3.9,0-6.2-2.5-6.2-6.3s2.2-6.8,5.9-6.8c4.1,0,5.2,3.6,5.2,5.9c0,0.5-0.1,0.8-0.1,1.1H1055z M1061.7,176.7c0-1.5-0.6-3.7-3.2-3.7
			c-2.3,0-3.3,2.1-3.5,3.7H1061.7z"/>
		<path class="st9" d="M305.5,197v15.2c0,1.1,0,2.4,0.1,3.3h-2.1l-0.1-2.2h-0.1c-0.7,1.4-2.2,2.5-4.3,2.5c-3,0-5.4-2.6-5.4-6.4
			c0-4.2,2.6-6.8,5.6-6.8c1.9,0,3.2,0.9,3.8,1.9h0.1V197H305.5z M303.2,208c0-0.3,0-0.7-0.1-1c-0.3-1.5-1.6-2.7-3.3-2.7
			c-2.4,0-3.8,2.1-3.8,4.9c0,2.5,1.2,4.7,3.7,4.7c1.5,0,2.9-1,3.4-2.7c0.1-0.3,0.1-0.6,0.1-1L303.2,208L303.2,208z"/>
		<path class="st9" d="M311.9,199.3c0,0.8-0.5,1.4-1.5,1.4c-0.8,0-1.4-0.6-1.4-1.4c0-0.8,0.6-1.4,1.4-1.4
			C311.3,197.9,311.9,198.5,311.9,199.3z M309.3,215.4v-12.6h2.3v12.6H309.3z"/>
		<path class="st9" d="M315.1,213.1c0.7,0.4,1.9,0.9,3,0.9c1.7,0,2.4-0.8,2.4-1.9c0-1.1-0.7-1.7-2.3-2.3c-2.3-0.8-3.3-2.1-3.3-3.6
			c0-2,1.6-3.7,4.3-3.7c1.3,0,2.4,0.4,3.1,0.8l-0.6,1.7c-0.5-0.3-1.4-0.7-2.6-0.7c-1.4,0-2.1,0.8-2.1,1.7c0,1,0.8,1.5,2.4,2.1
			c2.2,0.8,3.3,1.9,3.3,3.8c0,2.2-1.7,3.8-4.7,3.8c-1.4,0-2.7-0.3-3.5-0.9L315.1,213.1z"/>
		<path class="st9" d="M334.7,215c-0.6,0.3-1.9,0.7-3.6,0.7c-3.8,0-6.3-2.6-6.3-6.4c0-3.9,2.7-6.7,6.8-6.7c1.4,0,2.5,0.3,3.2,0.7
			l-0.5,1.8c-0.5-0.3-1.4-0.6-2.7-0.6c-2.9,0-4.4,2.1-4.4,4.8c0,2.9,1.9,4.7,4.4,4.7c1.3,0,2.2-0.3,2.8-0.6L334.7,215z"/>
		<path class="st9" d="M348.6,209.1c0,4.7-3.2,6.7-6.3,6.7c-3.4,0-6-2.5-6-6.5c0-4.2,2.8-6.7,6.2-6.7
			C346.1,202.6,348.6,205.2,348.6,209.1z M338.6,209.2c0,2.8,1.6,4.8,3.8,4.8c2.2,0,3.8-2.1,3.8-4.9c0-2.1-1.1-4.8-3.8-4.8
			S338.6,206.8,338.6,209.2z"/>
		<path class="st9" d="M362,212c0,1.3,0,2.4,0.1,3.4h-2l-0.1-2.1h-0.1c-0.6,1-1.9,2.3-4.2,2.3c-2,0-4.3-1.1-4.3-5.5v-7.4h2.3v7
			c0,2.4,0.7,4,2.8,4c1.5,0,2.6-1.1,3-2.1c0.1-0.3,0.2-0.8,0.2-1.2v-7.7h2.3L362,212L362,212z"/>
		<path class="st9" d="M365.8,206.3c0-1.3,0-2.4-0.1-3.4h2l0.1,2.1h0.1c0.6-1.2,2.1-2.4,4.2-2.4c1.7,0,4.4,1,4.4,5.4v7.5h-2.3v-7.3
			c0-2-0.8-3.7-2.9-3.7c-1.5,0-2.7,1.1-3.1,2.3c-0.1,0.3-0.2,0.7-0.2,1.1v7.6h-2.3L365.8,206.3L365.8,206.3z"/>
		<path class="st9" d="M382.9,199.2v3.6h3.3v1.7h-3.3v6.8c0,1.6,0.4,2.4,1.7,2.4c0.6,0,1-0.1,1.3-0.2l0.1,1.7
			c-0.4,0.2-1.1,0.3-2,0.3c-1.1,0-1.9-0.3-2.5-1s-0.9-1.8-0.9-3.3v-6.9h-2v-1.7h2v-3L382.9,199.2z"/>
		<path class="st9" d="M388.4,213.1c0.7,0.4,1.9,0.9,3,0.9c1.7,0,2.4-0.8,2.4-1.9c0-1.1-0.7-1.7-2.3-2.3c-2.3-0.8-3.3-2.1-3.3-3.6
			c0-2,1.6-3.7,4.3-3.7c1.3,0,2.4,0.4,3.1,0.8L395,205c-0.5-0.3-1.4-0.7-2.6-0.7c-1.4,0-2.1,0.8-2.1,1.7c0,1,0.8,1.5,2.4,2.1
			c2.2,0.8,3.3,1.9,3.3,3.8c0,2.2-1.7,3.8-4.7,3.8c-1.4,0-2.7-0.3-3.5-0.9L388.4,213.1z"/>
		<path class="st9" d="M415.3,209.1c0,4.7-3.2,6.7-6.3,6.7c-3.4,0-6-2.5-6-6.5c0-4.2,2.8-6.7,6.2-6.7
			C412.8,202.6,415.3,205.2,415.3,209.1z M405.3,209.2c0,2.8,1.6,4.8,3.8,4.8c2.2,0,3.8-2.1,3.8-4.9c0-2.1-1.1-4.8-3.8-4.8
			S405.3,206.8,405.3,209.2z"/>
		<path class="st9" d="M418.4,215.4v-10.8h-1.8v-1.7h1.8v-0.6c0-1.8,0.4-3.4,1.5-4.4c0.9-0.8,2-1.2,3.1-1.2c0.8,0,1.5,0.2,2,0.4
			l-0.3,1.8c-0.3-0.2-0.8-0.3-1.5-0.3c-2,0-2.4,1.7-2.4,3.6v0.7h3v1.7h-3v10.8H418.4z"/>
		<path class="st9" d="M441.1,212c0,1.3,0,2.4,0.1,3.4h-2l-0.1-2.1H439c-0.6,1-1.9,2.3-4.2,2.3c-2,0-4.3-1.1-4.3-5.5v-7.4h2.3v7
			c0,2.4,0.7,4,2.8,4c1.5,0,2.6-1.1,3-2.1c0.1-0.3,0.2-0.8,0.2-1.2v-7.7h2.3L441.1,212L441.1,212z"/>
		<path class="st9" d="M444.9,207c0-1.6-0.1-2.9-0.1-4.1h2.1l0.1,2.2h0.1c0.9-1.5,2.4-2.4,4.5-2.4c3,0,5.3,2.6,5.3,6.4
			c0,4.5-2.8,6.8-5.7,6.8c-1.7,0-3.1-0.7-3.9-2h-0.1v6.8h-2.3V207z M447.2,210.3c0,0.3,0.1,0.6,0.1,0.9c0.4,1.6,1.8,2.7,3.4,2.7
			c2.4,0,3.8-2,3.8-4.9c0-2.5-1.3-4.7-3.7-4.7c-1.6,0-3,1.1-3.5,2.8c-0.1,0.3-0.2,0.6-0.2,0.9v2.3H447.2z"/>
		<path class="st9" d="M467.3,199.2v3.6h3.3v1.7h-3.3v6.8c0,1.6,0.4,2.4,1.7,2.4c0.6,0,1-0.1,1.3-0.2l0.1,1.7
			c-0.4,0.2-1.1,0.3-2,0.3c-1.1,0-1.9-0.3-2.5-1s-0.9-1.8-0.9-3.3v-6.9h-2v-1.7h2v-3L467.3,199.2z"/>
		<path class="st9" d="M484.4,209.1c0,4.7-3.2,6.7-6.3,6.7c-3.4,0-6-2.5-6-6.5c0-4.2,2.8-6.7,6.2-6.7
			C482,202.6,484.4,205.2,484.4,209.1z M474.4,209.2c0,2.8,1.6,4.8,3.8,4.8c2.2,0,3.8-2.1,3.8-4.9c0-2.1-1.1-4.8-3.8-4.8
			S474.4,206.8,474.4,209.2z"/>
		<path class="st9" d="M492,212.8c0.6,0.4,2.2,1.1,3.7,1.1c2.9,0,3.8-1.9,3.8-3.3c0-2.4-2.2-3.4-4.4-3.4h-1.3v-1.7h1.3
			c1.7,0,3.8-0.9,3.8-2.9c0-1.4-0.9-2.5-3-2.5c-1.4,0-2.7,0.6-3.4,1.1l-0.6-1.7c0.9-0.7,2.6-1.3,4.4-1.3c3.3,0,4.8,2,4.8,4
			c0,1.7-1,3.2-3.1,4v0.1c2.1,0.4,3.8,2,3.8,4.3c0,2.7-2.1,5.1-6.2,5.1c-1.9,0-3.6-0.6-4.4-1.1L492,212.8z"/>
		<path class="st9" d="M516,206.8c0,5.7-2.1,8.9-5.9,8.9c-3.3,0-5.5-3.1-5.6-8.7c0-5.7,2.4-8.8,5.9-8.8
			C514,198.3,516,201.4,516,206.8z M506.8,207.1c0,4.4,1.4,6.9,3.4,6.9c2.3,0,3.5-2.7,3.5-7c0-4.2-1.1-6.9-3.4-6.9
			C508.3,200,506.8,202.5,506.8,207.1z"/>
		<path class="st9" d="M525.7,203.3c0,3.6-1.9,5.3-4.1,5.3c-2.1,0-3.9-1.7-4-5.1c0-3.4,1.8-5.3,4.1-5.3
			C524.2,198.3,525.7,200.1,525.7,203.3z M519.5,203.5c-0.1,2.2,0.8,3.8,2.2,3.8c1.5,0,2.2-1.6,2.2-3.8c0-2.1-0.6-3.8-2.2-3.8
			C520.3,199.6,519.5,201.3,519.5,203.5z M521.5,215.7l9.9-17.5h1.5l-9.9,17.5H521.5z M536.7,210.3c0,3.6-1.9,5.3-4,5.3
			s-3.9-1.7-4-5.1c0-3.4,1.8-5.3,4.1-5.3C535.2,205.3,536.7,207.1,536.7,210.3z M530.5,210.5c0,2.2,0.8,3.8,2.2,3.8
			c1.5,0,2.2-1.6,2.2-3.8c0-2.1-0.6-3.8-2.2-3.8C531.3,206.6,530.5,208.3,530.5,210.5z"/>
		<path class="st9" d="M547,199.2v3.6h3.3v1.7H547v6.8c0,1.6,0.4,2.4,1.7,2.4c0.6,0,1-0.1,1.3-0.2l0.1,1.7c-0.4,0.2-1.1,0.3-2,0.3
			c-1.1,0-1.9-0.3-2.5-1s-0.9-1.8-0.9-3.3v-6.9h-2v-1.7h2v-3L547,199.2z"/>
		<path class="st9" d="M564.1,209.1c0,4.7-3.2,6.7-6.3,6.7c-3.4,0-6-2.5-6-6.5c0-4.2,2.8-6.7,6.2-6.7
			C561.7,202.6,564.1,205.2,564.1,209.1z M554.1,209.2c0,2.8,1.6,4.8,3.8,4.8s3.8-2.1,3.8-4.9c0-2.1-1.1-4.8-3.8-4.8
			S554.1,206.8,554.1,209.2z"/>
		<path class="st9" d="M583.3,209.1c0,4.7-3.2,6.7-6.3,6.7c-3.4,0-6-2.5-6-6.5c0-4.2,2.8-6.7,6.2-6.7
			C580.8,202.6,583.3,205.2,583.3,209.1z M573.3,209.2c0,2.8,1.6,4.8,3.8,4.8s3.8-2.1,3.8-4.9c0-2.1-1.1-4.8-3.8-4.8
			S573.3,206.8,573.3,209.2z"/>
		<path class="st9" d="M596.7,212c0,1.3,0,2.4,0.1,3.4h-2l-0.1-2.1h-0.1c-0.6,1-1.9,2.3-4.2,2.3c-2,0-4.3-1.1-4.3-5.5v-7.4h2.3v7
			c0,2.4,0.7,4,2.8,4c1.5,0,2.6-1.1,3-2.1c0.1-0.3,0.2-0.8,0.2-1.2v-7.7h2.3V212z"/>
		<path class="st9" d="M600.5,206.8c0-1.5,0-2.8-0.1-3.9h2l0.1,2.5h0.1c0.6-1.7,2-2.8,3.5-2.8c0.3,0,0.4,0,0.6,0.1v2.2
			c-0.2-0.1-0.5-0.1-0.8-0.1c-1.6,0-2.8,1.2-3.1,2.9c-0.1,0.3-0.1,0.7-0.1,1.1v6.7h-2.3L600.5,206.8L600.5,206.8z"/>
		<path class="st9" d="M613.5,213.1c0.7,0.4,1.9,0.9,3,0.9c1.7,0,2.4-0.8,2.4-1.9c0-1.1-0.6-1.7-2.3-2.3c-2.3-0.8-3.3-2.1-3.3-3.6
			c0-2,1.6-3.7,4.3-3.7c1.3,0,2.4,0.4,3.1,0.8l-0.6,1.7c-0.5-0.3-1.4-0.7-2.6-0.7c-1.4,0-2.1,0.8-2.1,1.7c0,1,0.8,1.5,2.4,2.1
			c2.2,0.8,3.3,1.9,3.3,3.8c0,2.2-1.7,3.8-4.7,3.8c-1.4,0-2.7-0.3-3.5-0.9L613.5,213.1z"/>
		<path class="st9" d="M626.9,199.2v3.6h3.3v1.7h-3.3v6.8c0,1.6,0.4,2.4,1.7,2.4c0.6,0,1-0.1,1.3-0.2l0.1,1.7
			c-0.4,0.2-1.1,0.3-2,0.3c-1.1,0-1.9-0.3-2.5-1s-0.9-1.8-0.9-3.3v-6.9h-2v-1.7h2v-3L626.9,199.2z"/>
		<path class="st9" d="M643.3,212c0,1.3,0,2.4,0.1,3.4h-2l-0.1-2.1h-0.1c-0.6,1-1.9,2.3-4.2,2.3c-2,0-4.3-1.1-4.3-5.5v-7.4h2.3v7
			c0,2.4,0.7,4,2.8,4c1.5,0,2.6-1.1,3-2.1c0.1-0.3,0.2-0.8,0.2-1.2v-7.7h2.3V212z"/>
		<path class="st9" d="M657.9,197v15.2c0,1.1,0,2.4,0.1,3.3h-2l-0.1-2.2h-0.1c-0.7,1.4-2.2,2.5-4.3,2.5c-3,0-5.4-2.6-5.4-6.4
			c0-4.2,2.6-6.8,5.6-6.8c1.9,0,3.2,0.9,3.8,1.9h0.1V197H657.9z M655.6,208c0-0.3,0-0.7-0.1-1c-0.3-1.5-1.6-2.7-3.3-2.7
			c-2.4,0-3.8,2.1-3.8,4.9c0,2.5,1.2,4.7,3.7,4.7c1.5,0,2.9-1,3.4-2.7c0.1-0.3,0.1-0.6,0.1-1L655.6,208L655.6,208z"/>
		<path class="st9" d="M663,209.6c0.1,3.1,2,4.4,4.3,4.4c1.6,0,2.6-0.3,3.5-0.6l0.4,1.6c-0.8,0.4-2.2,0.8-4.2,0.8
			c-3.9,0-6.2-2.5-6.2-6.3s2.2-6.8,5.9-6.8c4.1,0,5.2,3.6,5.2,5.9c0,0.5-0.1,0.8-0.1,1.1L663,209.6L663,209.6z M669.7,207.9
			c0-1.5-0.6-3.7-3.2-3.7c-2.3,0-3.3,2.1-3.5,3.7H669.7z"/>
		<path class="st9" d="M674.8,206.3c0-1.3,0-2.4-0.1-3.4h2l0.1,2.1h0.1c0.6-1.2,2.1-2.4,4.2-2.4c1.7,0,4.4,1,4.4,5.4v7.5h-2.3v-7.3
			c0-2-0.8-3.7-2.9-3.7c-1.5,0-2.7,1.1-3.1,2.3c-0.1,0.3-0.2,0.7-0.2,1.1v7.6h-2.3L674.8,206.3L674.8,206.3z"/>
		<path class="st9" d="M691.8,199.2v3.6h3.3v1.7h-3.3v6.8c0,1.6,0.4,2.4,1.7,2.4c0.6,0,1-0.1,1.3-0.2l0.1,1.7
			c-0.4,0.2-1.1,0.3-2,0.3c-1.1,0-1.9-0.3-2.5-1s-0.9-1.8-0.9-3.3v-6.9h-2v-1.7h2v-3L691.8,199.2z"/>
		<path class="st9" d="M697.4,213.1c0.7,0.4,1.9,0.9,3,0.9c1.7,0,2.4-0.8,2.4-1.9c0-1.1-0.7-1.7-2.3-2.3c-2.3-0.8-3.3-2.1-3.3-3.6
			c0-2,1.6-3.7,4.3-3.7c1.3,0,2.4,0.4,3.1,0.8L704,205c-0.5-0.3-1.4-0.7-2.6-0.7c-1.4,0-2.1,0.8-2.1,1.7c0,1,0.8,1.5,2.4,2.1
			c2.2,0.8,3.3,1.9,3.3,3.8c0,2.2-1.7,3.8-4.7,3.8c-1.4,0-2.7-0.3-3.5-0.9L697.4,213.1z"/>
		<path class="st9" d="M707.1,214.1c0-1,0.6-1.6,1.6-1.6s1.5,0.7,1.5,1.6c0,0.9-0.6,1.6-1.6,1.6C707.8,215.7,707.1,215,707.1,214.1z
			"/>
		<path class="st9" d="M720.9,215.4V208l-5.5-10.1h2.6l2.5,4.8c0.7,1.3,1.2,2.4,1.7,3.6h0.1c0.5-1.1,1.1-2.3,1.8-3.6l2.5-4.8h2.6
			l-5.9,10.1v7.5h-2.4L720.9,215.4L720.9,215.4z"/>
		<path class="st9" d="M740.4,209.1c0,4.7-3.2,6.7-6.3,6.7c-3.4,0-6-2.5-6-6.5c0-4.2,2.8-6.7,6.2-6.7
			C737.9,202.6,740.4,205.2,740.4,209.1z M730.4,209.2c0,2.8,1.6,4.8,3.8,4.8s3.8-2.1,3.8-4.9c0-2.1-1.1-4.8-3.8-4.8
			S730.4,206.8,730.4,209.2z"/>
		<path class="st9" d="M753.8,212c0,1.3,0,2.4,0.1,3.4h-2l-0.1-2.1h-0.1c-0.6,1-1.9,2.3-4.2,2.3c-2,0-4.3-1.1-4.3-5.5v-7.4h2.3v7
			c0,2.4,0.7,4,2.8,4c1.5,0,2.6-1.1,3-2.1c0.1-0.3,0.2-0.8,0.2-1.2v-7.7h2.3V212z"/>
		<path class="st9" d="M773.3,197v15.2c0,1.1,0,2.4,0.1,3.3h-2.1l-0.1-2.2h-0.1c-0.7,1.4-2.2,2.5-4.3,2.5c-3,0-5.4-2.6-5.4-6.4
			c0-4.2,2.6-6.8,5.6-6.8c1.9,0,3.2,0.9,3.8,1.9h0.1V197H773.3z M771,208c0-0.3,0-0.7-0.1-1c-0.3-1.5-1.6-2.7-3.3-2.7
			c-2.4,0-3.8,2.1-3.8,4.9c0,2.5,1.2,4.7,3.7,4.7c1.5,0,2.9-1,3.4-2.7c0.1-0.3,0.1-0.6,0.1-1L771,208L771,208z"/>
		<path class="st9" d="M788.5,209.1c0,4.7-3.2,6.7-6.3,6.7c-3.4,0-6-2.5-6-6.5c0-4.2,2.8-6.7,6.2-6.7
			C786,202.6,788.5,205.2,788.5,209.1z M778.5,209.2c0,2.8,1.6,4.8,3.8,4.8s3.8-2.1,3.8-4.9c0-2.1-1.1-4.8-3.8-4.8
			S778.5,206.8,778.5,209.2z"/>
		<path class="st9" d="M796.2,206.3c0-1.3,0-2.4-0.1-3.4h2l0.1,2.1h0.1c0.6-1.2,2.1-2.4,4.2-2.4c1.7,0,4.4,1,4.4,5.4v7.5h-2.3v-7.3
			c0-2-0.8-3.7-2.9-3.7c-1.5,0-2.7,1.1-3.1,2.3c-0.1,0.3-0.2,0.7-0.2,1.1v7.6h-2.3L796.2,206.3L796.2,206.3z"/>
		<path class="st9" d="M822.1,209.1c0,4.7-3.2,6.7-6.3,6.7c-3.4,0-6-2.5-6-6.5c0-4.2,2.8-6.7,6.2-6.7
			C819.6,202.6,822.1,205.2,822.1,209.1z M812.1,209.2c0,2.8,1.6,4.8,3.8,4.8s3.8-2.1,3.8-4.9c0-2.1-1.1-4.8-3.8-4.8
			S812.1,206.8,812.1,209.2z"/>
		<path class="st9" d="M827.7,199.2v3.6h3.3v1.7h-3.3v6.8c0,1.6,0.4,2.4,1.7,2.4c0.6,0,1-0.1,1.3-0.2l0.1,1.7
			c-0.4,0.2-1.1,0.3-2,0.3c-1.1,0-1.9-0.3-2.5-1s-0.9-1.8-0.9-3.3v-6.9h-2v-1.7h2v-3L827.7,199.2z"/>
		<path class="st9" d="M838.4,206.3c0-1.3,0-2.4-0.1-3.4h2l0.1,2.1h0.1c0.6-1.2,2.1-2.4,4.2-2.4c1.7,0,4.4,1,4.4,5.4v7.5h-2.3v-7.3
			c0-2-0.8-3.7-2.9-3.7c-1.5,0-2.7,1.1-3.1,2.3c-0.1,0.3-0.2,0.7-0.2,1.1v7.6h-2.3L838.4,206.3L838.4,206.3z"/>
		<path class="st9" d="M854.1,209.6c0.1,3.1,2,4.4,4.3,4.4c1.6,0,2.6-0.3,3.5-0.6l0.4,1.6c-0.8,0.4-2.2,0.8-4.2,0.8
			c-3.9,0-6.2-2.5-6.2-6.3s2.2-6.8,5.9-6.8c4.1,0,5.2,3.6,5.2,5.9c0,0.5-0.1,0.8-0.1,1.1L854.1,209.6L854.1,209.6z M860.8,207.9
			c0-1.5-0.6-3.7-3.2-3.7c-2.3,0-3.3,2.1-3.5,3.7H860.8z"/>
		<path class="st9" d="M867.1,209.6c0.1,3.1,2,4.4,4.3,4.4c1.6,0,2.6-0.3,3.5-0.6l0.4,1.6c-0.8,0.4-2.2,0.8-4.2,0.8
			c-3.9,0-6.2-2.5-6.2-6.3s2.2-6.8,5.9-6.8c4.1,0,5.2,3.6,5.2,5.9c0,0.5-0.1,0.8-0.1,1.1L867.1,209.6L867.1,209.6z M873.8,207.9
			c0-1.5-0.6-3.7-3.2-3.7c-2.3,0-3.3,2.1-3.5,3.7H873.8z"/>
		<path class="st9" d="M889.8,197v15.2c0,1.1,0,2.4,0.1,3.3h-2.1l-0.1-2.2h-0.1c-0.7,1.4-2.2,2.5-4.3,2.5c-3,0-5.4-2.6-5.4-6.4
			c0-4.2,2.6-6.8,5.6-6.8c1.9,0,3.2,0.9,3.8,1.9h0.1V197H889.8z M887.5,208c0-0.3,0-0.7-0.1-1c-0.3-1.5-1.6-2.7-3.3-2.7
			c-2.4,0-3.8,2.1-3.8,4.9c0,2.5,1.2,4.7,3.7,4.7c1.5,0,2.9-1,3.4-2.7c0.1-0.3,0.1-0.6,0.1-1L887.5,208L887.5,208z"/>
		<path class="st9" d="M901.2,199.2v3.6h3.3v1.7h-3.3v6.8c0,1.6,0.4,2.4,1.7,2.4c0.6,0,1-0.1,1.3-0.2l0.1,1.7
			c-0.4,0.2-1.1,0.3-2,0.3c-1.1,0-1.9-0.3-2.5-1c-0.7-0.7-0.9-1.8-0.9-3.3v-6.9H897v-1.7h1.9v-3L901.2,199.2z"/>
		<path class="st9" d="M918.3,209.1c0,4.7-3.2,6.7-6.3,6.7c-3.4,0-6-2.5-6-6.5c0-4.2,2.8-6.7,6.2-6.7
			C915.8,202.6,918.3,205.2,918.3,209.1z M908.3,209.2c0,2.8,1.6,4.8,3.8,4.8s3.8-2.1,3.8-4.9c0-2.1-1.1-4.8-3.8-4.8
			S908.3,206.8,908.3,209.2z"/>
		<path class="st9" d="M936.8,202.9c-0.1,0.9-0.1,1.9-0.1,3.5v7.3c0,2.9-0.6,4.7-1.8,5.7c-1.2,1.1-3,1.5-4.6,1.5
			c-1.5,0-3.2-0.4-4.2-1l0.6-1.7c0.8,0.5,2.1,1,3.7,1c2.3,0,4.1-1.2,4.1-4.4v-1.4h-0.1c-0.7,1.2-2.1,2.1-4,2.1
			c-3.1,0-5.4-2.7-5.4-6.1c0-4.3,2.8-6.7,5.7-6.7c2.2,0,3.4,1.1,3.9,2.2h0.1l0.1-1.9h2V202.9z M934.5,207.8c0-0.4,0-0.7-0.1-1
			c-0.4-1.3-1.5-2.4-3.2-2.4c-2.2,0-3.7,1.8-3.7,4.8c0,2.5,1.2,4.5,3.7,4.5c1.4,0,2.7-0.9,3.2-2.3c0.1-0.4,0.2-0.8,0.2-1.2v-2.4
			L934.5,207.8L934.5,207.8z"/>
		<path class="st9" d="M951.9,209.1c0,4.7-3.2,6.7-6.3,6.7c-3.4,0-6-2.5-6-6.5c0-4.2,2.8-6.7,6.2-6.7
			C949.5,202.6,951.9,205.2,951.9,209.1z M941.9,209.2c0,2.8,1.6,4.8,3.8,4.8s3.8-2.1,3.8-4.9c0-2.1-1.1-4.8-3.8-4.8
			S941.9,206.8,941.9,209.2z"/>
		<path class="st9" d="M966.6,215.4l-0.2-1.6h-0.1c-0.7,1-2.1,1.9-3.8,1.9c-2.5,0-3.8-1.8-3.8-3.6c0-3,2.7-4.7,7.6-4.7v-0.3
			c0-1-0.3-2.9-2.9-2.9c-1.2,0-2.4,0.4-3.3,0.9l-0.5-1.5c1-0.7,2.5-1.1,4.1-1.1c3.8,0,4.8,2.6,4.8,5.1v4.7c0,1.1,0.1,2.2,0.2,3h-2.1
			V215.4z M966.3,209c-2.5-0.1-5.3,0.4-5.3,2.8c0,1.5,1,2.2,2.2,2.2c1.6,0,2.7-1,3-2.1c0.1-0.2,0.1-0.5,0.1-0.7V209z"/>
		<path class="st9" d="M972.2,206.3c0-1.3,0-2.4-0.1-3.4h2l0.1,2.1h0.1c0.6-1.2,2.1-2.4,4.2-2.4c1.7,0,4.4,1,4.4,5.4v7.5h-2.3v-7.3
			c0-2-0.8-3.7-2.9-3.7c-1.5,0-2.7,1.1-3.1,2.3c-0.1,0.3-0.2,0.7-0.2,1.1v7.6h-2.3L972.2,206.3L972.2,206.3z"/>
		<path class="st9" d="M987.1,202.9l2.8,7.4c0.3,0.8,0.6,1.8,0.8,2.6h0.1c0.2-0.8,0.5-1.7,0.8-2.6l2.5-7.4h2.4l-3.4,9
			c-1.6,4.3-2.8,6.5-4.3,7.9c-1.1,1-2.2,1.4-2.8,1.5l-0.6-1.9c0.6-0.2,1.3-0.5,2-1.1c0.6-0.5,1.4-1.4,1.9-2.5
			c0.1-0.2,0.2-0.4,0.2-0.5s-0.1-0.3-0.2-0.6l-4.7-11.6h2.5V202.9z"/>
		<path class="st9" d="M999.8,202.9l1.7,6.4c0.4,1.4,0.7,2.7,0.9,4h0.1c0.3-1.3,0.7-2.6,1.1-4l2.1-6.4h1.9l2,6.3
			c0.5,1.5,0.8,2.8,1.1,4.1h0.1c0.2-1.3,0.5-2.6,1-4.1l1.8-6.3h2.3l-4.1,12.6h-2.1l-1.9-6c-0.4-1.4-0.8-2.7-1.1-4.1h-0.1
			c-0.3,1.5-0.7,2.8-1.1,4.2l-2,6h-2.1l-3.8-12.6L999.8,202.9L999.8,202.9z"/>
		<path class="st9" d="M1018,197h2.3v7.9h0.1c0.4-0.7,0.9-1.2,1.6-1.6c0.7-0.4,1.5-0.7,2.3-0.7c1.7,0,4.4,1,4.4,5.4v7.5h-2.3v-7.2
			c0-2-0.8-3.7-2.9-3.7c-1.5,0-2.7,1-3.1,2.3c-0.1,0.3-0.2,0.7-0.2,1.1v7.6h-2.3V197H1018z"/>
		<path class="st9" d="M1033.7,209.6c0.1,3.1,2,4.4,4.3,4.4c1.6,0,2.6-0.3,3.5-0.6l0.4,1.6c-0.8,0.4-2.2,0.8-4.2,0.8
			c-3.9,0-6.2-2.5-6.2-6.3s2.2-6.8,5.9-6.8c4.1,0,5.2,3.6,5.2,5.9c0,0.5-0.1,0.8-0.1,1.1L1033.7,209.6L1033.7,209.6z M1040.4,207.9
			c0-1.5-0.6-3.7-3.2-3.7c-2.3,0-3.3,2.1-3.5,3.7H1040.4z"/>
		<path class="st9" d="M1045.4,206.8c0-1.5,0-2.8-0.1-3.9h2l0.1,2.5h0.1c0.6-1.7,2-2.8,3.5-2.8c0.3,0,0.4,0,0.6,0.1v2.2
			c-0.2-0.1-0.5-0.1-0.8-0.1c-1.6,0-2.8,1.2-3.1,2.9c-0.1,0.3-0.1,0.7-0.1,1.1v6.7h-2.3v-8.7H1045.4z"/>
		<path class="st9" d="M1055,209.6c0.1,3.1,2,4.4,4.3,4.4c1.6,0,2.6-0.3,3.5-0.6l0.4,1.6c-0.8,0.4-2.2,0.8-4.2,0.8
			c-3.9,0-6.2-2.5-6.2-6.3s2.2-6.8,5.9-6.8c4.1,0,5.2,3.6,5.2,5.9c0,0.5-0.1,0.8-0.1,1.1L1055,209.6L1055,209.6z M1061.7,207.9
			c0-1.5-0.6-3.7-3.2-3.7c-2.3,0-3.3,2.1-3.5,3.7H1061.7z"/>
		<path class="st9" d="M306,240.3c0,4.7-3.2,6.7-6.3,6.7c-3.4,0-6-2.5-6-6.5c0-4.2,2.8-6.7,6.2-6.7C303.6,233.8,306,236.4,306,240.3
			z M296,240.4c0,2.8,1.6,4.8,3.8,4.8c2.2,0,3.8-2.1,3.8-4.9c0-2.1-1.1-4.8-3.8-4.8S296,238,296,240.4z"/>
		<path class="st9" d="M308.9,238c0-1.5,0-2.8-0.1-3.9h2l0.1,2.5h0.1c0.6-1.7,2-2.8,3.5-2.8c0.3,0,0.4,0,0.6,0.1v2.2
			c-0.2-0.1-0.5-0.1-0.8-0.1c-1.6,0-2.8,1.2-3.1,2.9c-0.1,0.3-0.1,0.7-0.1,1.1v6.7h-2.3L308.9,238L308.9,238z"/>
		<path class="st9" d="M331.9,246.2c-0.6,0.3-1.9,0.7-3.6,0.7c-3.8,0-6.3-2.6-6.3-6.4c0-3.9,2.7-6.7,6.8-6.7c1.4,0,2.5,0.3,3.2,0.7
			l-0.5,1.8c-0.5-0.3-1.4-0.6-2.7-0.6c-2.9,0-4.4,2.1-4.4,4.8c0,2.9,1.9,4.7,4.4,4.7c1.3,0,2.2-0.3,2.8-0.6L331.9,246.2z"/>
		<path class="st9" d="M341.5,246.6l-0.2-1.6h-0.1c-0.7,1-2.1,1.9-3.8,1.9c-2.5,0-3.8-1.8-3.8-3.6c0-3,2.7-4.7,7.6-4.7v-0.2
			c0-1-0.3-2.9-2.9-2.9c-1.2,0-2.4,0.4-3.3,0.9l-0.5-1.5c1-0.7,2.5-1.1,4.1-1.1c3.8,0,4.8,2.6,4.8,5.1v4.7c0,1.1,0.1,2.2,0.2,3
			L341.5,246.6L341.5,246.6z M341.2,240.2c-2.5-0.1-5.3,0.4-5.3,2.8c0,1.5,1,2.2,2.2,2.2c1.6,0,2.7-1,3-2.1c0.1-0.2,0.1-0.5,0.1-0.7
			L341.2,240.2L341.2,240.2z"/>
		<path class="st9" d="M347.1,228.2h2.3v18.5h-2.3V228.2z"/>
		<path class="st9" d="M353.2,228.2h2.3v18.5h-2.3V228.2z"/>
		<path class="st9" d="M367.6,230.4v3.6h3.3v1.7h-3.3v6.8c0,1.6,0.4,2.4,1.7,2.4c0.6,0,1-0.1,1.3-0.2l0.1,1.7
			c-0.4,0.2-1.1,0.3-2,0.3c-1.1,0-1.9-0.3-2.5-1s-0.9-1.8-0.9-3.3v-6.9h-2v-1.7h2v-3L367.6,230.4z"/>
		<path class="st9" d="M384.7,240.3c0,4.7-3.2,6.7-6.3,6.7c-3.4,0-6-2.5-6-6.5c0-4.2,2.8-6.7,6.2-6.7
			C382.3,233.8,384.7,236.4,384.7,240.3z M374.7,240.4c0,2.8,1.6,4.8,3.8,4.8c2.2,0,3.8-2.1,3.8-4.9c0-2.1-1.1-4.8-3.8-4.8
			S374.7,238,374.7,240.4z"/>
		<path class="st9" d="M393,246.6c0.1-0.9,0.1-2.1,0.1-3.3v-15.2h2.3v7.9h0.1c0.8-1.4,2.3-2.3,4.3-2.3c3.1,0,5.3,2.6,5.3,6.4
			c0,4.5-2.8,6.7-5.6,6.7c-1.8,0-3.3-0.7-4.2-2.4h-0.1l-0.1,2.1H393V246.6z M395.4,241.6c0,0.3,0.1,0.6,0.1,0.8
			c0.4,1.6,1.8,2.7,3.4,2.7c2.4,0,3.8-2,3.8-4.8c0-2.5-1.3-4.7-3.7-4.7c-1.6,0-3,1.1-3.5,2.8c-0.1,0.3-0.1,0.6-0.1,0.9L395.4,241.6
			L395.4,241.6z"/>
		<path class="st9" d="M419.3,240.3c0,4.7-3.2,6.7-6.3,6.7c-3.4,0-6-2.5-6-6.5c0-4.2,2.8-6.7,6.2-6.7
			C416.9,233.8,419.3,236.4,419.3,240.3z M409.3,240.4c0,2.8,1.6,4.8,3.8,4.8c2.2,0,3.8-2.1,3.8-4.9c0-2.1-1.1-4.8-3.8-4.8
			S409.3,238,409.3,240.4z"/>
		<path class="st9" d="M433.6,240.3c0,4.7-3.2,6.7-6.3,6.7c-3.4,0-6-2.5-6-6.5c0-4.2,2.8-6.7,6.2-6.7
			C431.1,233.8,433.6,236.4,433.6,240.3z M423.6,240.4c0,2.8,1.6,4.8,3.8,4.8c2.2,0,3.8-2.1,3.8-4.9c0-2.1-1.1-4.8-3.8-4.8
			S423.6,238,423.6,240.4z"/>
		<path class="st9" d="M438.7,239.8L438.7,239.8c0.4-0.4,0.8-1,1.2-1.4l3.7-4.3h2.8l-4.9,5.2l5.5,7.4h-2.8l-4.3-6l-1.2,1.3v4.7h-2.3
			v-18.5h2.3L438.7,239.8L438.7,239.8z"/>
		<path class="st9" d="M461.1,246.6l-0.2-1.6h-0.1c-0.7,1-2.1,1.9-3.8,1.9c-2.5,0-3.8-1.8-3.8-3.6c0-3,2.7-4.7,7.6-4.7v-0.2
			c0-1-0.3-2.9-2.9-2.9c-1.2,0-2.4,0.4-3.3,0.9l-0.5-1.5c1-0.7,2.5-1.1,4.1-1.1c3.8,0,4.8,2.6,4.8,5.1v4.7c0,1.1,0.1,2.2,0.2,3
			L461.1,246.6L461.1,246.6z M460.8,240.2c-2.5-0.1-5.3,0.4-5.3,2.8c0,1.5,1,2.2,2.2,2.2c1.6,0,2.7-1,3-2.1c0.1-0.2,0.1-0.5,0.1-0.7
			L460.8,240.2L460.8,240.2z"/>
		<path class="st9" d="M481.2,246.2c-0.6,0.3-1.9,0.7-3.6,0.7c-3.8,0-6.3-2.6-6.3-6.4c0-3.9,2.7-6.7,6.8-6.7c1.4,0,2.5,0.3,3.2,0.7
			l-0.5,1.8c-0.5-0.3-1.4-0.6-2.7-0.6c-2.9,0-4.4,2.1-4.4,4.8c0,2.9,1.9,4.7,4.4,4.7c1.3,0,2.2-0.3,2.8-0.6L481.2,246.2z"/>
		<path class="st9" d="M495.1,240.3c0,4.7-3.2,6.7-6.3,6.7c-3.4,0-6-2.5-6-6.5c0-4.2,2.8-6.7,6.2-6.7
			C492.7,233.8,495.1,236.4,495.1,240.3z M485.1,240.4c0,2.8,1.6,4.8,3.8,4.8c2.2,0,3.8-2.1,3.8-4.9c0-2.1-1.1-4.8-3.8-4.8
			S485.1,238,485.1,240.4z"/>
		<path class="st9" d="M508.5,243.2c0,1.3,0,2.4,0.1,3.4h-2l-0.1-2.1h-0.1c-0.6,1-1.9,2.3-4.2,2.3c-2,0-4.3-1.1-4.3-5.5v-7.4h2.3v7
			c0,2.4,0.7,4,2.8,4c1.5,0,2.6-1.1,3-2.1c0.1-0.3,0.2-0.8,0.2-1.2v-7.7h2.3L508.5,243.2L508.5,243.2z"/>
		<path class="st9" d="M512.3,238c0-1.5,0-2.8-0.1-3.9h2l0.1,2.5h0.1c0.6-1.7,2-2.8,3.5-2.8c0.3,0,0.4,0,0.6,0.1v2.2
			c-0.2-0.1-0.5-0.1-0.8-0.1c-1.6,0-2.8,1.2-3.1,2.9c-0.1,0.3-0.1,0.7-0.1,1.1v6.7h-2.3L512.3,238L512.3,238z"/>
		<path class="st9" d="M520.5,244.3c0.7,0.4,1.9,0.9,3,0.9c1.7,0,2.4-0.8,2.4-1.9c0-1.1-0.7-1.7-2.3-2.3c-2.3-0.8-3.3-2.1-3.3-3.6
			c0-2,1.6-3.7,4.3-3.7c1.3,0,2.4,0.4,3.1,0.8l-0.6,1.7c-0.5-0.3-1.4-0.7-2.6-0.7c-1.4,0-2.1,0.8-2.1,1.7c0,1,0.8,1.5,2.4,2.1
			c2.2,0.8,3.3,1.9,3.3,3.8c0,2.2-1.7,3.8-4.7,3.8c-1.4,0-2.7-0.3-3.5-0.9L520.5,244.3z"/>
		<path class="st9" d="M532.4,240.8c0.1,3.1,2,4.4,4.3,4.4c1.6,0,2.6-0.3,3.5-0.6l0.4,1.6c-0.8,0.4-2.2,0.8-4.2,0.8
			c-3.9,0-6.2-2.5-6.2-6.3s2.2-6.8,5.9-6.8c4.1,0,5.2,3.6,5.2,5.9c0,0.5-0.1,0.8-0.1,1.1L532.4,240.8L532.4,240.8z M539.1,239.1
			c0-1.5-0.6-3.7-3.2-3.7c-2.3,0-3.3,2.1-3.5,3.7H539.1z"/>
		<path class="st9" d="M543.3,245.3c0-1,0.6-1.6,1.6-1.6s1.5,0.7,1.5,1.6c0,0.9-0.6,1.6-1.6,1.6
			C543.9,246.9,543.3,246.2,543.3,245.3z"/>
		<path class="st9" d="M557.5,246.6v-7.4l-5.5-10.1h2.6l2.5,4.8c0.7,1.3,1.2,2.4,1.7,3.6h0.1c0.5-1.1,1.1-2.3,1.8-3.6l2.5-4.8h2.6
			l-5.9,10.1v7.5h-2.4L557.5,246.6L557.5,246.6z"/>
		<path class="st9" d="M577,240.3c0,4.7-3.2,6.7-6.3,6.7c-3.4,0-6-2.5-6-6.5c0-4.2,2.8-6.7,6.2-6.7C574.6,233.8,577,236.4,577,240.3
			z M567,240.4c0,2.8,1.6,4.8,3.8,4.8s3.8-2.1,3.8-4.9c0-2.1-1.1-4.8-3.8-4.8S567,238,567,240.4z"/>
		<path class="st9" d="M590.4,243.2c0,1.3,0,2.4,0.1,3.4h-2l-0.1-2.1h-0.1c-0.6,1-1.9,2.3-4.2,2.3c-2,0-4.3-1.1-4.3-5.5v-7.4h2.3v7
			c0,2.4,0.7,4,2.8,4c1.5,0,2.6-1.1,3-2.1c0.1-0.3,0.2-0.8,0.2-1.2v-7.7h2.3V243.2z"/>
		<path class="st9" d="M608.7,246.2c-0.6,0.3-1.9,0.7-3.6,0.7c-3.8,0-6.3-2.6-6.3-6.4c0-3.9,2.7-6.7,6.8-6.7c1.4,0,2.5,0.3,3.2,0.7
			l-0.5,1.8c-0.5-0.3-1.4-0.6-2.7-0.6c-2.9,0-4.4,2.1-4.4,4.8c0,2.9,1.9,4.7,4.4,4.7c1.3,0,2.2-0.3,2.8-0.6L608.7,246.2z"/>
		<path class="st9" d="M618.3,246.6l-0.2-1.6H618c-0.7,1-2.1,1.9-3.8,1.9c-2.5,0-3.8-1.8-3.8-3.6c0-3,2.7-4.7,7.6-4.7v-0.2
			c0-1-0.3-2.9-2.9-2.9c-1.2,0-2.4,0.4-3.3,0.9l-0.5-1.5c1-0.7,2.5-1.1,4.1-1.1c3.8,0,4.8,2.6,4.8,5.1v4.7c0,1.1,0.1,2.2,0.2,3
			L618.3,246.6L618.3,246.6z M618,240.2c-2.5-0.1-5.3,0.4-5.3,2.8c0,1.5,1,2.2,2.2,2.2c1.6,0,2.7-1,3-2.1c0.1-0.2,0.1-0.5,0.1-0.7
			V240.2z"/>
		<path class="st9" d="M623.9,237.5c0-1.3,0-2.4-0.1-3.4h2l0.1,2.1h0.1c0.6-1.2,2.1-2.4,4.2-2.4c1.7,0,4.4,1,4.4,5.4v7.5h-2.3v-7.3
			c0-2-0.8-3.7-2.9-3.7c-1.5,0-2.7,1.1-3.1,2.3c-0.1,0.3-0.2,0.7-0.2,1.1v7.6h-2.3L623.9,237.5L623.9,237.5z"/>
		<path class="st9" d="M643.7,246.6c0.1-0.9,0.1-2.1,0.1-3.3v-15.2h2.3v7.9h0.1c0.8-1.4,2.3-2.3,4.3-2.3c3.1,0,5.3,2.6,5.3,6.4
			c0,4.5-2.8,6.7-5.6,6.7c-1.8,0-3.3-0.7-4.2-2.4h-0.1l-0.1,2.1h-2.1V246.6z M646.1,241.6c0,0.3,0.1,0.6,0.1,0.8
			c0.4,1.6,1.8,2.7,3.4,2.7c2.4,0,3.8-2,3.8-4.8c0-2.5-1.3-4.7-3.7-4.7c-1.6,0-3,1.1-3.5,2.8c-0.1,0.3-0.1,0.6-0.1,0.9V241.6z"/>
		<path class="st9" d="M670,240.3c0,4.7-3.2,6.7-6.3,6.7c-3.4,0-6-2.5-6-6.5c0-4.2,2.8-6.7,6.2-6.7C667.6,233.8,670,236.4,670,240.3
			z M660,240.4c0,2.8,1.6,4.8,3.8,4.8s3.8-2.1,3.8-4.9c0-2.1-1.1-4.8-3.8-4.8S660,238,660,240.4z"/>
		<path class="st9" d="M684.3,240.3c0,4.7-3.2,6.7-6.3,6.7c-3.4,0-6-2.5-6-6.5c0-4.2,2.8-6.7,6.2-6.7
			C681.9,233.8,684.3,236.4,684.3,240.3z M674.3,240.4c0,2.8,1.6,4.8,3.8,4.8s3.8-2.1,3.8-4.9c0-2.1-1.1-4.8-3.8-4.8
			S674.3,238,674.3,240.4z"/>
		<path class="st9" d="M689.4,239.8L689.4,239.8c0.4-0.4,0.8-1,1.2-1.4l3.7-4.3h2.8l-4.9,5.2l5.5,7.4H695l-4.3-6l-1.2,1.3v4.7h-2.3
			v-18.5h2.3L689.4,239.8L689.4,239.8z"/>
		<path class="st9" d="M707.4,230.5c0,0.8-0.5,1.4-1.5,1.4c-0.8,0-1.4-0.6-1.4-1.4c0-0.8,0.6-1.4,1.4-1.4
			C706.9,229.1,707.4,229.7,707.4,230.5z M704.9,246.6V234h2.3v12.6H704.9z"/>
		<path class="st9" d="M713.7,230.4v3.6h3.3v1.7h-3.3v6.8c0,1.6,0.4,2.4,1.7,2.4c0.6,0,1-0.1,1.3-0.2l0.1,1.7
			c-0.4,0.2-1.1,0.3-2,0.3c-1.1,0-1.9-0.3-2.5-1c-0.7-0.7-0.9-1.8-0.9-3.3v-6.9h-1.9v-1.7h1.9v-3L713.7,230.4z"/>
		<path class="st9" d="M732.1,246.6l-0.2-1.6h-0.1c-0.7,1-2.1,1.9-3.8,1.9c-2.5,0-3.8-1.8-3.8-3.6c0-3,2.7-4.7,7.6-4.7v-0.2
			c0-1-0.3-2.9-2.9-2.9c-1.2,0-2.4,0.4-3.3,0.9l-0.5-1.5c1-0.7,2.5-1.1,4.1-1.1c3.8,0,4.8,2.6,4.8,5.1v4.7c0,1.1,0.1,2.2,0.2,3
			L732.1,246.6L732.1,246.6z M731.7,240.2c-2.5-0.1-5.3,0.4-5.3,2.8c0,1.5,1,2.2,2.2,2.2c1.6,0,2.7-1,3-2.1c0.1-0.2,0.1-0.5,0.1-0.7
			V240.2z"/>
		<path class="st9" d="M737.6,228.2h2.3v18.5h-2.3V228.2z"/>
		<path class="st9" d="M743.8,228.2h2.3v18.5h-2.3V228.2z"/>
		<path class="st9" d="M766.8,240.3c0,4.7-3.2,6.7-6.3,6.7c-3.4,0-6-2.5-6-6.5c0-4.2,2.8-6.7,6.2-6.7
			C764.3,233.8,766.8,236.4,766.8,240.3z M756.8,240.4c0,2.8,1.6,4.8,3.8,4.8s3.8-2.1,3.8-4.9c0-2.1-1.1-4.8-3.8-4.8
			S756.8,238,756.8,240.4z"/>
		<path class="st9" d="M769.7,237.5c0-1.3,0-2.4-0.1-3.4h2l0.1,2.1h0.1c0.6-1.2,2.1-2.4,4.2-2.4c1.7,0,4.4,1,4.4,5.4v7.5h-2.3v-7.3
			c0-2-0.8-3.7-2.9-3.7c-1.5,0-2.7,1.1-3.1,2.3c-0.1,0.3-0.2,0.7-0.2,1.1v7.6h-2.3L769.7,237.5L769.7,237.5z"/>
		<path class="st9" d="M784.1,228.2h2.3v18.5h-2.3V228.2z"/>
		<path class="st9" d="M792.8,230.5c0,0.8-0.5,1.4-1.5,1.4c-0.8,0-1.4-0.6-1.4-1.4c0-0.8,0.6-1.4,1.4-1.4
			C792.2,229.1,792.8,229.7,792.8,230.5z M790.2,246.6V234h2.3v12.6H790.2z"/>
		<path class="st9" d="M796.3,237.5c0-1.3,0-2.4-0.1-3.4h2l0.1,2.1h0.1c0.6-1.2,2.1-2.4,4.2-2.4c1.7,0,4.4,1,4.4,5.4v7.5h-2.3v-7.3
			c0-2-0.8-3.7-2.9-3.7c-1.5,0-2.7,1.1-3.1,2.3c-0.1,0.3-0.2,0.7-0.2,1.1v7.6h-2.3L796.3,237.5L796.3,237.5z"/>
		<path class="st9" d="M812,240.8c0.1,3.1,2,4.4,4.3,4.4c1.6,0,2.6-0.3,3.5-0.6l0.4,1.6c-0.8,0.4-2.2,0.8-4.2,0.8
			c-3.9,0-6.2-2.5-6.2-6.3s2.2-6.8,5.9-6.8c4.1,0,5.2,3.6,5.2,5.9c0,0.5-0.1,0.8-0.1,1.1L812,240.8L812,240.8z M818.7,239.1
			c0-1.5-0.6-3.7-3.2-3.7c-2.3,0-3.3,2.1-3.5,3.7H818.7z"/>
		<path class="st9" d="M822.9,245.3c0-1,0.6-1.6,1.6-1.6s1.5,0.7,1.5,1.6c0,0.9-0.6,1.6-1.6,1.6
			C823.5,246.9,822.9,246.2,822.9,245.3z"/>
	</g>
	<g id="Layer_4_1_" class="st1">
	</g>
</g>
<g id="Layer_2">
	<g>
		<path class="st9" d="M301.6,97.7h-4.7l-7.6-28.2h5.2l4.9,21.3h0.2l5.7-21.3h4.5l5.7,21.3h0.2l4.9-21.3h5.2l-7.6,28.2h-4.7
			l-5.8-20.4h-0.2L301.6,97.7z"/>
		<path class="st9" d="M328.7,68.2h4.8v11.9h0.1c1.3-2.6,3.6-4,6.9-4c2.4,0,4.2,0.7,5.6,2.2c1.4,1.4,2.1,3.4,2.1,5.8v13.6h-4.9V85
			c0-1.5-0.4-2.7-1.3-3.5c-0.8-0.9-2-1.3-3.5-1.3c-1.5,0-2.8,0.5-3.7,1.5c-1,1-1.4,2.3-1.4,3.8v12.2h-4.9V68.2z"/>
		<path class="st9" d="M352.8,105.4v-3.9c0.2,0.1,0.7,0.1,1.3,0.1c2,0,3.3-0.9,3.8-2.8l0.3-1l-7.6-21.4h5.3l5.1,17.1h0.1l5.1-17.1
			h5.1l-7.7,22.1c-0.9,2.6-2,4.4-3.3,5.5c-1.3,1-3.2,1.5-5.6,1.5C353.7,105.5,353.1,105.4,352.8,105.4z"/>
		<path class="st9" d="M387.7,94.1h-0.1v3.6h-4.7V68.2h4.9v11.7h0.1c1.3-2.6,3.5-3.8,6.7-3.8c2.7,0,4.8,1,6.4,2.9
			c1.6,2,2.4,4.6,2.4,8c0,3.3-0.8,6-2.4,7.9c-1.6,2-3.7,2.9-6.4,2.9C391.2,97.9,389,96.6,387.7,94.1z M389.1,82.1
			c-1,1.3-1.5,2.9-1.5,5c0,2.1,0.5,3.7,1.5,5c1,1.3,2.3,1.9,3.9,1.9c1.6,0,2.9-0.6,3.9-1.9c1-1.3,1.4-2.9,1.4-5c0-2.1-0.5-3.8-1.4-5
			c-1-1.3-2.3-1.9-3.9-1.9S390.1,80.8,389.1,82.1z"/>
		<path class="st9" d="M408.4,95.1c-1.8-2-2.8-4.6-2.8-8c0-3.4,0.9-6,2.8-8c1.8-2,4.3-2.9,7.5-2.9c3.2,0,5.7,1,7.5,2.9
			c1.9,2,2.8,4.6,2.8,8c0,3.4-0.9,6.1-2.8,8c-1.8,2-4.4,2.9-7.5,2.9C412.8,98,410.3,97,408.4,95.1z M419.8,92.3
			c0.9-1.2,1.4-3,1.4-5.2c0-2.2-0.5-4-1.4-5.2c-0.9-1.3-2.2-1.9-3.9-1.9c-1.7,0-3,0.6-3.9,1.9c-1,1.3-1.4,3-1.4,5.2s0.5,4,1.4,5.2
			c0.9,1.3,2.2,1.9,3.9,1.9C417.6,94.1,418.9,93.5,419.8,92.3z"/>
		<path class="st9" d="M431.3,95.1c-1.8-2-2.8-4.6-2.8-8c0-3.4,0.9-6,2.8-8c1.8-2,4.3-2.9,7.5-2.9c3.2,0,5.7,1,7.5,2.9
			c1.9,2,2.8,4.6,2.8,8c0,3.4-0.9,6.1-2.8,8c-1.8,2-4.4,2.9-7.5,2.9C435.7,98,433.2,97,431.3,95.1z M442.8,92.3
			c0.9-1.2,1.4-3,1.4-5.2c0-2.2-0.5-4-1.4-5.2c-0.9-1.3-2.2-1.9-3.9-1.9c-1.7,0-3,0.6-3.9,1.9c-1,1.3-1.4,3-1.4,5.2s0.5,4,1.4,5.2
			c0.9,1.3,2.2,1.9,3.9,1.9C440.5,94.1,441.8,93.5,442.8,92.3z"/>
		<path class="st9" d="M465.6,76.4h5.6l-8.6,9.2l9,12.1H466l-6.9-9.2l-1.7,1.7v7.5h-4.9V68.2h4.9v17.1h0.1L465.6,76.4z"/>
		<path class="st9" d="M505.6,97.7h-5.1L496.2,82h-0.1l-4.2,15.7h-5.1L481,76.4h4.9l3.7,16.5h0.1l4.2-16.5h4.7l4.2,16.5h0.1
			l3.7-16.5h4.8L505.6,97.7z"/>
		<path class="st9" d="M514.5,72.9c-0.5-0.5-0.8-1.2-0.8-1.9c0-0.8,0.3-1.4,0.8-1.9c0.5-0.5,1.2-0.8,1.9-0.8c0.8,0,1.4,0.3,1.9,0.8
			c0.5,0.5,0.8,1.2,0.8,1.9c0,0.8-0.3,1.4-0.8,1.9c-0.5,0.5-1.2,0.8-1.9,0.8C515.7,73.6,515,73.4,514.5,72.9z M514,76.4h4.9v21.3
			H514V76.4z"/>
		<path class="st9" d="M529.4,71.6v4.8h4v3.8h-4v11.3c0,1.7,0.9,2.6,2.6,2.6c0.4,0,0.9,0,1.4-0.1v3.7c-0.6,0.1-1.4,0.2-2.6,0.2
			c-2.3,0-3.9-0.4-4.9-1.3c-1-0.9-1.5-2.4-1.5-4.4V80.1h-2.9v-3.8h2.9v-4.8H529.4z"/>
		<path class="st9" d="M537,68.2h4.8v11.9h0.1c1.3-2.6,3.6-4,6.9-4c2.4,0,4.2,0.7,5.6,2.2c1.4,1.4,2.1,3.4,2.1,5.8v13.6h-4.9V85
			c0-1.5-0.4-2.7-1.3-3.5c-0.8-0.9-2-1.3-3.5-1.3c-1.5,0-2.8,0.5-3.7,1.5c-1,1-1.4,2.3-1.4,3.8v12.2H537V68.2z"/>
		<path class="st9" d="M587.8,97.7H570V69.5h5v23.9h12.8V97.7z"/>
		<path class="st9" d="M591.7,72.9c-0.5-0.5-0.8-1.2-0.8-1.9c0-0.8,0.3-1.4,0.8-1.9c0.5-0.5,1.2-0.8,1.9-0.8c0.8,0,1.4,0.3,1.9,0.8
			c0.5,0.5,0.8,1.2,0.8,1.9c0,0.8-0.3,1.4-0.8,1.9c-0.5,0.5-1.2,0.8-1.9,0.8C592.8,73.6,592.2,73.4,591.7,72.9z M591.2,76.4h4.9
			v21.3h-4.9V76.4z"/>
		<path class="st9" d="M600.3,76.4h4.7v3.7h0.1c1.3-2.6,3.6-4,6.9-4c2.4,0,4.2,0.7,5.6,2.1s2,3.3,2,5.8v13.7h-4.9V85
			c0-1.5-0.4-2.7-1.2-3.5c-0.8-0.8-1.9-1.2-3.4-1.2c-1.5,0-2.7,0.5-3.6,1.4c-0.9,1-1.4,2.2-1.4,3.8v12.2h-4.9V76.4z"/>
		<path class="st9" d="M626.4,103.8c-1.7-1.1-2.7-2.6-2.9-4.5h4.9c0.2,0.8,0.7,1.4,1.6,1.8c0.9,0.4,1.9,0.7,3.1,0.7
			c1.6,0,2.9-0.4,3.8-1.1c1-0.8,1.4-1.8,1.4-3.1v-3.6h-0.1c-0.6,1.1-1.4,2.1-2.6,2.7c-1.2,0.7-2.6,1-4.1,1c-2.7,0-4.8-1-6.4-2.9
			c-1.6-1.9-2.4-4.5-2.4-7.8c0-3.3,0.8-5.9,2.4-7.9c1.6-2,3.8-2.9,6.5-2.9c3.2,0,5.4,1.3,6.7,3.8h0.1v-3.6h4.8v20.8
			c0,2.5-0.9,4.6-2.8,6c-1.8,1.5-4.3,2.2-7.5,2.2C630.3,105.4,628.1,104.9,626.4,103.8z M636.9,91.9c1-1.2,1.5-2.9,1.5-4.9
			c0-2.1-0.5-3.7-1.5-4.9c-1-1.3-2.3-1.9-3.9-1.9c-1.6,0-2.9,0.6-3.8,1.9c-1,1.2-1.4,2.9-1.4,5c0,2.1,0.5,3.7,1.4,4.9
			c1,1.2,2.2,1.8,3.8,1.8C634.6,93.7,635.9,93.1,636.9,91.9z"/>
		<path class="st9" d="M666.5,97.7h-4.7V94h-0.1c-1.2,2.7-3.5,4-6.8,4c-2.3,0-4.2-0.7-5.6-2.1c-1.4-1.4-2.1-3.4-2.1-5.8V76.4h4.9
			v12.7c0,1.5,0.4,2.7,1.2,3.6c0.8,0.8,1.9,1.2,3.4,1.2c1.5,0,2.7-0.5,3.6-1.4c0.9-1,1.4-2.2,1.4-3.8V76.4h4.9V97.7z"/>
		<path class="st9" d="M671.8,96.2c-1.4-1.2-2-2.7-2-4.6c0-1.9,0.7-3.4,2.1-4.5c1.4-1.1,3.5-1.7,6.2-1.9l5.5-0.3v-1.6
			c0-1.1-0.4-2-1.1-2.6c-0.7-0.6-1.7-0.9-3-0.9c-1.1,0-2,0.3-2.8,0.8c-0.7,0.5-1.2,1.2-1.4,2.1h-4.5c0.1-2,0.9-3.6,2.5-4.8
			c1.6-1.3,3.7-1.9,6.2-1.9c2.7,0,4.8,0.6,6.4,1.9c1.6,1.3,2.4,3,2.4,5.1v14.6h-4.7v-3.4h-0.1c-0.6,1.1-1.5,2-2.7,2.7
			c-1.2,0.7-2.5,1-3.9,1C674.9,97.9,673.1,97.3,671.8,96.2z M682.1,93c1-0.8,1.5-1.9,1.5-3.2v-1.6l-4.9,0.3
			c-2.7,0.2-4.1,1.2-4.1,2.9c0,0.9,0.3,1.5,1,2.1c0.7,0.5,1.6,0.8,2.7,0.8C679.9,94.2,681.1,93.8,682.1,93z"/>
		<path class="st9" d="M710.7,97.7h-17.8V69.5h5v23.9h12.8V97.7z"/>
		<path class="st9" d="M715,96.2c-1.4-1.2-2-2.7-2-4.6c0-1.9,0.7-3.4,2.1-4.5c1.4-1.1,3.5-1.7,6.2-1.9l5.5-0.3v-1.6
			c0-1.1-0.4-2-1.1-2.6c-0.7-0.6-1.7-0.9-3-0.9c-1.1,0-2,0.3-2.8,0.8c-0.7,0.5-1.2,1.2-1.4,2.1h-4.5c0.1-2,0.9-3.6,2.5-4.8
			c1.6-1.3,3.7-1.9,6.2-1.9c2.7,0,4.8,0.6,6.4,1.9c1.6,1.3,2.4,3,2.4,5.1v14.6H727v-3.4h-0.1c-0.6,1.1-1.5,2-2.7,2.7
			c-1.2,0.7-2.5,1-3.9,1C718.1,97.9,716.4,97.3,715,96.2z M725.4,93c1-0.8,1.5-1.9,1.5-3.2v-1.6l-4.9,0.3c-2.7,0.2-4.1,1.2-4.1,2.9
			c0,0.9,0.3,1.5,1,2.1c0.7,0.5,1.6,0.8,2.7,0.8C723.1,94.2,724.4,93.8,725.4,93z"/>
		<path class="st9" d="M735.7,76.4h4.7v3.7h0.1c1.3-2.6,3.6-4,6.9-4c2.4,0,4.2,0.7,5.6,2.1c1.4,1.4,2,3.3,2,5.8v13.7h-4.9V85
			c0-1.5-0.4-2.7-1.2-3.5c-0.8-0.8-1.9-1.2-3.4-1.2c-1.5,0-2.7,0.5-3.6,1.4c-0.9,1-1.4,2.2-1.4,3.8v12.2h-4.9V76.4z"/>
		<path class="st9" d="M760.6,95c-1.6-2-2.4-4.6-2.4-7.9c0-3.3,0.8-5.9,2.4-7.9c1.6-2,3.8-3,6.4-3c3.2,0,5.4,1.3,6.6,3.8h0.1V68.2
			h4.9v29.5h-4.8v-3.6h-0.1c-0.6,1.2-1.5,2.1-2.6,2.8c-1.2,0.7-2.6,1-4.1,1C764.4,97.9,762.2,96.9,760.6,95z M764.6,82
			c-1,1.3-1.5,2.9-1.5,5c0,2.1,0.5,3.8,1.5,5c1,1.2,2.3,1.9,3.9,1.9c1.6,0,2.9-0.6,3.9-1.9c1-1.3,1.5-2.9,1.5-5c0-2.1-0.5-3.7-1.5-5
			c-1-1.3-2.3-1.9-3.9-1.9C766.8,80.2,765.6,80.8,764.6,82z"/>
	</g>
</g>
</svg>
