<?xml version="1.0" encoding="utf-8"?>
<!-- Generator: Adobe Illustrator 22.1.0, SVG Export Plug-In . SVG Version: 6.00 Build 0)  -->
<svg version="1.1" id="Layer_1" xmlns="http://www.w3.org/2000/svg" xmlns:xlink="http://www.w3.org/1999/xlink" x="0px" y="0px"
	 viewBox="0 0 403.1 91.9" style="enable-background:new 0 0 403.1 91.9;" xml:space="preserve">
<style type="text/css">
	.st0{fill:none;}
	.st1{opacity:0.3;fill:#FAA819;enable-background:new    ;}
	.st2{fill:#FAA819;}
	.st3{opacity:0.63;fill:#FAA819;enable-background:new    ;}
	.st4{opacity:0.47;fill:#FAA819;enable-background:new    ;}
	.st5{fill:#FFCB6E;}
	.st6{fill:#FA8119;}
</style>
<g id="Background">
</g>
<line class="st0" x1="74.2" y1="-4.2" x2="74.1" y2="-4.2"/>
<line class="st0" x1="95.1" y1="91.9" x2="82.3" y2="91.9"/>
<path class="st1" d="M403.1,0v82.5c-3.4-2.3-7.3-3.6-11.6-4.6c-13.3-2.7-30.6-1.1-49.3-9.5c-37-16.6-15-37.8-50-46.9
	C276.2,17.4,267,8.5,261.9,0H403.1z"/>
<path class="st2" d="M403.1,0v19.3c-5.6-0.8-14.6-0.4-24.9,6.8c-1,1-2.2,1.9-3.5,2.8c-3.9,2.4-8.8,3.9-14.2,3.9
	c-12.4,0-22.4-7.6-22.4-16.9c0,0-0.4-7.3,4.4-16H403.1z"/>
<path class="st3" d="M81.1,18.9c-0.9,4.1-2.9,7.9-6.1,11.6c-12.4,14.1-37.8,18.1-56.8,8.9c-5-2.5-9-5.6-12-9c0,0-0.1-0.2-0.2-0.3
	c-0.4-0.4-0.7-0.9-1.1-1.4c-1-1.1-2.6-2.5-4.9-4V0h77.3C81.2,5.8,82.6,12.4,81.1,18.9z"/>
<path class="st4" d="M192.3,91.9H50.3c0-0.3,0-0.6,0-0.9c0-5.6,2-11.2,6.3-16.2c12.1-14.3,37.4-18.6,56.6-9.6c3,1.4,5.7,3,8,4.9
	c0.1,0.1,0.1,0.1,0.2,0.2c1.5,1.2,2.8,2.5,4.1,3.8c0,0,0.1,0.2,0.2,0.3c0.4,0.4,0.8,0.9,1.1,1.4c3.2,3.5,12.7,10.7,33.6,7.6
	c1.9-0.5,3.8-0.8,5.8-1.1c5.8-0.6,11.9,0.3,17.3,2.9C187.3,86.9,190.2,89.2,192.3,91.9z"/>
<path class="st2" d="M123.5,59.1c0,3.8-0.7,7.5-2,11c0,0.1,0,0.1-0.1,0.2c-3.2,8.7-10,16.2-19.2,21.7H0v-69
	c16.6-3.9,37-6.2,62.2-5.8c1.6-0.1,3.2-0.2,4.8-0.2c4.9,0,9.6,0.4,14.2,1.4C105.5,22.9,123.5,39.4,123.5,59.1z"/>
<ellipse class="st5" cx="343.2" cy="69.8" rx="6.7" ry="6.1"/>
<ellipse class="st6" cx="26.2" cy="24.8" rx="14.6" ry="14.6"/>
<path class="st6" d="M95.4,89.8c0,0.7-0.1,1.5-0.3,2.1H82.3c-0.2-0.7-0.3-1.4-0.3-2.1c0-3.8,3-6.9,6.7-6.9S95.4,86,95.4,89.8z"/>
<path class="st6" d="M185.3,0c-0.6,3-3.7,5.3-7.4,5.3S171.1,3,170.5,0H185.3z"/>
<path class="st6" d="M403.1,66.9v25c-6.9-1.8-11.8-6.7-11.8-12.5c0-0.8,0.1-1.5,0.3-2.2C392.5,72.4,397.1,68.5,403.1,66.9z"/>
<g>
	<path d="M86,31.5c-0.5-0.6-0.8-1.4-0.8-2.4c0-1,0.3-1.8,0.8-2.4c0.5-0.6,1.3-0.9,2.2-0.9c0.8,0,1.4,0.2,1.9,0.7
		c0.5,0.4,0.8,1,0.9,1.7h-1.3c-0.1-0.4-0.2-0.7-0.5-0.9c-0.3-0.2-0.6-0.4-1-0.4c-0.5,0-0.9,0.2-1.2,0.6c-0.3,0.4-0.4,0.9-0.4,1.6
		c0,0.7,0.1,1.2,0.4,1.6c0.3,0.4,0.7,0.6,1.2,0.6c0.4,0,0.7-0.1,1-0.3s0.4-0.5,0.5-0.9H91c-0.1,0.7-0.4,1.3-0.9,1.7
		c-0.5,0.4-1.1,0.6-1.9,0.6C87.2,32.4,86.5,32.1,86,31.5z"/>
	<path d="M92.3,25.7h1.3v2.7h0c0.3-0.6,0.8-0.9,1.6-0.9c0.5,0,1,0.2,1.3,0.5s0.5,0.8,0.5,1.3v3.1h-1.3v-2.8c0-0.3-0.1-0.6-0.3-0.7
		c-0.2-0.2-0.4-0.3-0.7-0.3c-0.3,0-0.6,0.1-0.8,0.3s-0.3,0.5-0.3,0.8v2.7h-1.3V25.7z"/>
	<path d="M98.7,31.7c-0.4-0.4-0.6-1.1-0.6-1.8c0-0.8,0.2-1.4,0.6-1.8c0.4-0.4,1-0.7,1.7-0.7c0.7,0,1.3,0.2,1.7,0.7
		c0.4,0.4,0.6,1.1,0.6,1.8c0,0.8-0.2,1.4-0.6,1.8c-0.4,0.4-1,0.7-1.7,0.7C99.7,32.4,99.1,32.2,98.7,31.7z M101.2,31
		c0.2-0.3,0.3-0.6,0.3-1.1c0-0.5-0.1-0.8-0.3-1.1c-0.2-0.3-0.5-0.4-0.8-0.4c-0.3,0-0.6,0.1-0.8,0.4c-0.2,0.3-0.3,0.6-0.3,1.1
		c0,0.5,0.1,0.9,0.3,1.1c0.2,0.3,0.5,0.4,0.8,0.4S101.1,31.3,101.2,31z"/>
	<path d="M104.5,31.7c-0.4-0.4-0.6-1.1-0.6-1.8c0-0.8,0.2-1.4,0.6-1.8c0.4-0.4,1-0.7,1.7-0.7c0.7,0,1.3,0.2,1.7,0.7
		c0.4,0.4,0.6,1.1,0.6,1.8c0,0.8-0.2,1.4-0.6,1.8c-0.4,0.4-1,0.7-1.7,0.7C105.5,32.4,105,32.2,104.5,31.7z M107.1,31
		c0.2-0.3,0.3-0.6,0.3-1.1c0-0.5-0.1-0.8-0.3-1.1c-0.2-0.3-0.5-0.4-0.8-0.4c-0.3,0-0.6,0.1-0.8,0.4c-0.2,0.3-0.3,0.6-0.3,1.1
		c0,0.5,0.1,0.9,0.3,1.1c0.2,0.3,0.5,0.4,0.8,0.4S106.9,31.3,107.1,31z"/>
	<path d="M110.4,27.8c0.4-0.3,0.9-0.4,1.5-0.4c0.6,0,1.1,0.1,1.4,0.4c0.4,0.3,0.6,0.6,0.6,1.1h-1.2c0-0.2-0.1-0.3-0.2-0.5
		c-0.1-0.1-0.3-0.2-0.6-0.2c-0.2,0-0.4,0-0.6,0.1c-0.1,0.1-0.2,0.2-0.2,0.4c0,0.2,0.2,0.4,0.6,0.5l0.9,0.2c0.5,0.1,0.8,0.3,1,0.5
		c0.2,0.2,0.3,0.5,0.3,0.8c0,0.5-0.2,0.8-0.6,1.1c-0.4,0.3-0.9,0.4-1.5,0.4c-0.6,0-1.1-0.1-1.5-0.4c-0.4-0.3-0.6-0.6-0.6-1.1h1.3
		c0.1,0.4,0.4,0.6,0.9,0.6c0.3,0,0.5,0,0.6-0.1c0.1-0.1,0.2-0.2,0.2-0.4c0-0.1,0-0.2-0.1-0.3c-0.1-0.1-0.3-0.1-0.5-0.2l-0.9-0.2
		c-0.9-0.2-1.4-0.7-1.4-1.4C109.8,28.4,110,28.1,110.4,27.8z"/>
	<path d="M119.5,30.8c-0.1,0.5-0.3,0.8-0.7,1.1c-0.4,0.3-0.9,0.4-1.5,0.4c-0.7,0-1.3-0.2-1.7-0.7c-0.4-0.4-0.6-1-0.6-1.8
		s0.2-1.4,0.6-1.8c0.4-0.5,1-0.7,1.7-0.7c0.7,0,1.3,0.2,1.7,0.7c0.4,0.4,0.6,1,0.6,1.8v0.4h-3.3v0.1c0,0.3,0.1,0.6,0.3,0.8
		c0.2,0.2,0.5,0.3,0.8,0.3c0.2,0,0.5-0.1,0.6-0.2c0.2-0.1,0.3-0.3,0.4-0.4H119.5z M116.6,28.6c-0.2,0.2-0.3,0.4-0.3,0.8h2.1
		c0-0.3-0.1-0.6-0.3-0.8s-0.4-0.3-0.7-0.3C117,28.3,116.8,28.4,116.6,28.6z"/>
	<path d="M124.9,26.4v1.1h0.9v1h-0.9v2.4c0,0.4,0.2,0.6,0.6,0.6c0.1,0,0.2,0,0.3,0v0.9c-0.2,0-0.4,0.1-0.6,0.1c-0.6,0-1-0.1-1.2-0.3
		c-0.2-0.2-0.4-0.5-0.4-1v-2.6H123v-1h0.7v-1.1H124.9z"/>
	<path d="M127.1,25.7h1.3v2.7h0c0.3-0.6,0.8-0.9,1.6-0.9c0.5,0,1,0.2,1.3,0.5s0.5,0.8,0.5,1.3v3.1h-1.3v-2.8c0-0.3-0.1-0.6-0.3-0.7
		c-0.2-0.2-0.4-0.3-0.7-0.3c-0.3,0-0.6,0.1-0.8,0.3s-0.3,0.5-0.3,0.8v2.7h-1.3V25.7z"/>
	<path d="M137.5,30.8c-0.1,0.5-0.3,0.8-0.7,1.1c-0.4,0.3-0.9,0.4-1.5,0.4c-0.7,0-1.3-0.2-1.7-0.7c-0.4-0.4-0.6-1-0.6-1.8
		s0.2-1.4,0.6-1.8c0.4-0.5,1-0.7,1.7-0.7c0.7,0,1.3,0.2,1.7,0.7c0.4,0.4,0.6,1,0.6,1.8v0.4h-3.3v0.1c0,0.3,0.1,0.6,0.3,0.8
		c0.2,0.2,0.5,0.3,0.8,0.3c0.2,0,0.5-0.1,0.6-0.2c0.2-0.1,0.3-0.3,0.4-0.4H137.5z M134.5,28.6c-0.2,0.2-0.3,0.4-0.3,0.8h2.1
		c0-0.3-0.1-0.6-0.3-0.8s-0.4-0.3-0.7-0.3C135,28.3,134.7,28.4,134.5,28.6z"/>
	<path d="M141.2,27.5h1.2v0.9h0c0.2-0.6,0.6-0.9,1.2-0.9c0.1,0,0.3,0,0.4,0v1.1c-0.1-0.1-0.3-0.1-0.5-0.1c-0.3,0-0.6,0.1-0.8,0.3
		s-0.3,0.5-0.3,0.8v2.7h-1.3V27.5z"/>
	<path d="M145.3,26.7c-0.1-0.1-0.2-0.3-0.2-0.5s0.1-0.4,0.2-0.5c0.1-0.1,0.3-0.2,0.5-0.2c0.2,0,0.4,0.1,0.5,0.2
		c0.1,0.1,0.2,0.3,0.2,0.5s-0.1,0.4-0.2,0.5s-0.3,0.2-0.5,0.2C145.6,26.9,145.4,26.9,145.3,26.7z M145.1,27.5h1.3v4.8h-1.3V27.5z"/>
	<path d="M148.5,33.7c-0.4-0.3-0.6-0.6-0.7-1h1.3c0,0.2,0.2,0.3,0.3,0.4c0.2,0.1,0.4,0.1,0.7,0.1c0.3,0,0.6-0.1,0.8-0.2
		c0.2-0.2,0.3-0.4,0.3-0.6v-0.9h0c-0.1,0.3-0.3,0.5-0.6,0.6c-0.3,0.2-0.6,0.2-0.9,0.2c-0.6,0-1.1-0.2-1.4-0.6
		c-0.4-0.4-0.5-1-0.5-1.8c0-0.8,0.2-1.4,0.5-1.8c0.4-0.4,0.8-0.7,1.5-0.7c0.3,0,0.6,0.1,0.9,0.2c0.3,0.2,0.5,0.4,0.6,0.6h0v-0.8h1.3
		v4.7c0,0.6-0.2,1-0.7,1.4c-0.4,0.3-1,0.5-1.7,0.5C149.4,34.1,148.9,33.9,148.5,33.7z M150.9,30.9c0.2-0.3,0.3-0.6,0.3-1
		c0-0.4-0.1-0.8-0.3-1c-0.2-0.3-0.5-0.4-0.8-0.4c-0.3,0-0.6,0.1-0.8,0.4s-0.3,0.6-0.3,1s0.1,0.8,0.3,1c0.2,0.2,0.5,0.4,0.8,0.4
		S150.7,31.2,150.9,30.9z"/>
	<path d="M153.9,25.7h1.3v2.7h0c0.3-0.6,0.8-0.9,1.6-0.9c0.5,0,1,0.2,1.3,0.5s0.5,0.8,0.5,1.3v3.1h-1.3v-2.8c0-0.3-0.1-0.6-0.3-0.7
		c-0.2-0.2-0.4-0.3-0.7-0.3c-0.3,0-0.6,0.1-0.8,0.3s-0.3,0.5-0.3,0.8v2.7h-1.3V25.7z"/>
	<path d="M161.5,26.4v1.1h0.9v1h-0.9v2.4c0,0.4,0.2,0.6,0.6,0.6c0.1,0,0.2,0,0.3,0v0.9c-0.2,0-0.4,0.1-0.6,0.1c-0.6,0-1-0.1-1.2-0.3
		c-0.2-0.2-0.4-0.5-0.4-1v-2.6h-0.7v-1h0.7v-1.1H161.5z"/>
	<path d="M169.3,29.2c0-0.3-0.1-0.5-0.3-0.6c-0.2-0.2-0.4-0.2-0.7-0.2c-0.3,0-0.6,0.1-0.8,0.4c-0.2,0.3-0.3,0.6-0.3,1.1
		c0,0.5,0.1,0.8,0.3,1.1c0.2,0.3,0.5,0.4,0.8,0.4c0.6,0,0.9-0.3,1-0.8h1.2c0,0.6-0.3,1-0.6,1.3c-0.4,0.3-0.9,0.5-1.5,0.5
		c-0.7,0-1.3-0.2-1.7-0.7c-0.4-0.5-0.6-1.1-0.6-1.8c0-0.8,0.2-1.4,0.6-1.8c0.4-0.5,1-0.7,1.7-0.7c0.6,0,1.2,0.2,1.6,0.5
		c0.4,0.3,0.6,0.8,0.6,1.3H169.3z"/>
	<path d="M172.2,31.7c-0.4-0.4-0.6-1.1-0.6-1.8c0-0.8,0.2-1.4,0.6-1.8c0.4-0.4,1-0.7,1.7-0.7c0.7,0,1.3,0.2,1.7,0.7
		c0.4,0.4,0.6,1.1,0.6,1.8c0,0.8-0.2,1.4-0.6,1.8c-0.4,0.4-1,0.7-1.7,0.7C173.2,32.4,172.6,32.2,172.2,31.7z M174.7,31
		c0.2-0.3,0.3-0.6,0.3-1.1c0-0.5-0.1-0.8-0.3-1.1c-0.2-0.3-0.5-0.4-0.8-0.4c-0.3,0-0.6,0.1-0.8,0.4c-0.2,0.3-0.3,0.6-0.3,1.1
		c0,0.5,0.1,0.9,0.3,1.1c0.2,0.3,0.5,0.4,0.8,0.4S174.5,31.3,174.7,31z"/>
	<path d="M182,32.3h-1.2v-0.9h0c-0.3,0.6-0.8,0.9-1.5,0.9c-0.5,0-1-0.2-1.3-0.5c-0.3-0.3-0.5-0.8-0.5-1.3v-3.1h1.3v2.8
		c0,0.3,0.1,0.6,0.3,0.7c0.2,0.2,0.4,0.3,0.7,0.3s0.5-0.1,0.7-0.3s0.3-0.5,0.3-0.8v-2.8h1.3V32.3z"/>
	<path d="M183.5,27.5h1.2v0.9h0c0.2-0.6,0.6-0.9,1.2-0.9c0.1,0,0.3,0,0.4,0v1.1c-0.1-0.1-0.3-0.1-0.5-0.1c-0.3,0-0.6,0.1-0.8,0.3
		s-0.3,0.5-0.3,0.8v2.7h-1.3V27.5z"/>
	<path d="M187.8,27.8c0.4-0.3,0.9-0.4,1.5-0.4c0.6,0,1.1,0.1,1.4,0.4c0.4,0.3,0.6,0.6,0.6,1.1h-1.2c0-0.2-0.1-0.3-0.2-0.5
		c-0.1-0.1-0.3-0.2-0.6-0.2c-0.2,0-0.4,0-0.6,0.1c-0.1,0.1-0.2,0.2-0.2,0.4c0,0.2,0.2,0.4,0.6,0.5l0.9,0.2c0.5,0.1,0.8,0.3,1,0.5
		c0.2,0.2,0.3,0.5,0.3,0.8c0,0.5-0.2,0.8-0.6,1.1c-0.4,0.3-0.9,0.4-1.5,0.4c-0.6,0-1.1-0.1-1.5-0.4c-0.4-0.3-0.6-0.6-0.6-1.1h1.3
		c0.1,0.4,0.4,0.6,0.9,0.6c0.3,0,0.5,0,0.6-0.1c0.1-0.1,0.2-0.2,0.2-0.4c0-0.1,0-0.2-0.1-0.3c-0.1-0.1-0.3-0.1-0.5-0.2l-0.9-0.2
		c-0.9-0.2-1.4-0.7-1.4-1.4C187.2,28.4,187.4,28.1,187.8,27.8z"/>
	<path d="M197,30.8c-0.1,0.5-0.3,0.8-0.7,1.1c-0.4,0.3-0.9,0.4-1.5,0.4c-0.7,0-1.3-0.2-1.7-0.7c-0.4-0.4-0.6-1-0.6-1.8
		s0.2-1.4,0.6-1.8c0.4-0.5,1-0.7,1.7-0.7c0.7,0,1.3,0.2,1.7,0.7c0.4,0.4,0.6,1,0.6,1.8v0.4h-3.3v0.1c0,0.3,0.1,0.6,0.3,0.8
		c0.2,0.2,0.5,0.3,0.8,0.3c0.2,0,0.5-0.1,0.6-0.2c0.2-0.1,0.3-0.3,0.4-0.4H197z M194,28.6c-0.2,0.2-0.3,0.4-0.3,0.8h2.1
		c0-0.3-0.1-0.6-0.3-0.8s-0.4-0.3-0.7-0.3C194.5,28.3,194.2,28.4,194,28.6z"/>
	<path d="M201.1,28.4h-0.7v-1h0.7V27c0-0.5,0.1-0.8,0.4-1c0.2-0.2,0.6-0.3,1.2-0.3c0.2,0,0.4,0,0.6,0v0.9c-0.1,0-0.2,0-0.4,0
		c-0.2,0-0.3,0-0.4,0.1s-0.1,0.2-0.1,0.4v0.4h0.9v1h-0.9v3.9h-1.3V28.4z"/>
	<path d="M204.8,31.7c-0.4-0.4-0.6-1.1-0.6-1.8c0-0.8,0.2-1.4,0.6-1.8c0.4-0.4,1-0.7,1.7-0.7c0.7,0,1.3,0.2,1.7,0.7
		c0.4,0.4,0.6,1.1,0.6,1.8c0,0.8-0.2,1.4-0.6,1.8c-0.4,0.4-1,0.7-1.7,0.7C205.8,32.4,205.3,32.2,204.8,31.7z M207.4,31
		c0.2-0.3,0.3-0.6,0.3-1.1c0-0.5-0.1-0.8-0.3-1.1c-0.2-0.3-0.5-0.4-0.8-0.4c-0.3,0-0.6,0.1-0.8,0.4c-0.2,0.3-0.3,0.6-0.3,1.1
		c0,0.5,0.1,0.9,0.3,1.1c0.2,0.3,0.5,0.4,0.8,0.4S207.2,31.3,207.4,31z"/>
	<path d="M210.2,27.5h1.2v0.9h0c0.2-0.6,0.6-0.9,1.2-0.9c0.1,0,0.3,0,0.4,0v1.1c-0.1-0.1-0.3-0.1-0.5-0.1c-0.3,0-0.6,0.1-0.8,0.3
		s-0.3,0.5-0.3,0.8v2.7h-1.3V27.5z"/>
	<path d="M216.7,34v-1c0,0,0.1,0,0.3,0c0.5,0,0.8-0.2,0.9-0.6l0-0.2l-1.7-4.9h1.4l1,3.8h0l1.1-3.8h1.4l-1.7,4.9
		c-0.2,0.6-0.5,1-0.8,1.3c-0.3,0.2-0.8,0.4-1.4,0.4C216.9,34.1,216.7,34.1,216.7,34z"/>
	<path d="M222.4,31.7c-0.4-0.4-0.6-1.1-0.6-1.8c0-0.8,0.2-1.4,0.6-1.8c0.4-0.4,1-0.7,1.7-0.7c0.7,0,1.3,0.2,1.7,0.7
		c0.4,0.4,0.6,1.1,0.6,1.8c0,0.8-0.2,1.4-0.6,1.8c-0.4,0.4-1,0.7-1.7,0.7C223.4,32.4,222.8,32.2,222.4,31.7z M224.9,31
		c0.2-0.3,0.3-0.6,0.3-1.1c0-0.5-0.1-0.8-0.3-1.1c-0.2-0.3-0.5-0.4-0.8-0.4c-0.3,0-0.6,0.1-0.8,0.4c-0.2,0.3-0.3,0.6-0.3,1.1
		c0,0.5,0.1,0.9,0.3,1.1c0.2,0.3,0.5,0.4,0.8,0.4S224.7,31.3,224.9,31z"/>
	<path d="M232.3,32.3H231v-0.9h0c-0.3,0.6-0.8,0.9-1.5,0.9c-0.5,0-1-0.2-1.3-0.5c-0.3-0.3-0.5-0.8-0.5-1.3v-3.1h1.3v2.8
		c0,0.3,0.1,0.6,0.3,0.7c0.2,0.2,0.4,0.3,0.7,0.3s0.5-0.1,0.7-0.3s0.3-0.5,0.3-0.8v-2.8h1.3V32.3z"/>
	<path d="M237.5,31.5L237.5,31.5l0,0.8h-1.3v-6.6h1.3v2.6h0c0.3-0.6,0.8-0.9,1.5-0.9c0.6,0,1.1,0.2,1.4,0.7c0.4,0.4,0.5,1,0.5,1.8
		s-0.2,1.4-0.5,1.8c-0.4,0.4-0.8,0.7-1.4,0.7C238.3,32.4,237.8,32.1,237.5,31.5z M237.8,28.8c-0.2,0.3-0.3,0.6-0.3,1
		c0,0.4,0.1,0.8,0.3,1c0.2,0.3,0.5,0.4,0.8,0.4c0.3,0,0.6-0.1,0.8-0.4c0.2-0.3,0.3-0.6,0.3-1.1c0-0.4-0.1-0.8-0.3-1
		c-0.2-0.3-0.5-0.4-0.8-0.4C238.2,28.4,238,28.6,237.8,28.8z"/>
	<path d="M242.5,32c-0.3-0.3-0.5-0.6-0.5-1.1c0-0.4,0.2-0.8,0.5-1c0.3-0.2,0.8-0.4,1.4-0.4l1.2-0.1v-0.3c0-0.2-0.1-0.4-0.2-0.5
		c-0.1-0.1-0.4-0.2-0.6-0.2c-0.2,0-0.4,0.1-0.6,0.2c-0.2,0.1-0.2,0.3-0.3,0.4h-1.2c0-0.5,0.2-0.8,0.6-1.1c0.4-0.3,0.9-0.4,1.5-0.4
		c0.6,0,1.1,0.1,1.5,0.4s0.6,0.7,0.6,1.2v3.3h-1.2v-0.7h0c-0.1,0.2-0.3,0.4-0.6,0.6c-0.3,0.1-0.6,0.2-0.9,0.2
		C243.2,32.4,242.8,32.2,242.5,32z M244.8,31.2c0.2-0.2,0.3-0.4,0.3-0.6v-0.4l-1,0.1c-0.5,0-0.8,0.2-0.8,0.6c0,0.2,0.1,0.3,0.2,0.4
		c0.1,0.1,0.3,0.2,0.6,0.2C244.4,31.4,244.6,31.3,244.8,31.2z"/>
	<path d="M248.3,27.8c0.4-0.3,0.9-0.4,1.5-0.4c0.6,0,1.1,0.1,1.4,0.4c0.4,0.3,0.6,0.6,0.6,1.1h-1.2c0-0.2-0.1-0.3-0.2-0.5
		c-0.1-0.1-0.3-0.2-0.6-0.2c-0.2,0-0.4,0-0.6,0.1c-0.1,0.1-0.2,0.2-0.2,0.4c0,0.2,0.2,0.4,0.6,0.5l0.9,0.2c0.5,0.1,0.8,0.3,1,0.5
		c0.2,0.2,0.3,0.5,0.3,0.8c0,0.5-0.2,0.8-0.6,1.1c-0.4,0.3-0.9,0.4-1.5,0.4c-0.6,0-1.1-0.1-1.5-0.4c-0.4-0.3-0.6-0.6-0.6-1.1h1.3
		c0.1,0.4,0.4,0.6,0.9,0.6c0.3,0,0.5,0,0.6-0.1c0.1-0.1,0.2-0.2,0.2-0.4c0-0.1,0-0.2-0.1-0.3c-0.1-0.1-0.3-0.1-0.5-0.2l-0.9-0.2
		c-0.9-0.2-1.4-0.7-1.4-1.4C247.7,28.4,247.9,28.1,248.3,27.8z"/>
	<path d="M257.4,30.8c-0.1,0.5-0.3,0.8-0.7,1.1c-0.4,0.3-0.9,0.4-1.5,0.4c-0.7,0-1.3-0.2-1.7-0.7c-0.4-0.4-0.6-1-0.6-1.8
		s0.2-1.4,0.6-1.8c0.4-0.5,1-0.7,1.7-0.7c0.7,0,1.3,0.2,1.7,0.7c0.4,0.4,0.6,1,0.6,1.8v0.4h-3.3v0.1c0,0.3,0.1,0.6,0.3,0.8
		c0.2,0.2,0.5,0.3,0.8,0.3c0.2,0,0.5-0.1,0.6-0.2c0.2-0.1,0.3-0.3,0.4-0.4H257.4z M254.5,28.6c-0.2,0.2-0.3,0.4-0.3,0.8h2.1
		c0-0.3-0.1-0.6-0.3-0.8s-0.4-0.3-0.7-0.3C254.9,28.3,254.7,28.4,254.5,28.6z"/>
	<path d="M259.1,31.7c-0.4-0.4-0.5-1.1-0.5-1.8c0-0.8,0.2-1.4,0.5-1.8s0.8-0.7,1.4-0.7c0.3,0,0.7,0.1,0.9,0.2
		c0.3,0.2,0.4,0.4,0.6,0.6h0v-2.6h1.3v6.6H262v-0.8h0c-0.1,0.3-0.3,0.5-0.6,0.6c-0.3,0.2-0.6,0.2-0.9,0.2
		C259.9,32.4,259.4,32.1,259.1,31.7z M260.1,28.8c-0.2,0.3-0.3,0.6-0.3,1.1c0,0.4,0.1,0.8,0.3,1.1c0.2,0.3,0.5,0.4,0.8,0.4
		c0.3,0,0.6-0.1,0.8-0.4s0.3-0.6,0.3-1s-0.1-0.8-0.3-1.1c-0.2-0.3-0.5-0.4-0.8-0.4C260.6,28.4,260.3,28.6,260.1,28.8z"/>
	<path d="M267.7,31.7c-0.4-0.4-0.6-1.1-0.6-1.8c0-0.8,0.2-1.4,0.6-1.8c0.4-0.4,1-0.7,1.7-0.7c0.7,0,1.3,0.2,1.7,0.7
		c0.4,0.4,0.6,1.1,0.6,1.8c0,0.8-0.2,1.4-0.6,1.8c-0.4,0.4-1,0.7-1.7,0.7C268.7,32.4,268.1,32.2,267.7,31.7z M270.2,31
		c0.2-0.3,0.3-0.6,0.3-1.1c0-0.5-0.1-0.8-0.3-1.1c-0.2-0.3-0.5-0.4-0.8-0.4c-0.3,0-0.6,0.1-0.8,0.4c-0.2,0.3-0.3,0.6-0.3,1.1
		c0,0.5,0.1,0.9,0.3,1.1c0.2,0.3,0.5,0.4,0.8,0.4S270,31.3,270.2,31z"/>
	<path d="M273,27.5h1.2v0.9h0c0.3-0.6,0.8-0.9,1.6-0.9c0.5,0,1,0.2,1.3,0.5c0.3,0.3,0.5,0.8,0.5,1.3v3.1h-1.3v-2.8
		c0-0.3-0.1-0.6-0.2-0.7c-0.2-0.2-0.4-0.3-0.7-0.3c-0.3,0-0.6,0.1-0.7,0.3c-0.2,0.2-0.3,0.5-0.3,0.8v2.8H273V27.5z"/>
	<path d="M281.4,27.5h1.2v0.9h0c0.2-0.6,0.6-0.9,1.2-0.9c0.1,0,0.3,0,0.4,0v1.1c-0.1-0.1-0.3-0.1-0.5-0.1c-0.3,0-0.6,0.1-0.8,0.3
		s-0.3,0.5-0.3,0.8v2.7h-1.3V27.5z"/>
	<path d="M289.5,30.8c-0.1,0.5-0.3,0.8-0.7,1.1c-0.4,0.3-0.9,0.4-1.5,0.4c-0.7,0-1.3-0.2-1.7-0.7c-0.4-0.4-0.6-1-0.6-1.8
		s0.2-1.4,0.6-1.8c0.4-0.5,1-0.7,1.7-0.7c0.7,0,1.3,0.2,1.7,0.7c0.4,0.4,0.6,1,0.6,1.8v0.4h-3.3v0.1c0,0.3,0.1,0.6,0.3,0.8
		c0.2,0.2,0.5,0.3,0.8,0.3c0.2,0,0.5-0.1,0.6-0.2c0.2-0.1,0.3-0.3,0.4-0.4H289.5z M286.6,28.6c-0.2,0.2-0.3,0.4-0.3,0.8h2.1
		c0-0.3-0.1-0.6-0.3-0.8s-0.4-0.3-0.7-0.3C287,28.3,286.8,28.4,286.6,28.6z"/>
	<path d="M293.5,32.3H292l-1.7-4.8h1.4l1,3.7h0l1-3.7h1.3L293.5,32.3z"/>
	<path d="M296.3,26.7c-0.1-0.1-0.2-0.3-0.2-0.5s0.1-0.4,0.2-0.5c0.1-0.1,0.3-0.2,0.5-0.2c0.2,0,0.4,0.1,0.5,0.2
		c0.1,0.1,0.2,0.3,0.2,0.5s-0.1,0.4-0.2,0.5s-0.3,0.2-0.5,0.2C296.6,26.9,296.5,26.9,296.3,26.7z M296.2,27.5h1.3v4.8h-1.3V27.5z"/>
	<path d="M303.3,30.8c-0.1,0.5-0.3,0.8-0.7,1.1c-0.4,0.3-0.9,0.4-1.5,0.4c-0.7,0-1.3-0.2-1.7-0.7c-0.4-0.4-0.6-1-0.6-1.8
		s0.2-1.4,0.6-1.8c0.4-0.5,1-0.7,1.7-0.7c0.7,0,1.3,0.2,1.7,0.7c0.4,0.4,0.6,1,0.6,1.8v0.4H300v0.1c0,0.3,0.1,0.6,0.3,0.8
		c0.2,0.2,0.5,0.3,0.8,0.3c0.2,0,0.5-0.1,0.6-0.2c0.2-0.1,0.3-0.3,0.4-0.4H303.3z M300.3,28.6c-0.2,0.2-0.3,0.4-0.3,0.8h2.1
		c0-0.3-0.1-0.6-0.3-0.8s-0.4-0.3-0.7-0.3C300.8,28.3,300.5,28.4,300.3,28.6z"/>
	<path d="M310,32.3h-1.4l-0.9-3.4h0l-0.9,3.4h-1.3l-1.3-4.8h1.3l0.7,3.6h0l0.9-3.6h1.2l0.9,3.6h0l0.8-3.6h1.3L310,32.3z"/>
	<path d="M312.8,27.8c0.4-0.3,0.9-0.4,1.5-0.4c0.6,0,1.1,0.1,1.4,0.4c0.4,0.3,0.6,0.6,0.6,1.1h-1.2c0-0.2-0.1-0.3-0.2-0.5
		c-0.1-0.1-0.3-0.2-0.6-0.2c-0.2,0-0.4,0-0.6,0.1c-0.1,0.1-0.2,0.2-0.2,0.4c0,0.2,0.2,0.4,0.6,0.5l0.9,0.2c0.5,0.1,0.8,0.3,1,0.5
		c0.2,0.2,0.3,0.5,0.3,0.8c0,0.5-0.2,0.8-0.6,1.1c-0.4,0.3-0.9,0.4-1.5,0.4c-0.6,0-1.1-0.1-1.5-0.4c-0.4-0.3-0.6-0.6-0.6-1.1h1.3
		c0.1,0.4,0.4,0.6,0.9,0.6c0.3,0,0.5,0,0.6-0.1c0.1-0.1,0.2-0.2,0.2-0.4c0-0.1,0-0.2-0.1-0.3c-0.1-0.1-0.3-0.1-0.5-0.2l-0.9-0.2
		c-0.9-0.2-1.4-0.7-1.4-1.4C312.2,28.4,312.4,28.1,312.8,27.8z"/>
</g>
<g>
	<g>
		<path d="M138.9,46c0,0.2,0.1,0.3,0.3,0.5c0.1,0.1,0.3,0.2,0.6,0.2c0.2,0,0.4-0.1,0.5-0.2c0.1-0.1,0.2-0.3,0.2-0.4
			c0-0.1,0-0.3-0.1-0.4c-0.1-0.1-0.3-0.2-0.5-0.2l-0.4-0.1c-0.3-0.1-0.5-0.2-0.6-0.3c-0.1-0.1-0.2-0.3-0.2-0.6
			c0-0.3,0.1-0.5,0.3-0.7c0.2-0.2,0.5-0.3,0.8-0.3c0.3,0,0.6,0.1,0.8,0.3c0.2,0.2,0.3,0.4,0.3,0.7h-0.4c0-0.2-0.1-0.3-0.2-0.4
			s-0.3-0.2-0.5-0.2c-0.2,0-0.4,0.1-0.5,0.2c-0.1,0.1-0.2,0.2-0.2,0.4c0,0.1,0,0.2,0.1,0.3c0.1,0.1,0.2,0.2,0.5,0.2l0.3,0.1
			c0.3,0.1,0.6,0.2,0.7,0.4c0.1,0.2,0.2,0.4,0.2,0.6c0,0.3-0.1,0.6-0.3,0.8c-0.2,0.2-0.5,0.3-0.9,0.3c-0.3,0-0.6-0.1-0.8-0.3
			c-0.2-0.2-0.3-0.4-0.3-0.7H138.9z"/>
		<path d="M141.9,43.8v0.6h0.5v0.4h-0.5v1.6c0,0.2,0.1,0.4,0.3,0.4c0.1,0,0.1,0,0.2,0V47c-0.1,0-0.1,0-0.2,0c-0.2,0-0.4-0.1-0.5-0.2
			c-0.1-0.1-0.1-0.3-0.1-0.5v-1.6h-0.3v-0.4h0.3v-0.6H141.9z"/>
		<path d="M145,47h-0.4v-0.4h0c-0.1,0.3-0.4,0.5-0.8,0.5c-0.3,0-0.5-0.1-0.6-0.3c-0.2-0.2-0.2-0.4-0.2-0.7v-1.7h0.4V46
			c0,0.2,0,0.4,0.1,0.5c0.1,0.1,0.2,0.2,0.4,0.2c0.2,0,0.4-0.1,0.5-0.2c0.1-0.1,0.2-0.3,0.2-0.5v-1.5h0.4V47z"/>
		<path d="M145.9,46.6c-0.2-0.2-0.3-0.6-0.3-1c0-0.4,0.1-0.7,0.3-1c0.2-0.2,0.4-0.4,0.7-0.4c0.4,0,0.6,0.2,0.8,0.5h0v-1.5h0.4V47
			h-0.4v-0.4h0c-0.2,0.3-0.4,0.5-0.8,0.5C146.3,47,146,46.9,145.9,46.6z M146.2,45c-0.1,0.2-0.2,0.4-0.2,0.7c0,0.3,0.1,0.5,0.2,0.7
			c0.1,0.2,0.3,0.3,0.5,0.3c0.2,0,0.4-0.1,0.5-0.3c0.1-0.2,0.2-0.4,0.2-0.7c0-0.3-0.1-0.5-0.2-0.7s-0.3-0.3-0.5-0.3
			C146.4,44.7,146.3,44.8,146.2,45z"/>
		<path d="M150.4,46.2c0,0.2-0.1,0.4-0.3,0.6c-0.2,0.1-0.4,0.2-0.7,0.2c-0.3,0-0.6-0.1-0.8-0.4c-0.2-0.2-0.3-0.6-0.3-1
			c0-0.4,0.1-0.7,0.3-1s0.5-0.4,0.8-0.4c0.3,0,0.6,0.1,0.8,0.3c0.2,0.2,0.3,0.5,0.3,0.9v0.2h-1.7v0c0,0.3,0.1,0.5,0.2,0.6
			c0.1,0.1,0.3,0.2,0.5,0.2c0.1,0,0.3,0,0.4-0.1c0.1-0.1,0.2-0.2,0.2-0.3H150.4z M148.9,44.9c-0.1,0.1-0.2,0.3-0.2,0.5h1.3
			c0-0.2-0.1-0.4-0.2-0.5c-0.1-0.1-0.3-0.2-0.5-0.2C149.2,44.7,149,44.8,148.9,44.9z"/>
		<path d="M151,44.4h0.4v0.4h0c0.2-0.3,0.4-0.5,0.8-0.5c0.3,0,0.5,0.1,0.6,0.3c0.2,0.2,0.2,0.4,0.2,0.7V47h-0.4v-1.6
			c0-0.2,0-0.4-0.1-0.5c-0.1-0.1-0.2-0.2-0.4-0.2c-0.2,0-0.4,0.1-0.5,0.2c-0.1,0.1-0.2,0.3-0.2,0.5V47H151V44.4z"/>
		<path d="M154.2,43.8v0.6h0.5v0.4h-0.5v1.6c0,0.2,0.1,0.4,0.3,0.4c0.1,0,0.1,0,0.2,0V47c-0.1,0-0.1,0-0.2,0c-0.2,0-0.4-0.1-0.5-0.2
			c-0.1-0.1-0.1-0.3-0.1-0.5v-1.6h-0.3v-0.4h0.3v-0.6H154.2z"/>
		<path d="M155.5,44.5c0.2-0.1,0.4-0.2,0.6-0.2c0.2,0,0.4,0.1,0.6,0.2c0.2,0.1,0.2,0.3,0.3,0.5h-0.4c0-0.1-0.1-0.2-0.2-0.3
			s-0.2-0.1-0.4-0.1c-0.1,0-0.3,0-0.4,0.1c-0.1,0.1-0.1,0.2-0.1,0.3c0,0.2,0.1,0.3,0.4,0.4l0.4,0.1c0.2,0.1,0.4,0.2,0.5,0.3
			c0.1,0.1,0.1,0.3,0.1,0.4c0,0.2-0.1,0.4-0.3,0.6c-0.2,0.1-0.4,0.2-0.7,0.2c-0.3,0-0.5-0.1-0.6-0.2c-0.2-0.1-0.3-0.3-0.3-0.6h0.4
			c0,0.3,0.2,0.4,0.6,0.4c0.2,0,0.3,0,0.4-0.1c0.1-0.1,0.1-0.2,0.1-0.3c0-0.1,0-0.2-0.1-0.2c-0.1-0.1-0.2-0.1-0.3-0.1l-0.4-0.1
			c-0.4-0.1-0.6-0.4-0.6-0.7C155.2,44.9,155.3,44.7,155.5,44.5z"/>
		<path d="M159.1,44.5c0.2-0.1,0.4-0.2,0.6-0.2c0.2,0,0.4,0.1,0.6,0.2c0.2,0.1,0.2,0.3,0.3,0.5h-0.4c0-0.1-0.1-0.2-0.2-0.3
			s-0.2-0.1-0.4-0.1c-0.1,0-0.3,0-0.4,0.1c-0.1,0.1-0.1,0.2-0.1,0.3c0,0.2,0.1,0.3,0.4,0.4l0.4,0.1c0.2,0.1,0.4,0.2,0.5,0.3
			c0.1,0.1,0.1,0.3,0.1,0.4c0,0.2-0.1,0.4-0.3,0.6c-0.2,0.1-0.4,0.2-0.7,0.2c-0.3,0-0.5-0.1-0.6-0.2c-0.2-0.1-0.3-0.3-0.3-0.6h0.4
			c0,0.3,0.2,0.4,0.6,0.4c0.2,0,0.3,0,0.4-0.1c0.1-0.1,0.1-0.2,0.1-0.3c0-0.1,0-0.2-0.1-0.2c-0.1-0.1-0.2-0.1-0.3-0.1l-0.4-0.1
			c-0.4-0.1-0.6-0.4-0.6-0.7C158.8,44.9,158.9,44.7,159.1,44.5z"/>
		<path d="M161.2,43.3h0.4v1.5h0c0.1-0.3,0.4-0.5,0.8-0.5c0.3,0,0.5,0.1,0.6,0.3c0.2,0.2,0.2,0.4,0.2,0.7V47h-0.4v-1.6
			c0-0.2-0.1-0.4-0.2-0.5c-0.1-0.1-0.3-0.2-0.4-0.2c-0.2,0-0.4,0.1-0.5,0.2c-0.1,0.1-0.2,0.3-0.2,0.6V47h-0.4V43.3z"/>
		<path d="M164,46.8c-0.1-0.1-0.2-0.3-0.2-0.6c0-0.2,0.1-0.4,0.2-0.5c0.2-0.1,0.4-0.2,0.7-0.2l0.7,0v-0.2c0-0.2,0-0.3-0.1-0.4
			s-0.2-0.1-0.4-0.1c-0.1,0-0.3,0-0.3,0.1c-0.1,0.1-0.2,0.2-0.2,0.3h-0.4c0-0.2,0.1-0.4,0.3-0.6c0.2-0.1,0.4-0.2,0.6-0.2
			c0.3,0,0.5,0.1,0.7,0.2c0.2,0.2,0.3,0.4,0.3,0.6V47h-0.4v-0.5h0c-0.1,0.1-0.2,0.3-0.3,0.3c-0.1,0.1-0.3,0.1-0.5,0.1
			C164.4,47,164.2,46.9,164,46.8z M165.2,46.5c0.1-0.1,0.2-0.3,0.2-0.5v-0.2l-0.6,0c-0.4,0-0.5,0.2-0.5,0.4c0,0.1,0,0.2,0.1,0.3
			c0.1,0.1,0.2,0.1,0.4,0.1C164.9,46.6,165.1,46.6,165.2,46.5z"/>
		<path d="M166.4,44.4h0.4v0.4h0c0-0.1,0.1-0.2,0.2-0.3s0.2-0.1,0.4-0.1c0.1,0,0.1,0,0.1,0v0.4c0,0-0.1,0-0.2,0
			c-0.2,0-0.3,0.1-0.4,0.2c-0.1,0.1-0.1,0.3-0.1,0.4V47h-0.4V44.4z"/>
		<path d="M169.9,46.2c0,0.2-0.1,0.4-0.3,0.6c-0.2,0.1-0.4,0.2-0.7,0.2c-0.3,0-0.6-0.1-0.8-0.4c-0.2-0.2-0.3-0.6-0.3-1
			c0-0.4,0.1-0.7,0.3-1s0.5-0.4,0.8-0.4c0.3,0,0.6,0.1,0.8,0.3c0.2,0.2,0.3,0.5,0.3,0.9v0.2h-1.7v0c0,0.3,0.1,0.5,0.2,0.6
			c0.1,0.1,0.3,0.2,0.5,0.2c0.1,0,0.3,0,0.4-0.1c0.1-0.1,0.2-0.2,0.2-0.3H169.9z M168.4,44.9c-0.1,0.1-0.2,0.3-0.2,0.5h1.3
			c0-0.2-0.1-0.4-0.2-0.5c-0.1-0.1-0.3-0.2-0.5-0.2C168.7,44.7,168.5,44.8,168.4,44.9z"/>
		<path d="M172.3,43.8v0.6h0.5v0.4h-0.5v1.6c0,0.2,0.1,0.4,0.3,0.4c0.1,0,0.1,0,0.2,0V47c-0.1,0-0.1,0-0.2,0c-0.2,0-0.4-0.1-0.5-0.2
			c-0.1-0.1-0.1-0.3-0.1-0.5v-1.6h-0.3v-0.4h0.3v-0.6H172.3z"/>
		<path d="M173.4,43.3h0.4v1.5h0c0.1-0.3,0.4-0.5,0.8-0.5c0.3,0,0.5,0.1,0.6,0.3c0.2,0.2,0.2,0.4,0.2,0.7V47H175v-1.6
			c0-0.2-0.1-0.4-0.2-0.5c-0.1-0.1-0.3-0.2-0.4-0.2c-0.2,0-0.4,0.1-0.5,0.2c-0.1,0.1-0.2,0.3-0.2,0.6V47h-0.4V43.3z"/>
		<path d="M178,46.2c0,0.2-0.1,0.4-0.3,0.6c-0.2,0.1-0.4,0.2-0.7,0.2c-0.3,0-0.6-0.1-0.8-0.4c-0.2-0.2-0.3-0.6-0.3-1
			c0-0.4,0.1-0.7,0.3-1s0.5-0.4,0.8-0.4c0.3,0,0.6,0.1,0.8,0.3c0.2,0.2,0.3,0.5,0.3,0.9v0.2h-1.7v0c0,0.3,0.1,0.5,0.2,0.6
			c0.1,0.1,0.3,0.2,0.5,0.2c0.1,0,0.3,0,0.4-0.1c0.1-0.1,0.2-0.2,0.2-0.3H178z M176.6,44.9c-0.1,0.1-0.2,0.3-0.2,0.5h1.3
			c0-0.2-0.1-0.4-0.2-0.5c-0.1-0.1-0.3-0.2-0.5-0.2C176.8,44.7,176.7,44.8,176.6,44.9z"/>
		<path d="M178.7,43.9c0-0.1-0.1-0.1-0.1-0.2c0-0.1,0-0.1,0.1-0.2c0-0.1,0.1-0.1,0.2-0.1c0.1,0,0.1,0,0.2,0.1s0.1,0.1,0.1,0.2
			c0,0.1,0,0.1-0.1,0.2c0,0.1-0.1,0.1-0.2,0.1C178.8,43.9,178.7,43.9,178.7,43.9z M178.7,44.4h0.4V47h-0.4V44.4z"/>
		<path d="M179.8,44.4h0.4v0.4h0c0-0.1,0.1-0.2,0.2-0.3s0.2-0.1,0.4-0.1c0.1,0,0.1,0,0.1,0v0.4c0,0-0.1,0-0.2,0
			c-0.2,0-0.3,0.1-0.4,0.2c-0.1,0.1-0.1,0.3-0.1,0.4V47h-0.4V44.4z"/>
		<path d="M182.6,44.4h0.4v0.4h0c0-0.1,0.1-0.2,0.2-0.3s0.2-0.1,0.4-0.1c0.1,0,0.1,0,0.1,0v0.4c0,0-0.1,0-0.2,0
			c-0.2,0-0.3,0.1-0.4,0.2c-0.1,0.1-0.1,0.3-0.1,0.4V47h-0.4V44.4z"/>
		<path d="M186.1,46.2c0,0.2-0.1,0.4-0.3,0.6c-0.2,0.1-0.4,0.2-0.7,0.2c-0.3,0-0.6-0.1-0.8-0.4c-0.2-0.2-0.3-0.6-0.3-1
			c0-0.4,0.1-0.7,0.3-1s0.5-0.4,0.8-0.4c0.3,0,0.6,0.1,0.8,0.3c0.2,0.2,0.3,0.5,0.3,0.9v0.2h-1.7v0c0,0.3,0.1,0.5,0.2,0.6
			c0.1,0.1,0.3,0.2,0.5,0.2c0.1,0,0.3,0,0.4-0.1c0.1-0.1,0.2-0.2,0.2-0.3H186.1z M184.6,44.9c-0.1,0.1-0.2,0.3-0.2,0.5h1.3
			c0-0.2-0.1-0.4-0.2-0.5c-0.1-0.1-0.3-0.2-0.5-0.2C184.9,44.7,184.7,44.8,184.6,44.9z"/>
		<path d="M187.7,47h-0.4l-0.9-2.6h0.4l0.7,2.2h0l0.7-2.2h0.4L187.7,47z"/>
		<path d="M189.2,43.9c0-0.1-0.1-0.1-0.1-0.2c0-0.1,0-0.1,0.1-0.2c0-0.1,0.1-0.1,0.2-0.1c0.1,0,0.1,0,0.2,0.1s0.1,0.1,0.1,0.2
			c0,0.1,0,0.1-0.1,0.2c0,0.1-0.1,0.1-0.2,0.1C189.3,43.9,189.2,43.9,189.2,43.9z M189.1,44.4h0.4V47h-0.4V44.4z"/>
		<path d="M192.2,46.2c0,0.2-0.1,0.4-0.3,0.6c-0.2,0.1-0.4,0.2-0.7,0.2c-0.3,0-0.6-0.1-0.8-0.4c-0.2-0.2-0.3-0.6-0.3-1
			c0-0.4,0.1-0.7,0.3-1s0.5-0.4,0.8-0.4c0.3,0,0.6,0.1,0.8,0.3c0.2,0.2,0.3,0.5,0.3,0.9v0.2h-1.7v0c0,0.3,0.1,0.5,0.2,0.6
			c0.1,0.1,0.3,0.2,0.5,0.2c0.1,0,0.3,0,0.4-0.1c0.1-0.1,0.2-0.2,0.2-0.3H192.2z M190.7,44.9c-0.1,0.1-0.2,0.3-0.2,0.5h1.3
			c0-0.2-0.1-0.4-0.2-0.5c-0.1-0.1-0.3-0.2-0.5-0.2C191,44.7,190.8,44.8,190.7,44.9z"/>
		<path d="M195.1,47h-0.4l-0.5-2h0l-0.5,2h-0.4l-0.7-2.6h0.4l0.5,2.2h0l0.5-2.2h0.4l0.5,2.2h0l0.5-2.2h0.4L195.1,47z"/>
		<path d="M196.5,44.5c0.2-0.1,0.4-0.2,0.6-0.2c0.2,0,0.4,0.1,0.6,0.2c0.2,0.1,0.2,0.3,0.3,0.5h-0.4c0-0.1-0.1-0.2-0.2-0.3
			s-0.2-0.1-0.4-0.1c-0.1,0-0.3,0-0.4,0.1c-0.1,0.1-0.1,0.2-0.1,0.3c0,0.2,0.1,0.3,0.4,0.4l0.4,0.1c0.2,0.1,0.4,0.2,0.5,0.3
			c0.1,0.1,0.1,0.3,0.1,0.4c0,0.2-0.1,0.4-0.3,0.6c-0.2,0.1-0.4,0.2-0.7,0.2c-0.3,0-0.5-0.1-0.6-0.2c-0.2-0.1-0.3-0.3-0.3-0.6h0.4
			c0,0.3,0.2,0.4,0.6,0.4c0.2,0,0.3,0,0.4-0.1c0.1-0.1,0.1-0.2,0.1-0.3c0-0.1,0-0.2-0.1-0.2c-0.1-0.1-0.2-0.1-0.3-0.1l-0.4-0.1
			c-0.4-0.1-0.6-0.4-0.6-0.7C196.3,44.9,196.3,44.7,196.5,44.5z"/>
		<path d="M202.2,47h-0.4l-0.5-2h0l-0.5,2h-0.4l-0.7-2.6h0.4l0.5,2.2h0l0.5-2.2h0.4l0.5,2.2h0l0.5-2.2h0.4L202.2,47z"/>
		<path d="M203.4,43.9c0-0.1-0.1-0.1-0.1-0.2c0-0.1,0-0.1,0.1-0.2c0-0.1,0.1-0.1,0.2-0.1c0.1,0,0.1,0,0.2,0.1s0.1,0.1,0.1,0.2
			c0,0.1,0,0.1-0.1,0.2c0,0.1-0.1,0.1-0.2,0.1C203.5,43.9,203.5,43.9,203.4,43.9z M203.4,44.4h0.4V47h-0.4V44.4z"/>
		<path d="M205,43.8v0.6h0.5v0.4H205v1.6c0,0.2,0.1,0.4,0.3,0.4c0.1,0,0.1,0,0.2,0V47c-0.1,0-0.1,0-0.2,0c-0.2,0-0.4-0.1-0.5-0.2
			c-0.1-0.1-0.1-0.3-0.1-0.5v-1.6h-0.3v-0.4h0.3v-0.6H205z"/>
		<path d="M206.1,43.3h0.4v1.5h0c0.1-0.3,0.4-0.5,0.8-0.5c0.3,0,0.5,0.1,0.6,0.3c0.2,0.2,0.2,0.4,0.2,0.7V47h-0.4v-1.6
			c0-0.2-0.1-0.4-0.2-0.5c-0.1-0.1-0.3-0.2-0.4-0.2c-0.2,0-0.4,0.1-0.5,0.2c-0.1,0.1-0.2,0.3-0.2,0.6V47h-0.4V43.3z"/>
		<path d="M212.1,47h-0.4v-0.4h0c-0.1,0.3-0.4,0.5-0.8,0.5c-0.3,0-0.5-0.1-0.6-0.3c-0.2-0.2-0.2-0.4-0.2-0.7v-1.7h0.4V46
			c0,0.2,0,0.4,0.1,0.5c0.1,0.1,0.2,0.2,0.4,0.2c0.2,0,0.4-0.1,0.5-0.2c0.1-0.1,0.2-0.3,0.2-0.5v-1.5h0.4V47z"/>
		<path d="M213,44.5c0.2-0.1,0.4-0.2,0.6-0.2c0.2,0,0.4,0.1,0.6,0.2c0.2,0.1,0.2,0.3,0.3,0.5h-0.4c0-0.1-0.1-0.2-0.2-0.3
			s-0.2-0.1-0.4-0.1c-0.1,0-0.3,0-0.4,0.1c-0.1,0.1-0.1,0.2-0.1,0.3c0,0.2,0.1,0.3,0.4,0.4l0.4,0.1c0.2,0.1,0.4,0.2,0.5,0.3
			c0.1,0.1,0.1,0.3,0.1,0.4c0,0.2-0.1,0.4-0.3,0.6c-0.2,0.1-0.4,0.2-0.7,0.2c-0.3,0-0.5-0.1-0.6-0.2c-0.2-0.1-0.3-0.3-0.3-0.6h0.4
			c0,0.3,0.2,0.4,0.6,0.4c0.2,0,0.3,0,0.4-0.1c0.1-0.1,0.1-0.2,0.1-0.3c0-0.1,0-0.2-0.1-0.2c-0.1-0.1-0.2-0.1-0.3-0.1l-0.4-0.1
			c-0.4-0.1-0.6-0.4-0.6-0.7C212.7,44.9,212.8,44.7,213,44.5z"/>
		<path d="M216.5,46.8c-0.1-0.1-0.2-0.3-0.2-0.6c0-0.2,0.1-0.4,0.2-0.5c0.2-0.1,0.4-0.2,0.7-0.2l0.7,0v-0.2c0-0.2,0-0.3-0.1-0.4
			s-0.2-0.1-0.4-0.1c-0.1,0-0.3,0-0.3,0.1c-0.1,0.1-0.2,0.2-0.2,0.3h-0.4c0-0.2,0.1-0.4,0.3-0.6c0.2-0.1,0.4-0.2,0.6-0.2
			c0.3,0,0.5,0.1,0.7,0.2c0.2,0.2,0.3,0.4,0.3,0.6V47h-0.4v-0.5h0c-0.1,0.1-0.2,0.3-0.3,0.3c-0.1,0.1-0.3,0.1-0.5,0.1
			C216.8,47,216.6,46.9,216.5,46.8z M217.6,46.5c0.1-0.1,0.2-0.3,0.2-0.5v-0.2l-0.6,0c-0.4,0-0.5,0.2-0.5,0.4c0,0.1,0,0.2,0.1,0.3
			c0.1,0.1,0.2,0.1,0.4,0.1C217.3,46.6,217.5,46.6,217.6,46.5z"/>
		<path d="M218.9,44.4h0.4v0.4h0c0.2-0.3,0.4-0.5,0.8-0.5c0.3,0,0.5,0.1,0.6,0.3c0.2,0.2,0.2,0.4,0.2,0.7V47h-0.4v-1.6
			c0-0.2,0-0.4-0.1-0.5c-0.1-0.1-0.2-0.2-0.4-0.2c-0.2,0-0.4,0.1-0.5,0.2c-0.1,0.1-0.2,0.3-0.2,0.5V47h-0.4V44.4z"/>
		<path d="M221.7,46.6c-0.2-0.2-0.3-0.6-0.3-1c0-0.4,0.1-0.7,0.3-1c0.2-0.2,0.4-0.4,0.7-0.4c0.4,0,0.6,0.2,0.8,0.5h0v-1.5h0.4V47
			h-0.4v-0.4h0c-0.2,0.3-0.4,0.5-0.8,0.5C222.2,47,221.9,46.9,221.7,46.6z M222,45c-0.1,0.2-0.2,0.4-0.2,0.7c0,0.3,0.1,0.5,0.2,0.7
			c0.1,0.2,0.3,0.3,0.5,0.3c0.2,0,0.4-0.1,0.5-0.3c0.1-0.2,0.2-0.4,0.2-0.7c0-0.3-0.1-0.5-0.2-0.7c-0.1-0.2-0.3-0.3-0.5-0.3
			C222.3,44.7,222.1,44.8,222,45z"/>
		<path d="M227.9,47h-0.4l-0.5-2h0l-0.5,2H226l-0.7-2.6h0.4l0.5,2.2h0l0.5-2.2h0.4l0.5,2.2h0l0.5-2.2h0.4L227.9,47z"/>
		<path d="M231,46.2c0,0.2-0.1,0.4-0.3,0.6c-0.2,0.1-0.4,0.2-0.7,0.2c-0.3,0-0.6-0.1-0.8-0.4c-0.2-0.2-0.3-0.6-0.3-1
			c0-0.4,0.1-0.7,0.3-1c0.2-0.2,0.5-0.4,0.8-0.4c0.3,0,0.6,0.1,0.8,0.3c0.2,0.2,0.3,0.5,0.3,0.9v0.2h-1.7v0c0,0.3,0.1,0.5,0.2,0.6
			c0.1,0.1,0.3,0.2,0.5,0.2c0.1,0,0.3,0,0.4-0.1c0.1-0.1,0.2-0.2,0.2-0.3H231z M229.6,44.9c-0.1,0.1-0.2,0.3-0.2,0.5h1.3
			c0-0.2-0.1-0.4-0.2-0.5c-0.1-0.1-0.3-0.2-0.5-0.2S229.7,44.8,229.6,44.9z"/>
		<path d="M234.8,44.7c0.2,0.2,0.3,0.6,0.3,1s-0.1,0.7-0.3,1c-0.2,0.2-0.4,0.4-0.7,0.4c-0.3,0-0.6-0.2-0.8-0.5h0v1.3h-0.4v-3.5h0.4
			v0.4h0c0.1-0.1,0.2-0.2,0.3-0.3c0.1-0.1,0.3-0.1,0.5-0.1C234.3,44.3,234.6,44.5,234.8,44.7z M234.5,46.4c0.1-0.2,0.2-0.4,0.2-0.7
			c0-0.3-0.1-0.5-0.2-0.7c-0.1-0.2-0.3-0.3-0.5-0.3c-0.2,0-0.4,0.1-0.5,0.3c-0.1,0.2-0.2,0.4-0.2,0.7c0,0.3,0.1,0.5,0.2,0.7
			c0.1,0.2,0.3,0.3,0.5,0.3C234.2,46.6,234.3,46.5,234.5,46.4z"/>
		<path d="M237.6,47h-0.4v-0.4h0c-0.1,0.3-0.4,0.5-0.8,0.5c-0.3,0-0.5-0.1-0.6-0.3c-0.2-0.2-0.2-0.4-0.2-0.7v-1.7h0.4V46
			c0,0.2,0,0.4,0.1,0.5c0.1,0.1,0.2,0.2,0.4,0.2c0.2,0,0.4-0.1,0.5-0.2c0.1-0.1,0.2-0.3,0.2-0.5v-1.5h0.4V47z"/>
		<path d="M238.7,46.5L238.7,46.5l0,0.4h-0.4v-3.7h0.4v1.5h0c0.2-0.3,0.4-0.5,0.8-0.5c0.3,0,0.5,0.1,0.7,0.4c0.2,0.2,0.3,0.6,0.3,1
			c0,0.4-0.1,0.7-0.3,1c-0.2,0.2-0.4,0.4-0.7,0.4C239.1,47,238.9,46.9,238.7,46.5z M238.9,45c-0.1,0.2-0.2,0.4-0.2,0.7
			c0,0.3,0.1,0.5,0.2,0.7c0.1,0.2,0.3,0.3,0.5,0.3c0.2,0,0.4-0.1,0.5-0.3c0.1-0.2,0.2-0.4,0.2-0.7c0-0.3-0.1-0.5-0.2-0.7
			c-0.1-0.2-0.3-0.3-0.5-0.3C239.2,44.7,239,44.8,238.9,45z"/>
		<path d="M241.1,43.3h0.4V47h-0.4V43.3z"/>
		<path d="M242.2,43.9c0-0.1-0.1-0.1-0.1-0.2c0-0.1,0-0.1,0.1-0.2c0-0.1,0.1-0.1,0.2-0.1c0.1,0,0.1,0,0.2,0.1s0.1,0.1,0.1,0.2
			c0,0.1,0,0.1-0.1,0.2c0,0.1-0.1,0.1-0.2,0.1C242.3,43.9,242.3,43.9,242.2,43.9z M242.2,44.4h0.4V47h-0.4V44.4z"/>
		<path d="M243.5,44.5c0.2-0.1,0.4-0.2,0.6-0.2c0.2,0,0.4,0.1,0.6,0.2c0.2,0.1,0.2,0.3,0.3,0.5h-0.4c0-0.1-0.1-0.2-0.2-0.3
			s-0.2-0.1-0.4-0.1c-0.1,0-0.3,0-0.4,0.1c-0.1,0.1-0.1,0.2-0.1,0.3c0,0.2,0.1,0.3,0.4,0.4l0.4,0.1c0.2,0.1,0.4,0.2,0.5,0.3
			c0.1,0.1,0.1,0.3,0.1,0.4c0,0.2-0.1,0.4-0.3,0.6c-0.2,0.1-0.4,0.2-0.7,0.2c-0.3,0-0.5-0.1-0.6-0.2c-0.2-0.1-0.3-0.3-0.3-0.6h0.4
			c0,0.3,0.2,0.4,0.6,0.4c0.2,0,0.3,0,0.4-0.1c0.1-0.1,0.1-0.2,0.1-0.3c0-0.1,0-0.2-0.1-0.2c-0.1-0.1-0.2-0.1-0.3-0.1l-0.4-0.1
			c-0.4-0.1-0.6-0.4-0.6-0.7C243.3,44.9,243.4,44.7,243.5,44.5z"/>
		<path d="M245.7,43.3h0.4v1.5h0c0.1-0.3,0.4-0.5,0.8-0.5c0.3,0,0.5,0.1,0.6,0.3c0.2,0.2,0.2,0.4,0.2,0.7V47h-0.4v-1.6
			c0-0.2-0.1-0.4-0.2-0.5c-0.1-0.1-0.3-0.2-0.4-0.2c-0.2,0-0.4,0.1-0.5,0.2c-0.1,0.1-0.2,0.3-0.2,0.6V47h-0.4V43.3z"/>
		<path d="M250.2,43.8v0.6h0.5v0.4h-0.5v1.6c0,0.2,0.1,0.4,0.3,0.4c0.1,0,0.1,0,0.2,0V47c-0.1,0-0.1,0-0.2,0c-0.2,0-0.4-0.1-0.5-0.2
			c-0.1-0.1-0.1-0.3-0.1-0.5v-1.6h-0.3v-0.4h0.3v-0.6H250.2z"/>
		<path d="M251.2,43.3h0.4v1.5h0c0.1-0.3,0.4-0.5,0.8-0.5c0.3,0,0.5,0.1,0.6,0.3c0.2,0.2,0.2,0.4,0.2,0.7V47h-0.4v-1.6
			c0-0.2-0.1-0.4-0.2-0.5c-0.1-0.1-0.3-0.2-0.4-0.2c-0.2,0-0.4,0.1-0.5,0.2c-0.1,0.1-0.2,0.3-0.2,0.6V47h-0.4V43.3z"/>
		<path d="M255.9,46.2c0,0.2-0.1,0.4-0.3,0.6c-0.2,0.1-0.4,0.2-0.7,0.2c-0.3,0-0.6-0.1-0.8-0.4c-0.2-0.2-0.3-0.6-0.3-1
			c0-0.4,0.1-0.7,0.3-1c0.2-0.2,0.5-0.4,0.8-0.4c0.3,0,0.6,0.1,0.8,0.3c0.2,0.2,0.3,0.5,0.3,0.9v0.2h-1.7v0c0,0.3,0.1,0.5,0.2,0.6
			c0.1,0.1,0.3,0.2,0.5,0.2c0.1,0,0.3,0,0.4-0.1c0.1-0.1,0.2-0.2,0.2-0.3H255.9z M254.4,44.9c-0.1,0.1-0.2,0.3-0.2,0.5h1.3
			c0-0.2-0.1-0.4-0.2-0.5c-0.1-0.1-0.3-0.2-0.5-0.2S254.6,44.8,254.4,44.9z"/>
		<path d="M256.5,44.4h0.4v0.4h0c0.1-0.1,0.1-0.3,0.3-0.3c0.1-0.1,0.3-0.1,0.4-0.1c0.3,0,0.6,0.2,0.7,0.5h0c0.1-0.2,0.2-0.3,0.3-0.4
			s0.3-0.1,0.4-0.1c0.2,0,0.4,0.1,0.6,0.2c0.1,0.2,0.2,0.4,0.2,0.6V47h-0.4v-1.7c0-0.2,0-0.3-0.1-0.4c-0.1-0.1-0.2-0.2-0.4-0.2
			s-0.3,0.1-0.4,0.2c-0.1,0.1-0.2,0.3-0.2,0.4V47H258v-1.8c0-0.2,0-0.3-0.1-0.4c-0.1-0.1-0.2-0.1-0.4-0.1c-0.2,0-0.3,0.1-0.4,0.2
			c-0.1,0.1-0.2,0.3-0.2,0.5V47h-0.4V44.4z"/>
		<path d="M261.8,46.8c-0.1-0.1-0.2-0.3-0.2-0.6c0-0.2,0.1-0.4,0.2-0.5c0.2-0.1,0.4-0.2,0.7-0.2l0.7,0v-0.2c0-0.2,0-0.3-0.1-0.4
			s-0.2-0.1-0.4-0.1c-0.1,0-0.3,0-0.3,0.1c-0.1,0.1-0.2,0.2-0.2,0.3h-0.4c0-0.2,0.1-0.4,0.3-0.6c0.2-0.1,0.4-0.2,0.6-0.2
			c0.3,0,0.5,0.1,0.7,0.2c0.2,0.2,0.3,0.4,0.3,0.6V47h-0.4v-0.5h0c-0.1,0.1-0.2,0.3-0.3,0.3c-0.1,0.1-0.3,0.1-0.5,0.1
			C262.2,47,262,46.9,261.8,46.8z M263,46.5c0.1-0.1,0.2-0.3,0.2-0.5v-0.2l-0.6,0c-0.4,0-0.5,0.2-0.5,0.4c0,0.1,0,0.2,0.1,0.3
			c0.1,0.1,0.2,0.1,0.4,0.1C262.7,46.6,262.8,46.6,263,46.5z"/>
		<path d="M264.2,43.3h0.4V47h-0.4V43.3z"/>
		<path d="M265.4,43.3h0.4V47h-0.4V43.3z"/>
		<path d="M114.1,55h-0.4l-0.9-3.5h0.4l0.6,2.9h0l0.7-2.9h0.4l0.7,2.9h0l0.6-2.9h0.4L116,55h-0.4l-0.7-2.8h0L114.1,55z"/>
		<path d="M119.1,54.2c0,0.2-0.1,0.4-0.3,0.6c-0.2,0.1-0.4,0.2-0.7,0.2c-0.3,0-0.6-0.1-0.8-0.4c-0.2-0.2-0.3-0.6-0.3-1
			c0-0.4,0.1-0.7,0.3-1c0.2-0.2,0.5-0.4,0.8-0.4c0.3,0,0.6,0.1,0.8,0.3c0.2,0.2,0.3,0.5,0.3,0.9v0.2h-1.7v0c0,0.3,0.1,0.5,0.2,0.6
			c0.1,0.1,0.3,0.2,0.5,0.2c0.1,0,0.3,0,0.4-0.1c0.1-0.1,0.2-0.2,0.2-0.3H119.1z M117.7,52.9c-0.1,0.1-0.2,0.3-0.2,0.5h1.3
			c0-0.2-0.1-0.4-0.2-0.5c-0.1-0.1-0.3-0.2-0.5-0.2C118,52.7,117.8,52.8,117.7,52.9z"/>
		<path d="M121,52.4h0.4v0.4h0c0.1-0.1,0.1-0.3,0.3-0.3c0.1-0.1,0.3-0.1,0.4-0.1c0.3,0,0.6,0.2,0.7,0.5h0c0.1-0.2,0.2-0.3,0.3-0.4
			s0.3-0.1,0.4-0.1c0.2,0,0.4,0.1,0.6,0.2c0.1,0.2,0.2,0.4,0.2,0.6V55h-0.4v-1.7c0-0.2,0-0.3-0.1-0.4c-0.1-0.1-0.2-0.2-0.4-0.2
			s-0.3,0.1-0.4,0.2c-0.1,0.1-0.2,0.3-0.2,0.4V55h-0.4v-1.8c0-0.2,0-0.3-0.1-0.4c-0.1-0.1-0.2-0.1-0.4-0.1c-0.2,0-0.3,0.1-0.4,0.2
			c-0.1,0.1-0.2,0.3-0.2,0.5V55H121V52.4z"/>
		<path d="M125,54.8c-0.1-0.1-0.2-0.3-0.2-0.6c0-0.2,0.1-0.4,0.2-0.5c0.2-0.1,0.4-0.2,0.7-0.2l0.7,0v-0.2c0-0.2,0-0.3-0.1-0.4
			s-0.2-0.1-0.4-0.1c-0.1,0-0.3,0-0.3,0.1c-0.1,0.1-0.2,0.2-0.2,0.3h-0.4c0-0.2,0.1-0.4,0.3-0.6c0.2-0.1,0.4-0.2,0.6-0.2
			c0.3,0,0.5,0.1,0.7,0.2c0.2,0.2,0.3,0.4,0.3,0.6V55h-0.4v-0.5h0c-0.1,0.1-0.2,0.3-0.3,0.3c-0.1,0.1-0.3,0.1-0.5,0.1
			C125.4,55,125.2,54.9,125,54.8z M126.2,54.5c0.1-0.1,0.2-0.3,0.2-0.5v-0.2l-0.6,0c-0.4,0-0.5,0.2-0.5,0.4c0,0.1,0,0.2,0.1,0.3
			c0.1,0.1,0.2,0.1,0.4,0.1C125.9,54.6,126.1,54.6,126.2,54.5z"/>
		<path d="M127.6,54.6c-0.2-0.2-0.3-0.6-0.3-1c0-0.4,0.1-0.7,0.3-1c0.2-0.2,0.4-0.4,0.7-0.4c0.4,0,0.6,0.2,0.8,0.5h0v-1.5h0.4V55
			h-0.4v-0.4h0c-0.2,0.3-0.4,0.5-0.8,0.5C128,55,127.8,54.9,127.6,54.6z M127.9,53c-0.1,0.2-0.2,0.4-0.2,0.7c0,0.3,0.1,0.5,0.2,0.7
			c0.1,0.2,0.3,0.3,0.5,0.3c0.2,0,0.4-0.1,0.5-0.3c0.1-0.2,0.2-0.4,0.2-0.7c0-0.3-0.1-0.5-0.2-0.7c-0.1-0.2-0.3-0.3-0.5-0.3
			C128.2,52.7,128,52.8,127.9,53z"/>
		<path d="M132.2,54.2c0,0.2-0.1,0.4-0.3,0.6c-0.2,0.1-0.4,0.2-0.7,0.2c-0.3,0-0.6-0.1-0.8-0.4c-0.2-0.2-0.3-0.6-0.3-1
			c0-0.4,0.1-0.7,0.3-1c0.2-0.2,0.5-0.4,0.8-0.4c0.3,0,0.6,0.1,0.8,0.3c0.2,0.2,0.3,0.5,0.3,0.9v0.2h-1.7v0c0,0.3,0.1,0.5,0.2,0.6
			c0.1,0.1,0.3,0.2,0.5,0.2c0.1,0,0.3,0,0.4-0.1c0.1-0.1,0.2-0.2,0.2-0.3H132.2z M130.7,52.9c-0.1,0.1-0.2,0.3-0.2,0.5h1.3
			c0-0.2-0.1-0.4-0.2-0.5c-0.1-0.1-0.3-0.2-0.5-0.2C131,52.7,130.8,52.8,130.7,52.9z"/>
		<path d="M134.1,54.8c-0.1-0.1-0.2-0.3-0.2-0.6c0-0.2,0.1-0.4,0.2-0.5c0.2-0.1,0.4-0.2,0.7-0.2l0.7,0v-0.2c0-0.2,0-0.3-0.1-0.4
			s-0.2-0.1-0.4-0.1c-0.1,0-0.3,0-0.3,0.1c-0.1,0.1-0.2,0.2-0.2,0.3H134c0-0.2,0.1-0.4,0.3-0.6c0.2-0.1,0.4-0.2,0.6-0.2
			c0.3,0,0.5,0.1,0.7,0.2c0.2,0.2,0.3,0.4,0.3,0.6V55h-0.4v-0.5h0c-0.1,0.1-0.2,0.3-0.3,0.3c-0.1,0.1-0.3,0.1-0.5,0.1
			C134.5,55,134.3,54.9,134.1,54.8z M135.3,54.5c0.1-0.1,0.2-0.3,0.2-0.5v-0.2l-0.6,0c-0.4,0-0.5,0.2-0.5,0.4c0,0.1,0,0.2,0.1,0.3
			c0.1,0.1,0.2,0.1,0.4,0.1C135,54.6,135.1,54.6,135.3,54.5z"/>
		<path d="M137.8,52.4h0.4v0.4h0c0-0.1,0.1-0.2,0.2-0.3c0.1-0.1,0.2-0.1,0.4-0.1c0.1,0,0.1,0,0.1,0v0.4c0,0-0.1,0-0.2,0
			c-0.2,0-0.3,0.1-0.4,0.2c-0.1,0.1-0.1,0.3-0.1,0.4V55h-0.4V52.4z"/>
		<path d="M139.5,54.8c-0.1-0.1-0.2-0.3-0.2-0.6c0-0.2,0.1-0.4,0.2-0.5c0.2-0.1,0.4-0.2,0.7-0.2l0.7,0v-0.2c0-0.2,0-0.3-0.1-0.4
			s-0.2-0.1-0.4-0.1c-0.1,0-0.3,0-0.3,0.1c-0.1,0.1-0.2,0.2-0.2,0.3h-0.4c0-0.2,0.1-0.4,0.3-0.6c0.2-0.1,0.4-0.2,0.6-0.2
			c0.3,0,0.5,0.1,0.7,0.2c0.2,0.2,0.3,0.4,0.3,0.6V55h-0.4v-0.5h0c-0.1,0.1-0.2,0.3-0.3,0.3c-0.1,0.1-0.3,0.1-0.5,0.1
			C139.8,55,139.7,54.9,139.5,54.8z M140.6,54.5c0.1-0.1,0.2-0.3,0.2-0.5v-0.2l-0.6,0c-0.4,0-0.5,0.2-0.5,0.4c0,0.1,0,0.2,0.1,0.3
			c0.1,0.1,0.2,0.1,0.4,0.1C140.4,54.6,140.5,54.6,140.6,54.5z"/>
		<path d="M142.4,51.8v0.6h0.5v0.4h-0.5v1.6c0,0.2,0.1,0.4,0.3,0.4c0.1,0,0.1,0,0.2,0V55c-0.1,0-0.1,0-0.2,0c-0.2,0-0.4-0.1-0.5-0.2
			c-0.1-0.1-0.1-0.3-0.1-0.5v-1.6h-0.3v-0.4h0.3v-0.6H142.4z"/>
		<path d="M143.5,51.9c0-0.1-0.1-0.1-0.1-0.2c0-0.1,0-0.1,0.1-0.2c0-0.1,0.1-0.1,0.2-0.1c0.1,0,0.1,0,0.2,0.1c0,0.1,0.1,0.1,0.1,0.2
			c0,0.1,0,0.1-0.1,0.2c0,0.1-0.1,0.1-0.2,0.1C143.6,51.9,143.6,51.9,143.5,51.9z M143.5,52.4h0.4V55h-0.4V52.4z"/>
		<path d="M144.6,52.4h0.4v0.4h0c0.2-0.3,0.4-0.5,0.8-0.5c0.3,0,0.5,0.1,0.6,0.3c0.2,0.2,0.2,0.4,0.2,0.7V55h-0.4v-1.6
			c0-0.2,0-0.4-0.1-0.5c-0.1-0.1-0.2-0.2-0.4-0.2c-0.2,0-0.4,0.1-0.5,0.2c-0.1,0.1-0.2,0.3-0.2,0.5V55h-0.4V52.4z"/>
		<path d="M147.6,55.7c-0.2-0.1-0.3-0.3-0.3-0.5h0.4c0,0.1,0.1,0.2,0.2,0.3c0.1,0.1,0.2,0.1,0.4,0.1c0.2,0,0.4-0.1,0.5-0.2
			c0.1-0.1,0.2-0.3,0.2-0.4v-0.4h0c-0.2,0.3-0.4,0.5-0.8,0.5c-0.3,0-0.5-0.1-0.7-0.4c-0.2-0.2-0.3-0.6-0.3-1c0-0.4,0.1-0.7,0.3-1
			c0.2-0.2,0.4-0.4,0.7-0.4c0.3,0,0.6,0.2,0.8,0.5h0v-0.4h0.4v2.6c0,0.3-0.1,0.6-0.3,0.7c-0.2,0.2-0.5,0.3-0.8,0.3
			C148,55.9,147.8,55.9,147.6,55.7z M148.7,54.3c0.1-0.2,0.2-0.4,0.2-0.7c0-0.3-0.1-0.5-0.2-0.7c-0.1-0.2-0.3-0.3-0.5-0.3
			c-0.2,0-0.4,0.1-0.5,0.3c-0.1,0.2-0.2,0.4-0.2,0.7c0,0.3,0.1,0.5,0.2,0.7c0.1,0.2,0.3,0.3,0.5,0.3
			C148.4,54.6,148.6,54.5,148.7,54.3z"/>
		<path d="M151.5,54.6c-0.2-0.2-0.3-0.6-0.3-1c0-0.4,0.1-0.7,0.3-1c0.2-0.2,0.5-0.4,0.8-0.4s0.6,0.1,0.8,0.4c0.2,0.2,0.3,0.6,0.3,1
			c0,0.4-0.1,0.7-0.3,1c-0.2,0.2-0.5,0.4-0.8,0.4S151.6,54.9,151.5,54.6z M152.8,54.4c0.1-0.2,0.2-0.4,0.2-0.7
			c0-0.3-0.1-0.5-0.2-0.7c-0.1-0.2-0.3-0.3-0.5-0.3s-0.4,0.1-0.5,0.3c-0.1,0.2-0.2,0.4-0.2,0.7c0,0.3,0.1,0.5,0.2,0.7
			c0.1,0.2,0.3,0.3,0.5,0.3C152.5,54.6,152.6,54.5,152.8,54.4z"/>
		<path d="M154,52.7h-0.3v-0.4h0.3v-0.2c0-0.2,0.1-0.4,0.2-0.5c0.1-0.1,0.3-0.2,0.5-0.2c0.1,0,0.1,0,0.2,0v0.4c-0.1,0-0.1,0-0.2,0
			c-0.1,0-0.2,0-0.2,0.1c0,0.1-0.1,0.1-0.1,0.3v0.2h0.5v0.4h-0.5V55H154V52.7z"/>
		<path d="M156.8,51.3h0.4V55h-0.4V51.3z"/>
		<path d="M158,54.8c-0.1-0.1-0.2-0.3-0.2-0.6c0-0.2,0.1-0.4,0.2-0.5c0.2-0.1,0.4-0.2,0.7-0.2l0.7,0v-0.2c0-0.2,0-0.3-0.1-0.4
			s-0.2-0.1-0.4-0.1c-0.1,0-0.3,0-0.3,0.1c-0.1,0.1-0.2,0.2-0.2,0.3h-0.4c0-0.2,0.1-0.4,0.3-0.6c0.2-0.1,0.4-0.2,0.6-0.2
			c0.3,0,0.5,0.1,0.7,0.2c0.2,0.2,0.3,0.4,0.3,0.6V55h-0.4v-0.5h0c-0.1,0.1-0.2,0.3-0.3,0.3c-0.1,0.1-0.3,0.1-0.5,0.1
			C158.3,55,158.1,54.9,158,54.8z M159.1,54.5c0.1-0.1,0.2-0.3,0.2-0.5v-0.2l-0.6,0c-0.4,0-0.5,0.2-0.5,0.4c0,0.1,0,0.2,0.1,0.3
			c0.1,0.1,0.2,0.1,0.4,0.1C158.8,54.6,159,54.6,159.1,54.5z"/>
		<path d="M160.4,52.4h0.4v0.4h0c0.2-0.3,0.4-0.5,0.8-0.5c0.3,0,0.5,0.1,0.6,0.3c0.2,0.2,0.2,0.4,0.2,0.7V55H162v-1.6
			c0-0.2,0-0.4-0.1-0.5c-0.1-0.1-0.2-0.2-0.4-0.2c-0.2,0-0.4,0.1-0.5,0.2c-0.1,0.1-0.2,0.3-0.2,0.5V55h-0.4V52.4z"/>
		<path d="M163.3,55.7c-0.2-0.1-0.3-0.3-0.3-0.5h0.4c0,0.1,0.1,0.2,0.2,0.3c0.1,0.1,0.2,0.1,0.4,0.1c0.2,0,0.4-0.1,0.5-0.2
			c0.1-0.1,0.2-0.3,0.2-0.4v-0.4h0c-0.2,0.3-0.4,0.5-0.8,0.5c-0.3,0-0.5-0.1-0.7-0.4c-0.2-0.2-0.3-0.6-0.3-1c0-0.4,0.1-0.7,0.3-1
			c0.2-0.2,0.4-0.4,0.7-0.4c0.3,0,0.6,0.2,0.8,0.5h0v-0.4h0.4v2.6c0,0.3-0.1,0.6-0.3,0.7c-0.2,0.2-0.5,0.3-0.8,0.3
			C163.7,55.9,163.5,55.9,163.3,55.7z M164.5,54.3c0.1-0.2,0.2-0.4,0.2-0.7c0-0.3-0.1-0.5-0.2-0.7c-0.1-0.2-0.3-0.3-0.5-0.3
			c-0.2,0-0.4,0.1-0.5,0.3c-0.1,0.2-0.2,0.4-0.2,0.7c0,0.3,0.1,0.5,0.2,0.7c0.1,0.2,0.3,0.3,0.5,0.3
			C164.2,54.6,164.4,54.5,164.5,54.3z"/>
		<path d="M167.8,55h-0.4v-0.4h0c-0.1,0.3-0.4,0.5-0.8,0.5c-0.3,0-0.5-0.1-0.6-0.3c-0.2-0.2-0.2-0.4-0.2-0.7v-1.7h0.4V54
			c0,0.2,0,0.4,0.1,0.5c0.1,0.1,0.2,0.2,0.4,0.2c0.2,0,0.4-0.1,0.5-0.2c0.1-0.1,0.2-0.3,0.2-0.5v-1.5h0.4V55z"/>
		<path d="M168.6,54.8c-0.1-0.1-0.2-0.3-0.2-0.6c0-0.2,0.1-0.4,0.2-0.5c0.2-0.1,0.4-0.2,0.7-0.2l0.7,0v-0.2c0-0.2,0-0.3-0.1-0.4
			s-0.2-0.1-0.4-0.1c-0.1,0-0.3,0-0.3,0.1c-0.1,0.1-0.2,0.2-0.2,0.3h-0.4c0-0.2,0.1-0.4,0.3-0.6c0.2-0.1,0.4-0.2,0.6-0.2
			c0.3,0,0.5,0.1,0.7,0.2c0.2,0.2,0.3,0.4,0.3,0.6V55h-0.4v-0.5h0c-0.1,0.1-0.2,0.3-0.3,0.3c-0.1,0.1-0.3,0.1-0.5,0.1
			C168.9,55,168.7,54.9,168.6,54.8z M169.7,54.5c0.1-0.1,0.2-0.3,0.2-0.5v-0.2l-0.6,0c-0.4,0-0.5,0.2-0.5,0.4c0,0.1,0,0.2,0.1,0.3
			c0.1,0.1,0.2,0.1,0.4,0.1C169.4,54.6,169.6,54.6,169.7,54.5z"/>
		<path d="M171.3,55.7c-0.2-0.1-0.3-0.3-0.3-0.5h0.4c0,0.1,0.1,0.2,0.2,0.3c0.1,0.1,0.2,0.1,0.4,0.1c0.2,0,0.4-0.1,0.5-0.2
			c0.1-0.1,0.2-0.3,0.2-0.4v-0.4h0c-0.2,0.3-0.4,0.5-0.8,0.5c-0.3,0-0.5-0.1-0.7-0.4c-0.2-0.2-0.3-0.6-0.3-1c0-0.4,0.1-0.7,0.3-1
			c0.2-0.2,0.4-0.4,0.7-0.4c0.3,0,0.6,0.2,0.8,0.5h0v-0.4h0.4v2.6c0,0.3-0.1,0.6-0.3,0.7c-0.2,0.2-0.5,0.3-0.8,0.3
			C171.7,55.9,171.4,55.9,171.3,55.7z M172.4,54.3c0.1-0.2,0.2-0.4,0.2-0.7c0-0.3-0.1-0.5-0.2-0.7c-0.1-0.2-0.3-0.3-0.5-0.3
			c-0.2,0-0.4,0.1-0.5,0.3c-0.1,0.2-0.2,0.4-0.2,0.7c0,0.3,0.1,0.5,0.2,0.7c0.1,0.2,0.3,0.3,0.5,0.3
			C172.1,54.6,172.3,54.5,172.4,54.3z"/>
		<path d="M175.7,54.2c0,0.2-0.1,0.4-0.3,0.6c-0.2,0.1-0.4,0.2-0.7,0.2c-0.3,0-0.6-0.1-0.8-0.4c-0.2-0.2-0.3-0.6-0.3-1
			c0-0.4,0.1-0.7,0.3-1c0.2-0.2,0.5-0.4,0.8-0.4c0.3,0,0.6,0.1,0.8,0.3c0.2,0.2,0.3,0.5,0.3,0.9v0.2H174v0c0,0.3,0.1,0.5,0.2,0.6
			c0.1,0.1,0.3,0.2,0.5,0.2c0.1,0,0.3,0,0.4-0.1c0.1-0.1,0.2-0.2,0.2-0.3H175.7z M174.2,52.9c-0.1,0.1-0.2,0.3-0.2,0.5h1.3
			c0-0.2-0.1-0.4-0.2-0.5c-0.1-0.1-0.3-0.2-0.5-0.2C174.5,52.7,174.3,52.8,174.2,52.9z"/>
		<path d="M177.7,52.5c0.2-0.1,0.4-0.2,0.6-0.2c0.2,0,0.4,0.1,0.6,0.2c0.2,0.1,0.2,0.3,0.3,0.5h-0.4c0-0.1-0.1-0.2-0.2-0.3
			c-0.1-0.1-0.2-0.1-0.4-0.1c-0.1,0-0.3,0-0.4,0.1c-0.1,0.1-0.1,0.2-0.1,0.3c0,0.2,0.1,0.3,0.4,0.4l0.4,0.1c0.2,0.1,0.4,0.2,0.5,0.3
			c0.1,0.1,0.1,0.3,0.1,0.4c0,0.2-0.1,0.4-0.3,0.6c-0.2,0.1-0.4,0.2-0.7,0.2c-0.3,0-0.5-0.1-0.6-0.2c-0.2-0.1-0.3-0.3-0.3-0.6h0.4
			c0,0.3,0.2,0.4,0.6,0.4c0.2,0,0.3,0,0.4-0.1c0.1-0.1,0.1-0.2,0.1-0.3c0-0.1,0-0.2-0.1-0.2c-0.1-0.1-0.2-0.1-0.3-0.1l-0.4-0.1
			c-0.4-0.1-0.6-0.4-0.6-0.7C177.5,52.9,177.6,52.7,177.7,52.5z"/>
		<path d="M181.5,53.2c0-0.1-0.1-0.3-0.2-0.4c-0.1-0.1-0.3-0.1-0.4-0.1c-0.2,0-0.4,0.1-0.5,0.3c-0.1,0.2-0.2,0.4-0.2,0.7
			c0,0.3,0.1,0.5,0.2,0.7c0.1,0.2,0.3,0.3,0.5,0.3c0.3,0,0.5-0.2,0.6-0.5h0.4c0,0.3-0.1,0.5-0.3,0.6c-0.2,0.2-0.4,0.2-0.7,0.2
			c-0.3,0-0.6-0.1-0.8-0.4c-0.2-0.2-0.3-0.6-0.3-1c0-0.4,0.1-0.7,0.3-1c0.2-0.2,0.5-0.4,0.8-0.4c0.3,0,0.5,0.1,0.7,0.3
			c0.2,0.2,0.3,0.4,0.3,0.6H181.5z"/>
		<path d="M182.4,51.3h0.4v1.5h0c0.1-0.3,0.4-0.5,0.8-0.5c0.3,0,0.5,0.1,0.6,0.3c0.2,0.2,0.2,0.4,0.2,0.7V55h-0.4v-1.6
			c0-0.2-0.1-0.4-0.2-0.5c-0.1-0.1-0.3-0.2-0.4-0.2c-0.2,0-0.4,0.1-0.5,0.2c-0.1,0.1-0.2,0.3-0.2,0.6V55h-0.4V51.3z"/>
		<path d="M185.3,54.6c-0.2-0.2-0.3-0.6-0.3-1c0-0.4,0.1-0.7,0.3-1c0.2-0.2,0.5-0.4,0.8-0.4s0.6,0.1,0.8,0.4c0.2,0.2,0.3,0.6,0.3,1
			c0,0.4-0.1,0.7-0.3,1c-0.2,0.2-0.5,0.4-0.8,0.4S185.5,54.9,185.3,54.6z M186.6,54.4c0.1-0.2,0.2-0.4,0.2-0.7
			c0-0.3-0.1-0.5-0.2-0.7c-0.1-0.2-0.3-0.3-0.5-0.3s-0.4,0.1-0.5,0.3c-0.1,0.2-0.2,0.4-0.2,0.7c0,0.3,0.1,0.5,0.2,0.7
			c0.1,0.2,0.3,0.3,0.5,0.3C186.3,54.6,186.5,54.5,186.6,54.4z"/>
		<path d="M188,54.6c-0.2-0.2-0.3-0.6-0.3-1c0-0.4,0.1-0.7,0.3-1c0.2-0.2,0.5-0.4,0.8-0.4s0.6,0.1,0.8,0.4c0.2,0.2,0.3,0.6,0.3,1
			c0,0.4-0.1,0.7-0.3,1c-0.2,0.2-0.5,0.4-0.8,0.4S188.2,54.9,188,54.6z M189.3,54.4c0.1-0.2,0.2-0.4,0.2-0.7c0-0.3-0.1-0.5-0.2-0.7
			c-0.1-0.2-0.3-0.3-0.5-0.3s-0.4,0.1-0.5,0.3c-0.1,0.2-0.2,0.4-0.2,0.7c0,0.3,0.1,0.5,0.2,0.7c0.1,0.2,0.3,0.3,0.5,0.3
			C189,54.6,189.1,54.5,189.3,54.4z"/>
		<path d="M190.4,51.3h0.4V55h-0.4V51.3z"/>
		<path d="M191.8,52.5c0.2-0.1,0.4-0.2,0.6-0.2c0.2,0,0.4,0.1,0.6,0.2c0.2,0.1,0.2,0.3,0.3,0.5h-0.4c0-0.1-0.1-0.2-0.2-0.3
			c-0.1-0.1-0.2-0.1-0.4-0.1c-0.1,0-0.3,0-0.4,0.1c-0.1,0.1-0.1,0.2-0.1,0.3c0,0.2,0.1,0.3,0.4,0.4l0.4,0.1c0.2,0.1,0.4,0.2,0.5,0.3
			c0.1,0.1,0.1,0.3,0.1,0.4c0,0.2-0.1,0.4-0.3,0.6c-0.2,0.1-0.4,0.2-0.7,0.2c-0.3,0-0.5-0.1-0.6-0.2c-0.2-0.1-0.3-0.3-0.3-0.6h0.4
			c0,0.3,0.2,0.4,0.6,0.4c0.2,0,0.3,0,0.4-0.1c0.1-0.1,0.1-0.2,0.1-0.3c0-0.1,0-0.2-0.1-0.2c-0.1-0.1-0.2-0.1-0.3-0.1l-0.4-0.1
			c-0.4-0.1-0.6-0.4-0.6-0.7C191.5,52.9,191.6,52.7,191.8,52.5z"/>
		<path d="M195.5,54.5L195.5,54.5l0,0.4h-0.4v-3.7h0.4v1.5h0c0.2-0.3,0.4-0.5,0.8-0.5c0.3,0,0.5,0.1,0.7,0.4c0.2,0.2,0.3,0.6,0.3,1
			c0,0.4-0.1,0.7-0.3,1c-0.2,0.2-0.4,0.4-0.7,0.4C196,55,195.7,54.9,195.5,54.5z M195.7,53c-0.1,0.2-0.2,0.4-0.2,0.7
			c0,0.3,0.1,0.5,0.2,0.7c0.1,0.2,0.3,0.3,0.5,0.3c0.2,0,0.4-0.1,0.5-0.3c0.1-0.2,0.2-0.4,0.2-0.7c0-0.3-0.1-0.5-0.2-0.7
			c-0.1-0.2-0.3-0.3-0.5-0.3C196,52.7,195.9,52.8,195.7,53z"/>
		<path d="M198,54.8c-0.1-0.1-0.2-0.3-0.2-0.6c0-0.2,0.1-0.4,0.2-0.5c0.2-0.1,0.4-0.2,0.7-0.2l0.7,0v-0.2c0-0.2,0-0.3-0.1-0.4
			s-0.2-0.1-0.4-0.1c-0.1,0-0.3,0-0.3,0.1c-0.1,0.1-0.2,0.2-0.2,0.3h-0.4c0-0.2,0.1-0.4,0.3-0.6c0.2-0.1,0.4-0.2,0.6-0.2
			c0.3,0,0.5,0.1,0.7,0.2c0.2,0.2,0.3,0.4,0.3,0.6V55h-0.4v-0.5h0c-0.1,0.1-0.2,0.3-0.3,0.3c-0.1,0.1-0.3,0.1-0.5,0.1
			C198.4,55,198.2,54.9,198,54.8z M199.2,54.5c0.1-0.1,0.2-0.3,0.2-0.5v-0.2l-0.6,0c-0.4,0-0.5,0.2-0.5,0.4c0,0.1,0,0.2,0.1,0.3
			c0.1,0.1,0.2,0.1,0.4,0.1C198.9,54.6,199,54.6,199.2,54.5z"/>
		<path d="M200.6,52.5c0.2-0.1,0.4-0.2,0.6-0.2c0.2,0,0.4,0.1,0.6,0.2c0.2,0.1,0.2,0.3,0.3,0.5h-0.4c0-0.1-0.1-0.2-0.2-0.3
			c-0.1-0.1-0.2-0.1-0.4-0.1c-0.1,0-0.3,0-0.4,0.1c-0.1,0.1-0.1,0.2-0.1,0.3c0,0.2,0.1,0.3,0.4,0.4l0.4,0.1c0.2,0.1,0.4,0.2,0.5,0.3
			c0.1,0.1,0.1,0.3,0.1,0.4c0,0.2-0.1,0.4-0.3,0.6c-0.2,0.1-0.4,0.2-0.7,0.2c-0.3,0-0.5-0.1-0.6-0.2c-0.2-0.1-0.3-0.3-0.3-0.6h0.4
			c0,0.3,0.2,0.4,0.6,0.4c0.2,0,0.3,0,0.4-0.1c0.1-0.1,0.1-0.2,0.1-0.3c0-0.1,0-0.2-0.1-0.2c-0.1-0.1-0.2-0.1-0.3-0.1l-0.4-0.1
			c-0.4-0.1-0.6-0.4-0.6-0.7C200.4,52.9,200.5,52.7,200.6,52.5z"/>
		<path d="M204.7,54.2c0,0.2-0.1,0.4-0.3,0.6c-0.2,0.1-0.4,0.2-0.7,0.2c-0.3,0-0.6-0.1-0.8-0.4c-0.2-0.2-0.3-0.6-0.3-1
			c0-0.4,0.1-0.7,0.3-1c0.2-0.2,0.5-0.4,0.8-0.4c0.3,0,0.6,0.1,0.8,0.3c0.2,0.2,0.3,0.5,0.3,0.9v0.2H203v0c0,0.3,0.1,0.5,0.2,0.6
			c0.1,0.1,0.3,0.2,0.5,0.2c0.1,0,0.3,0,0.4-0.1c0.1-0.1,0.2-0.2,0.2-0.3H204.7z M203.2,52.9c-0.1,0.1-0.2,0.3-0.2,0.5h1.3
			c0-0.2-0.1-0.4-0.2-0.5c-0.1-0.1-0.3-0.2-0.5-0.2C203.5,52.7,203.4,52.8,203.2,52.9z"/>
		<path d="M205.5,54.6c-0.2-0.2-0.3-0.6-0.3-1c0-0.4,0.1-0.7,0.3-1c0.2-0.2,0.4-0.4,0.7-0.4c0.4,0,0.6,0.2,0.8,0.5h0v-1.5h0.4V55
			H207v-0.4h0c-0.2,0.3-0.4,0.5-0.8,0.5C205.9,55,205.7,54.9,205.5,54.6z M205.8,53c-0.1,0.2-0.2,0.4-0.2,0.7c0,0.3,0.1,0.5,0.2,0.7
			c0.1,0.2,0.3,0.3,0.5,0.3c0.2,0,0.4-0.1,0.5-0.3c0.1-0.2,0.2-0.4,0.2-0.7c0-0.3-0.1-0.5-0.2-0.7c-0.1-0.2-0.3-0.3-0.5-0.3
			C206.1,52.7,205.9,52.8,205.8,53z"/>
		<path d="M209.5,54.6c-0.2-0.2-0.3-0.6-0.3-1c0-0.4,0.1-0.7,0.3-1c0.2-0.2,0.5-0.4,0.8-0.4c0.3,0,0.6,0.1,0.8,0.4
			c0.2,0.2,0.3,0.6,0.3,1c0,0.4-0.1,0.7-0.3,1c-0.2,0.2-0.5,0.4-0.8,0.4C210,55,209.7,54.9,209.5,54.6z M210.8,54.4
			c0.1-0.2,0.2-0.4,0.2-0.7c0-0.3-0.1-0.5-0.2-0.7c-0.1-0.2-0.3-0.3-0.5-0.3c-0.2,0-0.4,0.1-0.5,0.3c-0.1,0.2-0.2,0.4-0.2,0.7
			c0,0.3,0.1,0.5,0.2,0.7c0.1,0.2,0.3,0.3,0.5,0.3C210.5,54.6,210.7,54.5,210.8,54.4z"/>
		<path d="M212.1,52.7h-0.3v-0.4h0.3v-0.2c0-0.2,0-0.4,0.2-0.5c0.1-0.1,0.3-0.2,0.5-0.2c0.1,0,0.1,0,0.2,0v0.4c-0.1,0-0.1,0-0.2,0
			c-0.1,0-0.2,0-0.2,0.1c0,0.1-0.1,0.1-0.1,0.3v0.2h0.5v0.4h-0.5V55h-0.4V52.7z"/>
		<path d="M215,52.5c0.2-0.1,0.4-0.2,0.6-0.2c0.2,0,0.4,0.1,0.6,0.2c0.2,0.1,0.2,0.3,0.3,0.5h-0.4c0-0.1-0.1-0.2-0.2-0.3
			c-0.1-0.1-0.2-0.1-0.4-0.1c-0.1,0-0.3,0-0.4,0.1c-0.1,0.1-0.1,0.2-0.1,0.3c0,0.2,0.1,0.3,0.4,0.4l0.4,0.1c0.2,0.1,0.4,0.2,0.5,0.3
			c0.1,0.1,0.1,0.3,0.1,0.4c0,0.2-0.1,0.4-0.3,0.6c-0.2,0.1-0.4,0.2-0.7,0.2c-0.3,0-0.5-0.1-0.6-0.2c-0.2-0.1-0.3-0.3-0.3-0.6h0.4
			c0,0.3,0.2,0.4,0.6,0.4c0.2,0,0.3,0,0.4-0.1c0.1-0.1,0.1-0.2,0.1-0.3c0-0.1,0-0.2-0.1-0.2c-0.1-0.1-0.2-0.1-0.3-0.1l-0.4-0.1
			c-0.4-0.1-0.6-0.4-0.6-0.7C214.8,52.9,214.8,52.7,215,52.5z"/>
		<path d="M217.7,51.8v0.6h0.5v0.4h-0.5v1.6c0,0.2,0.1,0.4,0.3,0.4c0.1,0,0.1,0,0.2,0V55c-0.1,0-0.1,0-0.2,0c-0.2,0-0.4-0.1-0.5-0.2
			c-0.1-0.1-0.1-0.3-0.1-0.5v-1.6h-0.3v-0.4h0.3v-0.6H217.7z"/>
		<path d="M220.7,55h-0.4v-0.4h0c-0.1,0.3-0.4,0.5-0.8,0.5c-0.3,0-0.5-0.1-0.6-0.3c-0.2-0.2-0.2-0.4-0.2-0.7v-1.7h0.4V54
			c0,0.2,0,0.4,0.1,0.5c0.1,0.1,0.2,0.2,0.4,0.2c0.2,0,0.4-0.1,0.5-0.2c0.1-0.1,0.2-0.3,0.2-0.5v-1.5h0.4V55z"/>
		<path d="M221.6,54.6c-0.2-0.2-0.3-0.6-0.3-1c0-0.4,0.1-0.7,0.3-1c0.2-0.2,0.4-0.4,0.7-0.4c0.4,0,0.6,0.2,0.8,0.5h0v-1.5h0.4V55
			h-0.4v-0.4h0c-0.2,0.3-0.4,0.5-0.8,0.5C222,55,221.7,54.9,221.6,54.6z M221.9,53c-0.1,0.2-0.2,0.4-0.2,0.7c0,0.3,0.1,0.5,0.2,0.7
			c0.1,0.2,0.3,0.3,0.5,0.3c0.2,0,0.4-0.1,0.5-0.3c0.1-0.2,0.2-0.4,0.2-0.7c0-0.3-0.1-0.5-0.2-0.7c-0.1-0.2-0.3-0.3-0.5-0.3
			C222.2,52.7,222,52.8,221.9,53z"/>
		<path d="M226.1,54.2c0,0.2-0.1,0.4-0.3,0.6c-0.2,0.1-0.4,0.2-0.7,0.2c-0.3,0-0.6-0.1-0.8-0.4c-0.2-0.2-0.3-0.6-0.3-1
			c0-0.4,0.1-0.7,0.3-1c0.2-0.2,0.5-0.4,0.8-0.4c0.3,0,0.6,0.1,0.8,0.3c0.2,0.2,0.3,0.5,0.3,0.9v0.2h-1.7v0c0,0.3,0.1,0.5,0.2,0.6
			c0.1,0.1,0.3,0.2,0.5,0.2c0.1,0,0.3,0,0.4-0.1c0.1-0.1,0.2-0.2,0.2-0.3H226.1z M224.6,52.9c-0.1,0.1-0.2,0.3-0.2,0.5h1.3
			c0-0.2-0.1-0.4-0.2-0.5c-0.1-0.1-0.3-0.2-0.5-0.2S224.8,52.8,224.6,52.9z"/>
		<path d="M226.7,52.4h0.4v0.4h0c0.2-0.3,0.4-0.5,0.8-0.5c0.3,0,0.5,0.1,0.6,0.3c0.2,0.2,0.2,0.4,0.2,0.7V55h-0.4v-1.6
			c0-0.2,0-0.4-0.1-0.5c-0.1-0.1-0.2-0.2-0.4-0.2c-0.2,0-0.4,0.1-0.5,0.2c-0.1,0.1-0.2,0.3-0.2,0.5V55h-0.4V52.4z"/>
		<path d="M229.9,51.8v0.6h0.5v0.4h-0.5v1.6c0,0.2,0.1,0.4,0.3,0.4c0.1,0,0.1,0,0.2,0V55c-0.1,0-0.1,0-0.2,0c-0.2,0-0.4-0.1-0.5-0.2
			c-0.1-0.1-0.1-0.3-0.1-0.5v-1.6h-0.3v-0.4h0.3v-0.6H229.9z"/>
		<path d="M231.2,52.5c0.2-0.1,0.4-0.2,0.6-0.2c0.2,0,0.4,0.1,0.6,0.2c0.2,0.1,0.2,0.3,0.3,0.5h-0.4c0-0.1-0.1-0.2-0.2-0.3
			c-0.1-0.1-0.2-0.1-0.4-0.1c-0.1,0-0.3,0-0.4,0.1c-0.1,0.1-0.1,0.2-0.1,0.3c0,0.2,0.1,0.3,0.4,0.4l0.4,0.1c0.2,0.1,0.4,0.2,0.5,0.3
			c0.1,0.1,0.1,0.3,0.1,0.4c0,0.2-0.1,0.4-0.3,0.6c-0.2,0.1-0.4,0.2-0.7,0.2c-0.3,0-0.5-0.1-0.6-0.2c-0.2-0.1-0.3-0.3-0.3-0.6h0.4
			c0,0.3,0.2,0.4,0.6,0.4c0.2,0,0.3,0,0.4-0.1c0.1-0.1,0.1-0.2,0.1-0.3c0-0.1,0-0.2-0.1-0.2c-0.1-0.1-0.2-0.1-0.3-0.1l-0.4-0.1
			c-0.4-0.1-0.6-0.4-0.6-0.7C230.9,52.9,231,52.7,231.2,52.5z"/>
		<path d="M233.3,52.7v-1.2h0.4v1.2H233.3z"/>
		<path d="M235.8,52.7h-0.3v-0.4h0.3v-0.2c0-0.2,0-0.4,0.2-0.5c0.1-0.1,0.3-0.2,0.5-0.2c0.1,0,0.1,0,0.2,0v0.4c-0.1,0-0.1,0-0.2,0
			c-0.1,0-0.2,0-0.2,0.1c0,0.1-0.1,0.1-0.1,0.3v0.2h0.5v0.4h-0.5V55h-0.4V52.7z"/>
		<path d="M239.1,54.2c0,0.2-0.1,0.4-0.3,0.6c-0.2,0.1-0.4,0.2-0.7,0.2c-0.3,0-0.6-0.1-0.8-0.4c-0.2-0.2-0.3-0.6-0.3-1
			c0-0.4,0.1-0.7,0.3-1c0.2-0.2,0.5-0.4,0.8-0.4c0.3,0,0.6,0.1,0.8,0.3c0.2,0.2,0.3,0.5,0.3,0.9v0.2h-1.7v0c0,0.3,0.1,0.5,0.2,0.6
			c0.1,0.1,0.3,0.2,0.5,0.2c0.1,0,0.3,0,0.4-0.1c0.1-0.1,0.2-0.2,0.2-0.3H239.1z M237.6,52.9c-0.1,0.1-0.2,0.3-0.2,0.5h1.3
			c0-0.2-0.1-0.4-0.2-0.5c-0.1-0.1-0.3-0.2-0.5-0.2S237.7,52.8,237.6,52.9z"/>
		<path d="M241.6,54.2c0,0.2-0.1,0.4-0.3,0.6c-0.2,0.1-0.4,0.2-0.7,0.2c-0.3,0-0.6-0.1-0.8-0.4c-0.2-0.2-0.3-0.6-0.3-1
			c0-0.4,0.1-0.7,0.3-1c0.2-0.2,0.5-0.4,0.8-0.4c0.3,0,0.6,0.1,0.8,0.3c0.2,0.2,0.3,0.5,0.3,0.9v0.2H240v0c0,0.3,0.1,0.5,0.2,0.6
			c0.1,0.1,0.3,0.2,0.5,0.2c0.1,0,0.3,0,0.4-0.1c0.1-0.1,0.2-0.2,0.2-0.3H241.6z M240.2,52.9c-0.1,0.1-0.2,0.3-0.2,0.5h1.3
			c0-0.2-0.1-0.4-0.2-0.5c-0.1-0.1-0.3-0.2-0.5-0.2S240.3,52.8,240.2,52.9z"/>
		<path d="M242.4,54.6c-0.2-0.2-0.3-0.6-0.3-1c0-0.4,0.1-0.7,0.3-1c0.2-0.2,0.4-0.4,0.7-0.4c0.4,0,0.6,0.2,0.8,0.5h0v-1.5h0.4V55
			h-0.4v-0.4h0c-0.2,0.3-0.4,0.5-0.8,0.5C242.9,55,242.6,54.9,242.4,54.6z M242.7,53c-0.1,0.2-0.2,0.4-0.2,0.7
			c0,0.3,0.1,0.5,0.2,0.7c0.1,0.2,0.3,0.3,0.5,0.3c0.2,0,0.4-0.1,0.5-0.3c0.1-0.2,0.2-0.4,0.2-0.7c0-0.3-0.1-0.5-0.2-0.7
			c-0.1-0.2-0.3-0.3-0.5-0.3C243,52.7,242.9,52.8,242.7,53z"/>
		<path d="M245.4,54.5L245.4,54.5l0,0.4H245v-3.7h0.4v1.5h0c0.2-0.3,0.4-0.5,0.8-0.5c0.3,0,0.5,0.1,0.7,0.4c0.2,0.2,0.3,0.6,0.3,1
			c0,0.4-0.1,0.7-0.3,1c-0.2,0.2-0.4,0.4-0.7,0.4C245.8,55,245.6,54.9,245.4,54.5z M245.6,53c-0.1,0.2-0.2,0.4-0.2,0.7
			c0,0.3,0.1,0.5,0.2,0.7c0.1,0.2,0.3,0.3,0.5,0.3c0.2,0,0.4-0.1,0.5-0.3c0.1-0.2,0.2-0.4,0.2-0.7c0-0.3-0.1-0.5-0.2-0.7
			c-0.1-0.2-0.3-0.3-0.5-0.3C245.9,52.7,245.7,52.8,245.6,53z"/>
		<path d="M247.9,54.8c-0.1-0.1-0.2-0.3-0.2-0.6c0-0.2,0.1-0.4,0.2-0.5c0.2-0.1,0.4-0.2,0.7-0.2l0.7,0v-0.2c0-0.2,0-0.3-0.1-0.4
			s-0.2-0.1-0.4-0.1c-0.1,0-0.3,0-0.3,0.1c-0.1,0.1-0.2,0.2-0.2,0.3h-0.4c0-0.2,0.1-0.4,0.3-0.6c0.2-0.1,0.4-0.2,0.6-0.2
			c0.3,0,0.5,0.1,0.7,0.2c0.2,0.2,0.3,0.4,0.3,0.6V55h-0.4v-0.5h0c-0.1,0.1-0.2,0.3-0.3,0.3c-0.1,0.1-0.3,0.1-0.5,0.1
			C248.2,55,248,54.9,247.9,54.8z M249,54.5c0.1-0.1,0.2-0.3,0.2-0.5v-0.2l-0.6,0c-0.4,0-0.5,0.2-0.5,0.4c0,0.1,0,0.2,0.1,0.3
			c0.1,0.1,0.2,0.1,0.4,0.1C248.7,54.6,248.9,54.6,249,54.5z"/>
		<path d="M251.9,53.2c0-0.1-0.1-0.3-0.2-0.4c-0.1-0.1-0.3-0.1-0.4-0.1c-0.2,0-0.4,0.1-0.5,0.3c-0.1,0.2-0.2,0.4-0.2,0.7
			c0,0.3,0.1,0.5,0.2,0.7c0.1,0.2,0.3,0.3,0.5,0.3c0.3,0,0.5-0.2,0.6-0.5h0.4c0,0.3-0.1,0.5-0.3,0.6c-0.2,0.2-0.4,0.2-0.7,0.2
			c-0.3,0-0.6-0.1-0.8-0.4c-0.2-0.2-0.3-0.6-0.3-1c0-0.4,0.1-0.7,0.3-1c0.2-0.2,0.5-0.4,0.8-0.4c0.3,0,0.5,0.1,0.7,0.3
			c0.2,0.2,0.3,0.4,0.3,0.6H251.9z"/>
		<path d="M254.3,52.4h0.5l-1,1.1l1.1,1.5h-0.4l-0.9-1.2l-0.2,0.2v1h-0.4v-3.7h0.4v2.2L254.3,52.4z"/>
		<path d="M255.2,55.6l0.2-1.1h0.4l-0.3,1.1H255.2z"/>
		<path d="M259.4,53.2c0-0.1-0.1-0.3-0.2-0.4c-0.1-0.1-0.3-0.1-0.4-0.1c-0.2,0-0.4,0.1-0.5,0.3c-0.1,0.2-0.2,0.4-0.2,0.7
			c0,0.3,0.1,0.5,0.2,0.7c0.1,0.2,0.3,0.3,0.5,0.3c0.3,0,0.5-0.2,0.6-0.5h0.4c0,0.3-0.1,0.5-0.3,0.6c-0.2,0.2-0.4,0.2-0.7,0.2
			c-0.3,0-0.6-0.1-0.8-0.4c-0.2-0.2-0.3-0.6-0.3-1c0-0.4,0.1-0.7,0.3-1c0.2-0.2,0.5-0.4,0.8-0.4c0.3,0,0.5,0.1,0.7,0.3
			c0.2,0.2,0.3,0.4,0.3,0.6H259.4z"/>
		<path d="M260.5,54.6c-0.2-0.2-0.3-0.6-0.3-1c0-0.4,0.1-0.7,0.3-1c0.2-0.2,0.5-0.4,0.8-0.4c0.3,0,0.6,0.1,0.8,0.4
			c0.2,0.2,0.3,0.6,0.3,1c0,0.4-0.1,0.7-0.3,1c-0.2,0.2-0.5,0.4-0.8,0.4C261,55,260.7,54.9,260.5,54.6z M261.9,54.4
			c0.1-0.2,0.2-0.4,0.2-0.7c0-0.3-0.1-0.5-0.2-0.7c-0.1-0.2-0.3-0.3-0.5-0.3c-0.2,0-0.4,0.1-0.5,0.3c-0.1,0.2-0.2,0.4-0.2,0.7
			c0,0.3,0.1,0.5,0.2,0.7c0.1,0.2,0.3,0.3,0.5,0.3C261.6,54.6,261.7,54.5,261.9,54.4z"/>
		<path d="M263,52.4h0.4v0.4h0c0.2-0.3,0.4-0.5,0.8-0.5c0.3,0,0.5,0.1,0.6,0.3c0.2,0.2,0.2,0.4,0.2,0.7V55h-0.4v-1.6
			c0-0.2,0-0.4-0.1-0.5c-0.1-0.1-0.2-0.2-0.4-0.2c-0.2,0-0.4,0.1-0.5,0.2c-0.1,0.1-0.2,0.3-0.2,0.5V55H263V52.4z"/>
		<path d="M265.9,52.5c0.2-0.1,0.4-0.2,0.6-0.2c0.2,0,0.4,0.1,0.6,0.2c0.2,0.1,0.2,0.3,0.3,0.5H267c0-0.1-0.1-0.2-0.2-0.3
			c-0.1-0.1-0.2-0.1-0.4-0.1c-0.1,0-0.3,0-0.4,0.1c-0.1,0.1-0.1,0.2-0.1,0.3c0,0.2,0.1,0.3,0.4,0.4l0.4,0.1c0.2,0.1,0.4,0.2,0.5,0.3
			c0.1,0.1,0.1,0.3,0.1,0.4c0,0.2-0.1,0.4-0.3,0.6c-0.2,0.1-0.4,0.2-0.7,0.2c-0.3,0-0.5-0.1-0.6-0.2c-0.2-0.1-0.3-0.3-0.3-0.6h0.4
			c0,0.3,0.2,0.4,0.6,0.4c0.2,0,0.3,0,0.4-0.1c0.1-0.1,0.1-0.2,0.1-0.3c0-0.1,0-0.2-0.1-0.2c-0.1-0.1-0.2-0.1-0.3-0.1l-0.4-0.1
			c-0.4-0.1-0.6-0.4-0.6-0.7C265.6,52.9,265.7,52.7,265.9,52.5z"/>
		<path d="M268.1,51.9c0-0.1-0.1-0.1-0.1-0.2c0-0.1,0-0.1,0.1-0.2c0-0.1,0.1-0.1,0.2-0.1s0.1,0,0.2,0.1c0,0.1,0.1,0.1,0.1,0.2
			c0,0.1,0,0.1-0.1,0.2c0,0.1-0.1,0.1-0.2,0.1S268.1,51.9,268.1,51.9z M268,52.4h0.4V55H268V52.4z"/>
		<path d="M269.3,54.6c-0.2-0.2-0.3-0.6-0.3-1c0-0.4,0.1-0.7,0.3-1c0.2-0.2,0.4-0.4,0.7-0.4c0.4,0,0.6,0.2,0.8,0.5h0v-1.5h0.4V55
			h-0.4v-0.4h0c-0.2,0.3-0.4,0.5-0.8,0.5C269.7,55,269.5,54.9,269.3,54.6z M269.6,53c-0.1,0.2-0.2,0.4-0.2,0.7
			c0,0.3,0.1,0.5,0.2,0.7c0.1,0.2,0.3,0.3,0.5,0.3c0.2,0,0.4-0.1,0.5-0.3c0.1-0.2,0.2-0.4,0.2-0.7c0-0.3-0.1-0.5-0.2-0.7
			c-0.1-0.2-0.3-0.3-0.5-0.3C269.9,52.7,269.7,52.8,269.6,53z"/>
		<path d="M273.9,54.2c0,0.2-0.1,0.4-0.3,0.6c-0.2,0.1-0.4,0.2-0.7,0.2c-0.3,0-0.6-0.1-0.8-0.4c-0.2-0.2-0.3-0.6-0.3-1
			c0-0.4,0.1-0.7,0.3-1c0.2-0.2,0.5-0.4,0.8-0.4c0.3,0,0.6,0.1,0.8,0.3c0.2,0.2,0.3,0.5,0.3,0.9v0.2h-1.7v0c0,0.3,0.1,0.5,0.2,0.6
			c0.1,0.1,0.3,0.2,0.5,0.2c0.1,0,0.3,0,0.4-0.1c0.1-0.1,0.2-0.2,0.2-0.3H273.9z M272.4,52.9c-0.1,0.1-0.2,0.3-0.2,0.5h1.3
			c0-0.2-0.1-0.4-0.2-0.5c-0.1-0.1-0.3-0.2-0.5-0.2C272.7,52.7,272.5,52.8,272.4,52.9z"/>
		<path d="M274.5,52.4h0.4v0.4h0c0-0.1,0.1-0.2,0.2-0.3c0.1-0.1,0.2-0.1,0.4-0.1c0.1,0,0.1,0,0.1,0v0.4c0,0-0.1,0-0.2,0
			c-0.2,0-0.3,0.1-0.4,0.2c-0.1,0.1-0.1,0.3-0.1,0.4V55h-0.4V52.4z"/>
		<path d="M276.1,51.9c0-0.1-0.1-0.1-0.1-0.2c0-0.1,0-0.1,0.1-0.2c0-0.1,0.1-0.1,0.2-0.1s0.1,0,0.2,0.1c0,0.1,0.1,0.1,0.1,0.2
			c0,0.1,0,0.1-0.1,0.2c0,0.1-0.1,0.1-0.2,0.1S276.2,51.9,276.1,51.9z M276.1,52.4h0.4V55h-0.4V52.4z"/>
		<path d="M277.2,52.4h0.4v0.4h0c0.2-0.3,0.4-0.5,0.8-0.5c0.3,0,0.5,0.1,0.6,0.3c0.2,0.2,0.2,0.4,0.2,0.7V55h-0.4v-1.6
			c0-0.2,0-0.4-0.1-0.5c-0.1-0.1-0.2-0.2-0.4-0.2c-0.2,0-0.4,0.1-0.5,0.2c-0.1,0.1-0.2,0.3-0.2,0.5V55h-0.4V52.4z"/>
		<path d="M280.2,55.7c-0.2-0.1-0.3-0.3-0.3-0.5h0.4c0,0.1,0.1,0.2,0.2,0.3c0.1,0.1,0.2,0.1,0.4,0.1c0.2,0,0.4-0.1,0.5-0.2
			c0.1-0.1,0.2-0.3,0.2-0.4v-0.4h0c-0.2,0.3-0.4,0.5-0.8,0.5c-0.3,0-0.5-0.1-0.7-0.4c-0.2-0.2-0.3-0.6-0.3-1c0-0.4,0.1-0.7,0.3-1
			c0.2-0.2,0.4-0.4,0.7-0.4c0.3,0,0.6,0.2,0.8,0.5h0v-0.4h0.4v2.6c0,0.3-0.1,0.6-0.3,0.7c-0.2,0.2-0.5,0.3-0.8,0.3
			C280.6,55.9,280.3,55.9,280.2,55.7z M281.3,54.3c0.1-0.2,0.2-0.4,0.2-0.7c0-0.3-0.1-0.5-0.2-0.7s-0.3-0.3-0.5-0.3
			c-0.2,0-0.4,0.1-0.5,0.3c-0.1,0.2-0.2,0.4-0.2,0.7c0,0.3,0.1,0.5,0.2,0.7c0.1,0.2,0.3,0.3,0.5,0.3C281,54.6,281.2,54.5,281.3,54.3
			z"/>
		<path d="M284.4,51.8v0.6h0.5v0.4h-0.5v1.6c0,0.2,0.1,0.4,0.3,0.4c0.1,0,0.1,0,0.2,0V55c-0.1,0-0.1,0-0.2,0c-0.2,0-0.4-0.1-0.5-0.2
			c-0.1-0.1-0.1-0.3-0.1-0.5v-1.6h-0.3v-0.4h0.3v-0.6H284.4z"/>
		<path d="M285.5,51.3h0.4v1.5h0c0.1-0.3,0.4-0.5,0.8-0.5c0.3,0,0.5,0.1,0.6,0.3c0.2,0.2,0.2,0.4,0.2,0.7V55h-0.4v-1.6
			c0-0.2-0.1-0.4-0.2-0.5c-0.1-0.1-0.3-0.2-0.4-0.2c-0.2,0-0.4,0.1-0.5,0.2c-0.1,0.1-0.2,0.3-0.2,0.6V55h-0.4V51.3z"/>
		<path d="M290.1,54.2c0,0.2-0.1,0.4-0.3,0.6c-0.2,0.1-0.4,0.2-0.7,0.2c-0.3,0-0.6-0.1-0.8-0.4c-0.2-0.2-0.3-0.6-0.3-1
			c0-0.4,0.1-0.7,0.3-1c0.2-0.2,0.5-0.4,0.8-0.4c0.3,0,0.6,0.1,0.8,0.3c0.2,0.2,0.3,0.5,0.3,0.9v0.2h-1.7v0c0,0.3,0.1,0.5,0.2,0.6
			c0.1,0.1,0.3,0.2,0.5,0.2c0.1,0,0.3,0,0.4-0.1c0.1-0.1,0.2-0.2,0.2-0.3H290.1z M288.7,52.9c-0.1,0.1-0.2,0.3-0.2,0.5h1.3
			c0-0.2-0.1-0.4-0.2-0.5c-0.1-0.1-0.3-0.2-0.5-0.2C288.9,52.7,288.8,52.8,288.7,52.9z"/>
		<path d="M127.5,59.3h0.4V63h-0.4V59.3z"/>
		<path d="M128.8,62.6c-0.2-0.2-0.3-0.6-0.3-1c0-0.4,0.1-0.7,0.3-1c0.2-0.2,0.5-0.4,0.8-0.4s0.6,0.1,0.8,0.4c0.2,0.2,0.3,0.6,0.3,1
			c0,0.4-0.1,0.7-0.3,1c-0.2,0.2-0.5,0.4-0.8,0.4S129,62.9,128.8,62.6z M130.1,62.4c0.1-0.2,0.2-0.4,0.2-0.7c0-0.3-0.1-0.5-0.2-0.7
			c-0.1-0.2-0.3-0.3-0.5-0.3s-0.4,0.1-0.5,0.3c-0.1,0.2-0.2,0.4-0.2,0.7c0,0.3,0.1,0.5,0.2,0.7c0.1,0.2,0.3,0.3,0.5,0.3
			C129.8,62.6,129.9,62.5,130.1,62.4z"/>
		<path d="M132.8,61.2c0-0.1-0.1-0.3-0.2-0.4c-0.1-0.1-0.3-0.1-0.4-0.1c-0.2,0-0.4,0.1-0.5,0.3c-0.1,0.2-0.2,0.4-0.2,0.7
			c0,0.3,0.1,0.5,0.2,0.7c0.1,0.2,0.3,0.3,0.5,0.3c0.3,0,0.5-0.2,0.6-0.5h0.4c0,0.3-0.1,0.5-0.3,0.6c-0.2,0.2-0.4,0.2-0.7,0.2
			c-0.3,0-0.6-0.1-0.8-0.4c-0.2-0.2-0.3-0.6-0.3-1c0-0.4,0.1-0.7,0.3-1c0.2-0.2,0.5-0.4,0.8-0.4c0.3,0,0.5,0.1,0.7,0.3
			c0.2,0.2,0.3,0.4,0.3,0.6H132.8z"/>
		<path d="M133.8,62.8c-0.1-0.1-0.2-0.3-0.2-0.6c0-0.2,0.1-0.4,0.2-0.5c0.2-0.1,0.4-0.2,0.7-0.2l0.7,0v-0.2c0-0.2,0-0.3-0.1-0.4
			s-0.2-0.1-0.4-0.1c-0.1,0-0.3,0-0.3,0.1c-0.1,0.1-0.2,0.2-0.2,0.3h-0.4c0-0.2,0.1-0.4,0.3-0.6c0.2-0.1,0.4-0.2,0.6-0.2
			c0.3,0,0.5,0.1,0.7,0.2c0.2,0.2,0.3,0.4,0.3,0.6V63h-0.4v-0.5h0c-0.1,0.1-0.2,0.3-0.3,0.3c-0.1,0.1-0.3,0.1-0.5,0.1
			C134.2,63,134,62.9,133.8,62.8z M135,62.5c0.1-0.1,0.2-0.3,0.2-0.5v-0.2l-0.6,0c-0.4,0-0.5,0.2-0.5,0.4c0,0.1,0,0.2,0.1,0.3
			c0.1,0.1,0.2,0.1,0.4,0.1C134.7,62.6,134.9,62.6,135,62.5z"/>
		<path d="M136.8,59.8v0.6h0.5v0.4h-0.5v1.6c0,0.2,0.1,0.4,0.3,0.4c0.1,0,0.1,0,0.2,0V63c-0.1,0-0.1,0-0.2,0c-0.2,0-0.4-0.1-0.5-0.2
			c-0.1-0.1-0.1-0.3-0.1-0.5v-1.6H136v-0.4h0.3v-0.6H136.8z"/>
		<path d="M137.9,59.9c0-0.1-0.1-0.1-0.1-0.2c0-0.1,0-0.1,0.1-0.2c0-0.1,0.1-0.1,0.2-0.1c0.1,0,0.1,0,0.2,0.1c0,0.1,0.1,0.1,0.1,0.2
			c0,0.1,0,0.1-0.1,0.2c0,0.1-0.1,0.1-0.2,0.1C138,59.9,137.9,59.9,137.9,59.9z M137.8,60.4h0.4V63h-0.4V60.4z"/>
		<path d="M139.1,62.6c-0.2-0.2-0.3-0.6-0.3-1c0-0.4,0.1-0.7,0.3-1c0.2-0.2,0.5-0.4,0.8-0.4s0.6,0.1,0.8,0.4c0.2,0.2,0.3,0.6,0.3,1
			c0,0.4-0.1,0.7-0.3,1c-0.2,0.2-0.5,0.4-0.8,0.4S139.3,62.9,139.1,62.6z M140.4,62.4c0.1-0.2,0.2-0.4,0.2-0.7
			c0-0.3-0.1-0.5-0.2-0.7c-0.1-0.2-0.3-0.3-0.5-0.3s-0.4,0.1-0.5,0.3c-0.1,0.2-0.2,0.4-0.2,0.7c0,0.3,0.1,0.5,0.2,0.7
			c0.1,0.2,0.3,0.3,0.5,0.3C140.1,62.6,140.3,62.5,140.4,62.4z"/>
		<path d="M141.6,60.4h0.4v0.4h0c0.2-0.3,0.4-0.5,0.8-0.5c0.3,0,0.5,0.1,0.6,0.3c0.2,0.2,0.2,0.4,0.2,0.7V63h-0.4v-1.6
			c0-0.2,0-0.4-0.1-0.5c-0.1-0.1-0.2-0.2-0.4-0.2c-0.2,0-0.4,0.1-0.5,0.2c-0.1,0.1-0.2,0.3-0.2,0.5V63h-0.4V60.4z"/>
		<path d="M144.2,63.6l0.2-1.1h0.4l-0.3,1.1H144.2z"/>
		<path d="M147,62.8c-0.1-0.1-0.2-0.3-0.2-0.6c0-0.2,0.1-0.4,0.2-0.5c0.2-0.1,0.4-0.2,0.7-0.2l0.7,0v-0.2c0-0.2,0-0.3-0.1-0.4
			s-0.2-0.1-0.4-0.1c-0.1,0-0.3,0-0.3,0.1c-0.1,0.1-0.2,0.2-0.2,0.3h-0.4c0-0.2,0.1-0.4,0.3-0.6c0.2-0.1,0.4-0.2,0.6-0.2
			c0.3,0,0.5,0.1,0.7,0.2c0.2,0.2,0.3,0.4,0.3,0.6V63h-0.4v-0.5h0c-0.1,0.1-0.2,0.3-0.3,0.3c-0.1,0.1-0.3,0.1-0.5,0.1
			C147.3,63,147.1,62.9,147,62.8z M148.1,62.5c0.1-0.1,0.2-0.3,0.2-0.5v-0.2l-0.6,0c-0.4,0-0.5,0.2-0.5,0.4c0,0.1,0,0.2,0.1,0.3
			c0.1,0.1,0.2,0.1,0.4,0.1C147.9,62.6,148,62.6,148.1,62.5z"/>
		<path d="M151,61.2c0-0.1-0.1-0.3-0.2-0.4c-0.1-0.1-0.3-0.1-0.4-0.1c-0.2,0-0.4,0.1-0.5,0.3c-0.1,0.2-0.2,0.4-0.2,0.7
			c0,0.3,0.1,0.5,0.2,0.7c0.1,0.2,0.3,0.3,0.5,0.3c0.3,0,0.5-0.2,0.6-0.5h0.4c0,0.3-0.1,0.5-0.3,0.6c-0.2,0.2-0.4,0.2-0.7,0.2
			c-0.3,0-0.6-0.1-0.8-0.4c-0.2-0.2-0.3-0.6-0.3-1c0-0.4,0.1-0.7,0.3-1c0.2-0.2,0.5-0.4,0.8-0.4c0.3,0,0.5,0.1,0.7,0.3
			c0.2,0.2,0.3,0.4,0.3,0.6H151z"/>
		<path d="M153.5,61.2c0-0.1-0.1-0.3-0.2-0.4c-0.1-0.1-0.3-0.1-0.4-0.1c-0.2,0-0.4,0.1-0.5,0.3c-0.1,0.2-0.2,0.4-0.2,0.7
			c0,0.3,0.1,0.5,0.2,0.7c0.1,0.2,0.3,0.3,0.5,0.3c0.3,0,0.5-0.2,0.6-0.5h0.4c0,0.3-0.1,0.5-0.3,0.6c-0.2,0.2-0.4,0.2-0.7,0.2
			c-0.3,0-0.6-0.1-0.8-0.4c-0.2-0.2-0.3-0.6-0.3-1c0-0.4,0.1-0.7,0.3-1c0.2-0.2,0.5-0.4,0.8-0.4c0.3,0,0.5,0.1,0.7,0.3
			c0.2,0.2,0.3,0.4,0.3,0.6H153.5z"/>
		<path d="M154.6,62.6c-0.2-0.2-0.3-0.6-0.3-1c0-0.4,0.1-0.7,0.3-1c0.2-0.2,0.5-0.4,0.8-0.4s0.6,0.1,0.8,0.4c0.2,0.2,0.3,0.6,0.3,1
			c0,0.4-0.1,0.7-0.3,1c-0.2,0.2-0.5,0.4-0.8,0.4S154.8,62.9,154.6,62.6z M155.9,62.4c0.1-0.2,0.2-0.4,0.2-0.7
			c0-0.3-0.1-0.5-0.2-0.7c-0.1-0.2-0.3-0.3-0.5-0.3s-0.4,0.1-0.5,0.3c-0.1,0.2-0.2,0.4-0.2,0.7c0,0.3,0.1,0.5,0.2,0.7
			c0.1,0.2,0.3,0.3,0.5,0.3C155.6,62.6,155.8,62.5,155.9,62.4z"/>
		<path d="M157.1,60.4h0.4v0.4h0c0.1-0.1,0.1-0.3,0.3-0.3c0.1-0.1,0.3-0.1,0.4-0.1c0.3,0,0.6,0.2,0.7,0.5h0c0.1-0.2,0.2-0.3,0.3-0.4
			s0.3-0.1,0.4-0.1c0.2,0,0.4,0.1,0.6,0.2c0.1,0.2,0.2,0.4,0.2,0.6V63h-0.4v-1.7c0-0.2,0-0.3-0.1-0.4c-0.1-0.1-0.2-0.2-0.4-0.2
			s-0.3,0.1-0.4,0.2c-0.1,0.1-0.2,0.3-0.2,0.4V63h-0.4v-1.8c0-0.2,0-0.3-0.1-0.4c-0.1-0.1-0.2-0.1-0.4-0.1c-0.2,0-0.3,0.1-0.4,0.2
			c-0.1,0.1-0.2,0.3-0.2,0.5V63h-0.4V60.4z"/>
		<path d="M161,60.4h0.4v0.4h0c0.1-0.1,0.1-0.3,0.3-0.3c0.1-0.1,0.3-0.1,0.4-0.1c0.3,0,0.6,0.2,0.7,0.5h0c0.1-0.2,0.2-0.3,0.3-0.4
			s0.3-0.1,0.4-0.1c0.2,0,0.4,0.1,0.6,0.2c0.1,0.2,0.2,0.4,0.2,0.6V63h-0.4v-1.7c0-0.2,0-0.3-0.1-0.4c-0.1-0.1-0.2-0.2-0.4-0.2
			s-0.3,0.1-0.4,0.2c-0.1,0.1-0.2,0.3-0.2,0.4V63h-0.4v-1.8c0-0.2,0-0.3-0.1-0.4c-0.1-0.1-0.2-0.1-0.4-0.1c-0.2,0-0.3,0.1-0.4,0.2
			c-0.1,0.1-0.2,0.3-0.2,0.5V63H161V60.4z"/>
		<path d="M165.1,62.6c-0.2-0.2-0.3-0.6-0.3-1c0-0.4,0.1-0.7,0.3-1c0.2-0.2,0.5-0.4,0.8-0.4s0.6,0.1,0.8,0.4c0.2,0.2,0.3,0.6,0.3,1
			c0,0.4-0.1,0.7-0.3,1c-0.2,0.2-0.5,0.4-0.8,0.4S165.3,62.9,165.1,62.6z M166.4,62.4c0.1-0.2,0.2-0.4,0.2-0.7
			c0-0.3-0.1-0.5-0.2-0.7c-0.1-0.2-0.3-0.3-0.5-0.3s-0.4,0.1-0.5,0.3c-0.1,0.2-0.2,0.4-0.2,0.7c0,0.3,0.1,0.5,0.2,0.7
			c0.1,0.2,0.3,0.3,0.5,0.3C166.1,62.6,166.3,62.5,166.4,62.4z"/>
		<path d="M167.7,62.6c-0.2-0.2-0.3-0.6-0.3-1c0-0.4,0.1-0.7,0.3-1c0.2-0.2,0.4-0.4,0.7-0.4c0.4,0,0.6,0.2,0.8,0.5h0v-1.5h0.4V63
			h-0.4v-0.4h0c-0.2,0.3-0.4,0.5-0.8,0.5C168.2,63,167.9,62.9,167.7,62.6z M168,61c-0.1,0.2-0.2,0.4-0.2,0.7c0,0.3,0.1,0.5,0.2,0.7
			c0.1,0.2,0.3,0.3,0.5,0.3c0.2,0,0.4-0.1,0.5-0.3c0.1-0.2,0.2-0.4,0.2-0.7c0-0.3-0.1-0.5-0.2-0.7c-0.1-0.2-0.3-0.3-0.5-0.3
			C168.3,60.7,168.1,60.8,168,61z"/>
		<path d="M170.4,62.8c-0.1-0.1-0.2-0.3-0.2-0.6c0-0.2,0.1-0.4,0.2-0.5c0.2-0.1,0.4-0.2,0.7-0.2l0.7,0v-0.2c0-0.2,0-0.3-0.1-0.4
			s-0.2-0.1-0.4-0.1c-0.1,0-0.3,0-0.3,0.1c-0.1,0.1-0.2,0.2-0.2,0.3h-0.4c0-0.2,0.1-0.4,0.3-0.6c0.2-0.1,0.4-0.2,0.6-0.2
			c0.3,0,0.5,0.1,0.7,0.2c0.2,0.2,0.3,0.4,0.3,0.6V63h-0.4v-0.5h0c-0.1,0.1-0.2,0.3-0.3,0.3c-0.1,0.1-0.3,0.1-0.5,0.1
			C170.8,63,170.6,62.9,170.4,62.8z M171.6,62.5c0.1-0.1,0.2-0.3,0.2-0.5v-0.2l-0.6,0c-0.4,0-0.5,0.2-0.5,0.4c0,0.1,0,0.2,0.1,0.3
			c0.1,0.1,0.2,0.1,0.4,0.1C171.3,62.6,171.4,62.6,171.6,62.5z"/>
		<path d="M173.3,59.8v0.6h0.5v0.4h-0.5v1.6c0,0.2,0.1,0.4,0.3,0.4c0.1,0,0.1,0,0.2,0V63c-0.1,0-0.1,0-0.2,0c-0.2,0-0.4-0.1-0.5-0.2
			c-0.1-0.1-0.1-0.3-0.1-0.5v-1.6h-0.3v-0.4h0.3v-0.6H173.3z"/>
		<path d="M174.4,59.9c0-0.1-0.1-0.1-0.1-0.2c0-0.1,0-0.1,0.1-0.2c0-0.1,0.1-0.1,0.2-0.1c0.1,0,0.1,0,0.2,0.1c0,0.1,0.1,0.1,0.1,0.2
			c0,0.1,0,0.1-0.1,0.2c0,0.1-0.1,0.1-0.2,0.1C174.5,59.9,174.5,59.9,174.4,59.9z M174.4,60.4h0.4V63h-0.4V60.4z"/>
		<path d="M175.7,62.6c-0.2-0.2-0.3-0.6-0.3-1c0-0.4,0.1-0.7,0.3-1c0.2-0.2,0.5-0.4,0.8-0.4s0.6,0.1,0.8,0.4c0.2,0.2,0.3,0.6,0.3,1
			c0,0.4-0.1,0.7-0.3,1c-0.2,0.2-0.5,0.4-0.8,0.4S175.9,62.9,175.7,62.6z M177,62.4c0.1-0.2,0.2-0.4,0.2-0.7c0-0.3-0.1-0.5-0.2-0.7
			c-0.1-0.2-0.3-0.3-0.5-0.3s-0.4,0.1-0.5,0.3c-0.1,0.2-0.2,0.4-0.2,0.7c0,0.3,0.1,0.5,0.2,0.7c0.1,0.2,0.3,0.3,0.5,0.3
			C176.7,62.6,176.9,62.5,177,62.4z"/>
		<path d="M178.2,60.4h0.4v0.4h0c0.2-0.3,0.4-0.5,0.8-0.5c0.3,0,0.5,0.1,0.6,0.3c0.2,0.2,0.2,0.4,0.2,0.7V63h-0.4v-1.6
			c0-0.2,0-0.4-0.1-0.5c-0.1-0.1-0.2-0.2-0.4-0.2c-0.2,0-0.4,0.1-0.5,0.2c-0.1,0.1-0.2,0.3-0.2,0.5V63h-0.4V60.4z"/>
		<path d="M180.8,63.6l0.2-1.1h0.4l-0.3,1.1H180.8z"/>
		<path d="M185,61.2c0-0.1-0.1-0.3-0.2-0.4c-0.1-0.1-0.3-0.1-0.4-0.1c-0.2,0-0.4,0.1-0.5,0.3c-0.1,0.2-0.2,0.4-0.2,0.7
			c0,0.3,0.1,0.5,0.2,0.7c0.1,0.2,0.3,0.3,0.5,0.3c0.3,0,0.5-0.2,0.6-0.5h0.4c0,0.3-0.1,0.5-0.3,0.6c-0.2,0.2-0.4,0.2-0.7,0.2
			c-0.3,0-0.6-0.1-0.8-0.4c-0.2-0.2-0.3-0.6-0.3-1c0-0.4,0.1-0.7,0.3-1c0.2-0.2,0.5-0.4,0.8-0.4c0.3,0,0.5,0.1,0.7,0.3
			c0.2,0.2,0.3,0.4,0.3,0.6H185z"/>
		<path d="M186.2,62.6c-0.2-0.2-0.3-0.6-0.3-1c0-0.4,0.1-0.7,0.3-1c0.2-0.2,0.5-0.4,0.8-0.4s0.6,0.1,0.8,0.4c0.2,0.2,0.3,0.6,0.3,1
			c0,0.4-0.1,0.7-0.3,1c-0.2,0.2-0.5,0.4-0.8,0.4S186.4,62.9,186.2,62.6z M187.5,62.4c0.1-0.2,0.2-0.4,0.2-0.7
			c0-0.3-0.1-0.5-0.2-0.7c-0.1-0.2-0.3-0.3-0.5-0.3s-0.4,0.1-0.5,0.3c-0.1,0.2-0.2,0.4-0.2,0.7c0,0.3,0.1,0.5,0.2,0.7
			c0.1,0.2,0.3,0.3,0.5,0.3C187.2,62.6,187.3,62.5,187.5,62.4z"/>
		<path d="M190.6,63h-0.4v-0.4h0c-0.1,0.3-0.4,0.5-0.8,0.5c-0.3,0-0.5-0.1-0.6-0.3c-0.2-0.2-0.2-0.4-0.2-0.7v-1.7h0.4V62
			c0,0.2,0,0.4,0.1,0.5c0.1,0.1,0.2,0.2,0.4,0.2c0.2,0,0.4-0.1,0.5-0.2c0.1-0.1,0.2-0.3,0.2-0.5v-1.5h0.4V63z"/>
		<path d="M191.3,60.4h0.4v0.4h0c0-0.1,0.1-0.2,0.2-0.3c0.1-0.1,0.2-0.1,0.4-0.1c0.1,0,0.1,0,0.1,0v0.4c0,0-0.1,0-0.2,0
			c-0.2,0-0.3,0.1-0.4,0.2c-0.1,0.1-0.1,0.3-0.1,0.4V63h-0.4V60.4z"/>
		<path d="M193.1,60.5c0.2-0.1,0.4-0.2,0.6-0.2c0.2,0,0.4,0.1,0.6,0.2c0.2,0.1,0.2,0.3,0.3,0.5h-0.4c0-0.1-0.1-0.2-0.2-0.3
			c-0.1-0.1-0.2-0.1-0.4-0.1c-0.1,0-0.3,0-0.4,0.1c-0.1,0.1-0.1,0.2-0.1,0.3c0,0.2,0.1,0.3,0.4,0.4l0.4,0.1c0.2,0.1,0.4,0.2,0.5,0.3
			c0.1,0.1,0.1,0.3,0.1,0.4c0,0.2-0.1,0.4-0.3,0.6c-0.2,0.1-0.4,0.2-0.7,0.2c-0.3,0-0.5-0.1-0.6-0.2c-0.2-0.1-0.3-0.3-0.3-0.6h0.4
			c0,0.3,0.2,0.4,0.6,0.4c0.2,0,0.3,0,0.4-0.1c0.1-0.1,0.1-0.2,0.1-0.3c0-0.1,0-0.2-0.1-0.2c-0.1-0.1-0.2-0.1-0.3-0.1l-0.4-0.1
			c-0.4-0.1-0.6-0.4-0.6-0.7C192.9,60.9,192.9,60.7,193.1,60.5z"/>
		<path d="M197.2,62.2c0,0.2-0.1,0.4-0.3,0.6c-0.2,0.1-0.4,0.2-0.7,0.2c-0.3,0-0.6-0.1-0.8-0.4c-0.2-0.2-0.3-0.6-0.3-1
			c0-0.4,0.1-0.7,0.3-1c0.2-0.2,0.5-0.4,0.8-0.4c0.3,0,0.6,0.1,0.8,0.3c0.2,0.2,0.3,0.5,0.3,0.9v0.2h-1.7v0c0,0.3,0.1,0.5,0.2,0.6
			c0.1,0.1,0.3,0.2,0.5,0.2c0.1,0,0.3,0,0.4-0.1c0.1-0.1,0.2-0.2,0.2-0.3H197.2z M195.7,60.9c-0.1,0.1-0.2,0.3-0.2,0.5h1.3
			c0-0.2-0.1-0.4-0.2-0.5c-0.1-0.1-0.3-0.2-0.5-0.2C196,60.7,195.9,60.8,195.7,60.9z"/>
		<path d="M198,60.5c0.2-0.1,0.4-0.2,0.6-0.2c0.2,0,0.4,0.1,0.6,0.2c0.2,0.1,0.2,0.3,0.3,0.5h-0.4c0-0.1-0.1-0.2-0.2-0.3
			c-0.1-0.1-0.2-0.1-0.4-0.1c-0.1,0-0.3,0-0.4,0.1c-0.1,0.1-0.1,0.2-0.1,0.3c0,0.2,0.1,0.3,0.4,0.4l0.4,0.1c0.2,0.1,0.4,0.2,0.5,0.3
			c0.1,0.1,0.1,0.3,0.1,0.4c0,0.2-0.1,0.4-0.3,0.6c-0.2,0.1-0.4,0.2-0.7,0.2c-0.3,0-0.5-0.1-0.6-0.2c-0.2-0.1-0.3-0.3-0.3-0.6h0.4
			c0,0.3,0.2,0.4,0.6,0.4c0.2,0,0.3,0,0.4-0.1c0.1-0.1,0.1-0.2,0.1-0.3c0-0.1,0-0.2-0.1-0.2c-0.1-0.1-0.2-0.1-0.3-0.1l-0.4-0.1
			c-0.4-0.1-0.6-0.4-0.6-0.7C197.8,60.9,197.9,60.7,198,60.5z"/>
		<path d="M200.1,63.6l0.2-1.1h0.4l-0.3,1.1H200.1z"/>
		<path d="M202.9,62.8c-0.1-0.1-0.2-0.3-0.2-0.6c0-0.2,0.1-0.4,0.2-0.5c0.2-0.1,0.4-0.2,0.7-0.2l0.7,0v-0.2c0-0.2,0-0.3-0.1-0.4
			s-0.2-0.1-0.4-0.1c-0.1,0-0.3,0-0.3,0.1c-0.1,0.1-0.2,0.2-0.2,0.3h-0.4c0-0.2,0.1-0.4,0.3-0.6c0.2-0.1,0.4-0.2,0.6-0.2
			c0.3,0,0.5,0.1,0.7,0.2c0.2,0.2,0.3,0.4,0.3,0.6V63h-0.4v-0.5h0c-0.1,0.1-0.2,0.3-0.3,0.3c-0.1,0.1-0.3,0.1-0.5,0.1
			C203.2,63,203,62.9,202.9,62.8z M204,62.5c0.1-0.1,0.2-0.3,0.2-0.5v-0.2l-0.6,0c-0.4,0-0.5,0.2-0.5,0.4c0,0.1,0,0.2,0.1,0.3
			c0.1,0.1,0.2,0.1,0.4,0.1C203.7,62.6,203.9,62.6,204,62.5z"/>
		<path d="M205.3,60.4h0.4v0.4h0c0.2-0.3,0.4-0.5,0.8-0.5c0.3,0,0.5,0.1,0.6,0.3c0.2,0.2,0.2,0.4,0.2,0.7V63h-0.4v-1.6
			c0-0.2,0-0.4-0.1-0.5c-0.1-0.1-0.2-0.2-0.4-0.2c-0.2,0-0.4,0.1-0.5,0.2c-0.1,0.1-0.2,0.3-0.2,0.5V63h-0.4V60.4z"/>
		<path d="M208.1,62.6c-0.2-0.2-0.3-0.6-0.3-1c0-0.4,0.1-0.7,0.3-1c0.2-0.2,0.4-0.4,0.7-0.4c0.4,0,0.6,0.2,0.8,0.5h0v-1.5h0.4V63
			h-0.4v-0.4h0c-0.2,0.3-0.4,0.5-0.8,0.5C208.6,63,208.3,62.9,208.1,62.6z M208.4,61c-0.1,0.2-0.2,0.4-0.2,0.7
			c0,0.3,0.1,0.5,0.2,0.7c0.1,0.2,0.3,0.3,0.5,0.3c0.2,0,0.4-0.1,0.5-0.3c0.1-0.2,0.2-0.4,0.2-0.7c0-0.3-0.1-0.5-0.2-0.7
			c-0.1-0.2-0.3-0.3-0.5-0.3C208.7,60.7,208.5,60.8,208.4,61z"/>
		<path d="M212.1,62.8c-0.1-0.1-0.2-0.3-0.2-0.6c0-0.2,0.1-0.4,0.2-0.5c0.2-0.1,0.4-0.2,0.7-0.2l0.7,0v-0.2c0-0.2,0-0.3-0.1-0.4
			s-0.2-0.1-0.4-0.1c-0.1,0-0.3,0-0.3,0.1c-0.1,0.1-0.2,0.2-0.2,0.3H212c0-0.2,0.1-0.4,0.3-0.6c0.2-0.1,0.4-0.2,0.6-0.2
			c0.3,0,0.5,0.1,0.7,0.2c0.2,0.2,0.3,0.4,0.3,0.6V63h-0.4v-0.5h0c-0.1,0.1-0.2,0.3-0.3,0.3c-0.1,0.1-0.3,0.1-0.5,0.1
			C212.4,63,212.2,62.9,212.1,62.8z M213.2,62.5c0.1-0.1,0.2-0.3,0.2-0.5v-0.2l-0.6,0c-0.4,0-0.5,0.2-0.5,0.4c0,0.1,0,0.2,0.1,0.3
			c0.1,0.1,0.2,0.1,0.4,0.1C212.9,62.6,213.1,62.6,213.2,62.5z"/>
		<path d="M215.5,63h-0.4l-0.9-2.6h0.4l0.7,2.2h0l0.7-2.2h0.4L215.5,63z"/>
		<path d="M217,62.8c-0.1-0.1-0.2-0.3-0.2-0.6c0-0.2,0.1-0.4,0.2-0.5c0.2-0.1,0.4-0.2,0.7-0.2l0.7,0v-0.2c0-0.2,0-0.3-0.1-0.4
			s-0.2-0.1-0.4-0.1c-0.1,0-0.3,0-0.3,0.1c-0.1,0.1-0.2,0.2-0.2,0.3h-0.4c0-0.2,0.1-0.4,0.3-0.6c0.2-0.1,0.4-0.2,0.6-0.2
			c0.3,0,0.5,0.1,0.7,0.2c0.2,0.2,0.3,0.4,0.3,0.6V63h-0.4v-0.5h0c-0.1,0.1-0.2,0.3-0.3,0.3c-0.1,0.1-0.3,0.1-0.5,0.1
			C217.3,63,217.1,62.9,217,62.8z M218.1,62.5c0.1-0.1,0.2-0.3,0.2-0.5v-0.2l-0.6,0c-0.4,0-0.5,0.2-0.5,0.4c0,0.1,0,0.2,0.1,0.3
			c0.1,0.1,0.2,0.1,0.4,0.1C217.8,62.6,218,62.6,218.1,62.5z"/>
		<path d="M219.4,59.9c0-0.1-0.1-0.1-0.1-0.2c0-0.1,0-0.1,0.1-0.2c0-0.1,0.1-0.1,0.2-0.1c0.1,0,0.1,0,0.2,0.1c0,0.1,0.1,0.1,0.1,0.2
			c0,0.1,0,0.1-0.1,0.2c0,0.1-0.1,0.1-0.2,0.1C219.5,59.9,219.5,59.9,219.4,59.9z M219.4,60.4h0.4V63h-0.4V60.4z"/>
		<path d="M220.5,59.3h0.4V63h-0.4V59.3z"/>
		<path d="M221.7,62.8c-0.1-0.1-0.2-0.3-0.2-0.6c0-0.2,0.1-0.4,0.2-0.5c0.2-0.1,0.4-0.2,0.7-0.2l0.7,0v-0.2c0-0.2,0-0.3-0.1-0.4
			s-0.2-0.1-0.4-0.1c-0.1,0-0.3,0-0.3,0.1c-0.1,0.1-0.2,0.2-0.2,0.3h-0.4c0-0.2,0.1-0.4,0.3-0.6c0.2-0.1,0.4-0.2,0.6-0.2
			c0.3,0,0.5,0.1,0.7,0.2c0.2,0.2,0.3,0.4,0.3,0.6V63h-0.4v-0.5h0c-0.1,0.1-0.2,0.3-0.3,0.3c-0.1,0.1-0.3,0.1-0.5,0.1
			C222.1,63,221.9,62.9,221.7,62.8z M222.9,62.5c0.1-0.1,0.2-0.3,0.2-0.5v-0.2l-0.6,0c-0.4,0-0.5,0.2-0.5,0.4c0,0.1,0,0.2,0.1,0.3
			c0.1,0.1,0.2,0.1,0.4,0.1C222.6,62.6,222.8,62.6,222.9,62.5z"/>
		<path d="M224.5,62.5L224.5,62.5l0,0.4h-0.4v-3.7h0.4v1.5h0c0.2-0.3,0.4-0.5,0.8-0.5c0.3,0,0.5,0.1,0.7,0.4c0.2,0.2,0.3,0.6,0.3,1
			c0,0.4-0.1,0.7-0.3,1c-0.2,0.2-0.4,0.4-0.7,0.4C225,63,224.7,62.9,224.5,62.5z M224.7,61c-0.1,0.2-0.2,0.4-0.2,0.7
			c0,0.3,0.1,0.5,0.2,0.7c0.1,0.2,0.3,0.3,0.5,0.3c0.2,0,0.4-0.1,0.5-0.3c0.1-0.2,0.2-0.4,0.2-0.7c0-0.3-0.1-0.5-0.2-0.7
			c-0.1-0.2-0.3-0.3-0.5-0.3C225,60.7,224.9,60.8,224.7,61z"/>
		<path d="M226.9,59.9c0-0.1-0.1-0.1-0.1-0.2c0-0.1,0-0.1,0.1-0.2c0-0.1,0.1-0.1,0.2-0.1c0.1,0,0.1,0,0.2,0.1c0,0.1,0.1,0.1,0.1,0.2
			c0,0.1,0,0.1-0.1,0.2c0,0.1-0.1,0.1-0.2,0.1C227,59.9,227,59.9,226.9,59.9z M226.9,60.4h0.4V63h-0.4V60.4z"/>
		<path d="M228,59.3h0.4V63H228V59.3z"/>
		<path d="M229.2,59.9c0-0.1-0.1-0.1-0.1-0.2c0-0.1,0-0.1,0.1-0.2c0-0.1,0.1-0.1,0.2-0.1c0.1,0,0.1,0,0.2,0.1c0,0.1,0.1,0.1,0.1,0.2
			c0,0.1,0,0.1-0.1,0.2c0,0.1-0.1,0.1-0.2,0.1C229.3,59.9,229.2,59.9,229.2,59.9z M229.2,60.4h0.4V63h-0.4V60.4z"/>
		<path d="M230.8,59.8v0.6h0.5v0.4h-0.5v1.6c0,0.2,0.1,0.4,0.3,0.4c0.1,0,0.1,0,0.2,0V63c-0.1,0-0.1,0-0.2,0c-0.2,0-0.4-0.1-0.5-0.2
			c-0.1-0.1-0.1-0.3-0.1-0.5v-1.6h-0.3v-0.4h0.3v-0.6H230.8z"/>
		<path d="M231.9,63.9v-0.4c0,0,0.1,0,0.2,0c0.1,0,0.2,0,0.3-0.1c0.1-0.1,0.1-0.2,0.2-0.3l0-0.2l-0.9-2.6h0.4l0.7,2.2h0l0.7-2.2h0.4
			l-0.9,2.8c-0.1,0.3-0.2,0.5-0.3,0.6c-0.1,0.1-0.3,0.2-0.5,0.2C232,63.9,231.9,63.9,231.9,63.9z"/>
		<path d="M235.7,62.6c-0.2-0.2-0.3-0.6-0.3-1c0-0.4,0.1-0.7,0.3-1c0.2-0.2,0.5-0.4,0.8-0.4c0.3,0,0.6,0.1,0.8,0.4
			c0.2,0.2,0.3,0.6,0.3,1c0,0.4-0.1,0.7-0.3,1c-0.2,0.2-0.5,0.4-0.8,0.4C236.2,63,235.9,62.9,235.7,62.6z M237,62.4
			c0.1-0.2,0.2-0.4,0.2-0.7c0-0.3-0.1-0.5-0.2-0.7c-0.1-0.2-0.3-0.3-0.5-0.3c-0.2,0-0.4,0.1-0.5,0.3c-0.1,0.2-0.2,0.4-0.2,0.7
			c0,0.3,0.1,0.5,0.2,0.7c0.1,0.2,0.3,0.3,0.5,0.3C236.7,62.6,236.9,62.5,237,62.4z"/>
		<path d="M238.3,60.7H238v-0.4h0.3v-0.2c0-0.2,0.1-0.4,0.2-0.5c0.1-0.1,0.3-0.2,0.5-0.2c0.1,0,0.1,0,0.2,0v0.4c-0.1,0-0.1,0-0.2,0
			c-0.1,0-0.2,0-0.2,0.1c0,0.1-0.1,0.1-0.1,0.3v0.2h0.5v0.4h-0.5V63h-0.4V60.7z"/>
		<path d="M241,59.3h0.4V63H241V59.3z"/>
		<path d="M244.1,62.2c0,0.2-0.1,0.4-0.3,0.6c-0.2,0.1-0.4,0.2-0.7,0.2c-0.3,0-0.6-0.1-0.8-0.4c-0.2-0.2-0.3-0.6-0.3-1
			c0-0.4,0.1-0.7,0.3-1c0.2-0.2,0.5-0.4,0.8-0.4c0.3,0,0.6,0.1,0.8,0.3c0.2,0.2,0.3,0.5,0.3,0.9v0.2h-1.7v0c0,0.3,0.1,0.5,0.2,0.6
			c0.1,0.1,0.3,0.2,0.5,0.2c0.1,0,0.3,0,0.4-0.1c0.1-0.1,0.2-0.2,0.2-0.3H244.1z M242.6,60.9c-0.1,0.1-0.2,0.3-0.2,0.5h1.3
			c0-0.2-0.1-0.4-0.2-0.5c-0.1-0.1-0.3-0.2-0.5-0.2S242.7,60.8,242.6,60.9z"/>
		<path d="M244.7,59.9c0-0.1-0.1-0.1-0.1-0.2c0-0.1,0-0.1,0.1-0.2c0-0.1,0.1-0.1,0.2-0.1c0.1,0,0.1,0,0.2,0.1c0,0.1,0.1,0.1,0.1,0.2
			c0,0.1,0,0.1-0.1,0.2c0,0.1-0.1,0.1-0.2,0.1C244.8,59.9,244.8,59.9,244.7,59.9z M244.7,60.4h0.4V63h-0.4V60.4z"/>
		<path d="M246,60.5c0.2-0.1,0.4-0.2,0.6-0.2c0.2,0,0.4,0.1,0.6,0.2c0.2,0.1,0.2,0.3,0.3,0.5h-0.4c0-0.1-0.1-0.2-0.2-0.3
			c-0.1-0.1-0.2-0.1-0.4-0.1c-0.1,0-0.3,0-0.4,0.1c-0.1,0.1-0.1,0.2-0.1,0.3c0,0.2,0.1,0.3,0.4,0.4l0.4,0.1c0.2,0.1,0.4,0.2,0.5,0.3
			c0.1,0.1,0.1,0.3,0.1,0.4c0,0.2-0.1,0.4-0.3,0.6c-0.2,0.1-0.4,0.2-0.7,0.2c-0.3,0-0.5-0.1-0.6-0.2c-0.2-0.1-0.3-0.3-0.3-0.6h0.4
			c0,0.3,0.2,0.4,0.6,0.4c0.2,0,0.3,0,0.4-0.1c0.1-0.1,0.1-0.2,0.1-0.3c0-0.1,0-0.2-0.1-0.2c-0.1-0.1-0.2-0.1-0.3-0.1l-0.4-0.1
			c-0.4-0.1-0.6-0.4-0.6-0.7C245.8,60.9,245.9,60.7,246,60.5z"/>
		<path d="M250.1,63h-0.4v-0.4h0c-0.1,0.3-0.4,0.5-0.8,0.5c-0.3,0-0.5-0.1-0.6-0.3c-0.2-0.2-0.2-0.4-0.2-0.7v-1.7h0.4V62
			c0,0.2,0,0.4,0.1,0.5c0.1,0.1,0.2,0.2,0.4,0.2c0.2,0,0.4-0.1,0.5-0.2c0.1-0.1,0.2-0.3,0.2-0.5v-1.5h0.4V63z"/>
		<path d="M250.8,60.4h0.4v0.4h0c0-0.1,0.1-0.2,0.2-0.3c0.1-0.1,0.2-0.1,0.4-0.1c0.1,0,0.1,0,0.1,0v0.4c0,0-0.1,0-0.2,0
			c-0.2,0-0.3,0.1-0.4,0.2c-0.1,0.1-0.1,0.3-0.1,0.4V63h-0.4V60.4z"/>
		<path d="M254.3,62.2c0,0.2-0.1,0.4-0.3,0.6c-0.2,0.1-0.4,0.2-0.7,0.2c-0.3,0-0.6-0.1-0.8-0.4c-0.2-0.2-0.3-0.6-0.3-1
			c0-0.4,0.1-0.7,0.3-1c0.2-0.2,0.5-0.4,0.8-0.4c0.3,0,0.6,0.1,0.8,0.3c0.2,0.2,0.3,0.5,0.3,0.9v0.2h-1.7v0c0,0.3,0.1,0.5,0.2,0.6
			c0.1,0.1,0.3,0.2,0.5,0.2c0.1,0,0.3,0,0.4-0.1c0.1-0.1,0.2-0.2,0.2-0.3H254.3z M252.8,60.9c-0.1,0.1-0.2,0.3-0.2,0.5h1.3
			c0-0.2-0.1-0.4-0.2-0.5c-0.1-0.1-0.3-0.2-0.5-0.2S252.9,60.8,252.8,60.9z"/>
		<path d="M256.3,62.8c-0.1-0.1-0.2-0.3-0.2-0.6c0-0.2,0.1-0.4,0.2-0.5c0.2-0.1,0.4-0.2,0.7-0.2l0.7,0v-0.2c0-0.2,0-0.3-0.1-0.4
			s-0.2-0.1-0.4-0.1c-0.1,0-0.3,0-0.3,0.1c-0.1,0.1-0.2,0.2-0.2,0.3h-0.4c0-0.2,0.1-0.4,0.3-0.6c0.2-0.1,0.4-0.2,0.6-0.2
			c0.3,0,0.5,0.1,0.7,0.2c0.2,0.2,0.3,0.4,0.3,0.6V63h-0.4v-0.5h0c-0.1,0.1-0.2,0.3-0.3,0.3c-0.1,0.1-0.3,0.1-0.5,0.1
			C256.6,63,256.4,62.9,256.3,62.8z M257.4,62.5c0.1-0.1,0.2-0.3,0.2-0.5v-0.2l-0.6,0c-0.4,0-0.5,0.2-0.5,0.4c0,0.1,0,0.2,0.1,0.3
			c0.1,0.1,0.2,0.1,0.4,0.1C257.1,62.6,257.3,62.6,257.4,62.5z"/>
		<path d="M260.2,61.2c0-0.1-0.1-0.3-0.2-0.4c-0.1-0.1-0.3-0.1-0.4-0.1c-0.2,0-0.4,0.1-0.5,0.3c-0.1,0.2-0.2,0.4-0.2,0.7
			c0,0.3,0.1,0.5,0.2,0.7c0.1,0.2,0.3,0.3,0.5,0.3c0.3,0,0.5-0.2,0.6-0.5h0.4c0,0.3-0.1,0.5-0.3,0.6c-0.2,0.2-0.4,0.2-0.7,0.2
			c-0.3,0-0.6-0.1-0.8-0.4c-0.2-0.2-0.3-0.6-0.3-1c0-0.4,0.1-0.7,0.3-1c0.2-0.2,0.5-0.4,0.8-0.4c0.3,0,0.5,0.1,0.7,0.3
			c0.2,0.2,0.3,0.4,0.3,0.6H260.2z"/>
		<path d="M261.7,59.8v0.6h0.5v0.4h-0.5v1.6c0,0.2,0.1,0.4,0.3,0.4c0.1,0,0.1,0,0.2,0V63c-0.1,0-0.1,0-0.2,0c-0.2,0-0.4-0.1-0.5-0.2
			c-0.1-0.1-0.1-0.3-0.1-0.5v-1.6H261v-0.4h0.3v-0.6H261.7z"/>
		<path d="M262.8,59.9c0-0.1-0.1-0.1-0.1-0.2c0-0.1,0-0.1,0.1-0.2c0-0.1,0.1-0.1,0.2-0.1c0.1,0,0.1,0,0.2,0.1c0,0.1,0.1,0.1,0.1,0.2
			c0,0.1,0,0.1-0.1,0.2c0,0.1-0.1,0.1-0.2,0.1C262.9,59.9,262.8,59.9,262.8,59.9z M262.8,60.4h0.4V63h-0.4V60.4z"/>
		<path d="M264.9,63h-0.4l-0.9-2.6h0.4l0.7,2.2h0l0.7-2.2h0.4L264.9,63z"/>
		<path d="M266.3,59.9c0-0.1-0.1-0.1-0.1-0.2c0-0.1,0-0.1,0.1-0.2c0-0.1,0.1-0.1,0.2-0.1s0.1,0,0.2,0.1c0,0.1,0.1,0.1,0.1,0.2
			c0,0.1,0,0.1-0.1,0.2c0,0.1-0.1,0.1-0.2,0.1S266.4,59.9,266.3,59.9z M266.3,60.4h0.4V63h-0.4V60.4z"/>
		<path d="M267.9,59.8v0.6h0.5v0.4h-0.5v1.6c0,0.2,0.1,0.4,0.3,0.4c0.1,0,0.1,0,0.2,0V63c-0.1,0-0.1,0-0.2,0c-0.2,0-0.4-0.1-0.5-0.2
			c-0.1-0.1-0.1-0.3-0.1-0.5v-1.6h-0.3v-0.4h0.3v-0.6H267.9z"/>
		<path d="M269,59.9c0-0.1-0.1-0.1-0.1-0.2c0-0.1,0-0.1,0.1-0.2c0-0.1,0.1-0.1,0.2-0.1s0.1,0,0.2,0.1c0,0.1,0.1,0.1,0.1,0.2
			c0,0.1,0,0.1-0.1,0.2c0,0.1-0.1,0.1-0.2,0.1S269.1,59.9,269,59.9z M269,60.4h0.4V63H269V60.4z"/>
		<path d="M272.1,62.2c0,0.2-0.1,0.4-0.3,0.6c-0.2,0.1-0.4,0.2-0.7,0.2c-0.3,0-0.6-0.1-0.8-0.4c-0.2-0.2-0.3-0.6-0.3-1
			c0-0.4,0.1-0.7,0.3-1c0.2-0.2,0.5-0.4,0.8-0.4c0.3,0,0.6,0.1,0.8,0.3c0.2,0.2,0.3,0.5,0.3,0.9v0.2h-1.7v0c0,0.3,0.1,0.5,0.2,0.6
			c0.1,0.1,0.3,0.2,0.5,0.2c0.1,0,0.3,0,0.4-0.1c0.1-0.1,0.2-0.2,0.2-0.3H272.1z M270.6,60.9c-0.1,0.1-0.2,0.3-0.2,0.5h1.3
			c0-0.2-0.1-0.4-0.2-0.5c-0.1-0.1-0.3-0.2-0.5-0.2C270.9,60.7,270.7,60.8,270.6,60.9z"/>
		<path d="M272.9,60.5c0.2-0.1,0.4-0.2,0.6-0.2c0.2,0,0.4,0.1,0.6,0.2c0.2,0.1,0.2,0.3,0.3,0.5H274c0-0.1-0.1-0.2-0.2-0.3
			c-0.1-0.1-0.2-0.1-0.4-0.1c-0.1,0-0.3,0-0.4,0.1c-0.1,0.1-0.1,0.2-0.1,0.3c0,0.2,0.1,0.3,0.4,0.4l0.4,0.1c0.2,0.1,0.4,0.2,0.5,0.3
			c0.1,0.1,0.1,0.3,0.1,0.4c0,0.2-0.1,0.4-0.3,0.6c-0.2,0.1-0.4,0.2-0.7,0.2c-0.3,0-0.5-0.1-0.6-0.2c-0.2-0.1-0.3-0.3-0.3-0.6h0.4
			c0,0.3,0.2,0.4,0.6,0.4c0.2,0,0.3,0,0.4-0.1c0.1-0.1,0.1-0.2,0.1-0.3c0-0.1,0-0.2-0.1-0.2c-0.1-0.1-0.2-0.1-0.3-0.1l-0.4-0.1
			c-0.4-0.1-0.6-0.4-0.6-0.7C272.6,60.9,272.7,60.7,272.9,60.5z"/>
		<path d="M275.2,62.9c0-0.1-0.1-0.1-0.1-0.2c0-0.1,0-0.1,0.1-0.2c0-0.1,0.1-0.1,0.2-0.1c0.1,0,0.1,0,0.2,0.1c0,0.1,0.1,0.1,0.1,0.2
			c0,0.1,0,0.1-0.1,0.2c0,0.1-0.1,0.1-0.2,0.1C275.3,63,275.2,63,275.2,62.9z"/>
	</g>
</g>
</svg>
