<?xml version="1.0" encoding="utf-8"?>
<!-- Generator: Adobe Illustrator 22.1.0, SVG Export Plug-In . SVG Version: 6.00 Build 0)  -->
<svg version="1.1" id="Layer_1" xmlns="http://www.w3.org/2000/svg" xmlns:xlink="http://www.w3.org/1999/xlink" x="0px" y="0px"
	 viewBox="0 0 1440 619.2" style="enable-background:new 0 0 1440 619.2;" xml:space="preserve">
<style type="text/css">
	.st0{fill:#2E1AAF;}
	.st1{display:none;}
	.st2{fill:#18B485;}
	.st3{fill:#FF4D37;}
	.st4{fill:#FEB832;}
	.st5{fill:#FFD0C0;}
	.st6{fill:#2E1515;}
	.st7{fill:#2E53BC;}
	.st8{fill:#301712;}
	.st9{fill:#FFFFFF;}
	.st10{fill:#61BCE0;}
	.st11{fill:#7362D1;}
	.st12{fill:#1C080D;}
	.st13{fill:#FEB934;}
	.st14{fill:#8D3CD3;}
	.st15{fill:#8D3CD3;stroke:#6820B6;stroke-miterlimit:10;}
	.st16{fill:#8D3CD3;stroke:#6820B6;stroke-width:1.9434;stroke-miterlimit:10;}
	.st17{fill:#FEB832;stroke:#E8991A;stroke-width:1.4173;stroke-miterlimit:10;}
	.st18{display:none;fill:#6581F3;stroke:#223387;stroke-miterlimit:10;}
	.st19{fill:#18B485;stroke:#158C51;stroke-miterlimit:10;}
	.st20{fill:#18B485;stroke:#158C51;stroke-width:1.4173;stroke-miterlimit:10;}
	.st21{fill:none;}
</style>
<g id="Layer_3">
	<rect class="st0" width="1440" height="619.2"/>
</g>
<g id="Layer_1_1_" class="st1">
</g>
<path class="st2" d="M1278.9,253c-25.4,29.4-48.1,70.9-40.4,77.9c3.4,3.1,16.5,2.6,78.9-49.6c0.8-10.2,1.3-21.1,1.5-32.6
	c0.1-11-0.1-21.5-0.6-31.4C1307.5,224.9,1293.2,236.5,1278.9,253z"/>
<path class="st3" d="M1392.2,512.8c15.9,24.1,31.9,48.1,47.8,72.2c0.1-97.4,0.2-194.9,0.2-292.3c-30.9,11.5-61.8,23-92.7,34.5
	C1362.4,389.1,1377.3,451,1392.2,512.8z"/>
<path class="st4" d="M1193.2,492c-5.2,20-10.1,41.6-14.3,64.7c-4,22-7,42.9-9.2,62.6c32.3,0,64.6,0,96.8,0
	c4.8-25.8,9.7-51.7,14.5-77.5c37.4,25.8,74.8,51.7,112.1,77.5c15.6,0,31.2,0,46.8,0c0-24.7,0-49.4,0-74.1
	c-35.7-25.9-71.3-51.9-106.9-78c-15.2-11.1-30.4-22.3-45.6-33.4C1256.1,453.2,1224.6,472.6,1193.2,492z"/>
<path class="st5" d="M1274.8,235.6c-0.1-0.4-0.4-0.9-0.8-1.4c-0.5-0.7-1.1-1.2-1.3-1.3c-1-0.8-1.4-2-2.2-4.3c-1-3.1-1.6-4.7-1-5.9
	c0.7-1.5,2.4-2.1,3.1-2.3c2.4-0.7,4.6,0.1,5.6,0.5c1.7,1.6,4.6,4.8,6.5,9.7c2.3,6,1.7,11.3,1.3,13.7c-1.5-0.2-3.1-0.4-4.8-0.5
	c-1.9-0.1-3.7-0.2-5.4-0.2c0.1-0.9,0.2-2.2,0.1-3.6C1275.7,238.2,1275.2,236.7,1274.8,235.6z"/>
<path class="st5" d="M967.6,369.2c-0.4-0.3-1-0.8-1.5-1.5c-0.7-1-1-1.8-1.2-2.1c-0.6-1.5-2-2.5-4.6-4.3c-3.6-2.5-5.4-3.7-7.1-3.4
	c-2.2,0.4-3.5,2.3-4,3.1c-1.8,2.8-1.6,5.9-1.4,7.2c1.4,2.7,4.3,7.6,9.8,11.7c6.7,5.1,13.6,6.3,16.7,6.6c0.3-2,0.7-4.1,1.1-6.2
	c0.5-2.4,1.1-4.7,1.7-6.9c-1.2-0.2-2.8-0.5-4.5-1.2C970.5,371.3,968.8,370.1,967.6,369.2z"/>
<path class="st6" d="M1152,291.8c3,1.6,5.7,3.5,7.6,6.2c3,3.8,4.1,8.7,3.3,13.6c-0.3,1.4-0.8,2.4-1.6,3.3c-1.4,1.1-3,1.9-4.6,2.2
	c-2.4,0.3-4.9,0-7.3-0.8c-7.6-3-11.7-10.3-14.1-14.7c-1.1-2.2-2.2-4.3-2.7-6.8c-0.5-2.7-0.8-5.7-0.3-8.7c4.3,0.3,8.4,1.1,12.5,2.4
	C1147.1,289.3,1149.8,290.4,1152,291.8z"/>
<path class="st6" d="M1116.1,324.6c0.5,1.9,1.4,3.5,2.2,5.2c1.9,2.7,4.3,4.9,7.6,6.2c1.1,0.5,6.5,2.4,9.2-0.3
	c1.4-1.4,1.4-3.3,1.4-6.5c-0.3-3.8-1.4-7.6-3.5-10.9c-0.5-0.8-1.1-1.6-1.9-2.2c-1.1-0.5-2.2-1.1-3.3-1.4c-1.4-0.3-3-1.1-4.1-2.2
	c-1.1-1.4-0.5-2.2-1.4-2.7c-1.1-0.5-3.5,1.9-4.9,4.1C1115.6,317.3,1115,320.8,1116.1,324.6z"/>
<path class="st5" d="M1138.1,291.5c3.5,6,7.9,11.7,11.7,17.7c3.3,5.2,8.2,13,15.8,23.9c0.5,1.4,1.1,2.7,1.1,4.1c0.3,1.9,0.3,4.1,0,6
	c-0.8,6-2.2,11.7-3.8,17.4c-1.1,4.3-3,8.2-5.4,11.7c-3.5,4.6-9,7.3-14.9,7.6c-4.1,0-10.3-1.6-10.6-4.9c0-0.5,0-2.2,2.2-4.1
	c-0.5-0.8-1.1-1.6-1.6-2.4c-2.4-5.7-2.4-12.2,0-18.2l-4.3-27.7c-0.8,0.3-1.6,0.5-2.4,0.5c-1.1,0-1.9-0.3-3-0.5
	c-5.2-2.2-8.2-19.3-8.2-19.3c-1.6-9.5-2.4-14.4,0.3-18.7c0.5-0.5,3.5-5.7,8.4-6s9,4.9,12.2,8.7
	C1136.5,288.5,1137.3,289.9,1138.1,291.5z"/>
<path class="st6" d="M1135.7,277.1c-3.3-2.4-7.1-3.5-11.1-3c-3.5,0-7.1,1.1-10.1,3c-0.5,0.3-6,4.9-4.6,10.3c0.5,1.6,1.4,3.3,2.7,4.3
	c2.4,1.9,5.7,3,9,3c5.4,0.5,10.6-1.4,14.7-5.2c2.2-1.9,3.3-4.6,3.3-7.6C1138.9,280.1,1137.6,278.2,1135.7,277.1z"/>
<path class="st7" d="M498.1,586.3c-2.5,11-5,22-7.5,32.9c42.1,0,84.2,0,126.3,0c0.2-11.2,0.3-22.4,0.5-33.6
	C577.6,585.8,537.9,586.1,498.1,586.3z"/>
<path class="st5" d="M541.4,451.4c2.3-4.8,4.6-10.2,6.8-16.1c2.5-7,4.3-13.5,5.6-19.4c-0.6,0.4-2,1.2-3.6,0.9c0,0-1.5-0.3-2.7-1.6
	c-3.5-3.9,1.1-25.4,14.3-29.6c2.1-0.7,4-0.8,5-0.7c0.8,0,2.2,0.1,3.5,0.8c6.1,3.4,3.3,16.2,4.8,32.5c0.5,4.9,1.5,12.4,4.4,21.5
	l-12.4,18.9l-21.7,2.5C544.1,457.9,542.7,454.6,541.4,451.4z"/>
<path class="st3" d="M434.3,480.4c-9,3.8-14.6,7.5-22.2,12.9c-4.3,3-8.7,7.5-7.5,12.6c0.7,0.2,1.7,0.4,2.9,0.6
	c20.6,4,36.4,0.3,53.3-2.8c10.5-1.9,25.8-4.5,45.2-6.7c-3.7,25.9-7.3,51.8-11,77.7c-0.5,3.8-1.1,7.8-0.2,11.5
	c2.6,10.9,15.4,15.9,26.6,18.1c27.5,5.5,56.1,5,83.4-1.3c3.7-0.9,7.5-1.9,10.3-4.5c4.7-4.4,4.8-11.6,4.6-18
	c-1.2-35.6-2-70.5-1.1-85.4c0.4-6.8,1.1-12.2,1.5-14.9c7.3,0.6,14.8,1,22.5,1.2c30,1,57.8-0.5,83.1-3.6c-1-11.4,1.8-17.9,5.6-21.7
	c2-2,3.8-2.8,3.8-4.2c-0.2-4.5-19.8-7.2-31-8.6c-39.9-4.9-74.2-6.2-104-8c-9.7-0.6-17.4-1.1-22-1.4c-0.9,1.9-2.3,4.8-4.7,7.7
	c-6,7.3-17.5,15-23,11.5c-5.6-3.5-2.4-16.9-2.2-17.8c-1.9,0.1-4.7,0.2-8,0.6c-13.4,1.5-24.2,5.1-39.8,11.8c-7,3-17.3,8.1-37.8,18.2
	C428.4,482.8,437.1,479.2,434.3,480.4z"/>
<path class="st5" d="M708.1,452.3c2.3-4.8,4.6-10.2,6.8-16.1c2.5-7,4.3-13.5,5.6-19.4c-0.6,0.4-2,1.2-3.6,0.9c0,0-1.5-0.3-2.7-1.6
	c-3.5-3.9,1.1-25.4,14.3-29.6c2.1-0.7,4-0.8,5-0.7c0.8,0,2.2,0.1,3.5,0.8c6.1,3.4,3.3,16.2,4.8,32.5c0.5,4.9,1.5,12.4,4.4,21.5
	l-12.4,18.9l-21.7,2.5C710.8,458.7,709.5,455.5,708.1,452.3z"/>
<path class="st5" d="M23.9,237.2v30.5L0,247.5v-10.3c5.2-2.3,8.7-4.9,10.9-6.8c5.7-4.9,10.7-11.8,11-12.3c3.6-5,4.3-7.3,6.8-7.8
	c3.1-0.6,6.6,2.3,8.3,5c2.6,4.2,1.3,8.7-1,17.3c-2.3,8.6-4.5,9.3-5.3,9.5c-1.5,0.3-3.4-0.3-4.8-1.5C24.4,239.4,24,237.8,23.9,237.2z
	"/>
<path class="st5" d="M92.9,299.5c0-0.4,0-0.9-0.1-1.6c-0.1-1.1-0.3-1.9-0.4-2.4c-0.4-1.7-0.3-3.2-0.3-4.1c0-1.2,0.1-2.5,0.6-3.9
	c0.3-0.9,0.5-1.4,1.1-1.9c1.2-1,2.9-0.8,3.8-0.7c0,0,2,0.3,3.5,1.3c3.3,2.4,3.6,8.7,2.9,13.1c-1.1,7-5.2,12.8-5.2,12.8
	s0.1-0.2,0.3-0.6c0.2-0.7-7.8-3.7-8.5-3.9C91.3,305.4,92.9,302.6,92.9,299.5z"/>
<path class="st4" d="M40.3,263c1,1.4,4.4,11.4,4.4,19.9c0,0-0.6,21.8,2.2,64.5c0.9,13.9,3.1,18.9,6.2,19.7c4.2,1,9.6-6.6,13.2-11.6
	c5.6-7.8,8.2-14.7,10.5-20.8c3.4-8.8,6.6-17.3,11.5-30.2c2.3,0.1,5.2,0.4,8.3,1.2c2.9,0.7,5.4,1.7,7.4,2.6
	c-2.9,19.1-6.9,34.6-10.3,45.9c-4.8,16.1-9.1,26.5-15.4,36.7c-8.6,14.1-15.2,18.7-20.8,21.2c-2.8,1.2-8.7,3.9-16.5,3.1
	c-13.4-1.4-21.4-11.9-23.9-15.2c-7.8-10.4-8.4-21.6-8.4-25.9c-1.2,3.2-2.8,6.8-5.2,10.7c-1.2,2-2.5,3.8-3.7,5.3
	c0-51.3,0-102.6,0-153.9c1.1,4.2,2.6,7.7,4.1,10.6c1.3,2.5,2.4,4.6,4.4,6.9c1.7,1.9,6.9,7.8,11.1,6.2c3.2-1.2,4.1-6,4.2-7.1
	C27.2,253.7,35,255.9,40.3,263z"/>
<path class="st8" d="M38.2,220.4c1.9,0.1,2.4-0.3,2.7-0.5c0.7-0.7,0.6-1.9,0.6-2.5c-0.2-2.4-1.8-4-3.6-5.9c-2-2.1-3.9-3.3-5.4-4.2
	c-2.6-1.6-4-2-5-2.2c-1.1-0.2-2.3-0.3-3.4,0.1c-0.7,0.2-1.4,0.7-2,1.1c-2,1.5-3.6,3.4-5.2,5.3c-1.6,2-3.2,3.9-4.9,5.9
	c-5,6.1-6.4,7.4-6.8,10.2c-0.2,1-0.4,2.4,0.2,3.9c1.1,2.6,4,4,6.4,4.1c0.6,0,2.4,0.1,4.1-1c3.4-2.1,3.1-6.4,6.9-16.4
	c0.6-1.7,1.7-4.3,3-4.3c0.8,0,1.1,0.8,2.6,2.2c1.4,1.2,2.6,1.8,4,2.5C35.6,220.1,37.5,220.3,38.2,220.4z"/>
<path class="st9" d="M75.9,247.5c5.5-6.8-1.7-16.3-3.1-32.9c-1.8-22.9,9.1-41,11.2-44.6c15.5-25.7,42.8-33.2,49.5-35.1
	c5.4-1.5,32.1-8.4,60,4.3c7,3.2,18.3,8.5,27,20.6c8.6,11.9,10.1,23.9,11,31c2.2,16.9-1.7,30.1-3,34.2c-1.5,4.7-7.5,21.6-23.6,35
	c-22.5,18.9-49.8,18.5-65.7,18.2c-22.1-0.3-41.7-6.7-51.6-9.9c-4.1-1.3-2.4-1-19.2-7c-10.9-3.9-16.6-5.8-16.3-7.3
	C52.6,251.3,69.4,255.5,75.9,247.5z"/>
<path class="st9" d="M321.3,346.2c-11.1-9.9-32.2-16.7-32.2-16.7c-9.9-3.2-25.2-7.9-45.3-7.2c-14.9,0.5-22.2,3.7-24.3,4.6
	c-5.7,2.6-14.9,6.8-19.6,16.8c-5.7,12.2-0.8,24.2,0.4,27c5,11.2,14.5,16.2,22.6,20.3c17.3,9,33.6,8,43.2,7.4c17-1,25.8-6,29.1-8.2
	c5.1-3.3,7.6-6.4,8.8-8c1.7-2.3,6.1-8.3,5.8-16.1c-0.2-5.7-2.9-8.8-0.8-11.9c1.4-2.1,4-2.6,4.6-2.7c4.3-0.9,12.1,1.4,13.9,1.3
	c0,0,0.1,0,0.2-0.1C328.1,352.3,323,347.7,321.3,346.2z"/>
<path class="st10" d="M597.4,356.7c1.5-1.6,2.1-3.3,2.4-4.3c2.4-7.8,1.2-16.8,3.6-25.6c0.5-1.9,2.3-7.6,7-13.2s10-8.3,12.4-9.4
	c5.8-2.9,10.7-3.6,12.2-3.8c1.6-0.2,7.7-0.9,14.9,0.9c3.3,0.9,20.9,6,26.2,22.6c0.8,2.5,3.3,11.5-0.9,21.2
	c-5,11.5-15.8,15.7-19.7,17.2c-13.3,5.1-25.2,1.3-29.6-0.2c-8.5-2.9-14.3-7.6-17.5-10.6c-0.8,1.2-1.5,2.6-2.5,3.7
	c-1.7,2.1-4.2,3.3-6.8,4c-2,0.5-5.7,1.5-7.6,0.6C593.5,358.9,595.7,358.4,597.4,356.7z"/>
<polygon class="st10" points="691.1,589.1 689.9,619.2 837.6,619.2 818.7,550.9 "/>
<path class="st9" d="M787.5,398.9c0.6-1.9,0-2.8-0.3-7.2c-0.2-2.8-0.6-7.3,0.2-10.9c1.8-8.1,9.6-12.5,10.2-12.8
	c5-2.5,11-2.9,16.5-1.5c1.7,0.4,7.9,2.6,11.6,8.9c5,8.5,1.3,17.4,0.7,18.9c-0.7,1.8-2.8,6.8-8,9.7c-3.6,2-7.1,2.2-9.6,2.3
	c-2.2,0.1-5.7-0.3-12.7-1.2c-0.9-0.1-2.8-0.3-5.4-0.2c-1.8,0.1-3.3,0.4-4.3,0.6c-5.9,1.5-7.2,1.4-7.4,1.1
	C779,405.7,785.9,404.1,787.5,398.9z"/>
<path class="st4" d="M1057.4,318.4c-1.8,0-1.6-0.2-7.5-0.7c-4.2-0.4-6.4-0.6-8.2-0.5c-4.4,0.2-7.5,1.5-9.7,2.2
	c-2.7,0.9-17.2,6-28,0.4c-4.3-2.2-6.6-5.5-8.2-7.6c-7.5-10.4-5.6-22.5-5.2-25.2c1.2-7.6,4.4-12.7,6-15.3c5.7-9,13.1-13.5,18.4-16.6
	c6.1-3.5,14.5-8.5,25.7-8c6.4,0.3,11.6,2.2,13.3,2.9c3.1,1.2,6.1,2.4,9.1,5.1c0.8,0.7,7.3,6.8,7.8,16.3c0.4,7.5-3.2,13.3-5.3,16.5
	c-3,4.7-6.2,6.7-9.4,13.6c-1.1,2.3-2,4.7-1.1,7.1c1,2.9,3.7,4.3,4.6,4.8c4.2,2.2,8.1,0.9,8.2,1.6
	C1068.2,315.8,1063.2,318.3,1057.4,318.4z"/>
<path class="st11" d="M1251.7,129.2c-1.7-0.4-3.6-1.2-4.4-2.8c-1.2-2.4,0.6-5.1,2.1-7.3c3-4.5,5-9.6,5.9-15c0.3-1.8,0.4-3.9-0.3-6.5
	c-1.4-4.7-5.1-7.2-6.9-8.4c-5.8-3.9-11.9-4-14.6-4c-1.7,0-6.1,0.2-14.6,3.7c-15.8,6.5-25.9,16.3-30.6,22.4c-2.4,3-3.9,5.7-4.6,7.1
	c-2,3.9-3.6,7-3.7,10.6c-0.1,8,7.5,13.7,8.2,14.2c7.6,5.5,16.8,3.8,21.9,2.9c5.3-1,9.2-2.8,13.1-4.7c5.9-2.8,10.3-5.9,13.4-8.3
	c1.3,1.1,6,4.7,12.8,4.7c9,0,14.5-6.4,15.3-7.3c0.4-0.9-5.9-0.6-6.3-0.6C1256.2,130,1253.9,129.7,1251.7,129.2z"/>
<g>
	<path class="st9" d="M298.2,94.3l-6.7-26.4h3.6l3.1,13.3c0.8,3.3,1.5,6.6,2,9.1h0.1c0.4-2.6,1.3-5.8,2.2-9.2l3.5-13.3h3.6l3.2,13.4
		c0.7,3.1,1.4,6.3,1.8,9h0.1c0.5-2.9,1.3-5.8,2.1-9.1l3.5-13.3h3.5l-7.5,26.4h-3.6l-3.3-13.7c-0.8-3.4-1.4-5.9-1.7-8.6h-0.1
		c-0.5,2.6-1.1,5.2-2,8.6l-3.8,13.7L298.2,94.3L298.2,94.3z"/>
	<path class="st9" d="M326.7,66.5h3.4v11.8h0.1c0.5-1,1.4-1.8,2.5-2.4c1-0.6,2.2-1,3.5-1c2.5,0,6.6,1.6,6.6,8.1v11.3h-3.4V83.4
		c0-3.1-1.1-5.6-4.4-5.6c-2.2,0-4,1.6-4.6,3.4c-0.2,0.5-0.2,1-0.2,1.6v11.5h-3.4V66.5H326.7z"/>
	<path class="st9" d="M349.2,75.3l4.1,11.2c0.4,1.3,0.9,2.7,1.2,3.9h0.1c0.4-1.1,0.7-2.6,1.2-4l3.8-11.1h3.6L358,88.8
		c-2.5,6.5-4.1,9.8-6.5,11.9c-1.7,1.5-3.4,2.1-4.2,2.2l-0.9-2.9c0.9-0.3,2-0.8,3-1.7c0.9-0.7,2.1-2.1,2.9-3.8
		c0.2-0.4,0.3-0.6,0.3-0.8c0-0.2-0.1-0.5-0.2-0.9l-7-17.5C345.4,75.3,349.2,75.3,349.2,75.3z"/>
	<path class="st9" d="M374.5,94.3c0.1-1.3,0.2-3.2,0.2-4.9V66.5h3.4v11.9h0.1c1.2-2.1,3.4-3.5,6.5-3.5c4.7,0,8,3.9,8,9.7
		c0,6.8-4.3,10.1-8.5,10.1c-2.7,0-4.9-1.1-6.3-3.6h-0.1l-0.2,3.1h-3.1V94.3z M378.1,86.7c0,0.4,0.1,0.9,0.2,1.3c0.7,2.4,2.7,4,5.2,4
		c3.6,0,5.8-2.9,5.8-7.3c0-3.8-2-7-5.6-7c-2.3,0-4.5,1.6-5.2,4.2c-0.1,0.4-0.2,0.9-0.2,1.4v3.4H378.1z"/>
	<path class="st9" d="M414.1,84.7c0,7-4.9,10.1-9.4,10.1c-5.1,0-9.1-3.8-9.1-9.7c0-6.3,4.1-10.1,9.4-10.1
		C410.4,74.9,414.1,78.9,414.1,84.7z M399,84.9c0,4.1,2.4,7.3,5.8,7.3c3.3,0,5.8-3.1,5.8-7.4c0-3.2-1.6-7.3-5.7-7.3
		S399,81.3,399,84.9z"/>
	<path class="st9" d="M435.6,84.7c0,7-4.9,10.1-9.4,10.1c-5.1,0-9.1-3.8-9.1-9.7c0-6.3,4.1-10.1,9.4-10.1
		C431.9,74.9,435.6,78.9,435.6,84.7z M420.5,84.9c0,4.1,2.4,7.3,5.8,7.3c3.3,0,5.8-3.1,5.8-7.4c0-3.2-1.6-7.3-5.7-7.3
		S420.5,81.3,420.5,84.9z"/>
	<path class="st9" d="M443.3,84L443.3,84c0.5-0.7,1.2-1.5,1.8-2.2l5.6-6.5h4.1l-7.3,7.8l8.3,11.2h-4.2l-6.5-9.1l-1.8,2v7.1h-3.4
		V66.5h3.4V84z"/>
	<path class="st9" d="M467.9,75.3l2.5,9.6c0.5,2.1,1.1,4.1,1.4,6h0.1c0.4-1.9,1.1-4,1.7-6l3.1-9.7h2.9l2.9,9.5
		c0.7,2.3,1.3,4.3,1.7,6.2h0.1c0.3-1.9,0.8-3.9,1.4-6.1l2.7-9.5h3.4l-6.1,18.9h-3.1l-2.9-9c-0.7-2.1-1.2-4-1.7-6.2l0,0
		c-0.5,2.3-1.1,4.2-1.7,6.3l-3.1,9h-3.1l-5.7-19H467.9z"/>
	<path class="st9" d="M499.2,70c0,1.2-0.8,2.1-2.2,2.1c-1.2,0-2.1-0.9-2.1-2.1s0.9-2.2,2.2-2.2C498.4,67.9,499.2,68.8,499.2,70z
		 M495.4,94.3v-19h3.4v19H495.4z"/>
	<path class="st9" d="M508.7,69.9v5.4h4.9v2.6h-4.9v10.2c0,2.3,0.7,3.7,2.6,3.7c0.9,0,1.6-0.1,2-0.2l0.2,2.6
		c-0.7,0.3-1.7,0.5-3.1,0.5c-1.6,0-2.9-0.5-3.7-1.4c-1-1-1.3-2.7-1.3-4.9V78h-2.9v-2.7h2.9v-4.5L508.7,69.9z"/>
	<path class="st9" d="M517.5,66.5h3.4v11.8h0.1c0.5-1,1.4-1.8,2.5-2.4c1-0.6,2.2-1,3.5-1c2.5,0,6.6,1.6,6.6,8.1v11.3h-3.4V83.4
		c0-3.1-1.1-5.6-4.4-5.6c-2.2,0-4,1.6-4.6,3.4c-0.2,0.5-0.2,1-0.2,1.6v11.5h-3.4L517.5,66.5L517.5,66.5z"/>
	<path class="st9" d="M547.6,67.9h3.4v23.5h11.3v2.9h-14.7V67.9z"/>
	<path class="st9" d="M569.8,70c0,1.2-0.8,2.1-2.2,2.1c-1.2,0-2.1-0.9-2.1-2.1s0.9-2.2,2.2-2.2C569,67.9,569.8,68.8,569.8,70z
		 M566,94.3v-19h3.4v19H566z"/>
	<path class="st9" d="M575.1,80.5c0-2,0-3.6-0.2-5.1h3.1l0.2,3.1h0.1c0.9-1.8,3.1-3.6,6.3-3.6c2.6,0,6.7,1.6,6.7,8.1v11.3h-3.4V83.4
		c0-3.1-1.1-5.6-4.4-5.6c-2.3,0-4,1.6-4.6,3.5c-0.2,0.4-0.2,1-0.2,1.6v11.4h-3.4V80.5H575.1z"/>
	<path class="st9" d="M613.2,75.3c-0.1,1.4-0.2,2.9-0.2,5.2v11c0,4.3-0.9,7-2.7,8.6c-1.8,1.7-4.5,2.3-6.9,2.3
		c-2.3,0-4.8-0.5-6.3-1.6l0.9-2.6c1.3,0.8,3.2,1.5,5.6,1.5c3.5,0,6.1-1.8,6.1-6.6V91h-0.1c-1.1,1.8-3.1,3.2-6,3.2
		c-4.7,0-8.1-4-8.1-9.2c0-6.4,4.2-10.1,8.5-10.1c3.3,0,5.1,1.7,5.9,3.3h0.1l0.2-2.9C610.2,75.3,613.2,75.3,613.2,75.3z M609.6,82.8
		c0-0.6,0-1.1-0.2-1.6c-0.6-2-2.3-3.6-4.8-3.6c-3.3,0-5.6,2.8-5.6,7.2c0,3.7,1.9,6.8,5.6,6.8c2.1,0,4-1.3,4.8-3.5
		c0.2-0.6,0.3-1.3,0.3-1.8L609.6,82.8L609.6,82.8z"/>
	<path class="st9" d="M634.6,89.1c0,2,0,3.7,0.2,5.2h-3.1l-0.2-3.1h-0.1c-0.9,1.5-2.9,3.5-6.3,3.5c-3,0-6.5-1.6-6.5-8.3V75.3h3.4
		v10.5c0,3.6,1.1,6,4.2,6c2.3,0,3.9-1.6,4.5-3.1c0.2-0.5,0.3-1.1,0.3-1.8V75.3h3.4v13.8H634.6z"/>
	<path class="st9" d="M650.8,94.3l-0.3-2.4h-0.1c-1.1,1.5-3.1,2.8-5.8,2.8c-3.8,0-5.8-2.7-5.8-5.4c0-4.6,4.1-7.1,11.4-7v-0.4
		c0-1.6-0.4-4.4-4.3-4.4c-1.8,0-3.6,0.5-4.9,1.4l-0.8-2.3c1.6-1,3.8-1.7,6.2-1.7c5.8,0,7.2,4,7.2,7.8v7.1c0,1.6,0.1,3.2,0.3,4.5
		H650.8z M650.3,84.6c-3.8-0.1-8,0.6-8,4.3c0,2.2,1.5,3.3,3.2,3.3c2.5,0,4-1.6,4.6-3.2c0.1-0.4,0.2-0.7,0.2-1.1V84.6z"/>
	<path class="st9" d="M659.3,67.9h3.4v23.5H674v2.9h-14.7V67.9z"/>
	<path class="st9" d="M688.1,94.3l-0.3-2.4h-0.1c-1.1,1.5-3.1,2.8-5.8,2.8c-3.8,0-5.8-2.7-5.8-5.4c0-4.6,4.1-7.1,11.4-7v-0.4
		c0-1.6-0.4-4.4-4.3-4.4c-1.8,0-3.6,0.5-4.9,1.4l-0.8-2.3c1.6-1,3.8-1.7,6.2-1.7c5.8,0,7.2,4,7.2,7.8v7.1c0,1.6,0.1,3.2,0.3,4.5
		H688.1z M687.6,84.6c-3.8-0.1-8,0.6-8,4.3c0,2.2,1.5,3.3,3.2,3.3c2.5,0,4-1.6,4.6-3.2c0.1-0.4,0.2-0.7,0.2-1.1V84.6z"/>
	<path class="st9" d="M696.5,80.5c0-2,0-3.6-0.2-5.1h3.1l0.2,3.1h0.1c0.9-1.8,3.1-3.6,6.3-3.6c2.6,0,6.7,1.6,6.7,8.1v11.3h-3.4V83.4
		c0-3.1-1.1-5.6-4.4-5.6c-2.3,0-4,1.6-4.6,3.5c-0.2,0.4-0.2,1-0.2,1.6v11.4h-3.4V80.5H696.5z"/>
	<path class="st9" d="M734.6,66.5v22.9c0,1.7,0,3.6,0.2,4.9h-3.1l-0.2-3.3h-0.1c-1.1,2.1-3.4,3.7-6.5,3.7c-4.6,0-8.1-3.9-8.1-9.6
		c0-6.3,3.9-10.2,8.5-10.2c2.9,0,4.9,1.4,5.7,2.9h0.1V66.5H734.6z M731.1,83.1c0-0.4,0-1-0.2-1.4c-0.5-2.2-2.4-4-5-4
		c-3.6,0-5.7,3.1-5.7,7.3c0,3.8,1.9,7,5.6,7c2.3,0,4.4-1.5,5-4.1c0.1-0.5,0.2-0.9,0.2-1.5v-3.3H731.1z"/>
</g>
<g>
	<path class="st5" d="M481.2,363.3c0-1-1-3.1-2.1-4.1c-2.1-4.1-2.1-8.3-2.1-12.4c0-1,0.2-1.4,0.4-1.9c1.1-1.9,3.7-2.1,4.7-2.2
		c3.4-0.3,6.1,1.3,7.2,2.1c2.1,1,4.1,4.1,6.2,14.4c1,10.3-3.1,21.7-2.1,17.5c0-1-11.4-2.1-12.4-2.1
		C481.2,371.5,482.2,367.4,481.2,363.3z"/>
	<path class="st12" d="M396.6,426.2c1.3,1.4,2.7,2.8,3.1,5.2c0.1,0.4,0.4,2.9-1,4.1c-0.7,0.6-1.5,0.6-3.2,0.6
		c-2.1,0-3.6-0.4-4.1-0.6c-1.8-0.5-3.2-1.4-4.1-2.1c0-1-1-1-1-2.1c0-4.1,0-8.3,0-12.4c0-1,0-2.1,1-3.1s2.1-1,3.1,0s1,1,1,2.1
		C393.1,421.9,395,424.5,396.6,426.2z"/>
	<path class="st5" d="M388.3,423.2c1.7,5.2,3.4,10.3,5.2,15.5c0.9,0.9,2.3,2.5,3.2,4.7c1.7,4.3,0.8,8.1,0.4,9.4
		c-0.8,0.9-1.6,1.9-2.6,2.8c-1.8,1.8-3.5,3.3-5.2,4.6c-14.4-2.1-29.9-3.1-44.4-5.2c5.2-15.5,8.3-27.9,10.3-36.1
		c3.1-16.5,5.2-25.8,12.4-29.9c1,0,7.2-4.1,13.4-2.1c5.2,2.1,7.2,8.3,13.4,20.6c1.3,3.1,2.1,5.8,2.6,7.7c0.7,3,0.7,4.3,0,5.3
		c-0.7,1.1-1.8,1.5-3,1.9C393.1,423,391.1,423.6,388.3,423.2z"/>
	<path class="st13" d="M433.7,619.2c-42.3,0-84.6,0-125.9,0c2.1-12.4,5.2-24.8,7.2-37.2h118.7C432.7,593.4,432.7,606.9,433.7,619.2z
		"/>
	<path class="st14" d="M439.9,440.7c9.3-3.1,17.5-6.2,23.7-14.4c3.1-4.1,4.1-7.2,7.2-16.5c2.1-9.3,5.2-21.7,7.2-38.2
		c2.2-0.8,5.3-1.8,9.3-2.1c4.4-0.3,8,0.4,10.3,1c2.1,7.2,4.1,17.5,5.2,31c2.1,19.6,3.1,28.9-1,40.3c-7.2,20.6-23.7,32-29.9,37.2
		c-15.5,11.4-32,15.5-41.3,17.5c-8.3-16.5-15.5-34.1-23.7-50.6C421.3,445.9,432.7,442.8,439.9,440.7z"/>
	<path class="st14" d="M412.1,442.8c7.2,4.1,10.3,11.4,15.5,25.8c7.1,19.9,6.8,33.9,9.3,53.7c4.9,39.1,9.2,52.2,0.1,62.4
		c-1,1.1-3.3,3.5-13,7.8c0,0-46.2,20.7-98.6,6.2c-5.9-1.6-10.3-4.8-10.3-4.8c-1.6-1.1-2.9-2.3-4.1-3.5c-1-2.1-2.1-3.1-2.1-5.2
		c-4.1-12.4-5.2-22.7-5.2-23.7c-1-15.5-1-17.5,0-19.6c4.1-5.2,10.3-2.1,16.5-7.2c4.1-3.1,5.2-8.3,8.3-16.5
		c2.1-8.3,3.1-13.4,5.2-25.8c1-9.3,3.1-17.5,3.1-20.6c2.1-9.3,5.2-21.7,12.4-36.1c5.2,6.2,10.3,10.3,14.4,12.4s8.3,5.2,15.5,6.2
		c4.1,1,8.3,1,12.4-2.1c5.2-4.1,3.1-12.4,2.1-13.4C398.6,438.6,405.9,438.6,412.1,442.8z"/>
	<path class="st15" d="M394.5,438.6c2.4-0.2,6.3-0.1,10.6,1.3c9.9,3.2,15.1,11.1,17.7,15c4.6,7.1,6.2,14.1,6.8,18.8
		c1.3,7.3,2.6,14.7,3.9,22"/>
	<path class="st5" d="M406.9,517.1c0-1,1-3.1,1-4.1c1-4.1,4.1-8.3,7.2-11.4c1-1,1-1,2.1-2.1c2.1-1,4.1,0,4.1,1
		c3.1,2.1,4.1,5.2,4.1,6.2c0,2.1,1,6.2-6.2,16.5c-6.2,10.3-16.5,16.5-13.4,14.4c1-1-7.2-8.3-8.3-9.3
		C401.7,524.3,404.8,521.2,406.9,517.1z"/>
	<path class="st14" d="M350.1,434.5c-11.4,5.2-26.8,13.4-42.3,28.9c-24.8,26.8-44.4,74.3-26.8,103.2c8.3,12.4,20.6,18.6,22.7,19.6
		c14.4,6.2,28.9,4.1,38.2,2.1c18.6-4.1,29.9-12.4,39.2-18.6c13.4-10.3,23.7-21.7,29.9-32c-1-2.1-3.1-5.2-6.2-7.2s-5.2-4.1-7.2-5.2
		c-3.1,2.1-8.3,5.2-14.4,8.3c-19.6,11.4-33,18.6-50.6,18.6c-4.1,0-11.4,0-19.6-3.1c5.2-4.1,12.4-13.4,18.6-25.8
		c6.2-13.4,7.2-25.8,7.2-32"/>
	<path class="st16" d="M335.7,497.5c-12.4,16.5-15.5,35.1-8.3,44.4c11.4,14.4,46.4-1,50.6-3.1c9.3-4.1,15.5-9.3,20.6-13.4
		c2.1,1,5.2,2.1,8.3,5.2c3.1,3.1,5.2,5.2,6.2,7.2c-5.2,8.3-14.4,20.6-29.9,32s-29.9,16.5-39.2,18.6"/>
	<path class="st12" d="M388.3,389.1c-0.7,1.9-2.8,3-4.3,3.7c-2.1,1.1-3.9,1.3-5,1.4c-2.7,0.3-4.8-0.2-6.8-0.6
		c-1.9-0.4-3.5-1-4.5-1.4c-0.1,1-0.3,2.7-0.4,4.6c-0.3,8.7,2.2,11.4,2.8,18.6c0.3,3.6,1.1,12.7-4.5,18.1c-2.3,2.2-4.9,3.1-6.7,3.6
		c-1.6,0.5-10,3.1-14.5-1.5c-0.6-0.6-2.5-2.6-2.4-5.1c0.2-4.4,6.4-5.4,10.7-11.4c2.4-3.4,3.3-7.1,3.6-10.5c0.4-1.4,0.6-2.5,0.8-3.6
		c0.4-2.8,0.3-3.9,0.6-7.8c0.4-5.9,1-8.3,1.3-9.4c0.5-1.8,1-2.8,1.3-3.6c0.4-0.8,1.4-2.9,3.2-4.5c2.7-2.5,6-2.9,7.8-3.1
		c1.6-0.2,6.3-0.8,10.8,2.1C385.6,381,389.6,385.6,388.3,389.1z"/>
</g>
<path class="st5" d="M622.5,450.1c0.2,23.4,0.6,46.6,0.7,70l28.2-6.2c-0.3-1.2-0.8-3.8-1.5-7.2c-4.7-25.7-5.1-60.2-12.2-68.9
	c-1.4-1.6-3-3.2-4.6-4.8c-2-1.9-4.3-3.6-6.7-5.1c-0.5-0.1-5.5-2.2-6.1-1.1s2.3,3.6,2.7,4.1l2.5,3.4c-1,0.3-1.8,0.9-2.5,1.5
	c-1.5,0.9-2.7,2.4-3.6,3.9c-1,1.9-1.1,4.2-0.2,6.2C619.9,447.7,621,449.2,622.5,450.1z"/>
<path class="st4" d="M614.7,494c6.6-1.2,13.6-2.2,21.2-3c6.6-0.7,12.8-1.1,18.7-1.2c0.1,22.7,1.2,48.4,7,49.1
	c1.8,0.2,3.7-1.8,7.5-8.6c5.3-9.5,12.3-24.2,17.7-45l6.6,91.5c-1.6,3.5-8.2,16.9-23.5,22.8c-10.8,4.2-20.8,2.6-24.4,1.6
	C624.5,595.3,611.6,551.5,614.7,494z"/>
<path class="st4" d="M687.2,460.7c-3.5,6.4-4.8,12.4-6,35c-1.3,25.7-1.9,38.6-0.1,57.4c3.4,35.1,9.5,41.8,12.4,44.3
	c7.7,6.8,17.4,8.4,24.1,8.7l0,0c56.2,0,75.8-4.8,84-7.6c1.1-0.4,2.3-0.8,2.3-0.8c4.7-1,11.7-3.3,16.1-9.2c2.6-3.4,4.4-8.2,2.4-30.9
	c-1.5-17.2-4.1-31.1-6.2-41.2c-1.6-7.8-3.1-14.3-4.3-19c8.6,3.5,17.7,7.6,27,12.4c3.6,1.9,7.1,3.8,10.5,5.7c-2.4,4-5.7,8.6-10,13.4
	c-5.7,6.2-11.4,10.5-16.1,13.6c3,4.4,6.6,9.1,10.9,14c4,4.6,7.9,8.7,11.7,12.2c8.5-4.5,21.9-13.2,31.1-28.9
	c3.4-5.7,7.6-13.1,8.1-23.4c0.8-14.6-6.2-25.4-9.4-30.2c-1.8-2.7-7.9-11.3-32.2-25.3c-13.6-7.8-26.4-15.2-45.8-20.8
	c-21.2-6.1-40.1-7.2-54-6.7c-3.4,7.4-8.2,14.1-14.2,19.6c-1.7,1.6-3.7,3.2-6.1,3.5c0,0-2.1,0.2-4.1-0.7c-3.9-1.8-5.9-9.2-4.7-18.2
	C706.9,440.6,694.5,447.4,687.2,460.7z"/>
<path class="st17" d="M680.8,504.8c-1.3,13.3-1.8,29.7,0.3,48.3c1.5,13.7,4.2,25.8,7,36"/>
<path class="st18" d="M1469.7-190.8c3.3-0.1,8.4,0.2,13.3,3.3c5.1,3.3,7.8,8.4,11,19.2c2,6.8,4.7,17.6,6.9,39.1
	c0.8,8,1.6,17.5,0.9,29.5c-0.7,12.6-2.4,15.5-3.3,16.9c-4.8,7.2-13.7,8.4-30,10.3c0,0-29.1,3.4-52.7-5.6c-2.6-1-5.8-2.4-8.2-5.5"/>
<path class="st12" d="M555,394.4c-1.8-0.5-3.6-1.4-4.4-3c-0.3-0.7-0.4-1.4-0.5-2.1c-0.1-1.3,0-2.7,0.6-3.9c1-2,3.1-3.3,5.3-3.6
	s4.4,0,6.6,0.5c1.7,0.4,3.5,0.8,5-0.1s1.1-2.2,3.2-3.6c1.6-1.1,2.7-1,3-1s1,0.1,1.7,0.6c0,0,0.8,0.6,1.2,1.6c1.7,4.3,1.1,9.1,1,13.7
	c-0.1,7.9,1.7,15.7,1.6,23.5c0,1.4-0.1,2.9-0.6,4.2c-0.6,1.6-1.9,3-3.5,3.9c-1.8,1.1-4.4,1.4-5.8-0.1c-0.7-0.8-1-1.8-1.1-2.8
	c-1-5.8,0.5-11.7,1.3-17.4c0.4-2.6,1.2-6,0.6-8.6c-0.5-2.4-3.4-1.5-5.1-1.2C561.8,395.1,558.3,395.2,555,394.4z"/>
<g id="Layer_1_2_">
	<title>request1</title>
</g>
<g id="Layer_2_1_">
</g>
<g id="Layer_4">
</g>
<path class="st12" d="M723,388c0.3,1.2,1.1,2,3.1,3.5c3.9,2.7,7.4,5.1,12.3,5.6c2.1,0.2,3.7,0,4.9-0.9c0.8-0.6,1.2-1.4,1.3-1.6
	c0.7-1.4,0.4-2.7,0.3-3.2c-0.4-2.2-2.2-3.6-3.9-4.9c-0.5-0.4-2.1-1.6-4.5-2.5c-0.7-0.3-3.4-1.3-7.1-1.5c-2.2-0.1-3.3-0.1-4.3,0.5
	C723.5,384,722.6,386.2,723,388z"/>
<path class="st5" d="M816.3,556.6c-0.6,0.2-1.6,0.4-2.8,0.4c-1.6,0-2.9-0.4-3.3-0.5c-2.2-0.6-4.3,0.1-8.4,1.5
	c-5.6,1.9-8.4,2.8-9.5,5c-1.3,2.7-0.4,5.6,0.1,6.9c1.6,4.3,5.1,6.5,6.7,7.4c4.1,0.7,11.8,1.5,20.9-1.1c11.1-3.2,18-9.7,20.9-12.8
	c-1.9-1.9-3.9-4.1-5.9-6.4c-2.2-2.6-4.3-5.1-6.1-7.5c-1.2,1.2-2.9,2.6-5.1,3.9C820.9,555.2,818.2,556.1,816.3,556.6z"/>
<path class="st7" d="M1092.5,370.7c-15.2,11.1-34.1,11.8-57.9,11.5c-20-0.3-40.2-4.2-59.2-10.4c-1.4,1.2-3.5,3.3-5.2,6.4
	c-1.7,3-2.4,5.9-2.7,7.7c18.5,11.2,37.1,22.5,57.5,29.6c8.8,3.1,33,8.2,63.6,4.2c16.3-2.1,29.5-6.4,38.9-10.1
	c14.3,23.8,29.3,47.7,45.1,71.8c5.2,8,12.9,19.2,25.7,21.8c4.9,1,10.2,0.6,25-5.4c27.8-11.2,45.6-24.5,51.2-28.8
	c16.8-12.9,27.8-21.6,26.7-32c-0.2-2.2-1-4.4-5.9-11c-12.4-17.1-23.9-26.5-23.9-26.5c-12.5-10.4-27.7-24.2-47.1-42.3
	c4.8-4,8.5-7.6,11.1-10.2c6.1-6.1,49.7-51.2,53.1-117.8c0.2-4.7,0.2-8.5,0.2-10.4c-4.8,1-9.7,2-14.5,3.1c-0.9,2.7-2.5,6.9-4.8,11.8
	c-3.3,7-9.6,18.4-41.3,50.7c-11.2,11.4-14.5,14.1-17.8,16.5c-8.2,6-12.8,7.6-24.1,14.5c-5.3,3.2-13.2,8.2-22.4,15.2
	c-0.9,2.7-7.5,21.9-13.1,31.3c-1.8,3-4,5.9-7.1,6.2c-1.6,0.1-2.9-0.5-3.4-0.7c-6.5-3.1-7.5-17.2-7.6-18.5c-3.1,1-7.7,2.7-13.2,5.3
	C1105.1,360.6,1096.4,367.8,1092.5,370.7z"/>
<path class="st12" d="M1326.3,216.3c-0.8,1.8-1.8,3.6-1.4,6c0.1,0.4,0.5,3,2.3,3.7c0.8,0.3,1.7,0.1,3.3-0.4c2-0.6,3.4-1.6,3.8-1.8
	c1.6-1.1,2.7-2.3,3.4-3.3c-0.3-1,0.7-1.3,0.4-2.4c-1.3-4.1-2.6-8.1-3.9-12.2c-0.3-1-0.7-2-2-2.7s-2.4-0.4-3,1
	c-0.7,1.3-0.7,1.3-0.4,2.4C1328.3,210.8,1327.3,214.1,1326.3,216.3z"/>
<path class="st5" d="M1333.5,210.6c-0.1,5.6-0.1,11.2-0.2,16.8c-0.6,1.2-1.5,3.2-1.7,5.7c-0.4,4.7,1.8,8.2,2.6,9.4
	c1.1,0.7,2.2,1.3,3.4,2c2.3,1.2,4.5,2.2,6.5,2.9c13.5-6.6,28.4-12.5,41.9-19.2c-10-13.6-17-24.7-21.6-32.2
	c-8.3-15.2-13.3-23.7-21.7-25.5c-1,0.3-8.4-1.8-13.8,2.2c-4.4,3.7-4.5,10.4-6.6,24.5c-0.3,3.4-0.2,6.3-0.1,8.4
	c0.3,3.2,0.7,4.4,1.7,5.2s2.2,0.9,3.5,0.9C1328.7,212,1330.9,211.9,1333.5,210.6z"/>
<path class="st2" d="M1440.2,280.8v69.8c-43.7,23.6-88,18.8-88,18.8c-10.8-1.2-13.9-2.8-15.2-3.5c-12.2-7.1-12.2-21.4-19.8-61.3
	c-3.8-20.2-8.6-33.9-7.9-55.6c0.5-15.8,1.2-23.9,7-30.2c4.8-6,11.9-8.3,16.9-10c-0.7,1.3-0.1,10.1,6.3,12.5c5,1.7,9.1,0.4,12.8-1.9
	c6.8-3.3,9.8-7.6,13.2-11s7.2-9,10.3-16.8c11.7,11.9,18.6,23.1,23.6,31.5c1,3,5.6,10.5,9.6,19.3c5.9,11.5,8.6,16.2,13.3,23.7
	c5.7,7.1,8.3,11.9,13.3,13.6C1437.3,280.4,1438.8,280.7,1440.2,280.8z"/>
<path class="st19" d="M1332.3,209.1c-2.4,0.6-6.2,1.9-10,4.6c-8.8,6.3-11.3,15.7-12.6,20.3c-0.9,3.3-1.6,7.8-0.7,20.7
	c0.5,7.6,1.6,17.9,4.1,30.1"/>
<path class="st5" d="M1345,290c-0.3-1-2-2.7-2.3-3.7c-2.3-3.7-6.7-6.8-10.7-8.9c-1.3-0.7-1.3-0.7-2.7-1.4c-2.4-0.4-4.1,1.3-3.7,2.3
	c-2.4,3-2.4,6.4-2.1,7.4c0.7,2,1,6.4,11.3,14.2c9.4,8.2,21.5,11,17.8,9.9c-1.3-0.7,4.5-10.4,5.2-11.7
	C1352.4,295.5,1348.4,293.4,1345,290z"/>
<path class="st2" d="M1440.2,207.9V288c-5.7-3.5-12.5-8.8-19.3-15.8c-10.3-11.2-15.3-23-17.3-29.1l-29.2-52.1
	c5.8-2.2,15.6-4.9,27.3-3.5c9.3,1.1,20.2,4.9,35.2,17.6C1438.1,206,1439.2,206.9,1440.2,207.9z"/>
<path class="st2" d="M1429.1,300.9c2.7-0.9,6.7-2.2,11.1-4.6v41.8c-3.2,0.6-6.2,1-8.8,1.2c-19.5,1.8-33.3-2.7-44.4-5.8
	c-16.4-5.9-30.2-13.8-39.5-21.9c0.4-2.3,1.4-6,3.8-9s3.8-5.7,5.5-7.4c3.7,1,9.7,2.4,16.8,3.5
	C1396.4,303.6,1411.9,306.5,1429.1,300.9z"/>
<path class="st20" d="M1408.7,248.2c17.4,12.3,26.3,29.5,22.2,41c-6.6,17.8-45.9,13.7-50.6,13c-10.4-1.1-18.1-4.2-24.5-6.6
	c-1.7,1.7-4.4,3.7-6.5,7.7s-3.4,6.7-3.8,9.1c7.7,6.5,20.7,15.7,39.5,21.9c18.8,6.2,34.6,6.7,44.4,5.8"/>
<path class="st12" d="M1322.6,177.1c1.3,1.6,3.7,2,5.4,2.3c2.4,0.4,4.3,0,5.4-0.2c2.8-0.6,4.7-1.7,6.5-2.8c1.8-1,3.1-2.1,4-2.8
	c0.5,1,1.2,2.5,1.9,4.4c3,8.4,1.4,11.9,3.1,19.1c0.8,3.6,3,12.8,10.2,16.3c3,1.5,5.8,1.4,7.7,1.4c1.7,0,10.8-0.1,13.8-6.1
	c0.4-0.8,1.6-3.3,0.7-5.7c-1.6-4.3-8-3.2-14.1-7.7c-3.4-2.6-5.5-6-6.9-9.1c-0.8-1.2-1.4-2.3-1.9-3.2c-1.3-2.6-1.6-3.7-3.1-7.5
	c-2.2-5.6-3.6-7.8-4.2-8.8c-1-1.6-1.8-2.5-2.5-3.1c-0.7-0.7-2.3-2.4-4.6-3.4c-3.5-1.6-6.8-0.9-8.6-0.6c-1.7,0.3-6.5,1.2-9.9,5.5
	C1322.8,168.3,1320.3,174.2,1322.6,177.1z"/>
<line class="st21" x1="1440.2" y1="296.3" x2="1440.2" y2="288"/>
<g>
	<path class="st9" d="M297.6,181.1l-4.4-17.5h2.4l2.1,8.9c0.5,2.2,1,4.4,1.3,6.1h0.1c0.3-1.7,0.8-3.8,1.4-6.1l2.3-8.8h2.4l2.1,8.9
		c0.5,2.1,1,4.2,1.2,6h0.1c0.4-1.9,0.9-3.9,1.4-6.1l2.3-8.8h2.3l-5,17.5h-2.4l-2.2-9.1c-0.5-2.2-0.9-4-1.1-5.7h-0.1
		c-0.3,1.7-0.7,3.5-1.4,5.7l-2.5,9.1L297.6,181.1L297.6,181.1z"/>
	<path class="st9" d="M317.1,175.3c0.1,3.1,2,4.4,4.3,4.4c1.6,0,2.6-0.3,3.5-0.7l0.4,1.6c-0.8,0.4-2.2,0.8-4.2,0.8
		c-3.9,0-6.2-2.5-6.2-6.3s2.2-6.8,5.9-6.8c4.1,0,5.2,3.6,5.2,5.9c0,0.5-0.1,0.8-0.1,1.1H317.1z M323.8,173.6c0-1.5-0.6-3.7-3.2-3.7
		c-2.3,0-3.3,2.1-3.5,3.7H323.8z"/>
	<path class="st9" d="M346.5,162.7v15.2c0,1.1,0,2.4,0.1,3.3h-2.1l-0.1-2.2h-0.1c-0.7,1.4-2.2,2.5-4.3,2.5c-3,0-5.4-2.6-5.4-6.4
		c0-4.2,2.6-6.8,5.6-6.8c1.9,0,3.2,0.9,3.8,1.9h0.1v-7.5H346.5z M344.2,173.7c0-0.3,0-0.7-0.1-1c-0.3-1.5-1.6-2.7-3.3-2.7
		c-2.4,0-3.8,2.1-3.8,4.9c0,2.5,1.2,4.7,3.7,4.7c1.5,0,2.9-1,3.4-2.7c0.1-0.3,0.1-0.6,0.1-1L344.2,173.7L344.2,173.7z"/>
	<path class="st9" d="M361.7,174.8c0,4.7-3.2,6.7-6.3,6.7c-3.4,0-6-2.5-6-6.5c0-4.2,2.8-6.7,6.2-6.7
		C359.3,168.3,361.7,170.9,361.7,174.8z M351.7,174.9c0,2.8,1.6,4.8,3.8,4.8c2.2,0,3.8-2.1,3.8-4.9c0-2.1-1.1-4.8-3.8-4.8
		S351.7,172.5,351.7,174.9z"/>
	<path class="st9" d="M371.4,172c0-1.3,0-2.4-0.1-3.4h2l0.1,2.1h0.1c0.6-1.2,2.1-2.4,4.2-2.4c1.7,0,4.4,1,4.4,5.4v7.5h-2.3v-7.3
		c0-2-0.8-3.7-2.9-3.7c-1.5,0-2.7,1.1-3.1,2.3c-0.1,0.3-0.2,0.7-0.2,1.1v7.6h-2.3L371.4,172L371.4,172z"/>
	<path class="st9" d="M397.2,174.8c0,4.7-3.2,6.7-6.3,6.7c-3.4,0-6-2.5-6-6.5c0-4.2,2.8-6.7,6.2-6.7
		C394.8,168.3,397.2,170.9,397.2,174.8z M387.3,174.9c0,2.8,1.6,4.8,3.8,4.8c2.2,0,3.8-2.1,3.8-4.9c0-2.1-1.1-4.8-3.8-4.8
		S387.3,172.5,387.3,174.9z"/>
	<path class="st9" d="M402.9,164.9v3.6h3.3v1.7h-3.3v6.8c0,1.6,0.4,2.4,1.7,2.4c0.6,0,1-0.1,1.3-0.2l0.1,1.7c-0.4,0.2-1.1,0.3-2,0.3
		c-1.1,0-1.9-0.3-2.5-1s-0.9-1.8-0.9-3.3v-6.6h-2v-1.7h2v-3L402.9,164.9z"/>
	<path class="st9" d="M424.6,180.7c-0.6,0.3-1.9,0.7-3.6,0.7c-3.8,0-6.3-2.6-6.3-6.4c0-3.9,2.7-6.7,6.8-6.7c1.4,0,2.5,0.3,3.2,0.7
		l-0.5,1.8c-0.5-0.3-1.4-0.6-2.7-0.6c-2.9,0-4.4,2.1-4.4,4.8c0,2.9,1.9,4.7,4.4,4.7c1.3,0,2.2-0.3,2.8-0.6L424.6,180.7z"/>
	<path class="st9" d="M427.2,162.7h2.3v7.9h0.1c0.4-0.6,0.9-1.2,1.6-1.6c0.7-0.4,1.5-0.6,2.3-0.6c1.7,0,4.4,1,4.4,5.4v7.5h-2.3v-7.2
		c0-2-0.8-3.7-2.9-3.7c-1.5,0-2.7,1-3.1,2.3c-0.1,0.3-0.2,0.7-0.2,1.1v7.6h-2.3v-18.7H427.2z"/>
	<path class="st9" d="M448.6,181.1l-0.2-1.6h-0.1c-0.7,1-2.1,1.9-3.8,1.9c-2.5,0-3.8-1.8-3.8-3.6c0-3,2.7-4.7,7.6-4.7v-0.3
		c0-1-0.3-2.9-2.9-2.9c-1.2,0-2.4,0.4-3.3,0.9l-0.5-1.5c1-0.7,2.5-1.1,4.1-1.1c3.8,0,4.8,2.6,4.8,5.1v4.7c0,1.1,0.1,2.2,0.2,3h-2.1
		V181.1z M448.3,174.7c-2.5-0.1-5.3,0.4-5.3,2.8c0,1.5,1,2.2,2.2,2.2c1.6,0,2.7-1,3-2.1c0.1-0.2,0.1-0.5,0.1-0.7L448.3,174.7
		L448.3,174.7z"/>
	<path class="st9" d="M454.2,172.5c0-1.5,0-2.8-0.1-3.9h2l0.1,2.5h0.1c0.6-1.7,2-2.8,3.5-2.8c0.3,0,0.4,0,0.6,0.1v2.2
		c-0.2-0.1-0.5-0.1-0.8-0.1c-1.6,0-2.8,1.2-3.1,2.9c-0.1,0.3-0.1,0.7-0.1,1.1v6.7h-2.3L454.2,172.5L454.2,172.5z"/>
	<path class="st9" d="M473.3,168.6c-0.1,0.9-0.1,1.9-0.1,3.5v7.3c0,2.9-0.6,4.7-1.8,5.7c-1.2,1.1-3,1.5-4.6,1.5
		c-1.5,0-3.2-0.4-4.2-1l0.6-1.7c0.8,0.5,2.1,1,3.7,1c2.3,0,4.1-1.2,4.1-4.4v-1.4h-0.1c-0.7,1.2-2.1,2.1-4,2.1
		c-3.1,0-5.4-2.7-5.4-6.1c0-4.3,2.8-6.7,5.7-6.7c2.2,0,3.4,1.1,3.9,2.2h0.1l0.1-1.9h2V168.6z M471,173.5c0-0.4,0-0.7-0.1-1
		c-0.4-1.3-1.5-2.4-3.2-2.4c-2.2,0-3.7,1.8-3.7,4.8c0,2.5,1.2,4.5,3.7,4.5c1.4,0,2.7-0.9,3.2-2.3c0.1-0.4,0.2-0.8,0.2-1.2v-2.4H471z
		"/>
	<path class="st9" d="M478.3,175.3c0.1,3.1,2,4.4,4.3,4.4c1.6,0,2.6-0.3,3.5-0.7l0.4,1.6c-0.8,0.4-2.2,0.8-4.2,0.8
		c-3.9,0-6.2-2.5-6.2-6.3s2.2-6.8,5.9-6.8c4.1,0,5.2,3.6,5.2,5.9c0,0.5-0.1,0.8-0.1,1.1H478.3z M485,173.6c0-1.5-0.6-3.7-3.2-3.7
		c-2.3,0-3.3,2.1-3.5,3.7H485z"/>
	<path class="st9" d="M505.9,180.7c-0.6,0.3-1.9,0.7-3.6,0.7c-3.8,0-6.3-2.6-6.3-6.4c0-3.9,2.7-6.7,6.8-6.7c1.4,0,2.5,0.3,3.2,0.7
		l-0.5,1.8c-0.5-0.3-1.4-0.6-2.7-0.6c-2.9,0-4.4,2.1-4.4,4.8c0,2.9,1.9,4.7,4.4,4.7c1.3,0,2.2-0.3,2.8-0.6L505.9,180.7z"/>
	<path class="st9" d="M519.8,174.8c0,4.7-3.2,6.7-6.3,6.7c-3.4,0-6-2.5-6-6.5c0-4.2,2.8-6.7,6.2-6.7
		C517.3,168.3,519.8,170.9,519.8,174.8z M509.8,174.9c0,2.8,1.6,4.8,3.8,4.8c2.2,0,3.8-2.1,3.8-4.9c0-2.1-1.1-4.8-3.8-4.8
		S509.8,172.5,509.8,174.9z"/>
	<path class="st9" d="M522.7,172c0-1.3,0-2.4-0.1-3.4h2l0.1,2h0.1c0.7-1.2,1.9-2.3,4-2.3c1.7,0,3,1,3.6,2.5h0.1
		c0.4-0.7,0.9-1.2,1.4-1.6c0.8-0.6,1.6-0.9,2.8-0.9c1.7,0,4.1,1.1,4.1,5.5v7.4h-2.2v-7.1c0-2.4-0.9-3.9-2.7-3.9
		c-1.3,0-2.3,1-2.7,2.1c-0.1,0.3-0.2,0.7-0.2,1.1v7.8h-2.2v-7.5c0-2-0.9-3.5-2.6-3.5c-1.4,0-2.5,1.1-2.8,2.3
		c-0.1,0.3-0.2,0.7-0.2,1.1v7.6H523V172H522.7z"/>
	<path class="st9" d="M544.3,172c0-1.3,0-2.4-0.1-3.4h2l0.1,2h0.1c0.7-1.2,1.9-2.3,4-2.3c1.7,0,3,1,3.6,2.5h0.1
		c0.4-0.7,0.9-1.2,1.4-1.6c0.8-0.6,1.6-0.9,2.8-0.9c1.7,0,4.1,1.1,4.1,5.5v7.4h-2.2v-7.1c0-2.4-0.9-3.9-2.7-3.9
		c-1.3,0-2.3,1-2.7,2.1c-0.1,0.3-0.2,0.7-0.2,1.1v7.8h-2.2v-7.5c0-2-0.9-3.5-2.6-3.5c-1.4,0-2.5,1.1-2.8,2.3
		c-0.1,0.3-0.2,0.7-0.2,1.1v7.6h-2.2V172H544.3z"/>
	<path class="st9" d="M568.6,165c0,0.8-0.5,1.4-1.5,1.4c-0.8,0-1.4-0.6-1.4-1.4c0-0.8,0.6-1.4,1.4-1.4
		C568,163.6,568.6,164.2,568.6,165z M566,181.1v-12.6h2.3v12.6H566z"/>
	<path class="st9" d="M571.8,178.8c0.7,0.4,1.9,0.9,3,0.9c1.7,0,2.4-0.8,2.4-1.9c0-1.1-0.6-1.7-2.3-2.3c-2.3-0.8-3.3-2.1-3.3-3.6
		c0-2,1.6-3.7,4.3-3.7c1.3,0,2.4,0.4,3.1,0.8l-0.6,1.7c-0.5-0.3-1.4-0.7-2.6-0.7c-1.4,0-2.1,0.8-2.1,1.7c0,1,0.8,1.5,2.4,2.1
		c2.2,0.8,3.3,1.9,3.3,3.8c0,2.2-1.7,3.8-4.7,3.8c-1.4,0-2.7-0.3-3.5-0.9L571.8,178.8z"/>
	<path class="st9" d="M582.1,178.8c0.7,0.4,1.9,0.9,3,0.9c1.7,0,2.4-0.8,2.4-1.9c0-1.1-0.6-1.7-2.3-2.3c-2.3-0.8-3.3-2.1-3.3-3.6
		c0-2,1.6-3.7,4.3-3.7c1.3,0,2.4,0.4,3.1,0.8l-0.6,1.7c-0.5-0.3-1.4-0.7-2.6-0.7c-1.4,0-2.1,0.8-2.1,1.7c0,1,0.8,1.5,2.4,2.1
		c2.2,0.8,3.3,1.9,3.3,3.8c0,2.2-1.7,3.8-4.7,3.8c-1.4,0-2.7-0.3-3.5-0.9L582.1,178.8z"/>
	<path class="st9" d="M595.2,165c0,0.8-0.5,1.4-1.5,1.4c-0.8,0-1.4-0.6-1.4-1.4c0-0.8,0.6-1.4,1.4-1.4
		C594.7,163.6,595.2,164.2,595.2,165z M592.7,181.1v-12.6h2.3v12.6H592.7z"/>
	<path class="st9" d="M610.2,174.8c0,4.7-3.2,6.7-6.3,6.7c-3.4,0-6-2.5-6-6.5c0-4.2,2.8-6.7,6.2-6.7
		C607.7,168.3,610.2,170.9,610.2,174.8z M600.2,174.9c0,2.8,1.6,4.8,3.8,4.8s3.8-2.1,3.8-4.9c0-2.1-1.1-4.8-3.8-4.8
		S600.2,172.5,600.2,174.9z"/>
	<path class="st9" d="M613.1,172c0-1.3,0-2.4-0.1-3.4h2l0.1,2.1h0.1c0.6-1.2,2.1-2.4,4.2-2.4c1.7,0,4.4,1,4.4,5.4v7.5h-2.3v-7.3
		c0-2-0.8-3.7-2.9-3.7c-1.5,0-2.7,1.1-3.1,2.3c-0.1,0.3-0.2,0.7-0.2,1.1v7.6H613L613.1,172L613.1,172z"/>
	<path class="st9" d="M627.2,178.8c0.7,0.4,1.9,0.9,3,0.9c1.7,0,2.4-0.8,2.4-1.9c0-1.1-0.7-1.7-2.3-2.3c-2.3-0.8-3.3-2.1-3.3-3.6
		c0-2,1.6-3.7,4.3-3.7c1.3,0,2.4,0.4,3.1,0.8l-0.6,1.7c-0.5-0.3-1.4-0.7-2.6-0.7c-1.4,0-2.1,0.8-2.1,1.7c0,1,0.8,1.5,2.4,2.1
		c2.2,0.8,3.3,1.9,3.3,3.8c0,2.2-1.7,3.8-4.7,3.8c-1.4,0-2.7-0.3-3.5-0.9L627.2,178.8z"/>
	<path class="st9" d="M656,174.8c0,4.7-3.2,6.7-6.3,6.7c-3.4,0-6-2.5-6-6.5c0-4.2,2.8-6.7,6.2-6.7C653.6,168.3,656,170.9,656,174.8z
		 M646,174.9c0,2.8,1.6,4.8,3.8,4.8s3.8-2.1,3.8-4.9c0-2.1-1.1-4.8-3.8-4.8S646,172.5,646,174.9z"/>
	<path class="st9" d="M658.9,172.5c0-1.5,0-2.8-0.1-3.9h2l0.1,2.5h0.1c0.6-1.7,2-2.8,3.5-2.8c0.3,0,0.4,0,0.6,0.1v2.2
		c-0.2-0.1-0.5-0.1-0.8-0.1c-1.6,0-2.8,1.2-3.1,2.9c-0.1,0.3-0.1,0.7-0.1,1.1v6.7h-2.3L658.9,172.5L658.9,172.5z"/>
	<path class="st9" d="M681.2,181.1l-0.2-1.6l0,0c-0.7,1-2.1,1.9-3.8,1.9c-2.5,0-3.8-1.8-3.8-3.6c0-3,2.7-4.7,7.6-4.7v-0.3
		c0-1-0.3-2.9-2.9-2.9c-1.2,0-2.4,0.4-3.3,0.9l-0.5-1.5c1-0.7,2.5-1.1,4.1-1.1c3.8,0,4.8,2.6,4.8,5.1v4.7c0,1.1,0.1,2.2,0.2,3h-2.2
		V181.1z M680.9,174.7c-2.5-0.1-5.3,0.4-5.3,2.8c0,1.5,1,2.2,2.2,2.2c1.6,0,2.7-1,3-2.1c0.1-0.2,0.1-0.5,0.1-0.7V174.7z"/>
	<path class="st9" d="M697.6,162.7v15.2c0,1.1,0,2.4,0.1,3.3h-2.1l-0.1-2.2h-0.1c-0.7,1.4-2.2,2.5-4.3,2.5c-3,0-5.4-2.6-5.4-6.4
		c0-4.2,2.6-6.8,5.6-6.8c1.9,0,3.2,0.9,3.8,1.9h0.1v-7.5H697.6z M695.4,173.7c0-0.3,0-0.7-0.1-1c-0.3-1.5-1.6-2.7-3.3-2.7
		c-2.4,0-3.8,2.1-3.8,4.9c0,2.5,1.2,4.7,3.7,4.7c1.5,0,2.9-1,3.4-2.7c0.1-0.3,0.1-0.6,0.1-1L695.4,173.7L695.4,173.7z"/>
	<path class="st9" d="M712.3,162.7v15.2c0,1.1,0,2.4,0.1,3.3h-2.1l-0.1-2.2h-0.1c-0.7,1.4-2.2,2.5-4.3,2.5c-3,0-5.4-2.6-5.4-6.4
		c0-4.2,2.6-6.8,5.6-6.8c1.9,0,3.2,0.9,3.8,1.9h0.1v-7.5H712.3z M710,173.7c0-0.3,0-0.7-0.1-1c-0.3-1.5-1.6-2.7-3.3-2.7
		c-2.4,0-3.8,2.1-3.8,4.9c0,2.5,1.2,4.7,3.7,4.7c1.5,0,2.9-1,3.4-2.7c0.1-0.3,0.1-0.6,0.1-1L710,173.7L710,173.7z"/>
	<path class="st9" d="M718.7,165c0,0.8-0.5,1.4-1.5,1.4c-0.8,0-1.4-0.6-1.4-1.4c0-0.8,0.6-1.4,1.4-1.4
		C718.1,163.6,718.7,164.2,718.7,165z M716.1,181.1v-12.6h2.3v12.6H716.1z"/>
	<path class="st9" d="M724.9,164.9v3.6h3.3v1.7h-3.3v6.8c0,1.6,0.4,2.4,1.7,2.4c0.6,0,1-0.1,1.3-0.2l0.1,1.7c-0.4,0.2-1.1,0.3-2,0.3
		c-1.1,0-1.9-0.3-2.5-1s-0.9-1.8-0.9-3.3v-6.6h-2v-1.7h2v-3L724.9,164.9z"/>
	<path class="st9" d="M733.3,165c0,0.8-0.5,1.4-1.5,1.4c-0.8,0-1.4-0.6-1.4-1.4c0-0.8,0.6-1.4,1.4-1.4
		C732.8,163.6,733.3,164.2,733.3,165z M730.8,181.1v-12.6h2.3v12.6H730.8z"/>
	<path class="st9" d="M748.3,174.8c0,4.7-3.2,6.7-6.3,6.7c-3.4,0-6-2.5-6-6.5c0-4.2,2.8-6.7,6.2-6.7
		C745.8,168.3,748.3,170.9,748.3,174.8z M738.3,174.9c0,2.8,1.6,4.8,3.8,4.8s3.8-2.1,3.8-4.9c0-2.1-1.1-4.8-3.8-4.8
		S738.3,172.5,738.3,174.9z"/>
	<path class="st9" d="M751.2,172c0-1.3,0-2.4-0.1-3.4h2l0.1,2.1h0.1c0.6-1.2,2.1-2.4,4.2-2.4c1.7,0,4.4,1,4.4,5.4v7.5h-2.3v-7.3
		c0-2-0.8-3.7-2.9-3.7c-1.5,0-2.7,1.1-3.1,2.3c-0.1,0.3-0.2,0.7-0.2,1.1v7.6h-2.3L751.2,172L751.2,172z"/>
	<path class="st9" d="M772.6,181.1l-0.2-1.6h-0.1c-0.7,1-2.1,1.9-3.8,1.9c-2.5,0-3.8-1.8-3.8-3.6c0-3,2.7-4.7,7.6-4.7v-0.3
		c0-1-0.3-2.9-2.9-2.9c-1.2,0-2.4,0.4-3.3,0.9l-0.5-1.5c1-0.7,2.5-1.1,4.1-1.1c3.8,0,4.8,2.6,4.8,5.1v4.7c0,1.1,0.1,2.2,0.2,3h-2.1
		V181.1z M772.2,174.7c-2.5-0.1-5.3,0.4-5.3,2.8c0,1.5,1,2.2,2.2,2.2c1.6,0,2.7-1,3-2.1c0.1-0.2,0.1-0.5,0.1-0.7V174.7z"/>
	<path class="st9" d="M778.1,162.7h2.3v18.5h-2.3V162.7z"/>
	<path class="st9" d="M791.3,181.1v-10.8h-1.8v-1.7h1.8V168c0-1.8,0.4-3.4,1.5-4.4c0.9-0.8,2-1.2,3.1-1.2c0.8,0,1.5,0.2,2,0.4
		l-0.3,1.8c-0.3-0.2-0.8-0.3-1.5-0.3c-2,0-2.4,1.7-2.4,3.6v0.7h3v1.7h-3v10.8H791.3z"/>
	<path class="st9" d="M799.6,175.3c0.1,3.1,2,4.4,4.3,4.4c1.6,0,2.6-0.3,3.5-0.7l0.4,1.6c-0.8,0.4-2.2,0.8-4.2,0.8
		c-3.9,0-6.2-2.5-6.2-6.3s2.2-6.8,5.9-6.8c4.1,0,5.2,3.6,5.2,5.9c0,0.5-0.1,0.8-0.1,1.1H799.6z M806.3,173.6c0-1.5-0.6-3.7-3.2-3.7
		c-2.3,0-3.3,2.1-3.5,3.7H806.3z"/>
	<path class="st9" d="M812.6,175.3c0.1,3.1,2,4.4,4.3,4.4c1.6,0,2.6-0.3,3.5-0.7l0.4,1.6c-0.8,0.4-2.2,0.8-4.2,0.8
		c-3.9,0-6.2-2.5-6.2-6.3s2.2-6.8,5.9-6.8c4.1,0,5.2,3.6,5.2,5.9c0,0.5-0.1,0.8-0.1,1.1H812.6z M819.4,173.6c0-1.5-0.6-3.7-3.2-3.7
		c-2.3,0-3.3,2.1-3.5,3.7H819.4z"/>
	<path class="st9" d="M824.1,178.8c0.7,0.4,1.9,0.9,3,0.9c1.7,0,2.4-0.8,2.4-1.9c0-1.1-0.6-1.7-2.3-2.3c-2.3-0.8-3.3-2.1-3.3-3.6
		c0-2,1.6-3.7,4.3-3.7c1.3,0,2.4,0.4,3.1,0.8l-0.6,1.7c-0.5-0.3-1.4-0.7-2.6-0.7c-1.4,0-2.1,0.8-2.1,1.7c0,1,0.8,1.5,2.4,2.1
		c2.2,0.8,3.3,1.9,3.3,3.8c0,2.2-1.7,3.8-4.7,3.8c-1.4,0-2.7-0.3-3.5-0.9L824.1,178.8z"/>
	<path class="st9" d="M832.9,184.3c0.6-1.5,1.3-4.3,1.6-6.2l2.5-0.3c-0.6,2.2-1.7,5.1-2.5,6.3L832.9,184.3z"/>
	<path class="st9" d="M853.6,181.1l-0.2-1.6h-0.1c-0.7,1-2.1,1.9-3.8,1.9c-2.5,0-3.8-1.8-3.8-3.6c0-3,2.7-4.7,7.6-4.7v-0.3
		c0-1-0.3-2.9-2.9-2.9c-1.2,0-2.4,0.4-3.3,0.9l-0.5-1.5c1-0.7,2.5-1.1,4.1-1.1c3.8,0,4.8,2.6,4.8,5.1v4.7c0,1.1,0.1,2.2,0.2,3h-2.1
		V181.1z M853.3,174.7c-2.5-0.1-5.3,0.4-5.3,2.8c0,1.5,1,2.2,2.2,2.2c1.6,0,2.7-1,3-2.1c0.1-0.2,0.1-0.5,0.1-0.7V174.7z"/>
	<path class="st9" d="M859.2,172c0-1.3,0-2.4-0.1-3.4h2l0.1,2.1h0.1c0.6-1.2,2.1-2.4,4.2-2.4c1.7,0,4.4,1,4.4,5.4v7.5h-2.3v-7.3
		c0-2-0.8-3.7-2.9-3.7c-1.5,0-2.7,1.1-3.1,2.3c-0.1,0.3-0.2,0.7-0.2,1.1v7.6h-2.3L859.2,172L859.2,172z"/>
	<path class="st9" d="M884.5,162.7v15.2c0,1.1,0,2.4,0.1,3.3h-2.1l-0.1-2.2h-0.1c-0.7,1.4-2.2,2.5-4.3,2.5c-3,0-5.4-2.6-5.4-6.4
		c0-4.2,2.6-6.8,5.6-6.8c1.9,0,3.2,0.9,3.8,1.9h0.1v-7.5H884.5z M882.2,173.7c0-0.3,0-0.7-0.1-1c-0.3-1.5-1.6-2.7-3.3-2.7
		c-2.4,0-3.8,2.1-3.8,4.9c0,2.5,1.2,4.7,3.7,4.7c1.5,0,2.9-1,3.4-2.7c0.1-0.3,0.1-0.6,0.1-1L882.2,173.7L882.2,173.7z"/>
	<path class="st9" d="M894.8,178.8c0.7,0.4,1.9,0.9,3,0.9c1.7,0,2.4-0.8,2.4-1.9c0-1.1-0.6-1.7-2.3-2.3c-2.3-0.8-3.3-2.1-3.3-3.6
		c0-2,1.6-3.7,4.3-3.7c1.3,0,2.4,0.4,3.1,0.8l-0.6,1.7c-0.5-0.3-1.4-0.7-2.6-0.7c-1.4,0-2.1,0.8-2.1,1.7c0,1,0.8,1.5,2.4,2.1
		c2.2,0.8,3.3,1.9,3.3,3.8c0,2.2-1.7,3.8-4.7,3.8c-1.4,0-2.7-0.3-3.5-0.9L894.8,178.8z"/>
	<path class="st9" d="M914.4,180.7c-0.6,0.3-1.9,0.7-3.6,0.7c-3.8,0-6.3-2.6-6.3-6.4c0-3.9,2.7-6.7,6.8-6.7c1.4,0,2.5,0.3,3.2,0.7
		l-0.5,1.8c-0.5-0.3-1.4-0.6-2.7-0.6c-2.9,0-4.4,2.1-4.4,4.8c0,2.9,1.9,4.7,4.4,4.7c1.3,0,2.2-0.3,2.8-0.6L914.4,180.7z"/>
	<path class="st9" d="M917.1,162.7h2.3v7.9h0.1c0.4-0.6,0.9-1.2,1.6-1.6c0.7-0.4,1.5-0.6,2.3-0.6c1.7,0,4.4,1,4.4,5.4v7.5h-2.3v-7.2
		c0-2-0.8-3.7-2.9-3.7c-1.5,0-2.7,1-3.1,2.3c-0.1,0.3-0.2,0.7-0.2,1.1v7.6H917v-18.7H917.1z"/>
	<path class="st9" d="M942.9,174.8c0,4.7-3.2,6.7-6.3,6.7c-3.4,0-6-2.5-6-6.5c0-4.2,2.8-6.7,6.2-6.7
		C940.4,168.3,942.9,170.9,942.9,174.8z M932.9,174.9c0,2.8,1.6,4.8,3.8,4.8s3.8-2.1,3.8-4.9c0-2.1-1.1-4.8-3.8-4.8
		S932.9,172.5,932.9,174.9z"/>
	<path class="st9" d="M957.1,174.8c0,4.7-3.2,6.7-6.3,6.7c-3.4,0-6-2.5-6-6.5c0-4.2,2.8-6.7,6.2-6.7
		C954.7,168.3,957.1,170.9,957.1,174.8z M947.2,174.9c0,2.8,1.6,4.8,3.8,4.8s3.8-2.1,3.8-4.9c0-2.1-1.1-4.8-3.8-4.8
		S947.2,172.5,947.2,174.9z"/>
	<path class="st9" d="M960,162.7h2.3v18.5H960V162.7z"/>
	<path class="st9" d="M965.9,178.8c0.7,0.4,1.9,0.9,3,0.9c1.7,0,2.4-0.8,2.4-1.9c0-1.1-0.7-1.7-2.3-2.3c-2.3-0.8-3.3-2.1-3.3-3.6
		c0-2,1.6-3.7,4.3-3.7c1.3,0,2.4,0.4,3.1,0.8l-0.6,1.7c-0.5-0.3-1.4-0.7-2.6-0.7c-1.4,0-2.1,0.8-2.1,1.7c0,1,0.8,1.5,2.4,2.1
		c2.2,0.8,3.3,1.9,3.3,3.8c0,2.2-1.7,3.8-4.7,3.8c-1.4,0-2.7-0.3-3.5-0.9L965.9,178.8z"/>
	<path class="st9" d="M983.3,172.7c0-1.6-0.1-2.9-0.1-4.1h2.1l0.1,2.2h0.1c0.9-1.5,2.4-2.4,4.5-2.4c3,0,5.3,2.6,5.3,6.4
		c0,4.5-2.8,6.8-5.7,6.8c-1.7,0-3.1-0.7-3.9-2h-0.1v6.8h-2.3L983.3,172.7L983.3,172.7z M985.6,176c0,0.3,0.1,0.7,0.1,0.9
		c0.4,1.6,1.8,2.7,3.4,2.7c2.4,0,3.8-2,3.8-4.9c0-2.5-1.3-4.7-3.7-4.7c-1.6,0-3,1.1-3.5,2.8c-0.1,0.3-0.2,0.6-0.2,0.9v2.3H985.6z"/>
	<path class="st9" d="M998.1,172.5c0-1.5,0-2.8-0.1-3.9h2l0.1,2.5h0.1c0.6-1.7,2-2.8,3.5-2.8c0.3,0,0.4,0,0.6,0.1v2.2
		c-0.2-0.1-0.5-0.1-0.8-0.1c-1.6,0-2.8,1.2-3.1,2.9c-0.1,0.3-0.1,0.7-0.1,1.1v6.7H998L998.1,172.5L998.1,172.5z"/>
	<path class="st9" d="M1017.7,174.8c0,4.7-3.2,6.7-6.3,6.7c-3.4,0-6-2.5-6-6.5c0-4.2,2.8-6.7,6.2-6.7
		C1015.3,168.3,1017.7,170.9,1017.7,174.8z M1007.7,174.9c0,2.8,1.6,4.8,3.8,4.8s3.8-2.1,3.8-4.9c0-2.1-1.1-4.8-3.8-4.8
		S1007.7,172.5,1007.7,174.9z"/>
	<path class="st9" d="M1021.3,168.6l2.5,7.1c0.4,1.1,0.8,2.2,1,3.2h0.1c0.3-1,0.6-2.1,1.1-3.2l2.4-7.1h2.4l-4.9,12.6h-2.2l-4.8-12.6
		H1021.3z"/>
	<path class="st9" d="M1035.5,165c0,0.8-0.5,1.4-1.5,1.4c-0.8,0-1.4-0.6-1.4-1.4c0-0.8,0.6-1.4,1.4-1.4
		C1034.9,163.6,1035.5,164.2,1035.5,165z M1032.9,181.1v-12.6h2.3v12.6H1032.9z"/>
	<path class="st9" d="M1049.9,162.7v15.2c0,1.1,0,2.4,0.1,3.3h-2.1l-0.1-2.2h-0.1c-0.7,1.4-2.2,2.5-4.3,2.5c-3,0-5.4-2.6-5.4-6.4
		c0-4.2,2.6-6.8,5.6-6.8c1.9,0,3.2,0.9,3.8,1.9h0.1v-7.5H1049.9z M1047.6,173.7c0-0.3,0-0.7-0.1-1c-0.3-1.5-1.6-2.7-3.3-2.7
		c-2.4,0-3.8,2.1-3.8,4.9c0,2.5,1.2,4.7,3.7,4.7c1.5,0,2.9-1,3.4-2.7c0.1-0.3,0.1-0.6,0.1-1L1047.6,173.7L1047.6,173.7z"/>
	<path class="st9" d="M1055,175.3c0.1,3.1,2,4.4,4.3,4.4c1.6,0,2.6-0.3,3.5-0.7l0.4,1.6c-0.8,0.4-2.2,0.8-4.2,0.8
		c-3.9,0-6.2-2.5-6.2-6.3s2.2-6.8,5.9-6.8c4.1,0,5.2,3.6,5.2,5.9c0,0.5-0.1,0.8-0.1,1.1H1055z M1061.7,173.6c0-1.5-0.6-3.7-3.2-3.7
		c-2.3,0-3.3,2.1-3.5,3.7H1061.7z"/>
	<path class="st9" d="M305.5,193.9v15.2c0,1.1,0,2.4,0.1,3.3h-2.1l-0.1-2.2h-0.1c-0.7,1.4-2.2,2.5-4.3,2.5c-3,0-5.4-2.6-5.4-6.4
		c0-4.2,2.6-6.8,5.6-6.8c1.9,0,3.2,0.9,3.8,1.9h0.1v-7.5H305.5z M303.2,204.9c0-0.3,0-0.7-0.1-1c-0.3-1.5-1.6-2.7-3.3-2.7
		c-2.4,0-3.8,2.1-3.8,4.9c0,2.5,1.2,4.7,3.7,4.7c1.5,0,2.9-1,3.4-2.7c0.1-0.3,0.1-0.6,0.1-1L303.2,204.9L303.2,204.9z"/>
	<path class="st9" d="M311.9,196.2c0,0.8-0.5,1.4-1.5,1.4c-0.8,0-1.4-0.6-1.4-1.4c0-0.8,0.6-1.4,1.4-1.4
		C311.3,194.8,311.9,195.4,311.9,196.2z M309.3,212.3v-12.6h2.3v12.6H309.3z"/>
	<path class="st9" d="M315.1,210c0.7,0.4,1.9,0.9,3,0.9c1.7,0,2.4-0.8,2.4-1.9c0-1.1-0.7-1.7-2.3-2.3c-2.3-0.8-3.3-2.1-3.3-3.6
		c0-2,1.6-3.7,4.3-3.7c1.3,0,2.4,0.4,3.1,0.8l-0.6,1.7c-0.5-0.3-1.4-0.7-2.6-0.7c-1.4,0-2.1,0.8-2.1,1.7c0,1,0.8,1.5,2.4,2.1
		c2.2,0.8,3.3,1.9,3.3,3.8c0,2.2-1.7,3.8-4.7,3.8c-1.4,0-2.7-0.3-3.5-0.9L315.1,210z"/>
	<path class="st9" d="M334.7,211.9c-0.6,0.3-1.9,0.7-3.6,0.7c-3.8,0-6.3-2.6-6.3-6.4c0-3.9,2.7-6.7,6.8-6.7c1.4,0,2.5,0.3,3.2,0.7
		l-0.5,1.8c-0.5-0.3-1.4-0.6-2.7-0.6c-2.9,0-4.4,2.1-4.4,4.8c0,2.9,1.9,4.7,4.4,4.7c1.3,0,2.2-0.3,2.8-0.6L334.7,211.9z"/>
	<path class="st9" d="M348.6,206c0,4.7-3.2,6.7-6.3,6.7c-3.4,0-6-2.5-6-6.5c0-4.2,2.8-6.7,6.2-6.7
		C346.1,199.5,348.6,202.1,348.6,206z M338.6,206.1c0,2.8,1.6,4.8,3.8,4.8c2.2,0,3.8-2.1,3.8-4.9c0-2.1-1.1-4.8-3.8-4.8
		S338.6,203.7,338.6,206.1z"/>
	<path class="st9" d="M362,208.9c0,1.3,0,2.4,0.1,3.4h-2l-0.1-2.1h-0.1c-0.6,1-1.9,2.3-4.2,2.3c-2,0-4.3-1.1-4.3-5.5v-7.4h2.3v7
		c0,2.4,0.7,4,2.8,4c1.5,0,2.6-1.1,3-2.1c0.1-0.3,0.2-0.8,0.2-1.2v-7.7h2.3L362,208.9L362,208.9z"/>
	<path class="st9" d="M365.8,203.2c0-1.3,0-2.4-0.1-3.4h2l0.1,2.1h0.1c0.6-1.2,2.1-2.4,4.2-2.4c1.7,0,4.4,1,4.4,5.4v7.5h-2.3v-7.3
		c0-2-0.8-3.7-2.9-3.7c-1.5,0-2.7,1.1-3.1,2.3c-0.1,0.3-0.2,0.7-0.2,1.1v7.6h-2.3L365.8,203.2L365.8,203.2z"/>
	<path class="st9" d="M382.9,196.1v3.6h3.3v1.7h-3.3v6.8c0,1.6,0.4,2.4,1.7,2.4c0.6,0,1-0.1,1.3-0.2l0.1,1.7c-0.4,0.2-1.1,0.3-2,0.3
		c-1.1,0-1.9-0.3-2.5-1s-0.9-1.8-0.9-3.3v-6.9h-2v-1.7h2v-3L382.9,196.1z"/>
	<path class="st9" d="M388.4,210c0.7,0.4,1.9,0.9,3,0.9c1.7,0,2.4-0.8,2.4-1.9c0-1.1-0.7-1.7-2.3-2.3c-2.3-0.8-3.3-2.1-3.3-3.6
		c0-2,1.6-3.7,4.3-3.7c1.3,0,2.4,0.4,3.1,0.8l-0.6,1.7c-0.5-0.3-1.4-0.7-2.6-0.7c-1.4,0-2.1,0.8-2.1,1.7c0,1,0.8,1.5,2.4,2.1
		c2.2,0.8,3.3,1.9,3.3,3.8c0,2.2-1.7,3.8-4.7,3.8c-1.4,0-2.7-0.3-3.5-0.9L388.4,210z"/>
	<path class="st9" d="M415.3,206c0,4.7-3.2,6.7-6.3,6.7c-3.4,0-6-2.5-6-6.5c0-4.2,2.8-6.7,6.2-6.7
		C412.8,199.5,415.3,202.1,415.3,206z M405.3,206.1c0,2.8,1.6,4.8,3.8,4.8c2.2,0,3.8-2.1,3.8-4.9c0-2.1-1.1-4.8-3.8-4.8
		S405.3,203.7,405.3,206.1z"/>
	<path class="st9" d="M418.4,212.3v-10.8h-1.8v-1.7h1.8v-0.6c0-1.8,0.4-3.4,1.5-4.4c0.9-0.8,2-1.2,3.1-1.2c0.8,0,1.5,0.2,2,0.4
		l-0.3,1.8c-0.3-0.2-0.8-0.3-1.5-0.3c-2,0-2.4,1.7-2.4,3.6v0.7h3v1.7h-3v10.8H418.4z"/>
	<path class="st9" d="M441.1,208.9c0,1.3,0,2.4,0.1,3.4h-2l-0.1-2.1H439c-0.6,1-1.9,2.3-4.2,2.3c-2,0-4.3-1.1-4.3-5.5v-7.4h2.3v7
		c0,2.4,0.7,4,2.8,4c1.5,0,2.6-1.1,3-2.1c0.1-0.3,0.2-0.8,0.2-1.2v-7.7h2.3L441.1,208.9L441.1,208.9z"/>
	<path class="st9" d="M444.9,203.9c0-1.6-0.1-2.9-0.1-4.1h2.1l0.1,2.2h0.1c0.9-1.5,2.4-2.4,4.5-2.4c3,0,5.3,2.6,5.3,6.4
		c0,4.5-2.8,6.8-5.7,6.8c-1.7,0-3.1-0.7-3.9-2h-0.1v6.8h-2.3V203.9z M447.2,207.2c0,0.3,0.1,0.6,0.1,0.9c0.4,1.6,1.8,2.7,3.4,2.7
		c2.4,0,3.8-2,3.8-4.9c0-2.5-1.3-4.7-3.7-4.7c-1.6,0-3,1.1-3.5,2.8c-0.1,0.3-0.2,0.6-0.2,0.9v2.3H447.2z"/>
	<path class="st9" d="M467.3,196.1v3.6h3.3v1.7h-3.3v6.8c0,1.6,0.4,2.4,1.7,2.4c0.6,0,1-0.1,1.3-0.2l0.1,1.7c-0.4,0.2-1.1,0.3-2,0.3
		c-1.1,0-1.9-0.3-2.5-1s-0.9-1.8-0.9-3.3v-6.9h-2v-1.7h2v-3L467.3,196.1z"/>
	<path class="st9" d="M484.4,206c0,4.7-3.2,6.7-6.3,6.7c-3.4,0-6-2.5-6-6.5c0-4.2,2.8-6.7,6.2-6.7C482,199.5,484.4,202.1,484.4,206z
		 M474.4,206.1c0,2.8,1.6,4.8,3.8,4.8c2.2,0,3.8-2.1,3.8-4.9c0-2.1-1.1-4.8-3.8-4.8S474.4,203.7,474.4,206.1z"/>
	<path class="st9" d="M492,209.7c0.6,0.4,2.2,1.1,3.7,1.1c2.9,0,3.8-1.9,3.8-3.3c0-2.4-2.2-3.4-4.4-3.4h-1.3v-1.7h1.3
		c1.7,0,3.8-0.9,3.8-2.9c0-1.4-0.9-2.5-3-2.5c-1.4,0-2.7,0.6-3.4,1.1l-0.6-1.7c0.9-0.7,2.6-1.3,4.4-1.3c3.3,0,4.8,2,4.8,4
		c0,1.7-1,3.2-3.1,4v0.1c2.1,0.4,3.8,2,3.8,4.3c0,2.7-2.1,5.1-6.2,5.1c-1.9,0-3.6-0.6-4.4-1.1L492,209.7z"/>
	<path class="st9" d="M516,203.7c0,5.7-2.1,8.9-5.9,8.9c-3.3,0-5.5-3.1-5.6-8.7c0-5.7,2.4-8.8,5.9-8.8
		C514,195.2,516,198.3,516,203.7z M506.8,204c0,4.4,1.4,6.9,3.4,6.9c2.3,0,3.5-2.7,3.5-7c0-4.2-1.1-6.9-3.4-6.9
		C508.3,196.9,506.8,199.4,506.8,204z"/>
	<path class="st9" d="M525.7,200.2c0,3.6-1.9,5.3-4.1,5.3c-2.1,0-3.9-1.7-4-5.1c0-3.4,1.8-5.3,4.1-5.3
		C524.2,195.2,525.7,197,525.7,200.2z M519.5,200.4c-0.1,2.2,0.8,3.8,2.2,3.8c1.5,0,2.2-1.6,2.2-3.8c0-2.1-0.6-3.8-2.2-3.8
		C520.3,196.5,519.5,198.2,519.5,200.4z M521.5,212.6l9.9-17.5h1.5l-9.9,17.5H521.5z M536.7,207.2c0,3.6-1.9,5.3-4,5.3
		s-3.9-1.7-4-5.1c0-3.4,1.8-5.3,4.1-5.3C535.2,202.2,536.7,204,536.7,207.2z M530.5,207.4c0,2.2,0.8,3.8,2.2,3.8
		c1.5,0,2.2-1.6,2.2-3.8c0-2.1-0.6-3.8-2.2-3.8C531.3,203.5,530.5,205.2,530.5,207.4z"/>
	<path class="st9" d="M547,196.1v3.6h3.3v1.7H547v6.8c0,1.6,0.4,2.4,1.7,2.4c0.6,0,1-0.1,1.3-0.2l0.1,1.7c-0.4,0.2-1.1,0.3-2,0.3
		c-1.1,0-1.9-0.3-2.5-1s-0.9-1.8-0.9-3.3v-6.9h-2v-1.7h2v-3L547,196.1z"/>
	<path class="st9" d="M564.1,206c0,4.7-3.2,6.7-6.3,6.7c-3.4,0-6-2.5-6-6.5c0-4.2,2.8-6.7,6.2-6.7
		C561.7,199.5,564.1,202.1,564.1,206z M554.1,206.1c0,2.8,1.6,4.8,3.8,4.8s3.8-2.1,3.8-4.9c0-2.1-1.1-4.8-3.8-4.8
		S554.1,203.7,554.1,206.1z"/>
	<path class="st9" d="M583.3,206c0,4.7-3.2,6.7-6.3,6.7c-3.4,0-6-2.5-6-6.5c0-4.2,2.8-6.7,6.2-6.7
		C580.8,199.5,583.3,202.1,583.3,206z M573.3,206.1c0,2.8,1.6,4.8,3.8,4.8s3.8-2.1,3.8-4.9c0-2.1-1.1-4.8-3.8-4.8
		S573.3,203.7,573.3,206.1z"/>
	<path class="st9" d="M596.7,208.9c0,1.3,0,2.4,0.1,3.4h-2l-0.1-2.1h-0.1c-0.6,1-1.9,2.3-4.2,2.3c-2,0-4.3-1.1-4.3-5.5v-7.4h2.3v7
		c0,2.4,0.7,4,2.8,4c1.5,0,2.6-1.1,3-2.1c0.1-0.3,0.2-0.8,0.2-1.2v-7.7h2.3V208.9z"/>
	<path class="st9" d="M600.5,203.7c0-1.5,0-2.8-0.1-3.9h2l0.1,2.5h0.1c0.6-1.7,2-2.8,3.5-2.8c0.3,0,0.4,0,0.6,0.1v2.2
		c-0.2-0.1-0.5-0.1-0.8-0.1c-1.6,0-2.8,1.2-3.1,2.9c-0.1,0.3-0.1,0.7-0.1,1.1v6.7h-2.3L600.5,203.7L600.5,203.7z"/>
	<path class="st9" d="M613.5,210c0.7,0.4,1.9,0.9,3,0.9c1.7,0,2.4-0.8,2.4-1.9c0-1.1-0.6-1.7-2.3-2.3c-2.3-0.8-3.3-2.1-3.3-3.6
		c0-2,1.6-3.7,4.3-3.7c1.3,0,2.4,0.4,3.1,0.8l-0.6,1.7c-0.5-0.3-1.4-0.7-2.6-0.7c-1.4,0-2.1,0.8-2.1,1.7c0,1,0.8,1.5,2.4,2.1
		c2.2,0.8,3.3,1.9,3.3,3.8c0,2.2-1.7,3.8-4.7,3.8c-1.4,0-2.7-0.3-3.5-0.9L613.5,210z"/>
	<path class="st9" d="M626.9,196.1v3.6h3.3v1.7h-3.3v6.8c0,1.6,0.4,2.4,1.7,2.4c0.6,0,1-0.1,1.3-0.2l0.1,1.7c-0.4,0.2-1.1,0.3-2,0.3
		c-1.1,0-1.9-0.3-2.5-1s-0.9-1.8-0.9-3.3v-6.9h-2v-1.7h2v-3L626.9,196.1z"/>
	<path class="st9" d="M643.3,208.9c0,1.3,0,2.4,0.1,3.4h-2l-0.1-2.1h-0.1c-0.6,1-1.9,2.3-4.2,2.3c-2,0-4.3-1.1-4.3-5.5v-7.4h2.3v7
		c0,2.4,0.7,4,2.8,4c1.5,0,2.6-1.1,3-2.1c0.1-0.3,0.2-0.8,0.2-1.2v-7.7h2.3V208.9z"/>
	<path class="st9" d="M657.9,193.9v15.2c0,1.1,0,2.4,0.1,3.3h-2l-0.1-2.2h-0.1c-0.7,1.4-2.2,2.5-4.3,2.5c-3,0-5.4-2.6-5.4-6.4
		c0-4.2,2.6-6.8,5.6-6.8c1.9,0,3.2,0.9,3.8,1.9h0.1v-7.5H657.9z M655.6,204.9c0-0.3,0-0.7-0.1-1c-0.3-1.5-1.6-2.7-3.3-2.7
		c-2.4,0-3.8,2.1-3.8,4.9c0,2.5,1.2,4.7,3.7,4.7c1.5,0,2.9-1,3.4-2.7c0.1-0.3,0.1-0.6,0.1-1L655.6,204.9L655.6,204.9z"/>
	<path class="st9" d="M663,206.5c0.1,3.1,2,4.4,4.3,4.4c1.6,0,2.6-0.3,3.5-0.6l0.4,1.6c-0.8,0.4-2.2,0.8-4.2,0.8
		c-3.9,0-6.2-2.5-6.2-6.3s2.2-6.8,5.9-6.8c4.1,0,5.2,3.6,5.2,5.9c0,0.5-0.1,0.8-0.1,1.1L663,206.5L663,206.5z M669.7,204.8
		c0-1.5-0.6-3.7-3.2-3.7c-2.3,0-3.3,2.1-3.5,3.7H669.7z"/>
	<path class="st9" d="M674.8,203.2c0-1.3,0-2.4-0.1-3.4h2l0.1,2.1h0.1c0.6-1.2,2.1-2.4,4.2-2.4c1.7,0,4.4,1,4.4,5.4v7.5h-2.3v-7.3
		c0-2-0.8-3.7-2.9-3.7c-1.5,0-2.7,1.1-3.1,2.3c-0.1,0.3-0.2,0.7-0.2,1.1v7.6h-2.3L674.8,203.2L674.8,203.2z"/>
	<path class="st9" d="M691.8,196.1v3.6h3.3v1.7h-3.3v6.8c0,1.6,0.4,2.4,1.7,2.4c0.6,0,1-0.1,1.3-0.2l0.1,1.7c-0.4,0.2-1.1,0.3-2,0.3
		c-1.1,0-1.9-0.3-2.5-1s-0.9-1.8-0.9-3.3v-6.9h-2v-1.7h2v-3L691.8,196.1z"/>
	<path class="st9" d="M697.4,210c0.7,0.4,1.9,0.9,3,0.9c1.7,0,2.4-0.8,2.4-1.9c0-1.1-0.7-1.7-2.3-2.3c-2.3-0.8-3.3-2.1-3.3-3.6
		c0-2,1.6-3.7,4.3-3.7c1.3,0,2.4,0.4,3.1,0.8l-0.6,1.7c-0.5-0.3-1.4-0.7-2.6-0.7c-1.4,0-2.1,0.8-2.1,1.7c0,1,0.8,1.5,2.4,2.1
		c2.2,0.8,3.3,1.9,3.3,3.8c0,2.2-1.7,3.8-4.7,3.8c-1.4,0-2.7-0.3-3.5-0.9L697.4,210z"/>
	<path class="st9" d="M707.1,211c0-1,0.6-1.6,1.6-1.6s1.5,0.7,1.5,1.6c0,0.9-0.6,1.6-1.6,1.6C707.8,212.6,707.1,211.9,707.1,211z"/>
	<path class="st9" d="M720.9,212.3v-7.4l-5.5-10.1h2.6l2.5,4.8c0.7,1.3,1.2,2.4,1.7,3.6h0.1c0.5-1.1,1.1-2.3,1.8-3.6l2.5-4.8h2.6
		l-5.9,10.1v7.5h-2.4V212.3z"/>
	<path class="st9" d="M740.4,206c0,4.7-3.2,6.7-6.3,6.7c-3.4,0-6-2.5-6-6.5c0-4.2,2.8-6.7,6.2-6.7
		C737.9,199.5,740.4,202.1,740.4,206z M730.4,206.1c0,2.8,1.6,4.8,3.8,4.8s3.8-2.1,3.8-4.9c0-2.1-1.1-4.8-3.8-4.8
		S730.4,203.7,730.4,206.1z"/>
	<path class="st9" d="M753.8,208.9c0,1.3,0,2.4,0.1,3.4h-2l-0.1-2.1h-0.1c-0.6,1-1.9,2.3-4.2,2.3c-2,0-4.3-1.1-4.3-5.5v-7.4h2.3v7
		c0,2.4,0.7,4,2.8,4c1.5,0,2.6-1.1,3-2.1c0.1-0.3,0.2-0.8,0.2-1.2v-7.7h2.3V208.9z"/>
	<path class="st9" d="M773.3,193.9v15.2c0,1.1,0,2.4,0.1,3.3h-2.1l-0.1-2.2h-0.1c-0.7,1.4-2.2,2.5-4.3,2.5c-3,0-5.4-2.6-5.4-6.4
		c0-4.2,2.6-6.8,5.6-6.8c1.9,0,3.2,0.9,3.8,1.9h0.1v-7.5H773.3z M771,204.9c0-0.3,0-0.7-0.1-1c-0.3-1.5-1.6-2.7-3.3-2.7
		c-2.4,0-3.8,2.1-3.8,4.9c0,2.5,1.2,4.7,3.7,4.7c1.5,0,2.9-1,3.4-2.7c0.1-0.3,0.1-0.6,0.1-1L771,204.9L771,204.9z"/>
	<path class="st9" d="M788.5,206c0,4.7-3.2,6.7-6.3,6.7c-3.4,0-6-2.5-6-6.5c0-4.2,2.8-6.7,6.2-6.7C786,199.5,788.5,202.1,788.5,206z
		 M778.5,206.1c0,2.8,1.6,4.8,3.8,4.8s3.8-2.1,3.8-4.9c0-2.1-1.1-4.8-3.8-4.8S778.5,203.7,778.5,206.1z"/>
	<path class="st9" d="M796.2,203.2c0-1.3,0-2.4-0.1-3.4h2l0.1,2.1h0.1c0.6-1.2,2.1-2.4,4.2-2.4c1.7,0,4.4,1,4.4,5.4v7.5h-2.3v-7.3
		c0-2-0.8-3.7-2.9-3.7c-1.5,0-2.7,1.1-3.1,2.3c-0.1,0.3-0.2,0.7-0.2,1.1v7.6h-2.3L796.2,203.2L796.2,203.2z"/>
	<path class="st9" d="M822.1,206c0,4.7-3.2,6.7-6.3,6.7c-3.4,0-6-2.5-6-6.5c0-4.2,2.8-6.7,6.2-6.7
		C819.6,199.5,822.1,202.1,822.1,206z M812.1,206.1c0,2.8,1.6,4.8,3.8,4.8s3.8-2.1,3.8-4.9c0-2.1-1.1-4.8-3.8-4.8
		S812.1,203.7,812.1,206.1z"/>
	<path class="st9" d="M827.7,196.1v3.6h3.3v1.7h-3.3v6.8c0,1.6,0.4,2.4,1.7,2.4c0.6,0,1-0.1,1.3-0.2l0.1,1.7c-0.4,0.2-1.1,0.3-2,0.3
		c-1.1,0-1.9-0.3-2.5-1s-0.9-1.8-0.9-3.3v-6.9h-2v-1.7h2v-3L827.7,196.1z"/>
	<path class="st9" d="M838.4,203.2c0-1.3,0-2.4-0.1-3.4h2l0.1,2.1h0.1c0.6-1.2,2.1-2.4,4.2-2.4c1.7,0,4.4,1,4.4,5.4v7.5h-2.3v-7.3
		c0-2-0.8-3.7-2.9-3.7c-1.5,0-2.7,1.1-3.1,2.3c-0.1,0.3-0.2,0.7-0.2,1.1v7.6h-2.3L838.4,203.2L838.4,203.2z"/>
	<path class="st9" d="M854.1,206.5c0.1,3.1,2,4.4,4.3,4.4c1.6,0,2.6-0.3,3.5-0.6l0.4,1.6c-0.8,0.4-2.2,0.8-4.2,0.8
		c-3.9,0-6.2-2.5-6.2-6.3s2.2-6.8,5.9-6.8c4.1,0,5.2,3.6,5.2,5.9c0,0.5-0.1,0.8-0.1,1.1L854.1,206.5L854.1,206.5z M860.8,204.8
		c0-1.5-0.6-3.7-3.2-3.7c-2.3,0-3.3,2.1-3.5,3.7H860.8z"/>
	<path class="st9" d="M867.1,206.5c0.1,3.1,2,4.4,4.3,4.4c1.6,0,2.6-0.3,3.5-0.6l0.4,1.6c-0.8,0.4-2.2,0.8-4.2,0.8
		c-3.9,0-6.2-2.5-6.2-6.3s2.2-6.8,5.9-6.8c4.1,0,5.2,3.6,5.2,5.9c0,0.5-0.1,0.8-0.1,1.1L867.1,206.5L867.1,206.5z M873.8,204.8
		c0-1.5-0.6-3.7-3.2-3.7c-2.3,0-3.3,2.1-3.5,3.7H873.8z"/>
	<path class="st9" d="M889.8,193.9v15.2c0,1.1,0,2.4,0.1,3.3h-2.1l-0.1-2.2h-0.1c-0.7,1.4-2.2,2.5-4.3,2.5c-3,0-5.4-2.6-5.4-6.4
		c0-4.2,2.6-6.8,5.6-6.8c1.9,0,3.2,0.9,3.8,1.9h0.1v-7.5H889.8z M887.5,204.9c0-0.3,0-0.7-0.1-1c-0.3-1.5-1.6-2.7-3.3-2.7
		c-2.4,0-3.8,2.1-3.8,4.9c0,2.5,1.2,4.7,3.7,4.7c1.5,0,2.9-1,3.4-2.7c0.1-0.3,0.1-0.6,0.1-1L887.5,204.9L887.5,204.9z"/>
	<path class="st9" d="M901.2,196.1v3.6h3.3v1.7h-3.3v6.8c0,1.6,0.4,2.4,1.7,2.4c0.6,0,1-0.1,1.3-0.2l0.1,1.7c-0.4,0.2-1.1,0.3-2,0.3
		c-1.1,0-1.9-0.3-2.5-1c-0.7-0.7-0.9-1.8-0.9-3.3v-6.9H897v-1.7h1.9v-3L901.2,196.1z"/>
	<path class="st9" d="M918.3,206c0,4.7-3.2,6.7-6.3,6.7c-3.4,0-6-2.5-6-6.5c0-4.2,2.8-6.7,6.2-6.7
		C915.8,199.5,918.3,202.1,918.3,206z M908.3,206.1c0,2.8,1.6,4.8,3.8,4.8s3.8-2.1,3.8-4.9c0-2.1-1.1-4.8-3.8-4.8
		S908.3,203.7,908.3,206.1z"/>
	<path class="st9" d="M936.8,199.8c-0.1,0.9-0.1,1.9-0.1,3.5v7.3c0,2.9-0.6,4.7-1.8,5.7c-1.2,1.1-3,1.5-4.6,1.5
		c-1.5,0-3.2-0.4-4.2-1l0.6-1.7c0.8,0.5,2.1,1,3.7,1c2.3,0,4.1-1.2,4.1-4.4v-1.4h-0.1c-0.7,1.2-2.1,2.1-4,2.1
		c-3.1,0-5.4-2.7-5.4-6.1c0-4.3,2.8-6.7,5.7-6.7c2.2,0,3.4,1.1,3.9,2.2h0.1l0.1-1.9h2V199.8z M934.5,204.7c0-0.4,0-0.7-0.1-1
		c-0.4-1.3-1.5-2.4-3.2-2.4c-2.2,0-3.7,1.8-3.7,4.8c0,2.5,1.2,4.5,3.7,4.5c1.4,0,2.7-0.9,3.2-2.3c0.1-0.4,0.2-0.8,0.2-1.2v-2.4
		H934.5z"/>
	<path class="st9" d="M951.9,206c0,4.7-3.2,6.7-6.3,6.7c-3.4,0-6-2.5-6-6.5c0-4.2,2.8-6.7,6.2-6.7
		C949.5,199.5,951.9,202.1,951.9,206z M941.9,206.1c0,2.8,1.6,4.8,3.8,4.8s3.8-2.1,3.8-4.9c0-2.1-1.1-4.8-3.8-4.8
		S941.9,203.7,941.9,206.1z"/>
	<path class="st9" d="M966.6,212.3l-0.2-1.6h-0.1c-0.7,1-2.1,1.9-3.8,1.9c-2.5,0-3.8-1.8-3.8-3.6c0-3,2.7-4.7,7.6-4.7V204
		c0-1-0.3-2.9-2.9-2.9c-1.2,0-2.4,0.4-3.3,0.9l-0.5-1.5c1-0.7,2.5-1.1,4.1-1.1c3.8,0,4.8,2.6,4.8,5.1v4.7c0,1.1,0.1,2.2,0.2,3h-2.1
		V212.3z M966.3,205.9c-2.5-0.1-5.3,0.4-5.3,2.8c0,1.5,1,2.2,2.2,2.2c1.6,0,2.7-1,3-2.1c0.1-0.2,0.1-0.5,0.1-0.7V205.9z"/>
	<path class="st9" d="M972.2,203.2c0-1.3,0-2.4-0.1-3.4h2l0.1,2.1h0.1c0.6-1.2,2.1-2.4,4.2-2.4c1.7,0,4.4,1,4.4,5.4v7.5h-2.3v-7.3
		c0-2-0.8-3.7-2.9-3.7c-1.5,0-2.7,1.1-3.1,2.3c-0.1,0.3-0.2,0.7-0.2,1.1v7.6h-2.3L972.2,203.2L972.2,203.2z"/>
	<path class="st9" d="M987.1,199.8l2.8,7.4c0.3,0.8,0.6,1.8,0.8,2.6h0.1c0.2-0.8,0.5-1.7,0.8-2.6l2.5-7.4h2.4l-3.4,9
		c-1.6,4.3-2.8,6.5-4.3,7.9c-1.1,1-2.2,1.4-2.8,1.5l-0.6-1.9c0.6-0.2,1.3-0.5,2-1.1c0.6-0.5,1.4-1.4,1.9-2.5
		c0.1-0.2,0.2-0.4,0.2-0.5s-0.1-0.3-0.2-0.6l-4.7-11.6h2.5V199.8z"/>
	<path class="st9" d="M999.8,199.8l1.7,6.4c0.4,1.4,0.7,2.7,0.9,4h0.1c0.3-1.3,0.7-2.6,1.1-4l2.1-6.4h1.9l2,6.3
		c0.5,1.5,0.8,2.8,1.1,4.1h0.1c0.2-1.3,0.5-2.6,1-4.1l1.8-6.3h2.3l-4.1,12.6h-2.1l-1.9-6c-0.4-1.4-0.8-2.7-1.1-4.1h-0.1
		c-0.3,1.5-0.7,2.8-1.1,4.2l-2,6h-2.1l-3.8-12.6L999.8,199.8L999.8,199.8z"/>
	<path class="st9" d="M1018,193.9h2.3v7.9h0.1c0.4-0.7,0.9-1.2,1.6-1.6c0.7-0.4,1.5-0.7,2.3-0.7c1.7,0,4.4,1,4.4,5.4v7.5h-2.3v-7.2
		c0-2-0.8-3.7-2.9-3.7c-1.5,0-2.7,1-3.1,2.3c-0.1,0.3-0.2,0.7-0.2,1.1v7.6h-2.3v-18.6H1018z"/>
	<path class="st9" d="M1033.7,206.5c0.1,3.1,2,4.4,4.3,4.4c1.6,0,2.6-0.3,3.5-0.6l0.4,1.6c-0.8,0.4-2.2,0.8-4.2,0.8
		c-3.9,0-6.2-2.5-6.2-6.3s2.2-6.8,5.9-6.8c4.1,0,5.2,3.6,5.2,5.9c0,0.5-0.1,0.8-0.1,1.1L1033.7,206.5L1033.7,206.5z M1040.4,204.8
		c0-1.5-0.6-3.7-3.2-3.7c-2.3,0-3.3,2.1-3.5,3.7H1040.4z"/>
	<path class="st9" d="M1045.4,203.7c0-1.5,0-2.8-0.1-3.9h2l0.1,2.5h0.1c0.6-1.7,2-2.8,3.5-2.8c0.3,0,0.4,0,0.6,0.1v2.2
		c-0.2-0.1-0.5-0.1-0.8-0.1c-1.6,0-2.8,1.2-3.1,2.9c-0.1,0.3-0.1,0.7-0.1,1.1v6.7h-2.3v-8.7H1045.4z"/>
	<path class="st9" d="M1055,206.5c0.1,3.1,2,4.4,4.3,4.4c1.6,0,2.6-0.3,3.5-0.6l0.4,1.6c-0.8,0.4-2.2,0.8-4.2,0.8
		c-3.9,0-6.2-2.5-6.2-6.3s2.2-6.8,5.9-6.8c4.1,0,5.2,3.6,5.2,5.9c0,0.5-0.1,0.8-0.1,1.1L1055,206.5L1055,206.5z M1061.7,204.8
		c0-1.5-0.6-3.7-3.2-3.7c-2.3,0-3.3,2.1-3.5,3.7H1061.7z"/>
	<path class="st9" d="M306,237.2c0,4.7-3.2,6.7-6.3,6.7c-3.4,0-6-2.5-6-6.5c0-4.2,2.8-6.7,6.2-6.7C303.6,230.7,306,233.3,306,237.2z
		 M296,237.3c0,2.8,1.6,4.8,3.8,4.8c2.2,0,3.8-2.1,3.8-4.9c0-2.1-1.1-4.8-3.8-4.8S296,234.9,296,237.3z"/>
	<path class="st9" d="M308.9,234.9c0-1.5,0-2.8-0.1-3.9h2l0.1,2.5h0.1c0.6-1.7,2-2.8,3.5-2.8c0.3,0,0.4,0,0.6,0.1v2.2
		c-0.2-0.1-0.5-0.1-0.8-0.1c-1.6,0-2.8,1.2-3.1,2.9c-0.1,0.3-0.1,0.7-0.1,1.1v6.7h-2.3L308.9,234.9L308.9,234.9z"/>
	<path class="st9" d="M331.9,243.1c-0.6,0.3-1.9,0.7-3.6,0.7c-3.8,0-6.3-2.6-6.3-6.4c0-3.9,2.7-6.7,6.8-6.7c1.4,0,2.5,0.3,3.2,0.7
		l-0.5,1.8c-0.5-0.3-1.4-0.6-2.7-0.6c-2.9,0-4.4,2.1-4.4,4.8c0,2.9,1.9,4.7,4.4,4.7c1.3,0,2.2-0.3,2.8-0.6L331.9,243.1z"/>
	<path class="st9" d="M341.5,243.5l-0.2-1.6h-0.1c-0.7,1-2.1,1.9-3.8,1.9c-2.5,0-3.8-1.8-3.8-3.6c0-3,2.7-4.7,7.6-4.7v-0.2
		c0-1-0.3-2.9-2.9-2.9c-1.2,0-2.4,0.4-3.3,0.9l-0.5-1.5c1-0.7,2.5-1.1,4.1-1.1c3.8,0,4.8,2.6,4.8,5.1v4.7c0,1.1,0.1,2.2,0.2,3H341.5
		z M341.2,237.1c-2.5-0.1-5.3,0.4-5.3,2.8c0,1.5,1,2.2,2.2,2.2c1.6,0,2.7-1,3-2.1c0.1-0.2,0.1-0.5,0.1-0.7L341.2,237.1L341.2,237.1z
		"/>
	<path class="st9" d="M347.1,225.1h2.3v18.5h-2.3V225.1z"/>
	<path class="st9" d="M353.2,225.1h2.3v18.5h-2.3V225.1z"/>
	<path class="st9" d="M367.6,227.3v3.6h3.3v1.7h-3.3v6.8c0,1.6,0.4,2.4,1.7,2.4c0.6,0,1-0.1,1.3-0.2l0.1,1.7c-0.4,0.2-1.1,0.3-2,0.3
		c-1.1,0-1.9-0.3-2.5-1s-0.9-1.8-0.9-3.3v-6.9h-2v-1.7h2v-3L367.6,227.3z"/>
	<path class="st9" d="M384.7,237.2c0,4.7-3.2,6.7-6.3,6.7c-3.4,0-6-2.5-6-6.5c0-4.2,2.8-6.7,6.2-6.7
		C382.3,230.7,384.7,233.3,384.7,237.2z M374.7,237.3c0,2.8,1.6,4.8,3.8,4.8c2.2,0,3.8-2.1,3.8-4.9c0-2.1-1.1-4.8-3.8-4.8
		S374.7,234.9,374.7,237.3z"/>
	<path class="st9" d="M393,243.5c0.1-0.9,0.1-2.1,0.1-3.3V225h2.3v7.9h0.1c0.8-1.4,2.3-2.3,4.3-2.3c3.1,0,5.3,2.6,5.3,6.4
		c0,4.5-2.8,6.7-5.6,6.7c-1.8,0-3.3-0.7-4.2-2.4h-0.1l-0.1,2.1H393V243.5z M395.4,238.5c0,0.3,0.1,0.6,0.1,0.8
		c0.4,1.6,1.8,2.7,3.4,2.7c2.4,0,3.8-2,3.8-4.8c0-2.5-1.3-4.7-3.7-4.7c-1.6,0-3,1.1-3.5,2.8c-0.1,0.3-0.1,0.6-0.1,0.9L395.4,238.5
		L395.4,238.5z"/>
	<path class="st9" d="M419.3,237.2c0,4.7-3.2,6.7-6.3,6.7c-3.4,0-6-2.5-6-6.5c0-4.2,2.8-6.7,6.2-6.7
		C416.9,230.7,419.3,233.3,419.3,237.2z M409.3,237.3c0,2.8,1.6,4.8,3.8,4.8c2.2,0,3.8-2.1,3.8-4.9c0-2.1-1.1-4.8-3.8-4.8
		S409.3,234.9,409.3,237.3z"/>
	<path class="st9" d="M433.6,237.2c0,4.7-3.2,6.7-6.3,6.7c-3.4,0-6-2.5-6-6.5c0-4.2,2.8-6.7,6.2-6.7
		C431.1,230.7,433.6,233.3,433.6,237.2z M423.6,237.3c0,2.8,1.6,4.8,3.8,4.8c2.2,0,3.8-2.1,3.8-4.9c0-2.1-1.1-4.8-3.8-4.8
		S423.6,234.9,423.6,237.3z"/>
	<path class="st9" d="M438.7,236.7L438.7,236.7c0.4-0.4,0.8-1,1.2-1.4l3.7-4.3h2.8l-4.9,5.2l5.5,7.4h-2.8l-4.3-6l-1.2,1.3v4.7h-2.3
		v-18.5h2.3L438.7,236.7L438.7,236.7z"/>
	<path class="st9" d="M461.1,243.5l-0.2-1.6h-0.1c-0.7,1-2.1,1.9-3.8,1.9c-2.5,0-3.8-1.8-3.8-3.6c0-3,2.7-4.7,7.6-4.7v-0.2
		c0-1-0.3-2.9-2.9-2.9c-1.2,0-2.4,0.4-3.3,0.9l-0.5-1.5c1-0.7,2.5-1.1,4.1-1.1c3.8,0,4.8,2.6,4.8,5.1v4.7c0,1.1,0.1,2.2,0.2,3H461.1
		z M460.8,237.1c-2.5-0.1-5.3,0.4-5.3,2.8c0,1.5,1,2.2,2.2,2.2c1.6,0,2.7-1,3-2.1c0.1-0.2,0.1-0.5,0.1-0.7L460.8,237.1L460.8,237.1z
		"/>
	<path class="st9" d="M481.2,243.1c-0.6,0.3-1.9,0.7-3.6,0.7c-3.8,0-6.3-2.6-6.3-6.4c0-3.9,2.7-6.7,6.8-6.7c1.4,0,2.5,0.3,3.2,0.7
		l-0.5,1.8c-0.5-0.3-1.4-0.6-2.7-0.6c-2.9,0-4.4,2.1-4.4,4.8c0,2.9,1.9,4.7,4.4,4.7c1.3,0,2.2-0.3,2.8-0.6L481.2,243.1z"/>
	<path class="st9" d="M495.1,237.2c0,4.7-3.2,6.7-6.3,6.7c-3.4,0-6-2.5-6-6.5c0-4.2,2.8-6.7,6.2-6.7
		C492.7,230.7,495.1,233.3,495.1,237.2z M485.1,237.3c0,2.8,1.6,4.8,3.8,4.8c2.2,0,3.8-2.1,3.8-4.9c0-2.1-1.1-4.8-3.8-4.8
		S485.1,234.9,485.1,237.3z"/>
	<path class="st9" d="M508.5,240.1c0,1.3,0,2.4,0.1,3.4h-2l-0.1-2.1h-0.1c-0.6,1-1.9,2.3-4.2,2.3c-2,0-4.3-1.1-4.3-5.5v-7.4h2.3v7
		c0,2.4,0.7,4,2.8,4c1.5,0,2.6-1.1,3-2.1c0.1-0.3,0.2-0.8,0.2-1.2v-7.7h2.3L508.5,240.1L508.5,240.1z"/>
	<path class="st9" d="M512.3,234.9c0-1.5,0-2.8-0.1-3.9h2l0.1,2.5h0.1c0.6-1.7,2-2.8,3.5-2.8c0.3,0,0.4,0,0.6,0.1v2.2
		c-0.2-0.1-0.5-0.1-0.8-0.1c-1.6,0-2.8,1.2-3.1,2.9c-0.1,0.3-0.1,0.7-0.1,1.1v6.7h-2.3L512.3,234.9L512.3,234.9z"/>
	<path class="st9" d="M520.5,241.2c0.7,0.4,1.9,0.9,3,0.9c1.7,0,2.4-0.8,2.4-1.9c0-1.1-0.7-1.7-2.3-2.3c-2.3-0.8-3.3-2.1-3.3-3.6
		c0-2,1.6-3.7,4.3-3.7c1.3,0,2.4,0.4,3.1,0.8l-0.6,1.7c-0.5-0.3-1.4-0.7-2.6-0.7c-1.4,0-2.1,0.8-2.1,1.7c0,1,0.8,1.5,2.4,2.1
		c2.2,0.8,3.3,1.9,3.3,3.8c0,2.2-1.7,3.8-4.7,3.8c-1.4,0-2.7-0.3-3.5-0.9L520.5,241.2z"/>
	<path class="st9" d="M532.4,237.7c0.1,3.1,2,4.4,4.3,4.4c1.6,0,2.6-0.3,3.5-0.6l0.4,1.6c-0.8,0.4-2.2,0.8-4.2,0.8
		c-3.9,0-6.2-2.5-6.2-6.3s2.2-6.8,5.9-6.8c4.1,0,5.2,3.6,5.2,5.9c0,0.5-0.1,0.8-0.1,1.1L532.4,237.7L532.4,237.7z M539.1,236
		c0-1.5-0.6-3.7-3.2-3.7c-2.3,0-3.3,2.1-3.5,3.7H539.1z"/>
	<path class="st9" d="M543.3,242.2c0-1,0.6-1.6,1.6-1.6s1.5,0.7,1.5,1.6c0,0.9-0.6,1.6-1.6,1.6C543.9,243.8,543.3,243.1,543.3,242.2
		z"/>
	<path class="st9" d="M557.5,243.5v-7.4L552,226h2.6l2.5,4.8c0.7,1.3,1.2,2.4,1.7,3.6h0.1c0.5-1.1,1.1-2.3,1.8-3.6l2.5-4.8h2.6
		l-5.9,10.1v7.5h-2.4V243.5z"/>
	<path class="st9" d="M577,237.2c0,4.7-3.2,6.7-6.3,6.7c-3.4,0-6-2.5-6-6.5c0-4.2,2.8-6.7,6.2-6.7C574.6,230.7,577,233.3,577,237.2z
		 M567,237.3c0,2.8,1.6,4.8,3.8,4.8s3.8-2.1,3.8-4.9c0-2.1-1.1-4.8-3.8-4.8S567,234.9,567,237.3z"/>
	<path class="st9" d="M590.4,240.1c0,1.3,0,2.4,0.1,3.4h-2l-0.1-2.1h-0.1c-0.6,1-1.9,2.3-4.2,2.3c-2,0-4.3-1.1-4.3-5.5v-7.4h2.3v7
		c0,2.4,0.7,4,2.8,4c1.5,0,2.6-1.1,3-2.1c0.1-0.3,0.2-0.8,0.2-1.2v-7.7h2.3V240.1z"/>
	<path class="st9" d="M608.7,243.1c-0.6,0.3-1.9,0.7-3.6,0.7c-3.8,0-6.3-2.6-6.3-6.4c0-3.9,2.7-6.7,6.8-6.7c1.4,0,2.5,0.3,3.2,0.7
		l-0.5,1.8c-0.5-0.3-1.4-0.6-2.7-0.6c-2.9,0-4.4,2.1-4.4,4.8c0,2.9,1.9,4.7,4.4,4.7c1.3,0,2.2-0.3,2.8-0.6L608.7,243.1z"/>
	<path class="st9" d="M618.3,243.5l-0.2-1.6H618c-0.7,1-2.1,1.9-3.8,1.9c-2.5,0-3.8-1.8-3.8-3.6c0-3,2.7-4.7,7.6-4.7v-0.2
		c0-1-0.3-2.9-2.9-2.9c-1.2,0-2.4,0.4-3.3,0.9l-0.5-1.5c1-0.7,2.5-1.1,4.1-1.1c3.8,0,4.8,2.6,4.8,5.1v4.7c0,1.1,0.1,2.2,0.2,3H618.3
		z M618,237.1c-2.5-0.1-5.3,0.4-5.3,2.8c0,1.5,1,2.2,2.2,2.2c1.6,0,2.7-1,3-2.1c0.1-0.2,0.1-0.5,0.1-0.7V237.1z"/>
	<path class="st9" d="M623.9,234.4c0-1.3,0-2.4-0.1-3.4h2l0.1,2.1h0.1c0.6-1.2,2.1-2.4,4.2-2.4c1.7,0,4.4,1,4.4,5.4v7.5h-2.3v-7.3
		c0-2-0.8-3.7-2.9-3.7c-1.5,0-2.7,1.1-3.1,2.3c-0.1,0.3-0.2,0.7-0.2,1.1v7.6h-2.3L623.9,234.4L623.9,234.4z"/>
	<path class="st9" d="M643.7,243.5c0.1-0.9,0.1-2.1,0.1-3.3V225h2.3v7.9h0.1c0.8-1.4,2.3-2.3,4.3-2.3c3.1,0,5.3,2.6,5.3,6.4
		c0,4.5-2.8,6.7-5.6,6.7c-1.8,0-3.3-0.7-4.2-2.4h-0.1l-0.1,2.1h-2.1V243.5z M646.1,238.5c0,0.3,0.1,0.6,0.1,0.8
		c0.4,1.6,1.8,2.7,3.4,2.7c2.4,0,3.8-2,3.8-4.8c0-2.5-1.3-4.7-3.7-4.7c-1.6,0-3,1.1-3.5,2.8c-0.1,0.3-0.1,0.6-0.1,0.9V238.5z"/>
	<path class="st9" d="M670,237.2c0,4.7-3.2,6.7-6.3,6.7c-3.4,0-6-2.5-6-6.5c0-4.2,2.8-6.7,6.2-6.7C667.6,230.7,670,233.3,670,237.2z
		 M660,237.3c0,2.8,1.6,4.8,3.8,4.8s3.8-2.1,3.8-4.9c0-2.1-1.1-4.8-3.8-4.8S660,234.9,660,237.3z"/>
	<path class="st9" d="M684.3,237.2c0,4.7-3.2,6.7-6.3,6.7c-3.4,0-6-2.5-6-6.5c0-4.2,2.8-6.7,6.2-6.7
		C681.9,230.7,684.3,233.3,684.3,237.2z M674.3,237.3c0,2.8,1.6,4.8,3.8,4.8s3.8-2.1,3.8-4.9c0-2.1-1.1-4.8-3.8-4.8
		S674.3,234.9,674.3,237.3z"/>
	<path class="st9" d="M689.4,236.7L689.4,236.7c0.4-0.4,0.8-1,1.2-1.4l3.7-4.3h2.8l-4.9,5.2l5.5,7.4H695l-4.3-6l-1.2,1.3v4.7h-2.3
		v-18.5h2.3L689.4,236.7L689.4,236.7z"/>
	<path class="st9" d="M707.4,227.4c0,0.8-0.5,1.4-1.5,1.4c-0.8,0-1.4-0.6-1.4-1.4c0-0.8,0.6-1.4,1.4-1.4
		C706.9,226,707.4,226.6,707.4,227.4z M704.9,243.5v-12.6h2.3v12.6H704.9z"/>
	<path class="st9" d="M713.7,227.3v3.6h3.3v1.7h-3.3v6.8c0,1.6,0.4,2.4,1.7,2.4c0.6,0,1-0.1,1.3-0.2l0.1,1.7c-0.4,0.2-1.1,0.3-2,0.3
		c-1.1,0-1.9-0.3-2.5-1c-0.7-0.7-0.9-1.8-0.9-3.3v-6.9h-1.9v-1.7h1.9v-3L713.7,227.3z"/>
	<path class="st9" d="M732.1,243.5l-0.2-1.6h-0.1c-0.7,1-2.1,1.9-3.8,1.9c-2.5,0-3.8-1.8-3.8-3.6c0-3,2.7-4.7,7.6-4.7v-0.2
		c0-1-0.3-2.9-2.9-2.9c-1.2,0-2.4,0.4-3.3,0.9l-0.5-1.5c1-0.7,2.5-1.1,4.1-1.1c3.8,0,4.8,2.6,4.8,5.1v4.7c0,1.1,0.1,2.2,0.2,3H732.1
		z M731.7,237.1c-2.5-0.1-5.3,0.4-5.3,2.8c0,1.5,1,2.2,2.2,2.2c1.6,0,2.7-1,3-2.1c0.1-0.2,0.1-0.5,0.1-0.7V237.1z"/>
	<path class="st9" d="M737.6,225.1h2.3v18.5h-2.3V225.1z"/>
	<path class="st9" d="M743.8,225.1h2.3v18.5h-2.3V225.1z"/>
	<path class="st9" d="M766.8,237.2c0,4.7-3.2,6.7-6.3,6.7c-3.4,0-6-2.5-6-6.5c0-4.2,2.8-6.7,6.2-6.7
		C764.3,230.7,766.8,233.3,766.8,237.2z M756.8,237.3c0,2.8,1.6,4.8,3.8,4.8s3.8-2.1,3.8-4.9c0-2.1-1.1-4.8-3.8-4.8
		S756.8,234.9,756.8,237.3z"/>
	<path class="st9" d="M769.7,234.4c0-1.3,0-2.4-0.1-3.4h2l0.1,2.1h0.1c0.6-1.2,2.1-2.4,4.2-2.4c1.7,0,4.4,1,4.4,5.4v7.5h-2.3v-7.3
		c0-2-0.8-3.7-2.9-3.7c-1.5,0-2.7,1.1-3.1,2.3c-0.1,0.3-0.2,0.7-0.2,1.1v7.6h-2.3L769.7,234.4L769.7,234.4z"/>
	<path class="st9" d="M784.1,225.1h2.3v18.5h-2.3V225.1z"/>
	<path class="st9" d="M792.8,227.4c0,0.8-0.5,1.4-1.5,1.4c-0.8,0-1.4-0.6-1.4-1.4c0-0.8,0.6-1.4,1.4-1.4
		C792.2,226,792.8,226.6,792.8,227.4z M790.2,243.5v-12.6h2.3v12.6H790.2z"/>
	<path class="st9" d="M796.3,234.4c0-1.3,0-2.4-0.1-3.4h2l0.1,2.1h0.1c0.6-1.2,2.1-2.4,4.2-2.4c1.7,0,4.4,1,4.4,5.4v7.5h-2.3v-7.3
		c0-2-0.8-3.7-2.9-3.7c-1.5,0-2.7,1.1-3.1,2.3c-0.1,0.3-0.2,0.7-0.2,1.1v7.6h-2.3L796.3,234.4L796.3,234.4z"/>
	<path class="st9" d="M812,237.7c0.1,3.1,2,4.4,4.3,4.4c1.6,0,2.6-0.3,3.5-0.6l0.4,1.6c-0.8,0.4-2.2,0.8-4.2,0.8
		c-3.9,0-6.2-2.5-6.2-6.3s2.2-6.8,5.9-6.8c4.1,0,5.2,3.6,5.2,5.9c0,0.5-0.1,0.8-0.1,1.1L812,237.7L812,237.7z M818.7,236
		c0-1.5-0.6-3.7-3.2-3.7c-2.3,0-3.3,2.1-3.5,3.7H818.7z"/>
	<path class="st9" d="M822.9,242.2c0-1,0.6-1.6,1.6-1.6s1.5,0.7,1.5,1.6c0,0.9-0.6,1.6-1.6,1.6C823.5,243.8,822.9,243.1,822.9,242.2
		z"/>
</g>
<g id="Layer_4_1_" class="st1">
</g>
</svg>
