<?xml version="1.0" encoding="utf-8"?>
<!-- Generator: Adobe Illustrator 22.1.0, SVG Export Plug-In . SVG Version: 6.00 Build 0)  -->
<svg version="1.1" id="Layer_1" xmlns="http://www.w3.org/2000/svg" xmlns:xlink="http://www.w3.org/1999/xlink" x="0px" y="0px"
	 viewBox="0 0 50 45" style="enable-background:new 0 0 50 45;" xml:space="preserve">
<style type="text/css">
	.st0{clip-path:url(#SVGID_2_);}
	.st1{fill:#00AEBD;}
	.st2{opacity:0.95;fill:#583F99;enable-background:new    ;}
	.st3{fill:#FFFFFF;}
</style>
<g>
	<g>
		<g>
			<defs>
				<rect id="SVGID_1_" y="0" width="50" height="45"/>
			</defs>
			<clipPath id="SVGID_2_">
				<use xlink:href="#SVGID_1_"  style="overflow:visible;"/>
			</clipPath>
			<g class="st0">
				<path class="st1" d="M41.5,4.8c-1.9-2.5-4.6-4.7-7.7-4.7c-3.2,0.1-5.8,2.5-7.8,5c-1.9,2.6-3.5,5.5-6.1,7.4c-2.6,2-6,2.6-8.8,4.3
					c-4.2,2.5-7,7.7-5.8,12.5c0.7,2.7,2.4,4.9,4.2,7c3.2,3.8,6.9,7.7,11.7,8.8c4.7,1.1,9.6-0.6,13.4-3.7
					C44.5,33.3,49.7,15.9,41.5,4.8z"/>
				<path class="st2" d="M1.1,21.1c-1.3,3.2-1.8,7,0,9.9c1.8,3,5.5,4.1,8.9,4.6c3.4,0.4,7,0.3,10.1,1.7c3.2,1.4,5.7,4.2,8.8,5.9
					c4.6,2.6,10.9,2.3,14.7-1.5c2.1-2.1,3.2-5,4.1-7.8c1.7-5.2,3.2-10.8,1.5-16c-1.6-5-6-8.8-10.8-10.6C25.5,2.4,6.7,7.2,1.1,21.1z"
					/>
				<path class="st3" d="M16.6,22.3h-3.5v-5.5h1.1v4.6h2.4V22.3z"/>
				<path class="st3" d="M17,22.3v-5.5h1.1v5.6H17V22.3z"/>
				<path class="st3" d="M18.8,22.3v-5.5h0.9l2.5,3.6l0,0v-3.6h1.1v5.6h-0.9l-2.6-3.6l0,0v3.6h-1V22.3z"/>
				<path class="st3" d="M28.8,20c0,0.8-0.2,1.4-0.6,1.8s-1,0.7-1.8,0.7s-1.4-0.3-1.9-0.8s-0.7-1.2-0.7-2.1s0.2-1.6,0.7-2.1
					s1.1-0.8,1.9-0.8c0.6,0,1.2,0.2,1.6,0.5c0.4,0.4,0.7,0.8,0.8,1.4h-1.1c-0.1-0.3-0.2-0.5-0.4-0.7c-0.2-0.2-0.5-0.2-0.8-0.2
					c-0.4,0-0.8,0.2-1.1,0.5C25.1,18.5,25,19,25,19.6s0.1,1.1,0.4,1.4c0.3,0.4,0.6,0.5,1.1,0.5c0.4,0,0.7-0.1,0.9-0.3
					c0.2-0.2,0.4-0.5,0.4-0.8v-0.1h-1.2v-0.8h2.3L28.8,20L28.8,20z"/>
				<path class="st3" d="M30.4,20.2c0,0.4,0.1,0.7,0.3,0.8c0.2,0.2,0.5,0.3,0.9,0.3s0.6-0.1,0.9-0.3c0.2-0.2,0.3-0.5,0.3-0.8v-3.4
					h1.1v3.6c0,0.6-0.2,1.1-0.6,1.5c-0.4,0.4-1,0.6-1.7,0.6s-1.2-0.2-1.7-0.6c-0.4-0.4-0.6-0.9-0.6-1.5v-3.6h1.2L30.4,20.2
					L30.4,20.2z"/>
				<path class="st3" d="M37.5,21h-1.9l-0.4,1.4H34l1.9-5.6h1.4l1.9,5.6H38L37.5,21z M35.8,20.1h1.4l-0.7-2.3l0,0L35.8,20.1z"/>
				<path class="st3" d="M20.1,29.8h-3.5v-5.6h1.1v4.6h2.4V29.8z"/>
				<path class="st3" d="M23.6,28.5h-1.9l-0.4,1.3h-1.2l1.9-5.6h1.4l1.9,5.6h-1.2L23.6,28.5z M22,27.6h1.4l-0.7-2.3l0,0L22,27.6z"/>
				<path class="st3" d="M25.5,29.8v-5.6h1l2.5,3.6l0,0v-3.6h1.1v5.6h-0.9l-2.6-3.6l0,0v3.6H25.5z"/>
				<path class="st3" d="M32.8,24.3c0.8,0,1.4,0.2,1.9,0.7s0.7,1.2,0.7,2c0,0.9-0.2,1.6-0.7,2.1c-0.4,0.5-1.1,0.8-1.9,0.8h-2.1v-5.6
					C30.7,24.3,32.8,24.3,32.8,24.3z M31.9,28.9h0.8c0.5,0,0.9-0.2,1.2-0.5s0.4-0.8,0.4-1.4s-0.1-1-0.4-1.3
					c-0.3-0.3-0.6-0.5-1.1-0.5H32L31.9,28.9L31.9,28.9z"/>
			</g>
		</g>
	</g>
</g>
</svg>
