<?xml version="1.0" encoding="utf-8"?>
<!-- Generator: Adobe Illustrator 22.1.0, SVG Export Plug-In . SVG Version: 6.00 Build 0)  -->
<svg version="1.1" id="Layer_1" xmlns="http://www.w3.org/2000/svg" xmlns:xlink="http://www.w3.org/1999/xlink" x="0px" y="0px"
	 viewBox="0 0 45 45" style="enable-background:new 0 0 45 45;" xml:space="preserve">
<style type="text/css">
	.st0{fill:none;}
	.st1{fill:#4F4193;}
	.st2{fill:#FFFFFF;}
</style>
<title>request</title>
<rect x="-2.5" y="0" class="st0" width="50" height="45"/>
<circle class="st1" cx="22.5" cy="22.5" r="22.5"/>
<path class="st2" d="M15.1,17.2c0-1.8,0.7-3.5,2-4.7c1.5-1.3,3.5-2,5.5-1.8c1.9-0.1,3.8,0.5,5.3,1.7c1.3,1.1,2.1,2.7,2,4.4
	c0,2.3-1.3,4.4-3.4,5.4c-0.8,0.4-1.6,1-2.2,1.7c-0.4,0.6-0.6,1.3-0.6,2v0.9h-3.7v-1.1c-0.1-1,0.1-2.1,0.6-3c0.6-0.9,1.4-1.7,2.4-2.2
	c0.8-0.4,1.5-1,2.1-1.7c0.4-0.6,0.6-1.3,0.6-2c0-0.8-0.3-1.6-0.9-2.1c-0.7-0.6-1.6-0.9-2.4-0.8c-0.9,0-1.8,0.3-2.5,0.9
	c-0.7,0.6-1.1,1.5-1.1,2.4L15.1,17.2z M20.4,33.7c-0.5-0.4-0.7-1-0.7-1.6c0-0.6,0.2-1.2,0.7-1.6c0.9-0.9,2.4-0.9,3.3,0
	c0.4,0.4,0.7,1,0.7,1.6c0,0.6-0.2,1.2-0.7,1.6C22.7,34.6,21.3,34.6,20.4,33.7z"/>
</svg>
