<?xml version="1.0" encoding="utf-8"?>
<!-- Generator: Adobe Illustrator 22.1.0, SVG Export Plug-In . SVG Version: 6.00 Build 0)  -->
<svg version="1.1" id="Layer_1" xmlns="http://www.w3.org/2000/svg" xmlns:xlink="http://www.w3.org/1999/xlink" x="0px" y="0px"
	 viewBox="0 0 233 318.9" style="enable-background:new 0 0 233 318.9;" xml:space="preserve">
<style type="text/css">
	.st0{display:none;}
	.st1{fill:#FFD0C0;}
	.st2{fill:#FF4D37;}
	.st3{fill:#301712;}
	.st4{fill:#7362D1;}
	.st5{display:none;fill:#6581F3;stroke:#223387;stroke-miterlimit:10;}
</style>
<g id="Layer_1_1_" class="st0">
</g>
<g>
	<path class="st1" d="M34.7,88.4v36L0.9,100.6V88.4c7.3-2.7,12.3-5.8,15.4-8c8-5.8,15.1-13.9,15.5-14.5c5.1-5.9,6.1-8.6,9.6-9.2
		c4.4-0.7,9.3,2.7,11.7,5.9c3.7,5,1.8,10.3-1.4,20.4c-3.2,10.2-6.4,11-7.5,11.2c-2.1,0.4-4.8-0.4-6.8-1.8
		C35.4,91,34.8,89.1,34.7,88.4z"/>
	<path class="st1" d="M132.2,162c0-0.5,0-1.1-0.1-1.9c-0.1-1.3-0.4-2.2-0.5-2.8c-0.5-2-0.4-3.8-0.4-4.8c0-1.4,0.1-3,0.7-4.6
		c0.4-1.1,0.6-1.7,1.3-2.2c1.5-1.2,3.6-0.9,4.7-0.8c0,0,2.5,0.4,4.3,1.5c4,2.8,4.4,10.3,3.6,15.5c-1.3,8.3-6.4,15.1-6.4,15.1
		s0.1-0.2,0.4-0.7c0.2-0.8-9.6-4.4-10.4-4.6C130.2,169,132.2,165.7,132.2,162z"/>
	<path class="st2" d="M57.8,118.9c1.4,1.7,6.2,13.5,6.2,23.5c0,0-0.8,25.7,3.1,76.2c1.3,16.4,4.4,22.3,8.8,23.3
		c5.9,1.2,13.6-7.8,18.6-13.7c7.9-9.2,11.6-17.4,14.8-24.6c4.8-10.4,9.3-20.4,16.2-35.7c3.2,0.1,7.3,0.5,11.7,1.4
		c4.1,0.8,7.6,2,10.4,3.1c-4.1,22.6-9.7,40.9-14.5,54.2c-6.8,19-12.8,31.3-21.7,43.3C99.3,286.6,90,292,82.1,295
		c-4,1.4-12.3,4.6-23.3,3.7c-18.9-1.7-30.2-14.1-33.7-18c-11-12.3-11.9-25.5-11.9-30.6c-1.7,3.8-4,8-7.3,12.6
		c-1.7,2.4-3.5,4.5-5.2,6.3c0-60.6,0-121.2,0-181.8c1.6,5,3.7,9.1,5.8,12.5c1.8,3,3.4,5.4,6.2,8.1c2.4,2.2,9.7,9.2,15.7,7.3
		c4.5-1.4,5.8-7.1,5.9-8.4C39.3,107.9,50.3,110.5,57.8,118.9z"/>
	<path class="st3" d="M54.9,68.7c2.7,0.1,3.4-0.4,3.8-0.6c1-0.8,0.8-2.2,0.8-3c-0.3-2.8-2.5-4.7-5.1-7c-2.8-2.5-5.5-3.9-7.6-5
		c-3.7-1.9-5.6-2.4-7.1-2.6c-1.6-0.2-3.2-0.4-4.8,0.1c-1,0.2-2,0.8-2.8,1.3c-2.8,1.8-5.1,4-7.3,6.3c-2.3,2.4-4.5,4.6-6.9,7
		c-7.1,7.2-9,8.7-9.6,12c-0.3,1.2-0.6,2.8,0.3,4.6c1.6,3.1,5.6,4.7,9,4.8c0.8,0,3.4,0.1,5.8-1.2c4.8-2.5,4.4-7.6,9.7-19.4
		c0.8-2,2.4-5.1,4.2-5.1c1.1,0,1.6,0.9,3.7,2.6c2,1.4,3.7,2.1,5.6,3C51.2,68.3,53.9,68.6,54.9,68.7z"/>
</g>
<path class="st4" d="M117.7,97.1c3.9-5.3-1.2-12.7-2.2-25.7c-1.3-17.9,6.5-32.1,8-34.9c11.1-20.1,30.6-26,35.3-27.4
	c3.9-1.2,22.9-6.6,42.8,3.4c5,2.5,13.1,6.6,19.3,16.1c6.1,9.3,7.2,18.7,7.9,24.2c1.6,13.2-1.2,23.5-2.1,26.7
	c-1.1,3.7-5.4,16.9-16.8,27.4c-16.1,14.8-35.6,14.5-46.9,14.2c-15.8-0.2-29.8-5.2-36.8-7.7c-2.9-1-1.7-0.8-13.7-5.5
	c-7.8-3-11.9-4.5-11.6-5.7C101,100.1,113,103.3,117.7,97.1z"/>
<path class="st5" d="M1469.7-384.3c3.3-0.1,8.4,0.2,13.3,3.3c5.1,3.3,7.8,8.4,11,19.2c2,6.8,4.7,17.6,6.9,39.1
	c0.8,8,1.6,17.5,0.9,29.5c-0.7,12.6-2.4,15.5-3.3,16.9c-4.8,7.2-13.7,8.4-30,10.3c0,0-29.1,3.4-52.7-5.6c-2.6-1-5.8-2.4-8.2-5.5"/>
<g id="Layer_1_2_">
	<title>request1</title>
</g>
<g id="Layer_2_1_">
</g>
<g id="Layer_4">
</g>
<g id="Layer_4_1_" class="st0">
</g>
</svg>
