<?xml version="1.0" encoding="utf-8"?>
<!-- Generator: Adobe Illustrator 22.1.0, SVG Export Plug-In . SVG Version: 6.00 Build 0)  -->
<svg version="1.1" id="Layer_1" xmlns="http://www.w3.org/2000/svg" xmlns:xlink="http://www.w3.org/1999/xlink" x="0px" y="0px"
	 viewBox="0 0 346.7 654.7" style="enable-background:new 0 0 346.7 654.7;" xml:space="preserve">
<style type="text/css">
	.st0{fill:#FFD0C0;}
	.st1{fill:#1C080D;}
	.st2{fill:#18B485;}
	.st3{fill:#FEB832;}
	.st4{fill:#F2F2F8;}
	.st5{display:none;}
	.st6{display:none;fill:#6581F3;stroke:#223387;stroke-miterlimit:10;}
</style>
<g id="Layer_2_1_">
	<path class="st0" d="M45.5,210.3c11.5,12.8,23,25.5,34.4,38.4l12.6-17.1c-0.7-0.5-2.3-1.7-4.3-3.3c-15.1-11.9-32.1-30.8-40.2-32.2
		c-1.6-0.2-3.2-0.3-4.9-0.4c-2-0.1-4.1,0.1-6.2,0.4c-0.3,0.2-4.1,1.5-3.9,2.4s3,0.9,3.5,1l3,0.7c-0.4,0.7-0.6,1.4-0.7,2
		c-0.4,1.2-0.3,2.6-0.1,3.9c0.4,1.5,1.4,2.9,2.9,3.5C42.9,210.2,44.2,210.5,45.5,210.3z"/>
	<path class="st0" d="M278.6,229.1c2.3-6.9,4.4-14.6,6.4-23c2.1-9.9,3.4-19,4.1-27.3c-0.7,0.6-2.5,2-4.7,1.9c0,0-2.1-0.1-3.9-1.7
		c-5.4-4.7-3-34.6,14.1-42.6c2.7-1.3,5.3-1.8,6.6-1.8c1.1-0.1,3-0.3,4.9,0.5c8.9,3.5,7.3,21.4,12.3,43.2c1.5,6.5,4.2,16.5,9.8,28.3
		l-13.5,27.8l-29,7.2C283.4,237.4,280.9,233.2,278.6,229.1z"/>
	<path class="st1" d="M286.9,149.4c-2.5-0.4-5.1-1.3-6.5-3.3c-0.5-0.9-0.8-1.8-1-2.8c-0.4-1.7-0.5-3.7,0.1-5.4c1-2.9,3.6-5,6.5-5.8
		c2.9-0.8,6-0.8,9-0.5c2.4,0.2,4.9,0.5,6.8-1s1.1-3.2,3.7-5.4c2-1.8,3.5-1.8,3.9-1.9c0.4-0.1,1.4,0,2.4,0.5c0,0,1.2,0.7,1.9,2
		c3.1,5.5,3.1,12.1,3.8,18.4c1.3,10.7,5.1,21,6.3,31.6c0.2,1.9,0.4,3.9-0.1,5.8c-0.5,2.3-2,4.4-4.1,5.9c-2.2,1.8-5.7,2.7-7.9,0.9
		c-1.1-1-1.7-2.3-2-3.6c-2.4-7.7-1.4-15.9-1.3-23.8c0.1-3.6,0.6-8.3-0.7-11.8c-1.1-3.2-4.9-1.4-7.1-0.7
		C296.3,149.2,291.5,149.9,286.9,149.4z"/>
	<path class="st2" d="M328.6,412c-1.3,21.2-1.5,45.1,0.4,71.1c2.8,39.2,9.7,73.4,17.3,101.5c0-57.6,0-115.1,0-172.6H328.6z"/>
	<path class="st3" d="M315.9,222.5c-3.3,5-7.3,9.8-12.7,12.4c-1.1,0.5-10.2,3.6-16.7-1.9c-5.3-4.4-6.8-12.7-3.5-20.3
		c-3.7,0.8-9.5,2.2-16.4,4.2c-31,9-42.7,18.1-59.3,23.6c-24.2,8-45.7,4-65.5,0.3c-33.4-6.2-57.3-20.9-70.2-30.2
		c-6.3,4.3-11.7,9.9-15.9,16.2c24.4,30.2,58.1,52.6,95,64.4c37,11.8,77.1,13,115,4.5c2.6,10.3,6.4,24.1,11.2,40.3
		c19.6,65.2,29.8,78.5,41.6,86.9c5.9,4.2,15,9.1,28.2,11.5c-0.1-75.7-0.2-151.4-0.4-227.2c-1.9-1-4.7-2.2-8.1-2.9
		c-5.7-1.1-10.5-0.2-13.1,0.5c-0.9,1.7-2.3,4.3-3.9,7.5C316.7,221,316.8,221.1,315.9,222.5z"/>
	<path class="st4" d="M219.2,194c-7.2-13.2-6.5-26.2-5.9-39.6c1.1-21.2,8.6-20.3,10.6-43.3c0.7-8.2,1.5-18.8-2.5-31.3
		c-4.1-12.6-11-20.6-16.7-27.1c0,0-21.1-23.9-56.7-33.9c-7.7-2.2-13.6-3.1-18.4-3.8c-20.7-3-42.1-3.7-62.2,1.8
		C59,19.1,33.3,27.5,18.2,52.9C15.3,57.8,6.4,73.2,7.9,94.4c0.3,4.5,2,22.2,15.2,38.7c10,12.5,21.6,17.9,32.9,23
		c27,12.3,62.6,17.6,83.5,15.4c2.9-0.3,11.6-1.3,22.3,1.3c6.8,1.7,11.6,4.3,15.1,6.3c32,17.6,43.9,25.2,45.8,23.1
		C223.8,201.1,221.3,197.9,219.2,194z"/>
</g>
<g id="Layer_1_3_">
	<g id="Layer_1_1_" class="st5">
	</g>
	<path class="st6" d="M1180.6-214.4c3.3-0.1,8.4,0.2,13.3,3.3c5.1,3.3,7.8,8.4,11,19.2c2,6.8,4.7,17.6,6.9,39.1
		c0.8,8,1.6,17.5,0.9,29.5c-0.7,12.6-2.4,15.5-3.3,16.9c-4.8,7.2-13.7,8.4-30,10.3c0,0-29.1,3.4-52.7-5.6c-2.6-1-5.8-2.4-8.2-5.5"/>
	<g id="Layer_1_2_">
		<title>request1</title>
	</g>
	<g id="Layer_2_2_">
	</g>
	<g id="Layer_4">
	</g>
	<g id="Layer_4_1_" class="st5">
	</g>
</g>
</svg>
