<?xml version="1.0" encoding="utf-8"?>
<!-- Generator: Adobe Illustrator 22.1.0, SVG Export Plug-In . SVG Version: 6.00 Build 0)  -->
<svg version="1.1" id="Layer_1" xmlns="http://www.w3.org/2000/svg" xmlns:xlink="http://www.w3.org/1999/xlink" x="0px" y="0px"
	 viewBox="0 0 48.5 40.1" style="enable-background:new 0 0 48.5 40.1;" xml:space="preserve">
<style type="text/css">
	.st0{fill:#61BCE0;}
	.st1{fill:#FFD0C0;}
	.st2{fill:#1C080D;}
	.st3{fill:#8A3BD2;}
	.st4{fill:#FF4D37;}
	.st5{display:none;fill:#6581F3;stroke:#223387;stroke-miterlimit:10;}
	.st6{fill:#FF4D37;stroke:#E6372C;stroke-width:0.1883;stroke-miterlimit:10;}
	.st7{fill:#FFFFFF;stroke:#FFFFFF;stroke-width:9.077422e-02;stroke-miterlimit:10;}
</style>
<g id="Layer_1_1_">
	<title>request1</title>
</g>
<path class="st0" d="M21.9,14.5c1,0.1,2.5,0.3,4.3,0.4c3.3,0.2,6.5,0.4,10.2-0.1c4-0.6,7.3-1,8.9-3.6c0.2-0.5,1.2-2.4,0.6-4.4
	c-0.2-0.7-0.7-1.3-1.3-1.9c-1.3-1.3-3.8-2.4-8.9-3.1c-4.7-0.6-8.2-0.4-10-0.2c-3.1,0.3-4.8,0.9-6.1,1.5c-1.8,0.8-3.5,1.6-4.2,3.5
	c-0.8,2.2,0.3,4.2,0.3,4.4c0.8,1.5,2.2,2.1,2.7,2.3c-1.4,1.2-2.7,2.4-4.1,3.7C16.8,16.1,19.3,15.3,21.9,14.5z"/>
<g id="Layer_2_1_">
</g>
<path class="st1" d="M20,15.3c0-0.1-0.1-0.3-0.2-0.4c-0.2-0.4-0.2-0.8-0.2-1.2c0-0.1,0-0.2,0.1-0.2c0.1-0.2,0.3-0.2,0.4-0.2
	c0.3,0,0.6,0.2,0.7,0.2c0.2,0.1,0.4,0.4,0.6,1.4c0.1,1-0.3,2.1-0.2,1.7c0-0.1-1.1-0.2-1.2-0.2C20,16.1,20.1,15.7,20,15.3z"/>
<path class="st2" d="M11.8,21.4c0.1,0.1,0.2,0.2,0.2,0.3c0,0.1,0.1,0.1,0.1,0.2s0,0.3-0.1,0.4s-0.2,0-0.3,0s-0.3,0-0.4,0
	c-0.1,0-0.3,0-0.4-0.2c0-0.1-0.1-0.1-0.1-0.2c0-0.4,0-0.8,0-1.2c0-0.1,0-0.2,0.1-0.3c0.1-0.1,0.2-0.1,0.3,0s0.1,0.1,0.1,0.2
	C11.4,20.9,11.6,21.2,11.8,21.4z"/>
<path class="st1" d="M11,21.1c0.4,0.9,0.7,1.8,1.1,2.7c-0.3,0.3-0.7,0.6-1,0.9c-1.4-0.2-2.9-0.3-4.3-0.5c0.5-1.5,0.8-2.7,1-3.5
	c0.3-1.6,0.5-2.5,1.2-2.9c0.1,0,0.7-0.4,1.3-0.2c0.5,0.2,0.7,0.8,1.3,2c0.2,0.6,0.4,1,0.2,1.2C11.7,21,11.4,21,11.4,21
	C11.2,21.2,11.1,21.1,11,21.1z"/>
<g id="Layer_4">
</g>
<path class="st3" d="M15.4,40.1c-4.1,0-8.2,0-12.2,0c0.2-1.2,0.5-2.4,0.7-3.6h11.5C15.3,37.6,15.3,38.9,15.4,40.1z"/>
<path class="st4" d="M16,22.8c0.9-0.3,1.7-0.6,2.3-1.4c0.3-0.4,0.4-0.7,0.7-1.6c0.2-0.9,0.5-2.1,0.7-3.7c0.2-0.1,0.5-0.1,0.9-0.2
	c0.4,0,0.7,0,1,0.1c0.2,0.7,0.4,1.7,0.5,3c0.2,1.9,0.3,2.8-0.1,3.9c-0.7,2-2.3,3.1-2.9,3.6c-1.5,1.1-3.1,1.5-4,1.7
	c-0.8-1.6-1.5-3.3-2.3-4.9C14.2,23.3,15.3,23,16,22.8z"/>
<path class="st5" d="M275.3-135.7c3.3-0.1,8.4,0.2,13.3,3.3c5.1,3.3,7.8,8.4,11,19.2c2,6.8,4.7,17.6,6.9,39.1
	c0.8,8,1.6,17.5,0.9,29.5c-0.7,12.6-2.4,15.5-3.3,16.9c-4.8,7.2-13.7,8.4-30,10.3c0,0-29.1,3.4-52.7-5.6c-2.6-1-5.8-2.4-8.2-5.5"/>
<path class="st4" d="M13.3,23c0.7,0.4,1,1.1,1.5,2.5c0.3,0.9,0.6,2.3,0.9,5.2c0.1,1.1,0.2,2.3,0.1,3.9c-0.1,1.7-0.3,2.1-0.4,2.2
	c-0.3,0.5-0.9,0.9-4,1.4c0,0-3.8,0.6-6.5-0.1c-0.7-0.2-1.1-0.5-1.4-0.8c-0.1-0.2-0.2-0.3-0.2-0.5c-0.4-1.2-0.5-2.2-0.5-2.3
	c-0.1-1.5-0.1-1.7,0-1.9c0.4-0.5,1-0.2,1.6-0.7c0.4-0.3,0.5-0.8,0.8-1.6c0.2-0.8,0.3-1.3,0.5-2.5c0.1-0.9,0.3-1.7,0.3-2
	c0.2-0.9,0.5-2.1,1.2-3.5c0.5,0.6,1,1,1.4,1.2s0.8,0.5,1.5,0.6c0.4,0.1,0.8,0.1,1.2-0.2c0.5-0.4,0.3-1.2,0.2-1.3
	C12,22.6,12.7,22.6,13.3,23z"/>
<path class="st6" d="M11.6,22.6c1,0,1.5,0.3,1.8,0.4c0.8,0.6,1.2,1.7,1.5,2.5C15,25.7,15,25.8,15,26c0.2,0.8,0.4,1.5,0.4,2"/>
<path class="st1" d="M12.8,30.2c0-0.1,0.1-0.3,0.1-0.4c0.1-0.4,0.4-0.8,0.7-1.1c0.1-0.1,0.1-0.1,0.2-0.2c0.2-0.1,0.4,0,0.4,0.1
	c0.3,0.2,0.4,0.5,0.4,0.6c0,0.2,0.1,0.6-0.6,1.6c-0.6,1-1.6,1.6-1.3,1.4c0.1-0.1-0.7-0.8-0.8-0.9C12.3,30.9,12.6,30.6,12.8,30.2z"/>
<path class="st4" d="M7.3,22.2c-1.1,0.5-2.6,1.3-4.1,2.8c-2.4,2.6-4.3,7.2-2.6,10c0.8,1.2,2,1.8,2.2,1.9c1.4,0.6,2.8,0.4,3.7,0.2
	c1.8-0.4,2.9-1.2,3.8-1.8c1.3-1,2.3-2.1,2.9-3.1c-0.1-0.2-0.3-0.5-0.6-0.7s-0.5-0.4-0.7-0.5c-0.3,0.2-0.8,0.5-1.4,0.8
	c-1.9,1.1-3.2,1.8-4.9,1.8c-0.4,0-1.1,0-1.9-0.3c0.5-0.4,1.2-1.3,1.8-2.5c0.6-1.3,0.7-2.5,0.7-3.1"/>
<path class="st6" d="M5.9,28.3c-1.2,1.6-1.5,3.4-0.8,4.3c1.1,1.4,4.5-0.1,4.9-0.3c0.9-0.4,1.5-0.9,2-1.3c0.2,0.1,0.5,0.2,0.8,0.5
	s0.5,0.5,0.6,0.7c-0.5,0.8-1.4,2-2.9,3.1s-2.9,1.6-3.8,1.8"/>
<path class="st2" d="M11,17.8c-0.1,0.4-0.7,0.4-0.9,0.5c-0.5,0.1-0.9-0.2-1.1-0.2c-0.1,0.3,0,0.6,0,0.9c0.2,0.9,0.4,1.8,0.1,2.7
	C9,21.9,8.9,22,8.8,22.1s-0.3,0.2-0.6,0.3c-0.4,0.1-1,0.2-1.4-0.1c-0.2-0.1-0.2-0.2-0.3-0.3c0-0.1,0-0.3,0.1-0.3
	c0.1-0.1,0.2-0.2,0.3-0.2c0.5-0.4,0.9-1.1,1-1.8c0.2-0.7,0-0.8,0.3-2c0-0.2,0.1-0.5,0.4-0.8c0.2-0.1,0.4-0.2,0.7-0.2
	c0.4,0,0.8-0.1,1.1,0.1C10.8,17,11.1,17.5,11,17.8z"/>
<path class="st0" d="M32.3,22"/>
<g>
	<path class="st7" d="M26,4.8v0.9h1.1V4.8h0.3V7h-0.3V6H26v1h-0.3V4.8H26z"/>
	<path class="st7" d="M29,6h-0.9v0.8h0.9V7h-1.2V4.8h1.2V5h-0.9v0.7H29V6z"/>
	<path class="st7" d="M29.5,4.8h0.3v2h0.9V7h-1.2V4.8z"/>
	<path class="st7" d="M31,4.8h0.3v2h0.9V7H31V4.8z"/>
	<path class="st7" d="M34.3,5.9c0,0.8-0.5,1.2-1,1.2c-0.6,0-1-0.4-1-1.1c0-0.7,0.4-1.2,1-1.2C33.9,4.8,34.3,5.2,34.3,5.9z M32.6,5.9
		c0,0.5,0.3,0.9,0.7,0.9c0.4,0,0.7-0.4,0.7-0.9C34,5.5,33.8,5,33.3,5C32.8,5,32.6,5.4,32.6,5.9z"/>
	<path class="st7" d="M34.6,6.8c0-0.1,0.1-0.2,0.2-0.2c0.1,0,0.2,0.1,0.2,0.2C35,6.9,34.9,7,34.8,7C34.7,7,34.6,6.9,34.6,6.8z
		 M34.7,6.4l0-1.6h0.3l0,1.6H34.7z"/>
	<path class="st7" d="M18.8,8.5v0.9h1.1V8.5h0.3v2.2h-0.3v-1h-1.1v1h-0.3V8.5H18.8z"/>
	<path class="st7" d="M21,10l-0.2,0.7h-0.3l0.7-2.2h0.3l0.7,2.2H22L21.8,10H21z M21.7,9.8l-0.2-0.6c0-0.1-0.1-0.3-0.1-0.4h0
		c0,0.1-0.1,0.3-0.1,0.4L21,9.8H21.7z"/>
	<path class="st7" d="M22.9,10.7l-0.7-2.2h0.3l0.3,1.1c0.1,0.3,0.2,0.6,0.2,0.8h0c0.1-0.3,0.2-0.5,0.3-0.8l0.4-1.1H24l-0.8,2.2H22.9
		z"/>
	<path class="st7" d="M25.4,9.7h-0.9v0.8h0.9v0.2h-1.2V8.5h1.2v0.2h-0.9v0.7h0.9V9.7z"/>
	<path class="st7" d="M26.9,10l-0.2,0.7h-0.3l0.7-2.2h0.3l0.7,2.2h-0.3L27.7,10H26.9z M27.6,9.8l-0.2-0.6c0-0.1-0.1-0.3-0.1-0.4h0
		c0,0.1-0.1,0.3-0.1,0.4L27,9.8H27.6z"/>
	<path class="st7" d="M29.2,10.7V8.5h0.3l0.7,1.1c0.2,0.3,0.3,0.5,0.4,0.7l0,0c0-0.3,0-0.6,0-0.9V8.5h0.3v2.2h-0.3l-0.7-1.1
		c-0.2-0.2-0.3-0.5-0.4-0.7l0,0c0,0.3,0,0.5,0,0.9v0.9H29.2z"/>
	<path class="st7" d="M31.6,8.5v2.2h-0.3V8.5H31.6z"/>
	<path class="st7" d="M33.7,10.6c-0.1,0.1-0.3,0.1-0.6,0.1c-0.6,0-1.1-0.4-1.1-1.1c0-0.7,0.5-1.2,1.1-1.2c0.3,0,0.4,0.1,0.5,0.1
		l-0.1,0.2c-0.1-0.1-0.3-0.1-0.4-0.1c-0.5,0-0.9,0.3-0.9,0.9c0,0.5,0.3,0.9,0.8,0.9c0.2,0,0.3,0,0.5-0.1L33.7,10.6z"/>
	<path class="st7" d="M35.2,9.7h-0.9v0.8h0.9v0.2H34V8.5h1.2v0.2h-0.9v0.7h0.9V9.7z"/>
	<path class="st7" d="M36.3,8.5c0.2,0,0.4,0,0.6,0c0.4,0,0.7,0.1,0.9,0.3c0.2,0.2,0.3,0.4,0.3,0.8c0,0.4-0.1,0.7-0.3,0.9
		c-0.2,0.2-0.5,0.3-1,0.3c-0.2,0-0.4,0-0.5,0V8.5z M36.6,10.5c0.1,0,0.2,0,0.3,0c0.6,0,0.9-0.3,0.9-0.9c0-0.5-0.3-0.8-0.9-0.8
		c-0.1,0-0.3,0-0.3,0V10.5z"/>
	<path class="st7" d="M38.8,10l-0.2,0.7h-0.3L39,8.5h0.3l0.7,2.2h-0.3L39.6,10H38.8z M39.5,9.8l-0.2-0.6c0-0.1-0.1-0.3-0.1-0.4h0
		c0,0.1-0.1,0.3-0.1,0.4l-0.2,0.6H39.5z"/>
	<path class="st7" d="M40.6,10.7V9.8L40,8.5h0.3l0.3,0.6c0.1,0.2,0.1,0.3,0.2,0.5h0c0.1-0.1,0.1-0.3,0.2-0.5l0.3-0.6h0.3l-0.7,1.3
		v0.9H40.6z"/>
	<path class="st7" d="M41.8,10.5c0-0.1,0.1-0.2,0.2-0.2c0.1,0,0.2,0.1,0.2,0.2c0,0.1-0.1,0.2-0.2,0.2C41.9,10.7,41.8,10.6,41.8,10.5
		z M41.9,10.1l0-1.6h0.3l0,1.6H41.9z"/>
</g>
</svg>
