<?xml version="1.0" encoding="utf-8"?>
<!-- Generator: Adobe Illustrator 22.1.0, SVG Export Plug-In . SVG Version: 6.00 Build 0)  -->
<svg version="1.1" id="Layer_1" xmlns="http://www.w3.org/2000/svg" xmlns:xlink="http://www.w3.org/1999/xlink" x="0px" y="0px"
	 viewBox="0 0 50 45" style="enable-background:new 0 0 50 45;" xml:space="preserve">
<style type="text/css">
	.st0{fill:#FFFFFF;enable-background:new    ;}
	.st1{fill:#3936CE;}
	.st2{fill:#FFFFFF;}
</style>
<path class="st0" d="M40.4,4.8c-0.6-0.8-3.2-4.8-6.8-4.7c-2.8,0.1-5.1,2.5-6.9,5c-1.7,2.6-3.1,5.4-5.4,7.3c-2.3,2-5.3,2.6-7.7,4.3
	C10.4,18.9,8.3,24,8.6,29c0.2,3.2,1.4,5.5,2.3,7.1c0.6,1.1,3.3,6.1,8.3,8c6.8,2.5,13.1-2.3,14.3-3.2C43.9,32.9,46.3,13.5,40.4,4.8z"
	/>
<path class="st1" d="M1.1,20.1c-1.3,3.2-1.8,7,0,9.9c1.8,3,5.5,4.1,8.9,4.6c3.4,0.4,7,0.3,10.1,1.7c4.6,2.1,4.4,4.3,8.8,5.9
	c0.8,0.3,5.5,1.9,10.4-0.2c5-2,7.2-6.5,8.4-9.1c1-2.1,3.8-8.7,1.5-16c-1.6-5-6-8.8-10.8-10.6C25.5,1.4,6.7,6.2,1.1,20.1z"/>
<g>
	<path class="st2" d="M15.2,21.2h-4.1v-6.4h1.3v5.4h2.8V21.2z"/>
	<path class="st2" d="M15.7,21.2v-6.4h1.3v6.5h-1.3V21.2z"/>
	<path class="st2" d="M17.8,21.2v-6.4h1.1l2.9,4.2l0,0v-4.2H23v6.5H22l-3-4.2l0,0v4.2h-1.2V21.2z"/>
	<path class="st2" d="M29.4,18.6c0,0.9-0.2,1.6-0.7,2.1s-1.2,0.8-2.1,0.8s-1.6-0.4-2.2-0.9s-0.8-1.4-0.8-2.5s0.2-1.9,0.8-2.5
		s1.3-0.9,2.2-0.9c0.7,0,1.4,0.2,1.9,0.6c0.5,0.5,0.8,0.9,0.9,1.6h-1.3c-0.1-0.4-0.2-0.6-0.5-0.8c-0.2-0.2-0.6-0.2-0.9-0.2
		c-0.5,0-0.9,0.2-1.3,0.6c-0.4,0.4-0.5,0.9-0.5,1.6c0,0.7,0.1,1.3,0.5,1.6c0.4,0.5,0.7,0.6,1.3,0.6c0.5,0,0.8-0.1,1.1-0.4
		c0.2-0.2,0.5-0.6,0.5-0.9v-0.1h-1.4V18h2.7L29.4,18.6L29.4,18.6z"/>
	<path class="st2" d="M31.3,18.8c0,0.5,0.1,0.8,0.4,0.9c0.2,0.2,0.6,0.4,1.1,0.4s0.7-0.1,1.1-0.4c0.2-0.2,0.4-0.6,0.4-0.9v-4h1.3V19
		c0,0.7-0.2,1.3-0.7,1.8c-0.5,0.5-1.2,0.7-2,0.7c-0.8,0-1.4-0.2-2-0.7C30.2,20.3,30,19.7,30,19v-4.2h1.4L31.3,18.8L31.3,18.8z"/>
	<path class="st2" d="M39.6,19.7h-2.2l-0.5,1.6h-1.4l2.2-6.5h1.6l2.2,6.5h-1.4L39.6,19.7z M37.6,18.7h1.6L38.4,16l0,0L37.6,18.7z"/>
	<path class="st2" d="M19.3,30h-4.1v-6.5h1.3v5.4h2.8V30z"/>
	<path class="st2" d="M23.4,28.5h-2.2L20.7,30h-1.4l2.2-6.5h1.6l2.2,6.5h-1.4L23.4,28.5z M21.5,27.4h1.6l-0.8-2.7l0,0L21.5,27.4z"/>
	<path class="st2" d="M25.6,30v-6.5h1.2l2.9,4.2l0,0v-4.2h1.3V30h-1.1l-3-4.2l0,0V30H25.6z"/>
	<path class="st2" d="M34.1,23.6c0.9,0,1.6,0.2,2.2,0.8c0.6,0.6,0.8,1.4,0.8,2.3c0,1.1-0.2,1.9-0.8,2.5c-0.5,0.6-1.3,0.9-2.2,0.9
		h-2.5v-6.5C31.6,23.6,34.1,23.6,34.1,23.6z M33,28.9H34c0.6,0,1.1-0.2,1.4-0.6c0.4-0.4,0.5-0.9,0.5-1.6s-0.1-1.2-0.5-1.5
		c-0.4-0.4-0.7-0.6-1.3-0.6h-0.9L33,28.9L33,28.9z"/>
</g>
</svg>
