<?xml version="1.0" encoding="utf-8"?>
<!-- Generator: Adobe Illustrator 22.1.0, SVG Export Plug-In . SVG Version: 6.00 Build 0)  -->
<svg version="1.1" id="Layer_1" xmlns="http://www.w3.org/2000/svg" xmlns:xlink="http://www.w3.org/1999/xlink" x="0px" y="0px"
	 viewBox="0 0 107.4 97.5" style="enable-background:new 0 0 107.4 97.5;" xml:space="preserve">
<style type="text/css">
	.st0{fill:#FFD0C0;}
	.st1{fill:#2E1515;}
	.st2{fill:#6986FC;}
	.st3{fill:#7362D1;}
	.st4{fill:#6986FC;stroke:#3755AF;stroke-width:0.27;stroke-miterlimit:10;}
	.st5{fill:#6E80BE;stroke:#3755AF;stroke-width:0.27;stroke-miterlimit:10;}
	.st6{fill:#FFFFFF;stroke:#FFFFFF;stroke-width:1.5853;stroke-miterlimit:10;}
</style>
<title>request1</title>
<path class="st0" d="M49.8,63.8c1.5,10.1,3.1,20.1,4.6,30.2l11.8-4.4c-0.2-0.5-0.6-1.6-1.1-3c-3.6-10.8-5.9-25.7-9.5-29
	c-0.7-0.6-1.5-1.2-2.3-1.8c-1-0.7-2.1-1.3-3.2-1.8c-0.2,0-2.5-0.6-2.7-0.1s1.2,1.4,1.4,1.6l1.3,1.3c-0.4,0.2-0.7,0.5-1,0.8
	c-0.6,0.5-1,1.2-1.3,1.9c-0.3,0.9-0.2,1.9,0.3,2.7C48.5,62.9,49.1,63.5,49.8,63.8z"/>
<path class="st1" d="M87.9,30.2c1.1,0.6,2.1,1.3,2.8,2.3c1.1,1.4,1.5,3.2,1.2,5c-0.1,0.5-0.3,0.9-0.6,1.2c-0.5,0.4-1.1,0.7-1.7,0.8
	c-0.9,0.1-1.8,0-2.7-0.3c-2.8-1.1-4.3-3.8-5.2-5.4c-0.4-0.8-0.8-1.6-1-2.5c-0.2-1-0.3-2.1-0.1-3.2c1.6,0.1,3.1,0.4,4.6,0.9
	C86.1,29.3,87.1,29.7,87.9,30.2z"/>
<path class="st1" d="M74.7,42.3c0.2,0.7,0.5,1.3,0.8,1.9c0.7,1,1.6,1.8,2.8,2.3c0.4,0.2,2.4,0.9,3.4-0.1c0.5-0.5,0.5-1.2,0.5-2.4
	c-0.1-1.4-0.5-2.8-1.3-4c-0.2-0.3-0.4-0.6-0.7-0.8c-0.4-0.2-0.8-0.4-1.2-0.5c-0.5-0.1-1.1-0.4-1.5-0.8c-0.4-0.5-0.2-0.8-0.5-1
	c-0.4-0.2-1.3,0.7-1.8,1.5C74.5,39.6,74.3,40.9,74.7,42.3z"/>
<path class="st2" d="M75.8,87.3c-0.5,5.2-1.2,6.2-2.1,6.7c-1.1,0.6-2.5,0.2-2.6,0.1c-1.3-0.5-2-1.8-2.8-3.1
	c-0.3-0.5-0.4-0.9-0.7-1.4c-0.5-1.1-1.2-2.6-2.2-4.5c-2.2,0.8-4.3,1.7-6.4,2.7c-2.2,1.1-4.3,2.4-6.2,3.8l0.9,5.8h30.6
	c-0.7-1.7-1.1-3.6-1.4-5.4c-0.5-3.4-0.1-4.6-1.1-6.7c-0.5-1-1.3-2-1.7-3.1c-0.2-0.9-0.5-1.7-0.8-2.5c-0.4-0.8-1.2-1.4-1.2-2.3
	c0-0.3,0.1-0.7,0.1-1.1c0-0.3-0.2-0.7-0.4-0.9c-0.5-0.6-1.1-1.6-2-2.9c0.2,3.9,0.2,7.1,0.2,9.4C76.1,82,76.1,84.2,75.8,87.3z"/>
<path class="st3" d="M59,33.7c-1.6-2.9-1.7-5.6-2-8.1c-0.5-3.2-1.3-6.3-2.4-9.3c-3.8-10.5-17.2-14.7-18-15
	c-5.4-1.7-11.1-1.8-16.5-0.2C6.3,5.4,1.7,19,1.4,20.1C-0.5,25.6-0.5,31.5,1.5,37c2.2,5.5,6.2,10.1,11.4,12.9
	c7.7,4.3,15.2,3.4,21.2,2.7c7.6-0.9,13.1-3.4,19-6.1c4.8-2.2,9.3-4.7,13.7-7.6c-0.8-0.1-1.6-0.4-2.4-0.6c-1-0.3-1.9-0.8-2.8-1.4
	C60.5,36,59.6,34.9,59,33.7z"/>
<path class="st0" d="M82.8,30.1c1.3,2.2,2.9,4.3,4.3,6.5c1.2,1.9,3,4.8,5.8,8.8c0.2,0.5,0.4,1,0.4,1.5c0.1,0.7,0.1,1.5,0,2.2
	c-0.3,2.2-0.8,4.3-1.4,6.4c-0.4,1.6-1.1,3-2,4.3c-1.3,1.7-3.3,2.7-5.5,2.8c-1.5,0-3.8-0.6-3.9-1.8c0-0.2,0-0.8,0.8-1.5
	c-0.2-0.3-0.4-0.6-0.6-0.9c-0.9-2.1-0.9-4.5,0-6.7l-1.6-10.2c-0.3,0.1-0.6,0.2-0.9,0.2c-0.4,0-0.7-0.1-1.1-0.2c-1.9-0.8-3-7.1-3-7.1
	c-0.6-3.5-0.9-5.3,0.1-6.9c0.2-0.2,1.3-2.1,3.1-2.2s3.3,1.8,4.5,3.2C82.2,29,82.5,29.5,82.8,30.1z"/>
<path class="st2" d="M92.4,44.6c-0.9,3.7-2.3,7.2-4.3,10.4c-1.3,2-2.6,3.4-4.2,3.5c-0.7,0.1-1.4-0.1-2-0.6c-0.8-0.6-0.9-1.6-1.1-3.2
	c-0.1-1-0.1-2.1,0-3.1c-2.3,1.1-4.2,2.9-5.5,5c-0.9,1.5-2.2,4.2-1.6,11.6c0.4,5.5,1.6,9.2,5.5,22.2c0.9,3.2,1.7,5.7,2.1,7
	c8.7,0,17.4,0,26.1,0c0-19,0-38,0-57c-2,0-4.7,0.2-7.8,1C96.6,42.3,94.1,43.5,92.4,44.6z"/>
<path class="st4" d="M107.3,40.6c-5.2-0.1-10.4,1.3-14.8,4c-0.9,3.7-2.3,7.2-4.3,10.4c-1.3,2-2.6,3.4-4.2,3.5
	c-0.7,0.1-1.4-0.1-2-0.6c-0.8-0.6-0.9-1.6-1.1-3.2c-0.1-1-0.1-2.1,0-3.1c-2.3,1.1-4.2,2.9-5.5,5c-0.9,1.5-2.2,4.2-1.6,11.6
	c0.4,4.2,1.2,8.3,2.4,12.3"/>
<path class="st5" d="M76.1,80.5c0.8,2.6,1.7,5.9,3,10c0.9,2.9,1.7,5.3,2.2,7"/>
<path class="st1" d="M81.9,24.8c-1.2-0.9-2.6-1.3-4.1-1.1c-1.3,0-2.6,0.4-3.7,1.1c-0.2,0.1-2.2,1.8-1.7,3.8c0.2,0.6,0.5,1.2,1,1.6
	c0.9,0.7,2.1,1.1,3.3,1.1c2,0.2,3.9-0.5,5.4-1.9c0.8-0.7,1.2-1.7,1.2-2.8C83.1,25.9,82.6,25.2,81.9,24.8z"/>
<path class="st6" d="M27,32.3c0.1-3.9,1.2-6.3,2.3-7.8c1.1-1.6,2.7-3.1,2.7-5.4c0-2-1.3-3.3-3.7-3.4c-1.4,0-2.8,0.4-4,1.2l-0.9-2.5
	c1.7-1.1,3.6-1.6,5.6-1.6c4.5,0,6.6,2.8,6.6,5.8c0,2.6-1.8,3.8-3.4,6.8c-0.8,1.4-1.8,3.6-2.2,6.8C29,32.2,28,32.3,27,32.3z
	 M26.2,37.8c-0.1-1.3,0.9-2.4,2.2-2.5c0.1,0,0.1,0,0.2,0c1.3,0,2.3,1,2.3,2.3c0,0.1,0,0.1,0,0.2c0,1.3-1,2.3-2.3,2.3
	C27.2,40.1,26.2,39.1,26.2,37.8L26.2,37.8z"/>
</svg>
