<?xml version="1.0" encoding="utf-8"?>
<!-- Generator: Adobe Illustrator 22.1.0, SVG Export Plug-In . SVG Version: 6.00 Build 0)  -->
<svg version="1.1" id="Layer_1" xmlns="http://www.w3.org/2000/svg" xmlns:xlink="http://www.w3.org/1999/xlink" x="0px" y="0px"
	 viewBox="0 0 300.8 507.1" style="enable-background:new 0 0 300.8 507.1;" xml:space="preserve">
<style type="text/css">
	.st0{display:none;}
	.st1{display:none;fill:#6581F3;stroke:#223387;stroke-miterlimit:10;}
	.st2{fill:#FFD0C0;}
	.st3{fill:#FFFFFF;}
	.st4{fill:#301712;}
	.st5{fill:#FEB832;}
	.st6{fill:#8D3CD3;}
</style>
<g id="Layer_1_1_" class="st0">
</g>
<path class="st1" d="M1180.6-361.9c3.3-0.1,8.4,0.2,13.3,3.3c5.1,3.3,7.8,8.4,11,19.2c2,6.8,4.7,17.6,6.9,39.1
	c0.8,8,1.6,17.5,0.9,29.5c-0.7,12.6-2.4,15.5-3.3,16.9c-4.8,7.2-13.7,8.4-30,10.3c0,0-29.1,3.4-52.7-5.6c-2.6-1-5.8-2.4-8.2-5.5"/>
<g id="Layer_1_2_">
	<title>request1</title>
</g>
<g id="Layer_2_1_">
</g>
<g id="Layer_4">
</g>
<g id="Layer_4_1_" class="st0">
</g>
<path class="st2" d="M167.9,168.1c0-0.5,0-1.1-0.1-1.9c-0.1-1.3-0.4-2.2-0.5-2.8c-0.5-2-0.4-3.8-0.4-4.8c0-1.4,0.1-3,0.7-4.6
	c0.4-1.1,0.6-1.7,1.3-2.2c1.5-1.2,3.6-0.9,4.7-0.8c0,0,2.5,0.4,4.3,1.5c4,2.8,4.4,10.3,3.6,15.5c-1.3,8.3-6.4,15.1-6.4,15.1
	s0.1-0.2,0.4-0.7c0.2-0.8-9.6-4.4-10.4-4.6C165.9,175.1,167.9,171.8,167.9,168.1z"/>
<path class="st3" d="M223.4,24.5c3.8,1.4,8.9,3.5,12.1,8.6c2.5,4.1,2.9,8.3,2.2,16.6c-0.7,7.1-1.9,14.2-3.7,21.1
	c-1,3.7-2.3,7.6-5.1,10.1c-2.6,2.4-5.8,3-7.9,3.3c-17.6,2.6-42.6-10.8-52-3.8c-8.1,6.2-9.8,7.9-9.8,7.9c-1.6,1.5-2.8,2.9-3.4,2.6
	c-1.3-0.7,3.2-7.5,1.2-15c-1-3.6-3-5.9-4.2-7.3c-3.8-4.3-6.8-4.1-13.7-8.1c-6.5-3.7-12.2-6.5-13.2-11.9c-0.6-3.5,0.4-7,1.4-10.3
	c0.5-1.4,2.3-7.4,8.7-16.7c3.5-5,5.2-7.4,7-9c5-4.2,11.6-4.4,29.8-1.8C175.6,11.3,197.3,14.6,223.4,24.5z"/>
<path class="st2" d="M82.8,88.1l8.1,35.1c-9.5,7.4-18.9,14.7-28.4,22.1c-4.5-15.1-9-30.2-13.4-45.3c6.5-6.1,11-11.7,14-15.6
	c5.9-7.9,8.8-11.9,11.8-17.7c3.6-6.9,4-9.8,7.3-11.1c4.1-1.7,9.7,0.5,12.7,3.1c4.7,4,4.1,9.6,3.2,20.2S94.4,91,93.3,91.5
	c-2,0.8-4.8,0.7-7-0.2C84.1,90.4,83.1,88.7,82.8,88.1z"/>
<path class="st4" d="M98,64.3c2.6-0.5,3.2-1.1,3.6-1.4c0.8-1,0.3-2.4,0.2-3.1c-0.9-2.7-3.5-4-6.5-5.6c-3.3-1.8-6.2-2.6-8.5-3.1
	c-4-1-6-1-7.5-0.9c-1.6,0.1-3.2,0.4-4.6,1.2c-0.9,0.5-1.7,1.3-2.5,1.9c-2.3,2.4-4,5.1-5.7,7.8c-1.7,2.8-3.4,5.5-5.2,8.4
	c-5.2,8.6-6.8,10.6-6.6,13.9c0,1.2,0.1,2.9,1.3,4.4c2.2,2.6,6.6,3.3,9.9,2.7c0.8-0.2,3.3-0.7,5.4-2.5c4.1-3.5,2.6-8.4,5.1-21.1
	c0.4-2.1,1.2-5.5,3-5.9c1.1-0.3,1.7,0.6,4.2,1.7c2.2,0.9,4.1,1.2,6.2,1.6C94.4,64.8,97.1,64.4,98,64.3z"/>
<path class="st5" d="M57.7,281.6c-5,28.6-12.6,61.1-24.1,96.1c-10.1,30.8-21.4,58.2-32.7,81.9c0-64.9,0-129.7,0-194.6
	C19.9,270.6,38.8,276.1,57.7,281.6z"/>
<path class="st6" d="M10.6,99.1c7.8-3.7,14.7-4,20.8-4.3c7.1-0.4,14.3,0.4,21.1,2.1c0.2,3.3,0.9,8.2,3.3,13.6
	c3.2,7.2,11.7,20,21,18.5c5.2-0.8,8.4-5.7,9-6.8c4.3-6.7,1.9-13.9,1.6-14.8c6.5,3.2,16.6,9.4,24.1,20.7c9.9,14.7,9.7,29.6,9.6,47.3
	c-0.2,28.4-8.2,48.7-15.4,67c-3.5,9-9,21.3-19.7,33.4c-5.1,5.7-8.4,9.4-14.2,11.9s-12.9,3.3-37.2-3.3c-8.8-2.4-20.4-5.9-33.7-11
	c0-56.1,0-112.1,0-168.2C3,103.5,6.2,101.2,10.6,99.1z"/>
<path class="st6" d="M180.4,176.7c-1.6,15.4-6.4,39.5-21.8,64.1c-10.8,17.2-31.1,49.6-60.6,48.7c-15.6-0.4-33.9-10.1-38.9-25.5
	c-6.4-19.9,9.3-48.6,42.4-59.8c-0.3,3.1-3.2,33.7,7,37.4c9,3.3,23.7-15.9,32.5-27.3c12.4-16.1,19.7-31.6,24.1-42.7"/>
</svg>
