<?xml version="1.0" encoding="utf-8"?>
<!-- Generator: Adobe Illustrator 22.1.0, SVG Export Plug-In . SVG Version: 6.00 Build 0)  -->
<svg version="1.1" id="Layer_1" xmlns="http://www.w3.org/2000/svg" xmlns:xlink="http://www.w3.org/1999/xlink" x="0px" y="0px"
	 viewBox="0 0 346.7 654.7" style="enable-background:new 0 0 346.7 654.7;" xml:space="preserve">
<style type="text/css">
	.st0{fill:#FFD0C0;}
	.st1{fill:#1C080D;}
	.st2{fill:#18B485;}
	.st3{fill:#FEB832;}
	.st4{fill:#F2F2F8;}
	.st5{display:none;}
	.st6{display:none;fill:#6581F3;stroke:#223387;stroke-miterlimit:10;}
</style>
<g id="Layer_2_1_">
	<path class="st0" d="M72.4,192.7c10.5,11.7,20.9,23.2,31.3,35l11.5-15.6c-0.6-0.5-2.1-1.5-3.9-3c-13.8-10.8-29.2-28-36.6-29.3
		c-1.5-0.2-2.9-0.3-4.5-0.4c-1.8-0.1-3.7,0.1-5.6,0.4c-0.3,0.2-3.7,1.4-3.6,2.2c0.2,0.8,2.7,0.8,3.2,0.9l2.7,0.6
		c-0.4,0.6-0.5,1.3-0.6,1.8c-0.4,1.1-0.3,2.4-0.1,3.6c0.4,1.4,1.3,2.6,2.6,3.2C70,192.6,71.2,192.8,72.4,192.7z"/>
	<path class="st0" d="M284.7,209.8c2.1-6.3,4-13.3,5.8-20.9c1.9-9,3.1-17.3,3.7-24.9c-0.6,0.5-2.3,1.8-4.3,1.7c0,0-1.9-0.1-3.6-1.5
		c-4.9-4.3-2.7-31.5,12.8-38.8c2.5-1.2,4.8-1.6,6-1.6c1-0.1,2.7-0.3,4.5,0.5c8.1,3.2,6.6,19.5,11.2,39.3c1.4,5.9,3.8,15,8.9,25.8
		l-12.3,25.3l-26.4,6.6C289.1,217.3,286.8,213.5,284.7,209.8z"/>
	<path class="st1" d="M292.2,137.2c-2.3-0.4-4.6-1.2-5.9-3c-0.5-0.8-0.7-1.6-0.9-2.5c-0.4-1.5-0.5-3.4,0.1-4.9
		c0.9-2.6,3.3-4.6,5.9-5.3c2.6-0.7,5.5-0.7,8.2-0.5c2.2,0.2,4.5,0.5,6.2-0.9c1.7-1.4,1-2.9,3.4-4.9c1.8-1.6,3.2-1.6,3.6-1.7
		c0.4-0.1,1.3,0,2.2,0.5c0,0,1.1,0.6,1.7,1.8c2.8,5,2.8,11,3.5,16.8c1.2,9.7,4.6,19.1,5.7,28.8c0.2,1.7,0.4,3.6-0.1,5.3
		c-0.5,2.1-1.8,4-3.7,5.4c-2,1.6-5.2,2.5-7.2,0.8c-1-0.9-1.5-2.1-1.8-3.3c-2.2-7-1.3-14.5-1.2-21.7c0.1-3.3,0.5-7.6-0.6-10.7
		c-1-2.9-4.5-1.3-6.5-0.6C300.8,137,296.4,137.6,292.2,137.2z"/>
	<path class="st2" d="M330.2,376.3c-1.2,19.3-1.4,41.1,0.4,64.8c2.5,35.7,8.8,66.8,15.8,92.4c0-52.5,0-104.8,0-157.2L330.2,376.3
		L330.2,376.3z"/>
	<path class="st3" d="M318.7,203.8c-3,4.6-6.6,8.9-11.6,11.3c-1,0.5-9.3,3.3-15.2-1.7c-4.8-4-6.2-11.6-3.2-18.5
		c-3.4,0.7-8.7,2-14.9,3.8c-28.2,8.2-38.9,16.5-54,21.5c-22,7.3-41.6,3.6-59.7,0.3c-30.4-5.6-52.2-19-63.9-27.5
		c-5.7,3.9-10.7,9-14.5,14.8c22.2,27.5,52.9,47.9,86.5,58.6c33.7,10.7,70.2,11.8,104.7,4.1c2.4,9.4,5.8,21.9,10.2,36.7
		c17.8,59.4,27.1,71.5,37.9,79.1c5.4,3.8,13.7,8.3,25.7,10.5c-0.1-68.9-0.2-137.9-0.4-206.9c-1.7-0.9-4.3-2-7.4-2.6
		c-5.2-1-9.6-0.2-11.9,0.5c-0.8,1.5-2.1,3.9-3.6,6.8C319.4,202.4,319.5,202.5,318.7,203.8z"/>
	<path class="st4" d="M230.6,177.8c-6.6-12-5.9-23.9-5.4-36.1c1-19.3,7.8-18.5,9.7-39.4c0.6-7.5,1.4-17.1-2.3-28.5
		c-3.7-11.5-10-18.8-15.2-24.7c0,0-19.2-21.8-51.6-30.9c-7-2-12.4-2.8-16.8-3.5c-18.9-2.7-38.3-3.4-56.6,1.6
		c-7.6,2.1-31.1,9.7-44.8,32.9c-2.6,4.5-10.7,18.5-9.4,37.8c0.3,4.1,1.8,20.2,13.8,35.2c9.1,11.4,19.7,16.3,30,20.9
		c24.6,11.2,57,16,76,14c2.6-0.3,10.6-1.2,20.3,1.2c6.2,1.5,10.6,3.9,13.8,5.7c29.1,16,40,22.9,41.7,21
		C234.8,184.3,232.5,181.4,230.6,177.8z"/>
</g>
<g id="Layer_1_3_">
	<g id="Layer_1_1_" class="st5">
	</g>
	<path class="st6" d="M1180.6-214.4c3.3-0.1,8.4,0.2,13.3,3.3c5.1,3.3,7.8,8.4,11,19.2c2,6.8,4.7,17.6,6.9,39.1
		c0.8,8,1.6,17.5,0.9,29.5c-0.7,12.6-2.4,15.5-3.3,16.9c-4.8,7.2-13.7,8.4-30,10.3c0,0-29.1,3.4-52.7-5.6c-2.6-1-5.8-2.4-8.2-5.5"/>
	<g id="Layer_1_2_">
		<title>request1</title>
	</g>
	<g id="Layer_2_2_">
	</g>
	<g id="Layer_4">
	</g>
	<g id="Layer_4_1_" class="st5">
	</g>
</g>
</svg>
